<svg width="50" height="50" viewBox="0 0 50 50" fill="none" xmlns="http://www.w3.org/2000/svg">
<path d="M11.9537 29.4456C10.5412 30.8581 9.22143 32.1895 7.90161 33.5093C7.54271 33.8682 7.18381 34.2155 6.83649 34.5744C6.50075 34.9333 6.09554 35.0954 5.63245 34.9217C5.13462 34.7365 4.97254 34.3081 4.97254 33.8103C4.97254 33.0346 4.97254 32.2705 4.97254 31.4948C4.97254 31.3675 4.96096 31.2285 4.94938 31.0086C4.08108 31.0086 3.22436 30.997 2.35606 31.0086C1.8235 31.0202 1.33725 30.9623 1.09412 30.4066C0.839421 29.8277 1.14043 29.4225 1.53406 29.0288C3.01596 27.5585 4.47471 26.0766 5.96819 24.6179C6.24605 24.3516 6.33867 24.12 6.23447 23.7264C5.22724 19.9406 7.6006 16.0506 11.4327 15.2055C11.8958 15.1013 12.0116 14.9392 12 14.4877C11.9768 11.4197 12.0463 8.35168 11.9768 5.28368C11.919 2.70193 14.0029 0.988481 16.2605 1.00006C25.7886 1.06952 35.3284 1.02321 44.8565 1.02321C47.2762 1.02321 48.9549 2.71351 48.9549 5.13318C48.9549 12.3111 48.9549 19.4891 48.9549 26.6671C48.9549 27.6859 48.6423 27.9985 47.6004 28.01C46.269 28.01 44.9376 28.01 43.6062 28.01C43.421 28.01 43.2357 28.01 42.9926 28.01C42.9926 28.3226 42.9926 28.5658 42.9926 28.8205C42.9926 33.6829 42.9926 38.5454 42.9926 43.4079C42.9926 44.3573 42.9231 45.295 42.4716 46.1633C41.5338 47.9578 40.0635 48.9651 38.0259 48.9651C28.764 48.9766 19.5021 48.9303 10.2402 48.9998C7.61218 49.0229 5.11147 47.0895 4.99569 44.172C4.97254 43.5005 4.94938 42.8175 4.97254 42.146C4.99569 41.3472 5.37775 40.9998 6.17658 40.9998C8.08685 40.9998 9.99711 40.9998 11.9421 40.9998C11.9537 37.1562 11.9537 33.3819 11.9537 29.4456ZM14.026 40.9883C14.2807 40.9883 14.5007 40.9883 14.7323 40.9883C21.0651 40.9883 27.3863 40.9883 33.7191 40.9883C34.6453 40.9883 34.9579 41.3124 34.9811 42.227C34.9926 42.9796 34.9579 43.7321 35.0621 44.473C35.3284 46.4065 37.4818 47.5295 39.2415 46.6843C40.5729 46.0476 41.0013 44.913 40.9897 43.5005C40.9781 31.6916 40.9665 19.8943 40.9897 8.0854C40.9897 6.39511 40.6771 4.6585 41.4875 2.99136C40.4687 2.99136 39.5194 2.99136 38.57 2.99136C31.149 2.99136 23.7163 2.99136 16.2952 2.99136C14.8017 2.99136 14.0029 3.7902 13.9913 5.2721C13.9913 8.36326 13.9913 11.4428 13.9797 14.534C13.9797 14.8697 14.0029 15.0781 14.4312 15.1707C18.3791 16.0159 20.7641 19.8827 19.7452 23.7727C19.6526 24.1316 19.7337 24.3284 19.9768 24.5716C21.4819 26.065 22.9753 27.5701 24.4804 29.0636C24.8393 29.4225 25.1287 29.8045 24.9088 30.3371C24.6888 30.8812 24.2257 31.0086 23.6816 30.997C22.8017 30.9854 21.9218 30.997 20.984 30.997C20.984 31.8885 20.9725 32.6873 20.984 33.4977C20.9956 34.0766 20.984 34.6554 20.3357 34.9101C19.6989 35.1648 19.2937 34.7481 18.8885 34.3429C17.4182 32.861 15.9479 31.3906 14.466 29.9203C14.3386 29.793 14.1997 29.6656 14.0029 29.4919C14.026 33.3588 14.026 37.1446 14.026 40.9883ZM6.95227 43.0259C7.02173 43.6626 6.99858 44.2531 7.14908 44.7972C7.51956 46.1981 8.68887 46.9853 10.2981 46.9853C18.0086 46.9853 25.7307 46.9853 33.4413 46.9853C33.5802 46.9853 33.7307 46.9853 33.8581 46.9853C33.5918 46.3138 33.2792 45.7118 33.1287 45.0635C32.9782 44.4036 32.9782 43.7089 32.9203 43.0259C24.2836 43.0259 15.6932 43.0259 6.95227 43.0259ZM46.9868 26.0187C46.9868 25.7988 46.9868 25.6598 46.9868 25.5209C46.9868 18.7713 46.9868 12.0217 46.9868 5.2721C46.9868 5.1216 46.9868 4.95952 46.9636 4.80901C46.8479 3.99859 46.4195 3.40815 45.6438 3.13029C44.2777 2.63247 43.0042 3.62812 43.0042 5.19106C43.0042 11.9175 43.0042 18.6555 43.0042 25.382C43.0042 25.5672 43.0042 25.7525 43.0042 25.9608C43.1778 25.984 43.2936 26.0187 43.3978 26.0187C44.5671 26.0187 45.7364 26.0187 46.9868 26.0187ZM12.9725 26.9797C15.7511 26.9912 17.9855 24.7684 17.9855 22.013C17.9855 19.2691 15.7742 17.0231 13.0535 17.0115C10.2634 17 7.98265 19.2576 7.99423 22.013C8.00581 24.7452 10.2402 26.9681 12.9725 26.9797ZM6.987 31.3906C8.04054 30.3371 9.03619 29.3414 9.93923 28.4268C9.0825 27.7322 8.16789 26.9797 7.36905 26.3197C6.52391 27.1765 5.62087 28.1027 4.75257 28.9825C4.84519 28.9825 5.05358 28.9825 5.26197 28.9825C5.49352 28.9825 5.72507 28.971 5.95661 28.9941C6.6281 29.0404 6.96384 29.3993 6.987 30.0708C6.99858 30.5107 6.987 30.9507 6.987 31.3906ZM16.0058 28.3574C16.9898 29.3299 17.9971 30.3255 18.9927 31.298C18.9927 31.0317 18.9927 30.6613 18.9927 30.3024C18.9927 29.3299 19.3285 28.9941 20.3241 28.9825C20.6714 28.9825 21.0303 28.9825 21.4008 28.9825C20.4283 28.01 19.5253 27.107 18.6801 26.2619C18.2749 26.6208 17.8581 27.0491 17.395 27.4196C16.9204 27.7901 16.3994 28.0911 16.0058 28.3574Z" fill="#3A62FF"/>
<path d="M30.0259 13.0058C32.6309 13.0058 35.2358 13.0058 37.8407 13.0058C38.6742 13.0058 39.1952 13.631 38.9058 14.2909C38.79 14.5571 38.5006 14.7771 38.2343 14.9276C38.0491 15.0318 37.7828 15.0087 37.5512 15.0087C32.5151 15.0087 27.4789 15.0087 22.4544 15.0087C22.246 15.0087 22.026 15.0087 21.8176 14.9624C21.285 14.8582 20.9609 14.4414 20.9956 13.932C21.0188 13.4341 21.3892 13.0521 21.9334 12.9942C22.107 12.9826 22.2807 12.9826 22.4544 12.9826C24.9782 13.0058 27.5021 13.0058 30.0259 13.0058Z" fill="#3A62FF"/>
<path d="M31.0216 20.9942C33.2213 20.9942 35.421 20.9942 37.6207 20.9942C37.8291 20.9942 38.0491 20.9942 38.2459 21.0405C38.709 21.1562 38.9637 21.492 38.9752 21.9667C38.9868 22.4066 38.7784 22.7655 38.3385 22.9044C38.0838 22.9855 37.8059 22.997 37.5397 22.997C33.1634 22.997 28.7872 22.997 24.4109 22.997C24.2025 22.997 23.9826 22.997 23.7742 22.9507C23.2532 22.835 22.9406 22.395 22.9985 21.8856C23.0564 21.3531 23.3805 21.0636 23.9015 20.9942C24.0752 20.971 24.2488 20.9826 24.4225 20.9826C26.6338 20.9942 28.8219 20.9942 31.0216 20.9942Z" fill="#3A62FF"/>
<path d="M31.01 17C33.3023 17 35.5947 17 37.8986 17C38.4543 17 38.8363 17.2547 38.9521 17.7872C39.0679 18.2735 38.8479 18.6555 38.408 18.8755C38.2459 18.9565 38.0375 18.9797 37.8522 18.9797C33.2792 18.9797 28.7177 18.9913 24.1446 18.9797C23.4153 18.9797 22.9985 18.5745 23.0101 17.9609C23.0216 17.3473 23.45 16.9884 24.191 16.9884C26.4601 17 28.7409 17 31.01 17Z" fill="#3A62FF"/>
<path d="M32.9782 30.997C31.3573 30.997 29.7365 31.0317 28.1157 30.9738C27.7684 30.9623 27.3284 30.7191 27.1432 30.4297C26.9927 30.1982 27.039 29.6888 27.2011 29.4341C27.3516 29.1909 27.7684 29.0057 28.0694 28.9941C31.3458 28.9594 34.6222 28.971 37.8985 28.9825C38.57 28.9825 38.9984 29.4341 38.9752 30.0129C38.9521 30.5918 38.5121 30.9738 37.8291 30.9854C36.2198 31.0086 34.599 30.997 32.9782 30.997Z" fill="#3A62FF"/>
<path d="M33.0129 24.9883C34.599 24.9883 36.1735 24.9883 37.7596 24.9883C38.5237 24.9883 38.9868 25.3704 38.9868 25.984C38.9868 26.5976 38.5353 26.9797 37.7596 26.9797C34.5758 26.9797 31.4037 26.9797 28.2199 26.9797C27.4558 26.9797 26.9811 26.5976 26.9811 25.9956C26.9811 25.3936 27.4558 24.9999 28.2199 24.9883C29.8176 24.9883 31.4152 24.9883 33.0129 24.9883Z" fill="#3A62FF"/>
<path d="M20.463 6.99713C19.3632 6.99713 18.2633 6.99713 17.1635 6.99713C16.4689 6.99713 16.0289 6.62666 15.9942 6.05936C15.9595 5.4805 16.4225 4.99425 17.1172 4.99425C19.3748 4.97109 21.6324 4.97109 23.8899 4.99425C24.573 5.00582 25.0014 5.43419 25.0014 6.01305C25.0014 6.61508 24.5499 6.99713 23.8205 6.99713C22.6975 6.99713 21.5745 6.99713 20.463 6.99713Z" fill="#3A62FF"/>
<path d="M35.4905 38.9854C34.7032 38.9854 33.9044 38.9854 33.1171 38.9854C32.434 38.9738 32.0057 38.5917 31.9941 38.0129C31.9825 37.4456 32.3762 37.0056 33.0245 36.9941C34.6685 36.9709 36.3009 36.9593 37.9449 36.9941C38.6163 37.0056 39.0216 37.4803 38.9868 38.0592C38.9521 38.6149 38.5121 38.9854 37.8638 38.9854C37.0766 38.997 36.2777 38.9854 35.4905 38.9854Z" fill="#3A62FF"/>
<path d="M15.9826 22.013C15.9826 23.6685 14.6512 24.9883 13.0072 24.9999C11.3517 24.9999 9.97396 23.6338 9.99711 21.9782C10.0087 20.3342 11.3517 19.0029 12.9841 18.9913C14.6512 18.9797 15.9826 20.3342 15.9826 22.013ZM13.0072 21.0057C12.4515 20.9942 12.0232 21.4225 12.0116 21.9782C12 22.5224 12.4515 22.9855 12.9841 22.997C13.5051 23.0086 13.9797 22.5339 13.9913 22.013C13.9913 21.4688 13.5514 21.0173 13.0072 21.0057Z" fill="#3A62FF"/>
<path d="M11.9537 29.4456C10.5412 30.8581 9.22143 32.1895 7.90161 33.5093C7.54271 33.8682 7.18381 34.2155 6.83649 34.5744C6.50075 34.9333 6.09554 35.0954 5.63245 34.9217C5.13462 34.7365 4.97254 34.3081 4.97254 33.8103C4.97254 33.0346 4.97254 32.2705 4.97254 31.4948C4.97254 31.3675 4.96096 31.2285 4.94938 31.0086C4.08108 31.0086 3.22436 30.997 2.35606 31.0086C1.8235 31.0202 1.33725 30.9623 1.09412 30.4066C0.839421 29.8277 1.14043 29.4225 1.53406 29.0288C3.01596 27.5585 4.47471 26.0766 5.96819 24.6179C6.24605 24.3516 6.33867 24.12 6.23447 23.7264C5.22724 19.9406 7.6006 16.0506 11.4327 15.2055C11.8958 15.1013 12.0116 14.9392 12 14.4877C11.9768 11.4197 12.0463 8.35168 11.9768 5.28368C11.919 2.70193 14.0029 0.988481 16.2605 1.00006C25.7886 1.06952 35.3284 1.02321 44.8565 1.02321C47.2762 1.02321 48.9549 2.71351 48.9549 5.13318C48.9549 12.3111 48.9549 19.4891 48.9549 26.6671C48.9549 27.6859 48.6423 27.9985 47.6004 28.01C46.269 28.01 44.9376 28.01 43.6062 28.01C43.421 28.01 43.2357 28.01 42.9926 28.01C42.9926 28.3226 42.9926 28.5658 42.9926 28.8205C42.9926 33.6829 42.9926 38.5454 42.9926 43.4079C42.9926 44.3573 42.9231 45.295 42.4716 46.1633C41.5338 47.9578 40.0635 48.9651 38.0259 48.9651C28.764 48.9766 19.5021 48.9303 10.2402 48.9998C7.61218 49.0229 5.11147 47.0895 4.99569 44.172C4.97254 43.5005 4.94938 42.8175 4.97254 42.146C4.99569 41.3472 5.37775 40.9998 6.17658 40.9998C8.08685 40.9998 9.99711 40.9998 11.9421 40.9998C11.9537 37.1562 11.9537 33.3819 11.9537 29.4456ZM14.026 40.9883C14.2807 40.9883 14.5007 40.9883 14.7323 40.9883C21.0651 40.9883 27.3863 40.9883 33.7191 40.9883C34.6453 40.9883 34.9579 41.3124 34.9811 42.227C34.9926 42.9796 34.9579 43.7321 35.0621 44.473C35.3284 46.4065 37.4818 47.5295 39.2415 46.6843C40.5729 46.0476 41.0013 44.913 40.9897 43.5005C40.9781 31.6916 40.9665 19.8943 40.9897 8.0854C40.9897 6.39511 40.6771 4.6585 41.4875 2.99136C40.4687 2.99136 39.5194 2.99136 38.57 2.99136C31.149 2.99136 23.7163 2.99136 16.2952 2.99136C14.8017 2.99136 14.0029 3.7902 13.9913 5.2721C13.9913 8.36326 13.9913 11.4428 13.9797 14.534C13.9797 14.8697 14.0029 15.0781 14.4312 15.1707C18.3791 16.0159 20.7641 19.8827 19.7452 23.7727C19.6526 24.1316 19.7337 24.3284 19.9768 24.5716C21.4819 26.065 22.9753 27.5701 24.4804 29.0636C24.8393 29.4225 25.1287 29.8045 24.9088 30.3371C24.6888 30.8812 24.2257 31.0086 23.6816 30.997C22.8017 30.9854 21.9218 30.997 20.984 30.997C20.984 31.8885 20.9725 32.6873 20.984 33.4977C20.9956 34.0766 20.984 34.6554 20.3357 34.9101C19.6989 35.1648 19.2937 34.7481 18.8885 34.3429C17.4182 32.861 15.9479 31.3906 14.466 29.9203C14.3386 29.793 14.1997 29.6656 14.0029 29.4919C14.026 33.3588 14.026 37.1446 14.026 40.9883ZM6.95227 43.0259C7.02173 43.6626 6.99858 44.2531 7.14908 44.7972C7.51956 46.1981 8.68887 46.9853 10.2981 46.9853C18.0086 46.9853 25.7307 46.9853 33.4413 46.9853C33.5802 46.9853 33.7307 46.9853 33.8581 46.9853C33.5918 46.3138 33.2792 45.7118 33.1287 45.0635C32.9782 44.4036 32.9782 43.7089 32.9203 43.0259C24.2836 43.0259 15.6932 43.0259 6.95227 43.0259ZM46.9868 26.0187C46.9868 25.7988 46.9868 25.6598 46.9868 25.5209C46.9868 18.7713 46.9868 12.0217 46.9868 5.2721C46.9868 5.1216 46.9868 4.95952 46.9636 4.80901C46.8479 3.99859 46.4195 3.40815 45.6438 3.13029C44.2777 2.63247 43.0042 3.62812 43.0042 5.19106C43.0042 11.9175 43.0042 18.6555 43.0042 25.382C43.0042 25.5672 43.0042 25.7525 43.0042 25.9608C43.1778 25.984 43.2936 26.0187 43.3978 26.0187C44.5671 26.0187 45.7364 26.0187 46.9868 26.0187ZM12.9725 26.9797C15.7511 26.9912 17.9855 24.7684 17.9855 22.013C17.9855 19.2691 15.7742 17.0231 13.0535 17.0115C10.2634 17 7.98265 19.2576 7.99423 22.013C8.00581 24.7452 10.2402 26.9681 12.9725 26.9797ZM6.987 31.3906C8.04054 30.3371 9.03619 29.3414 9.93923 28.4268C9.0825 27.7322 8.16789 26.9797 7.36905 26.3197C6.52391 27.1765 5.62087 28.1027 4.75257 28.9825C4.84519 28.9825 5.05358 28.9825 5.26197 28.9825C5.49352 28.9825 5.72507 28.971 5.95661 28.9941C6.6281 29.0404 6.96384 29.3993 6.987 30.0708C6.99858 30.5107 6.987 30.9507 6.987 31.3906ZM16.0058 28.3574C16.9898 29.3299 17.9971 30.3255 18.9927 31.298C18.9927 31.0317 18.9927 30.6613 18.9927 30.3024C18.9927 29.3299 19.3285 28.9941 20.3241 28.9825C20.6714 28.9825 21.0303 28.9825 21.4008 28.9825C20.4283 28.01 19.5253 27.107 18.6801 26.2619C18.2749 26.6208 17.8581 27.0491 17.395 27.4196C16.9204 27.7901 16.3994 28.0911 16.0058 28.3574Z" stroke="#3A62FF" stroke-width="0.5"/>
<path d="M30.0259 13.0058C32.6309 13.0058 35.2358 13.0058 37.8407 13.0058C38.6742 13.0058 39.1952 13.631 38.9058 14.2909C38.79 14.5571 38.5006 14.7771 38.2343 14.9276C38.0491 15.0318 37.7828 15.0087 37.5512 15.0087C32.5151 15.0087 27.4789 15.0087 22.4544 15.0087C22.246 15.0087 22.026 15.0087 21.8176 14.9624C21.285 14.8582 20.9609 14.4414 20.9956 13.932C21.0188 13.4341 21.3892 13.0521 21.9334 12.9942C22.107 12.9826 22.2807 12.9826 22.4544 12.9826C24.9782 13.0058 27.5021 13.0058 30.0259 13.0058Z" stroke="#3A62FF" stroke-width="0.5"/>
<path d="M31.0216 20.9942C33.2213 20.9942 35.421 20.9942 37.6207 20.9942C37.8291 20.9942 38.0491 20.9942 38.2459 21.0405C38.709 21.1562 38.9637 21.492 38.9752 21.9667C38.9868 22.4066 38.7784 22.7655 38.3385 22.9044C38.0838 22.9855 37.8059 22.997 37.5397 22.997C33.1634 22.997 28.7872 22.997 24.4109 22.997C24.2025 22.997 23.9826 22.997 23.7742 22.9507C23.2532 22.835 22.9406 22.395 22.9985 21.8856C23.0564 21.3531 23.3805 21.0636 23.9015 20.9942C24.0752 20.971 24.2488 20.9826 24.4225 20.9826C26.6338 20.9942 28.8219 20.9942 31.0216 20.9942Z" stroke="#3A62FF" stroke-width="0.5"/>
<path d="M31.01 17C33.3023 17 35.5947 17 37.8986 17C38.4543 17 38.8363 17.2547 38.9521 17.7872C39.0679 18.2735 38.8479 18.6555 38.408 18.8755C38.2459 18.9565 38.0375 18.9797 37.8522 18.9797C33.2792 18.9797 28.7177 18.9913 24.1446 18.9797C23.4153 18.9797 22.9985 18.5745 23.0101 17.9609C23.0216 17.3473 23.45 16.9884 24.191 16.9884C26.4601 17 28.7409 17 31.01 17Z" stroke="#3A62FF" stroke-width="0.5"/>
<path d="M32.9782 30.997C31.3573 30.997 29.7365 31.0317 28.1157 30.9738C27.7684 30.9623 27.3284 30.7191 27.1432 30.4297C26.9927 30.1982 27.039 29.6888 27.2011 29.4341C27.3516 29.1909 27.7684 29.0057 28.0694 28.9941C31.3458 28.9594 34.6222 28.971 37.8985 28.9825C38.57 28.9825 38.9984 29.4341 38.9752 30.0129C38.9521 30.5918 38.5121 30.9738 37.8291 30.9854C36.2198 31.0086 34.599 30.997 32.9782 30.997Z" stroke="#3A62FF" stroke-width="0.5"/>
<path d="M33.0129 24.9883C34.599 24.9883 36.1735 24.9883 37.7596 24.9883C38.5237 24.9883 38.9868 25.3704 38.9868 25.984C38.9868 26.5976 38.5353 26.9797 37.7596 26.9797C34.5758 26.9797 31.4037 26.9797 28.2199 26.9797C27.4558 26.9797 26.9811 26.5976 26.9811 25.9956C26.9811 25.3936 27.4558 24.9999 28.2199 24.9883C29.8176 24.9883 31.4152 24.9883 33.0129 24.9883Z" stroke="#3A62FF" stroke-width="0.5"/>
<path d="M20.463 6.99713C19.3632 6.99713 18.2633 6.99713 17.1635 6.99713C16.4689 6.99713 16.0289 6.62666 15.9942 6.05936C15.9595 5.4805 16.4225 4.99425 17.1172 4.99425C19.3748 4.97109 21.6324 4.97109 23.8899 4.99425C24.573 5.00582 25.0014 5.43419 25.0014 6.01305C25.0014 6.61508 24.5499 6.99713 23.8205 6.99713C22.6975 6.99713 21.5745 6.99713 20.463 6.99713Z" stroke="#3A62FF" stroke-width="0.5"/>
<path d="M35.4905 38.9854C34.7032 38.9854 33.9044 38.9854 33.1171 38.9854C32.434 38.9738 32.0057 38.5917 31.9941 38.0129C31.9825 37.4456 32.3762 37.0056 33.0245 36.9941C34.6685 36.9709 36.3009 36.9593 37.9449 36.9941C38.6163 37.0056 39.0216 37.4803 38.9868 38.0592C38.9521 38.6149 38.5121 38.9854 37.8638 38.9854C37.0766 38.997 36.2777 38.9854 35.4905 38.9854Z" stroke="#3A62FF" stroke-width="0.5"/>
<path d="M15.9826 22.013C15.9826 23.6685 14.6512 24.9883 13.0072 24.9999C11.3517 24.9999 9.97396 23.6338 9.99711 21.9782C10.0087 20.3342 11.3517 19.0029 12.9841 18.9913C14.6512 18.9797 15.9826 20.3342 15.9826 22.013ZM13.0072 21.0057C12.4515 20.9942 12.0232 21.4225 12.0116 21.9782C12 22.5224 12.4515 22.9855 12.9841 22.997C13.5051 23.0086 13.9797 22.5339 13.9913 22.013C13.9913 21.4688 13.5514 21.0173 13.0072 21.0057Z" stroke="#3A62FF" stroke-width="0.5"/>
</svg>
