<svg width="54" height="50" viewBox="0 0 54 50" fill="none" xmlns="http://www.w3.org/2000/svg">
<path d="M20.2626 47.8955C20.4386 46.8652 20.6353 45.7412 20.8217 44.6172C20.9563 43.8159 21.0806 43.0145 21.2359 42.2131C21.298 41.9113 21.2462 41.7136 21.0081 41.495C19.6827 40.2253 18.3885 38.9348 17.0735 37.6547C16.7525 37.3425 16.535 37.0094 16.6593 36.5515C16.7939 36.0728 17.1874 35.9167 17.6429 35.8542C19.4135 35.6045 21.1841 35.3235 22.965 35.0841C23.3378 35.0321 23.5345 34.8968 23.7002 34.5637C24.4768 32.9402 25.2947 31.3374 26.0817 29.7243C26.2784 29.3184 26.5165 28.9542 27.0239 28.9542C27.5209 28.9542 27.7694 29.2768 27.9765 29.7035C28.7738 31.3374 29.5918 32.9506 30.389 34.5949C30.5444 34.9176 30.7307 35.0425 31.0828 35.0945C32.8948 35.3339 34.6964 35.6149 36.4981 35.875C36.964 35.9375 37.3368 36.104 37.4714 36.5932C37.606 37.0615 37.3575 37.3841 37.0468 37.6859C35.7422 38.9452 34.4479 40.2253 33.1329 41.4742C32.8948 41.7032 32.8119 41.9113 32.8741 42.2339C33.1847 43.9407 33.4643 45.6476 33.7542 47.3544C33.7749 47.4897 33.7956 47.6249 33.8163 47.7602C33.8784 48.1765 33.8267 48.572 33.4435 48.8218C33.0708 49.0612 32.698 48.9883 32.3149 48.7906C30.6686 47.9164 29.0326 47.0421 27.3759 46.1887C27.1896 46.0951 26.8789 46.0951 26.6926 46.1887C25.0255 47.0421 23.3689 47.9372 21.7018 48.8114C20.9563 49.2069 20.2522 48.801 20.2626 47.8955ZM19.6517 37.4361C19.5999 37.509 19.5481 37.5819 19.4964 37.6547C19.662 37.7484 19.8691 37.8004 20.0037 37.9357C20.9356 38.8307 21.8468 39.757 22.789 40.652C23.1307 40.9851 23.2653 41.3285 23.1825 41.8072C22.9754 42.952 22.789 44.0969 22.6026 45.2417C22.5405 45.5851 22.4991 45.9286 22.437 46.3657C23.7934 45.6476 25.0669 45.0127 26.3095 44.305C26.8789 43.9824 27.3552 44.024 27.904 44.3362C29.1362 45.0231 30.389 45.658 31.6937 46.3553C31.6833 46.1367 31.6833 45.9806 31.6626 45.8349C31.4452 44.534 31.2381 43.233 30.9792 41.9529C30.8653 41.4014 30.9792 40.9955 31.4038 40.6104C32.0768 40.0068 32.698 39.3615 33.34 38.7371C33.7438 38.3416 34.158 37.9669 34.6343 37.5194C34.4272 37.4466 34.3547 37.4153 34.2719 37.4049C32.988 37.2176 31.7144 37.0199 30.4305 36.8637C29.7574 36.7805 29.2501 36.5619 28.9912 35.8855C28.8566 35.5108 28.6599 35.1673 28.4839 34.8135C28.0283 33.8872 27.5727 32.9714 27.086 31.9827C26.3923 33.3877 25.7193 34.7198 25.0669 36.052C24.8495 36.4891 24.5492 36.7597 24.0522 36.8117C23.431 36.8742 22.8201 36.9886 22.2092 37.0719C21.3394 37.1864 20.4904 37.3113 19.6517 37.4361Z" fill="#3A62FF"/>
<path d="M40.2463 32.3365C40.2463 32.9714 39.9046 33.3773 39.418 33.4189C38.8795 33.4501 38.4757 33.0963 38.4032 32.4718C38.2169 30.9732 38.0305 29.4849 37.8752 27.9863C37.6577 25.9776 37.461 23.9586 37.2332 21.9396C36.9329 19.3169 34.5722 16.9961 31.9318 16.6527C28.546 16.2051 25.1601 16.2468 21.7743 16.6735C19.1443 17.0065 16.9699 19.1921 16.6489 21.9084C16.3072 24.8537 16.0277 27.7989 15.7171 30.7442C15.6549 31.3478 15.5928 31.9515 15.51 32.5551C15.4271 33.1691 14.9923 33.5126 14.4435 33.4397C13.9465 33.3669 13.6151 32.8985 13.6773 32.3261C13.9982 29.4641 14.3089 26.6125 14.6402 23.7505C14.7645 22.6681 14.8369 21.5649 15.1061 20.5242C15.9034 17.3708 18.7819 15.0812 22.0228 14.7897C24.6735 14.5504 27.3242 14.3526 29.9749 14.6232C31.1656 14.7377 32.3978 14.8418 33.5367 15.1748C36.8087 16.1531 38.9727 19.1921 39.1487 22.6265C39.2523 24.5727 39.5629 26.5188 39.7804 28.4546C39.9357 29.7555 40.1013 31.0773 40.2463 32.3365Z" fill="#3A62FF"/>
<path d="M3.73717 47.958C3.96496 46.5946 4.1824 45.2104 4.43091 43.8367C4.48268 43.5453 4.43091 43.3579 4.21347 43.1602C3.30229 42.2964 2.40147 41.4013 1.50065 40.5271C1.15896 40.2045 0.889748 39.8507 1.04506 39.3407C1.20038 38.8515 1.60419 38.7267 2.04943 38.6538C3.29194 38.4665 4.53445 38.2791 5.78731 38.1022C6.1083 38.0606 6.30503 37.9357 6.44999 37.6339C6.99876 36.4787 7.58896 35.3339 8.13773 34.1891C8.33446 33.7936 8.57261 33.4605 9.04891 33.4501C9.54591 33.4501 9.81512 33.7624 10.0222 34.1786C10.5813 35.3339 11.1612 36.4787 11.6996 37.6339C11.8446 37.9461 12.0309 38.0502 12.3623 38.1022C13.6773 38.2791 14.9923 38.4665 16.2865 38.7163C16.5868 38.7787 16.9181 39.0493 17.0838 39.3303C17.3013 39.6841 17.1045 40.0692 16.8042 40.3502C15.8517 41.2765 14.8991 42.2131 13.9361 43.129C13.7187 43.3371 13.6358 43.514 13.698 43.8471C13.9361 45.0647 14.1536 46.2928 14.3192 47.5313C14.371 47.8955 14.3089 48.3326 14.1432 48.6553C13.9465 49.0508 13.4288 49.082 12.9421 48.8218C11.8135 48.2286 10.6745 47.6562 9.56662 47.0317C9.18351 46.8132 8.89359 46.8444 8.52084 47.0421C7.40258 47.6562 6.27396 48.2598 5.14535 48.8426C4.42055 49.2277 3.6854 48.7698 3.73717 47.958ZM13.9879 40.2253C13.2527 40.1212 12.383 39.9755 11.4925 39.8715C10.9541 39.809 10.5606 39.5905 10.3328 39.0701C10.0533 38.4248 9.72193 37.79 9.40095 37.1552C9.30776 36.9678 9.20422 36.7805 9.06962 36.5099C8.74863 37.1656 8.47942 37.7067 8.21021 38.2479C7.36116 39.9131 7.73392 39.7258 5.76661 39.9964C5.17641 40.0796 4.59657 40.1733 3.86142 40.2878C4.64835 41.0579 5.31102 41.7344 5.9944 42.3796C6.34644 42.7127 6.42928 43.0873 6.33609 43.5557C6.16007 44.4715 6.02546 45.3874 5.84944 46.3865C6.73991 45.9181 7.54754 45.5123 8.34482 45.0751C8.84182 44.7941 9.29741 44.7837 9.80477 45.0751C10.5606 45.5123 11.3476 45.8973 12.2173 46.3553C12.0516 45.3457 11.9274 44.4403 11.741 43.5453C11.6271 42.9729 11.8342 42.5982 12.2173 42.2131C12.8489 41.5679 13.4081 40.881 13.9879 40.2253Z" fill="#3A62FF"/>
<path d="M39.7079 47.8019C39.915 46.5738 40.1635 45.2104 40.3602 43.8367C40.3913 43.6285 40.2981 43.3267 40.1428 43.1706C39.2005 42.2027 38.2169 41.2765 37.2746 40.319C36.7362 39.7674 36.8708 38.9972 37.5335 38.7579C37.7613 38.6746 37.9994 38.6538 38.2376 38.6226C39.4283 38.4457 40.6294 38.2791 41.8098 38.071C42.0065 38.0398 42.2343 37.842 42.3275 37.6651C42.9384 36.4995 43.5079 35.3235 44.0877 34.137C44.2741 33.7519 44.533 33.4605 44.9782 33.4501C45.4441 33.4501 45.7237 33.7415 45.9204 34.1474C46.4796 35.3026 47.049 36.4475 47.6082 37.6027C47.7531 37.9149 47.9395 38.0606 48.3019 38.1126C49.5858 38.2791 50.8594 38.4977 52.133 38.685C52.5575 38.7475 52.8992 38.914 53.0338 39.3407C53.1891 39.7986 52.9717 40.1421 52.6507 40.4439C51.7188 41.3493 50.7869 42.2443 49.8861 43.181C49.7412 43.3371 49.6376 43.6285 49.6687 43.8471C49.8551 45.148 50.0725 46.4489 50.3003 47.7394C50.3728 48.1661 50.3417 48.5408 49.9793 48.8114C49.6066 49.1028 49.2027 49.0195 48.8093 48.8114C47.7014 48.2182 46.5831 47.6458 45.4752 47.0421C45.1335 46.8548 44.8747 46.834 44.533 47.0317C43.4043 47.6666 42.255 48.2598 41.1057 48.853C40.3498 49.2277 39.6665 48.7906 39.7079 47.8019ZM45.0093 36.4891C44.564 37.3841 44.1395 38.1543 43.7978 38.9556C43.539 39.5592 43.1248 39.8194 42.5035 39.8819C41.6545 39.9651 40.8054 40.1212 39.9357 40.2461C40.588 40.9226 41.1575 41.5887 41.8098 42.1715C42.2964 42.6086 42.4103 43.0769 42.2757 43.7014C42.0997 44.5548 41.9755 45.4082 41.8305 46.3448C42.5967 45.939 43.3112 45.6371 43.9531 45.2104C44.6986 44.7109 45.3613 44.7525 46.0965 45.2208C46.7384 45.6267 47.4425 45.939 48.1984 46.3344C48.0534 45.4498 47.9809 44.6589 47.7842 43.8887C47.5771 43.0978 47.7738 42.5358 48.3744 42.005C48.9749 41.4846 49.503 40.8706 50.1036 40.2461C49.2442 40.1212 48.4365 39.9547 47.6185 39.8923C46.873 39.8402 46.4278 39.4968 46.1482 38.8099C45.8169 38.0606 45.4234 37.3425 45.0093 36.4891Z" fill="#3A62FF"/>
<path d="M26.8893 1C30.1405 1.02081 32.667 2.99821 33.1536 6.07879C33.5057 8.26433 32.7912 10.2209 31.4452 11.9381C30.7411 12.8436 29.8713 13.5409 28.7945 13.9467C27.0964 14.592 25.4397 14.4463 23.9694 13.3952C21.4637 11.6155 20.2833 9.14896 20.6767 6.05797C20.9977 3.52899 22.9857 1.61403 25.5536 1.15611C25.9885 1.08326 26.4441 1.05204 26.8893 1ZM31.383 6.99464C31.3106 5.41272 30.6168 4.21587 29.395 3.51858C28.3596 2.93577 27.2413 2.77966 26.1024 2.94618C23.9798 3.2584 22.468 4.76746 22.4473 6.85934C22.4266 9.03448 23.3481 10.7413 25.1394 11.9381C26.1127 12.5938 27.2103 12.6562 28.2975 12.1567C30.037 11.3449 31.4762 8.9304 31.383 6.99464Z" fill="#3A62FF"/>
<path d="M21.0702 26.4876C20.9356 28.4442 20.801 30.4008 20.6664 32.347C20.6353 32.8257 20.4697 33.2316 19.9519 33.3773C19.5481 33.4918 19.1961 33.3669 19.0097 33.0338C18.8647 32.7841 18.813 32.4406 18.8337 32.1492C18.9683 29.8284 19.134 27.5179 19.2893 25.1971C19.3307 24.5935 19.3617 23.9898 19.4239 23.3862C19.4964 22.6785 19.9002 22.3039 20.4697 22.3559C21.0081 22.4079 21.3291 22.8554 21.2876 23.5319C21.2255 24.5102 21.1427 25.4989 21.0702 26.4876Z" fill="#3A62FF"/>
<path d="M35.0692 32.5031C35.0795 32.9298 34.7585 33.3773 34.2201 33.4189C33.661 33.4605 33.2572 33.0338 33.2054 32.347C33.0087 29.5162 32.8016 26.6749 32.6049 23.8441C32.5945 23.6568 32.5738 23.4591 32.5841 23.2717C32.6049 22.7514 32.9258 22.3975 33.3918 22.3455C33.8681 22.2934 34.303 22.6057 34.3858 23.126C34.4583 23.5631 34.4686 24.0211 34.4997 24.4686C34.6964 27.06 34.8724 29.6514 35.0692 32.5031Z" fill="#3A62FF"/>
<path d="M20.2626 47.8955C20.4386 46.8652 20.6353 45.7412 20.8217 44.6172C20.9563 43.8159 21.0806 43.0145 21.2359 42.2131C21.298 41.9113 21.2462 41.7136 21.0081 41.495C19.6827 40.2253 18.3885 38.9348 17.0735 37.6547C16.7525 37.3425 16.535 37.0094 16.6593 36.5515C16.7939 36.0728 17.1874 35.9167 17.6429 35.8542C19.4135 35.6045 21.1841 35.3235 22.965 35.0841C23.3378 35.0321 23.5345 34.8968 23.7002 34.5637C24.4768 32.9402 25.2947 31.3374 26.0817 29.7243C26.2784 29.3184 26.5165 28.9542 27.0239 28.9542C27.5209 28.9542 27.7694 29.2768 27.9765 29.7035C28.7738 31.3374 29.5918 32.9506 30.389 34.5949C30.5444 34.9176 30.7307 35.0425 31.0828 35.0945C32.8948 35.3339 34.6964 35.6149 36.4981 35.875C36.964 35.9375 37.3368 36.104 37.4714 36.5932C37.606 37.0615 37.3575 37.3841 37.0468 37.6859C35.7422 38.9452 34.4479 40.2253 33.1329 41.4742C32.8948 41.7032 32.8119 41.9113 32.8741 42.2339C33.1847 43.9407 33.4643 45.6476 33.7542 47.3544C33.7749 47.4897 33.7956 47.6249 33.8163 47.7602C33.8784 48.1765 33.8267 48.572 33.4435 48.8218C33.0708 49.0612 32.698 48.9883 32.3149 48.7906C30.6686 47.9164 29.0326 47.0421 27.3759 46.1887C27.1896 46.0951 26.8789 46.0951 26.6926 46.1887C25.0255 47.0421 23.3689 47.9372 21.7018 48.8114C20.9563 49.2069 20.2522 48.801 20.2626 47.8955ZM19.6517 37.4361C19.5999 37.509 19.5481 37.5819 19.4964 37.6547C19.662 37.7484 19.8691 37.8004 20.0037 37.9357C20.9356 38.8307 21.8468 39.757 22.789 40.652C23.1307 40.9851 23.2653 41.3285 23.1825 41.8072C22.9754 42.952 22.789 44.0969 22.6026 45.2417C22.5405 45.5851 22.4991 45.9286 22.437 46.3657C23.7934 45.6476 25.0669 45.0127 26.3095 44.305C26.8789 43.9824 27.3552 44.024 27.904 44.3362C29.1362 45.0231 30.389 45.658 31.6937 46.3553C31.6833 46.1367 31.6833 45.9806 31.6626 45.8349C31.4452 44.534 31.2381 43.233 30.9792 41.9529C30.8653 41.4014 30.9792 40.9955 31.4038 40.6104C32.0768 40.0068 32.698 39.3615 33.34 38.7371C33.7438 38.3416 34.158 37.9669 34.6343 37.5194C34.4272 37.4466 34.3547 37.4153 34.2719 37.4049C32.988 37.2176 31.7144 37.0199 30.4305 36.8637C29.7574 36.7805 29.2501 36.5619 28.9912 35.8855C28.8566 35.5108 28.6599 35.1673 28.4839 34.8135C28.0283 33.8872 27.5727 32.9714 27.086 31.9827C26.3923 33.3877 25.7193 34.7198 25.0669 36.052C24.8495 36.4891 24.5492 36.7597 24.0522 36.8117C23.431 36.8742 22.8201 36.9886 22.2092 37.0719C21.3394 37.1864 20.4904 37.3113 19.6517 37.4361Z" stroke="#3A62FF"/>
<path d="M40.2463 32.3365C40.2463 32.9714 39.9046 33.3773 39.418 33.4189C38.8795 33.4501 38.4757 33.0963 38.4032 32.4718C38.2169 30.9732 38.0305 29.4849 37.8752 27.9863C37.6577 25.9776 37.461 23.9586 37.2332 21.9396C36.9329 19.3169 34.5722 16.9961 31.9318 16.6527C28.546 16.2051 25.1601 16.2468 21.7743 16.6735C19.1443 17.0065 16.9699 19.1921 16.6489 21.9084C16.3072 24.8537 16.0277 27.7989 15.7171 30.7442C15.6549 31.3478 15.5928 31.9515 15.51 32.5551C15.4271 33.1691 14.9923 33.5126 14.4435 33.4397C13.9465 33.3669 13.6151 32.8985 13.6773 32.3261C13.9982 29.4641 14.3089 26.6125 14.6402 23.7505C14.7645 22.6681 14.8369 21.5649 15.1061 20.5242C15.9034 17.3708 18.7819 15.0812 22.0228 14.7897C24.6735 14.5504 27.3242 14.3526 29.9749 14.6232C31.1656 14.7377 32.3978 14.8418 33.5367 15.1748C36.8087 16.1531 38.9727 19.1921 39.1487 22.6265C39.2523 24.5727 39.5629 26.5188 39.7804 28.4546C39.9357 29.7555 40.1013 31.0773 40.2463 32.3365Z" stroke="#3A62FF"/>
<path d="M3.73717 47.958C3.96496 46.5946 4.1824 45.2104 4.43091 43.8367C4.48268 43.5453 4.43091 43.3579 4.21347 43.1602C3.30229 42.2964 2.40147 41.4013 1.50065 40.5271C1.15896 40.2045 0.889748 39.8507 1.04506 39.3407C1.20038 38.8515 1.60419 38.7267 2.04943 38.6538C3.29194 38.4665 4.53445 38.2791 5.78731 38.1022C6.1083 38.0606 6.30503 37.9357 6.44999 37.6339C6.99876 36.4787 7.58896 35.3339 8.13773 34.1891C8.33446 33.7936 8.57261 33.4605 9.04891 33.4501C9.54591 33.4501 9.81512 33.7624 10.0222 34.1786C10.5813 35.3339 11.1612 36.4787 11.6996 37.6339C11.8446 37.9461 12.0309 38.0502 12.3623 38.1022C13.6773 38.2791 14.9923 38.4665 16.2865 38.7163C16.5868 38.7787 16.9181 39.0493 17.0838 39.3303C17.3013 39.6841 17.1045 40.0692 16.8042 40.3502C15.8517 41.2765 14.8991 42.2131 13.9361 43.129C13.7187 43.3371 13.6358 43.514 13.698 43.8471C13.9361 45.0647 14.1536 46.2928 14.3192 47.5313C14.371 47.8955 14.3089 48.3326 14.1432 48.6553C13.9465 49.0508 13.4288 49.082 12.9421 48.8218C11.8135 48.2286 10.6745 47.6562 9.56662 47.0317C9.18351 46.8132 8.89359 46.8444 8.52084 47.0421C7.40258 47.6562 6.27396 48.2598 5.14535 48.8426C4.42055 49.2277 3.6854 48.7698 3.73717 47.958ZM13.9879 40.2253C13.2527 40.1212 12.383 39.9755 11.4925 39.8715C10.9541 39.809 10.5606 39.5905 10.3328 39.0701C10.0533 38.4248 9.72193 37.79 9.40095 37.1552C9.30776 36.9678 9.20422 36.7805 9.06962 36.5099C8.74863 37.1656 8.47942 37.7067 8.21021 38.2479C7.36116 39.9131 7.73392 39.7258 5.76661 39.9964C5.17641 40.0796 4.59657 40.1733 3.86142 40.2878C4.64835 41.0579 5.31102 41.7344 5.9944 42.3796C6.34644 42.7127 6.42928 43.0873 6.33609 43.5557C6.16007 44.4715 6.02546 45.3874 5.84944 46.3865C6.73991 45.9181 7.54754 45.5123 8.34482 45.0751C8.84182 44.7941 9.29741 44.7837 9.80477 45.0751C10.5606 45.5123 11.3476 45.8973 12.2173 46.3553C12.0516 45.3457 11.9274 44.4403 11.741 43.5453C11.6271 42.9729 11.8342 42.5982 12.2173 42.2131C12.8489 41.5679 13.4081 40.881 13.9879 40.2253Z" stroke="#3A62FF"/>
<path d="M39.7079 47.8019C39.915 46.5738 40.1635 45.2104 40.3602 43.8367C40.3913 43.6285 40.2981 43.3267 40.1428 43.1706C39.2005 42.2027 38.2169 41.2765 37.2746 40.319C36.7362 39.7674 36.8708 38.9972 37.5335 38.7579C37.7613 38.6746 37.9994 38.6538 38.2376 38.6226C39.4283 38.4457 40.6294 38.2791 41.8098 38.071C42.0065 38.0398 42.2343 37.842 42.3275 37.6651C42.9384 36.4995 43.5079 35.3235 44.0877 34.137C44.2741 33.7519 44.533 33.4605 44.9782 33.4501C45.4441 33.4501 45.7237 33.7415 45.9204 34.1474C46.4796 35.3026 47.049 36.4475 47.6082 37.6027C47.7531 37.9149 47.9395 38.0606 48.3019 38.1126C49.5858 38.2791 50.8594 38.4977 52.133 38.685C52.5575 38.7475 52.8992 38.914 53.0338 39.3407C53.1891 39.7986 52.9717 40.1421 52.6507 40.4439C51.7188 41.3493 50.7869 42.2443 49.8861 43.181C49.7412 43.3371 49.6376 43.6285 49.6687 43.8471C49.8551 45.148 50.0725 46.4489 50.3003 47.7394C50.3728 48.1661 50.3417 48.5408 49.9793 48.8114C49.6066 49.1028 49.2027 49.0195 48.8093 48.8114C47.7014 48.2182 46.5831 47.6458 45.4752 47.0421C45.1335 46.8548 44.8747 46.834 44.533 47.0317C43.4043 47.6666 42.255 48.2598 41.1057 48.853C40.3498 49.2277 39.6665 48.7906 39.7079 47.8019ZM45.0093 36.4891C44.564 37.3841 44.1395 38.1543 43.7978 38.9556C43.539 39.5592 43.1248 39.8194 42.5035 39.8819C41.6545 39.9651 40.8054 40.1212 39.9357 40.2461C40.588 40.9226 41.1575 41.5887 41.8098 42.1715C42.2964 42.6086 42.4103 43.0769 42.2757 43.7014C42.0997 44.5548 41.9755 45.4082 41.8305 46.3448C42.5967 45.939 43.3112 45.6371 43.9531 45.2104C44.6986 44.7109 45.3613 44.7525 46.0965 45.2208C46.7384 45.6267 47.4425 45.939 48.1984 46.3344C48.0534 45.4498 47.9809 44.6589 47.7842 43.8887C47.5771 43.0978 47.7738 42.5358 48.3744 42.005C48.9749 41.4846 49.503 40.8706 50.1036 40.2461C49.2442 40.1212 48.4365 39.9547 47.6185 39.8923C46.873 39.8402 46.4278 39.4968 46.1482 38.8099C45.8169 38.0606 45.4234 37.3425 45.0093 36.4891Z" stroke="#3A62FF"/>
<path d="M26.8893 1C30.1405 1.02081 32.667 2.99821 33.1536 6.07879C33.5057 8.26433 32.7912 10.2209 31.4452 11.9381C30.7411 12.8436 29.8713 13.5409 28.7945 13.9467C27.0964 14.592 25.4397 14.4463 23.9694 13.3952C21.4637 11.6155 20.2833 9.14896 20.6767 6.05797C20.9977 3.52899 22.9857 1.61403 25.5536 1.15611C25.9885 1.08326 26.4441 1.05204 26.8893 1ZM31.383 6.99464C31.3106 5.41272 30.6168 4.21587 29.395 3.51858C28.3596 2.93577 27.2413 2.77966 26.1024 2.94618C23.9798 3.2584 22.468 4.76746 22.4473 6.85934C22.4266 9.03448 23.3481 10.7413 25.1394 11.9381C26.1127 12.5938 27.2103 12.6562 28.2975 12.1567C30.037 11.3449 31.4762 8.9304 31.383 6.99464Z" stroke="#3A62FF"/>
<path d="M21.0702 26.4876C20.9356 28.4442 20.801 30.4008 20.6664 32.347C20.6353 32.8257 20.4697 33.2316 19.9519 33.3773C19.5481 33.4918 19.1961 33.3669 19.0097 33.0338C18.8647 32.7841 18.813 32.4406 18.8337 32.1492C18.9683 29.8284 19.134 27.5179 19.2893 25.1971C19.3307 24.5935 19.3617 23.9898 19.4239 23.3862C19.4964 22.6785 19.9002 22.3039 20.4697 22.3559C21.0081 22.4079 21.3291 22.8554 21.2876 23.5319C21.2255 24.5102 21.1427 25.4989 21.0702 26.4876Z" stroke="#3A62FF"/>
<path d="M35.0692 32.5031C35.0795 32.9298 34.7585 33.3773 34.2201 33.4189C33.661 33.4605 33.2572 33.0338 33.2054 32.347C33.0087 29.5162 32.8016 26.6749 32.6049 23.8441C32.5945 23.6568 32.5738 23.4591 32.5841 23.2717C32.6049 22.7514 32.9258 22.3975 33.3918 22.3455C33.8681 22.2934 34.303 22.6057 34.3858 23.126C34.4583 23.5631 34.4686 24.0211 34.4997 24.4686C34.6964 27.06 34.8724 29.6514 35.0692 32.5031Z" stroke="#3A62FF"/>
</svg>
