<svg width="46" height="46" viewBox="0 0 46 46" fill="none" xmlns="http://www.w3.org/2000/svg">
<path d="M7.457 6.50323C7.457 5.72304 7.40498 4.97257 7.46443 4.24439C7.62789 2.4611 9.13626 1.08649 10.9567 1.01218C12.7474 0.937878 14.3895 2.22333 14.6645 3.99176C14.7833 4.74223 14.7239 5.52242 14.7536 6.28775C14.7536 6.34719 14.7611 6.40663 14.7685 6.48094C16.2917 6.48094 17.7926 6.48094 19.3456 6.48094C19.3456 5.88651 19.3456 5.30694 19.3456 4.7348C19.3456 2.76575 20.7722 1.18308 22.6744 1.01961C24.5691 0.856144 26.2484 2.14903 26.6051 4.0512C26.6497 4.28898 26.6497 4.54161 26.6497 4.79424C26.6571 5.35152 26.6497 5.90137 26.6497 6.50323C27.4298 6.50323 28.1803 6.50323 28.9382 6.50323C29.6887 6.50323 30.4466 6.50323 31.2416 6.50323C31.2416 5.87908 31.2416 5.27722 31.2416 4.66793C31.2491 3.07783 32.267 1.68835 33.7754 1.18308C35.9673 0.462334 38.3079 1.94841 38.5308 4.25926C38.5977 4.98 38.5383 5.71561 38.5383 6.4958C38.9469 6.4958 39.2887 6.50323 39.6305 6.4958C40.5667 6.47351 41.4881 6.51066 42.35 6.94162C43.955 7.7441 44.8244 9.05185 44.9804 10.8351C44.9953 10.9837 44.9878 11.1324 44.9878 11.281C44.9878 19.3578 44.9878 27.4272 44.9952 35.504C44.9952 36.0018 44.8392 36.3733 44.49 36.7226C41.8894 39.3083 39.2962 41.9015 36.7178 44.4947C36.3686 44.844 36.0045 45 35.5067 45C25.5871 44.9926 15.6676 44.9926 5.74801 44.9926C3.44459 44.9926 1.64644 43.6031 1.12632 41.4111C1.03715 41.0396 1.00743 40.6532 1.00743 40.2743C1 30.5925 1 20.9033 1 11.2215C1 8.50943 2.99877 6.51066 5.71086 6.50323C6.25327 6.50323 6.79569 6.50323 7.457 6.50323ZM2.85016 17.515C2.85016 17.6488 2.85016 17.7528 2.85016 17.8494C2.85016 25.3764 2.85016 32.9108 2.85016 40.4378C2.85016 41.961 4.06131 43.1424 5.60683 43.1424C15.2292 43.1424 24.8515 43.1424 34.4738 43.1424C34.6076 43.1424 34.7339 43.1424 34.8899 43.1424C34.8899 42.9566 34.8899 42.8229 34.8899 42.6892C34.8899 41.1065 34.8899 39.5164 34.8899 37.9337C34.8899 36.0464 36.0416 34.9021 37.9215 34.8947C39.5191 34.8947 41.1166 34.8947 42.7141 34.8947C42.8479 34.8947 42.9742 34.8947 43.1079 34.8947C43.1079 29.0693 43.1079 23.2959 43.1079 17.515C29.6887 17.515 16.2917 17.515 2.85016 17.515ZM43.1228 15.6352C43.1302 15.5534 43.1377 15.5163 43.1377 15.4791C43.1377 14.0451 43.1377 12.6036 43.1377 11.1695C43.1377 9.51996 41.9637 8.35339 40.3067 8.35339C38.8578 8.35339 37.4088 8.36082 35.9599 8.35339C35.3135 8.34596 34.8825 7.95215 34.9048 7.4023C34.9197 6.85989 35.3358 6.51066 35.9673 6.50323C36.22 6.50323 36.4726 6.50323 36.7401 6.50323C36.7401 5.82706 36.7624 5.20291 36.7327 4.58619C36.6881 3.57566 35.8633 2.83262 34.8379 2.85491C33.8645 2.87721 33.0992 3.66483 33.0918 4.6605C33.0844 6.20601 33.0844 7.75896 33.0918 9.30448C33.0992 10.1887 33.7308 10.9317 34.6076 11.0506C35.0237 11.1026 35.4472 11.0878 35.8633 11.1026C36.3537 11.1249 36.7252 11.5113 36.7327 11.9943C36.7401 12.4847 36.3612 12.8934 35.8559 12.9156C35.5587 12.9305 35.2615 12.9156 34.9642 12.9156C32.8317 12.9156 31.2416 11.3181 31.2342 9.17816C31.2342 8.91067 31.2342 8.64318 31.2342 8.36082C31.0336 8.36082 30.885 8.36082 30.7364 8.36082C28.641 8.36082 26.5531 8.36082 24.4577 8.36082C24.2719 8.36082 24.0862 8.36825 23.9004 8.35339C23.3357 8.30138 22.9568 7.89271 22.9865 7.38001C23.0162 6.88218 23.41 6.52552 23.9599 6.51066C24.2422 6.50323 24.5171 6.51066 24.8069 6.51066C24.8069 5.81963 24.8143 5.17319 24.7995 4.53418C24.7921 4.34099 24.74 4.14037 24.6583 3.96204C24.3388 3.15956 23.4917 2.71374 22.6373 2.87721C21.7753 3.04067 21.166 3.78371 21.1512 4.75709C21.1363 6.2283 21.1289 7.70695 21.1512 9.17816C21.166 10.3299 21.9239 11.058 23.0831 11.1026C23.3803 11.1101 23.6775 11.0952 23.9747 11.1101C24.4577 11.1324 24.8218 11.5336 24.8218 12.0166C24.8144 12.4995 24.4503 12.8934 23.9599 12.9156C23.6404 12.9305 23.3134 12.9231 22.9939 12.9156C20.9506 12.9082 19.3382 11.3107 19.3307 9.26733C19.3307 8.97754 19.3307 8.68033 19.3307 8.36082C19.145 8.36082 19.0112 8.36082 18.8775 8.36082C17.3022 8.36082 15.7344 8.36082 14.1592 8.36082C13.4682 8.36082 12.7697 8.37568 12.0787 8.35339C11.4545 8.33853 11.0682 7.95215 11.083 7.39487C11.0979 6.85989 11.4917 6.51809 12.1084 6.51066C12.361 6.51066 12.6211 6.51066 12.8886 6.51066C12.8886 5.86422 12.896 5.26979 12.8886 4.67536C12.8812 3.66483 12.1084 2.87721 11.1127 2.86234C10.0873 2.84748 9.25515 3.61281 9.24772 4.62334C9.22542 6.18372 9.23285 7.7441 9.24772 9.30448C9.25515 10.2036 9.91645 10.9392 10.8081 11.058C11.2093 11.1101 11.6254 11.0878 12.0341 11.1026C12.5319 11.1249 12.8886 11.4964 12.9035 11.9868C12.9109 12.4995 12.5542 12.8859 12.0415 12.9082C11.7592 12.9231 11.4694 12.9082 11.187 12.9082C9.11397 12.9082 7.58331 11.4964 7.42727 9.43823C7.39755 9.089 7.41984 8.73234 7.41984 8.35339C6.7734 8.35339 6.20869 8.35339 5.64398 8.35339C4.03159 8.35339 2.85016 9.52739 2.85016 11.1324C2.85016 12.4921 2.85016 13.8593 2.85016 15.2191C2.85016 15.3528 2.85016 15.4866 2.85016 15.6352C16.2917 15.6352 29.6961 15.6352 43.1228 15.6352ZM41.7407 36.7449C41.659 36.7449 41.5698 36.7449 41.4733 36.7449C40.2472 36.7449 39.0287 36.7449 37.8026 36.7449C37.0893 36.7449 36.7401 37.1015 36.7401 37.8223C36.7401 39.0334 36.7401 40.2446 36.7401 41.4557C36.7401 41.5597 36.755 41.6638 36.755 41.7232C38.4194 40.0737 40.0689 38.4167 41.7407 36.7449Z" fill="#3A62FF"/>
<path d="M22.9865 40.4006C17.4211 40.4006 12.8589 35.8458 12.896 30.3176C12.9332 24.7299 17.4434 20.2494 23.0088 20.2494C28.537 20.2494 33.0472 24.7671 33.0769 30.325C33.1215 35.8606 28.5667 40.4006 22.9865 40.4006ZM23.0088 22.0996C18.454 22.0996 14.7536 25.7628 14.7462 30.273C14.7388 34.8798 18.4688 38.6247 23.0088 38.5802C27.5784 38.5356 31.2416 34.8575 31.2416 30.3101C31.2416 25.7776 27.5487 22.0996 23.0088 22.0996Z" fill="#3A62FF"/>
<path d="M21.6119 31.7814C23.1945 30.1987 24.7475 28.6457 26.293 27.0928C26.5456 26.8402 26.8131 26.6247 27.1995 26.6693C27.5487 26.7064 27.8014 26.8847 27.95 27.2043C28.106 27.5386 28.054 27.8581 27.8385 28.1479C27.7642 28.2445 27.675 28.3337 27.5859 28.4228C25.8769 30.1318 24.1753 31.8408 22.4664 33.5424C21.8496 34.1591 21.4112 34.1591 20.7945 33.5498C19.9549 32.7102 19.1153 31.8705 18.2756 31.0309C17.9933 30.7485 17.8744 30.4067 18.0304 30.0129C18.1716 29.6563 18.4391 29.4557 18.818 29.4259C19.1673 29.3962 19.4273 29.5745 19.6651 29.8123C20.2967 30.4588 20.9431 31.1052 21.6119 31.7814Z" fill="#3A62FF"/>
<path d="M7.457 6.50323C7.457 5.72304 7.40498 4.97257 7.46443 4.24439C7.62789 2.4611 9.13626 1.08649 10.9567 1.01218C12.7474 0.937878 14.3895 2.22333 14.6645 3.99176C14.7833 4.74223 14.7239 5.52242 14.7536 6.28775C14.7536 6.34719 14.7611 6.40663 14.7685 6.48094C16.2917 6.48094 17.7926 6.48094 19.3456 6.48094C19.3456 5.88651 19.3456 5.30694 19.3456 4.7348C19.3456 2.76575 20.7722 1.18308 22.6744 1.01961C24.5691 0.856144 26.2484 2.14903 26.6051 4.0512C26.6497 4.28898 26.6497 4.54161 26.6497 4.79424C26.6571 5.35152 26.6497 5.90137 26.6497 6.50323C27.4298 6.50323 28.1803 6.50323 28.9382 6.50323C29.6887 6.50323 30.4466 6.50323 31.2416 6.50323C31.2416 5.87908 31.2416 5.27722 31.2416 4.66793C31.2491 3.07783 32.267 1.68835 33.7754 1.18308C35.9673 0.462334 38.3079 1.94841 38.5308 4.25926C38.5977 4.98 38.5383 5.71561 38.5383 6.4958C38.9469 6.4958 39.2887 6.50323 39.6305 6.4958C40.5667 6.47351 41.4881 6.51066 42.35 6.94162C43.955 7.7441 44.8244 9.05185 44.9804 10.8351C44.9953 10.9837 44.9878 11.1324 44.9878 11.281C44.9878 19.3578 44.9878 27.4272 44.9952 35.504C44.9952 36.0018 44.8392 36.3733 44.49 36.7226C41.8894 39.3083 39.2962 41.9015 36.7178 44.4947C36.3686 44.844 36.0045 45 35.5067 45C25.5871 44.9926 15.6676 44.9926 5.74801 44.9926C3.44459 44.9926 1.64644 43.6031 1.12632 41.4111C1.03715 41.0396 1.00743 40.6532 1.00743 40.2743C1 30.5925 1 20.9033 1 11.2215C1 8.50943 2.99877 6.51066 5.71086 6.50323C6.25327 6.50323 6.79569 6.50323 7.457 6.50323ZM2.85016 17.515C2.85016 17.6488 2.85016 17.7528 2.85016 17.8494C2.85016 25.3764 2.85016 32.9108 2.85016 40.4378C2.85016 41.961 4.06131 43.1424 5.60683 43.1424C15.2292 43.1424 24.8515 43.1424 34.4738 43.1424C34.6076 43.1424 34.7339 43.1424 34.8899 43.1424C34.8899 42.9566 34.8899 42.8229 34.8899 42.6892C34.8899 41.1065 34.8899 39.5164 34.8899 37.9337C34.8899 36.0464 36.0416 34.9021 37.9215 34.8947C39.5191 34.8947 41.1166 34.8947 42.7141 34.8947C42.8479 34.8947 42.9742 34.8947 43.1079 34.8947C43.1079 29.0693 43.1079 23.2959 43.1079 17.515C29.6887 17.515 16.2917 17.515 2.85016 17.515ZM43.1228 15.6352C43.1302 15.5534 43.1377 15.5163 43.1377 15.4791C43.1377 14.0451 43.1377 12.6036 43.1377 11.1695C43.1377 9.51996 41.9637 8.35339 40.3067 8.35339C38.8578 8.35339 37.4088 8.36082 35.9599 8.35339C35.3135 8.34596 34.8825 7.95215 34.9048 7.4023C34.9197 6.85989 35.3358 6.51066 35.9673 6.50323C36.22 6.50323 36.4726 6.50323 36.7401 6.50323C36.7401 5.82706 36.7624 5.20291 36.7327 4.58619C36.6881 3.57566 35.8633 2.83262 34.8379 2.85491C33.8645 2.87721 33.0992 3.66483 33.0918 4.6605C33.0844 6.20601 33.0844 7.75896 33.0918 9.30448C33.0992 10.1887 33.7308 10.9317 34.6076 11.0506C35.0237 11.1026 35.4472 11.0878 35.8633 11.1026C36.3537 11.1249 36.7252 11.5113 36.7327 11.9943C36.7401 12.4847 36.3612 12.8934 35.8559 12.9156C35.5587 12.9305 35.2615 12.9156 34.9642 12.9156C32.8317 12.9156 31.2416 11.3181 31.2342 9.17816C31.2342 8.91067 31.2342 8.64318 31.2342 8.36082C31.0336 8.36082 30.885 8.36082 30.7364 8.36082C28.641 8.36082 26.5531 8.36082 24.4577 8.36082C24.2719 8.36082 24.0862 8.36825 23.9004 8.35339C23.3357 8.30138 22.9568 7.89271 22.9865 7.38001C23.0162 6.88218 23.41 6.52552 23.9599 6.51066C24.2422 6.50323 24.5171 6.51066 24.8069 6.51066C24.8069 5.81963 24.8143 5.17319 24.7995 4.53418C24.7921 4.34099 24.74 4.14037 24.6583 3.96204C24.3388 3.15956 23.4917 2.71374 22.6373 2.87721C21.7753 3.04067 21.166 3.78371 21.1512 4.75709C21.1363 6.2283 21.1289 7.70695 21.1512 9.17816C21.166 10.3299 21.9239 11.058 23.0831 11.1026C23.3803 11.1101 23.6775 11.0952 23.9747 11.1101C24.4577 11.1324 24.8218 11.5336 24.8218 12.0166C24.8144 12.4995 24.4503 12.8934 23.9599 12.9156C23.6404 12.9305 23.3134 12.9231 22.9939 12.9156C20.9506 12.9082 19.3382 11.3107 19.3307 9.26733C19.3307 8.97754 19.3307 8.68033 19.3307 8.36082C19.145 8.36082 19.0112 8.36082 18.8775 8.36082C17.3022 8.36082 15.7344 8.36082 14.1592 8.36082C13.4682 8.36082 12.7697 8.37568 12.0787 8.35339C11.4545 8.33853 11.0682 7.95215 11.083 7.39487C11.0979 6.85989 11.4917 6.51809 12.1084 6.51066C12.361 6.51066 12.6211 6.51066 12.8886 6.51066C12.8886 5.86422 12.896 5.26979 12.8886 4.67536C12.8812 3.66483 12.1084 2.87721 11.1127 2.86234C10.0873 2.84748 9.25515 3.61281 9.24772 4.62334C9.22542 6.18372 9.23285 7.7441 9.24772 9.30448C9.25515 10.2036 9.91645 10.9392 10.8081 11.058C11.2093 11.1101 11.6254 11.0878 12.0341 11.1026C12.5319 11.1249 12.8886 11.4964 12.9035 11.9868C12.9109 12.4995 12.5542 12.8859 12.0415 12.9082C11.7592 12.9231 11.4694 12.9082 11.187 12.9082C9.11397 12.9082 7.58331 11.4964 7.42727 9.43823C7.39755 9.089 7.41984 8.73234 7.41984 8.35339C6.7734 8.35339 6.20869 8.35339 5.64398 8.35339C4.03159 8.35339 2.85016 9.52739 2.85016 11.1324C2.85016 12.4921 2.85016 13.8593 2.85016 15.2191C2.85016 15.3528 2.85016 15.4866 2.85016 15.6352C16.2917 15.6352 29.6961 15.6352 43.1228 15.6352ZM41.7407 36.7449C41.659 36.7449 41.5698 36.7449 41.4733 36.7449C40.2472 36.7449 39.0287 36.7449 37.8026 36.7449C37.0893 36.7449 36.7401 37.1015 36.7401 37.8223C36.7401 39.0334 36.7401 40.2446 36.7401 41.4557C36.7401 41.5597 36.755 41.6638 36.755 41.7232C38.4194 40.0737 40.0689 38.4167 41.7407 36.7449Z" stroke="#3A62FF"/>
<path d="M22.9865 40.4006C17.4211 40.4006 12.8589 35.8458 12.896 30.3176C12.9332 24.7299 17.4434 20.2494 23.0088 20.2494C28.537 20.2494 33.0472 24.7671 33.0769 30.325C33.1215 35.8606 28.5667 40.4006 22.9865 40.4006ZM23.0088 22.0996C18.454 22.0996 14.7536 25.7628 14.7462 30.273C14.7388 34.8798 18.4688 38.6247 23.0088 38.5802C27.5784 38.5356 31.2416 34.8575 31.2416 30.3101C31.2416 25.7776 27.5487 22.0996 23.0088 22.0996Z" stroke="#3A62FF"/>
<path d="M21.6119 31.7814C23.1945 30.1987 24.7475 28.6457 26.293 27.0928C26.5456 26.8402 26.8131 26.6247 27.1995 26.6693C27.5487 26.7064 27.8014 26.8847 27.95 27.2043C28.106 27.5386 28.054 27.8581 27.8385 28.1479C27.7642 28.2445 27.675 28.3337 27.5859 28.4228C25.8769 30.1318 24.1753 31.8408 22.4664 33.5424C21.8496 34.1591 21.4112 34.1591 20.7945 33.5498C19.9549 32.7102 19.1153 31.8705 18.2756 31.0309C17.9933 30.7485 17.8744 30.4067 18.0304 30.0129C18.1716 29.6563 18.4391 29.4557 18.818 29.4259C19.1673 29.3962 19.4273 29.5745 19.6651 29.8123C20.2967 30.4588 20.9431 31.1052 21.6119 31.7814Z" stroke="#3A62FF"/>
</svg>
