<svg width="28" height="23" viewBox="0 0 28 23" fill="none" xmlns="http://www.w3.org/2000/svg">
<path fill-rule="evenodd" clip-rule="evenodd" d="M6.5931 18.776C6.5931 19.4381 6.59867 20.0202 6.5931 20.6024C6.57637 21.5784 6.30317 21.8695 5.37207 21.8809C4.60265 21.8924 3.83324 21.8924 3.06382 21.8809C2.23865 21.8638 1.98218 21.607 1.95988 20.7622C1.94315 19.9175 1.94315 19.0728 1.95988 18.228C1.96545 17.8456 1.92642 17.526 1.58075 17.2692C1.15143 16.9495 1.0009 16.4872 1.01205 15.9393C1.02877 14.9804 1.0455 14.0272 1.00647 13.0683C0.950717 11.7442 1.24622 10.557 2.24423 9.56384C2.07139 9.42115 1.93758 9.30699 1.79261 9.18713C1.11798 8.62778 0.867085 7.85725 1.10683 7.09243C1.35215 6.30477 1.9766 5.81962 2.83523 5.77396C3.24224 5.75113 3.65482 5.76825 4.08413 5.76825C4.29043 5.14612 4.47442 4.58677 4.66398 4.03313C5.36092 2.0012 6.71018 1.00807 8.82886 1.00236C12.2634 0.996657 15.6978 1.00236 19.1323 1.00807C21.3123 1.01378 22.6337 1.98979 23.3418 4.08449C23.5202 4.61531 23.6986 5.14041 23.9049 5.76825C24.2339 5.76825 24.5517 5.76254 24.8751 5.76825C25.94 5.78537 26.6313 6.22486 26.8767 7.05818C27.1443 7.97711 26.7986 8.936 25.9679 9.36407C25.901 9.39832 25.8564 9.46681 25.7448 9.56955C26.8878 10.6198 27.0384 11.9896 26.9882 13.4336C26.9603 14.2213 26.9715 15.0089 26.9882 15.7966C26.9993 16.4187 26.8878 16.9838 26.347 17.3491C26.0682 17.5374 26.0626 17.8 26.0626 18.0854C26.0682 18.9301 26.0738 19.7748 26.0626 20.6196C26.0515 21.5899 25.7783 21.8695 24.8305 21.8809C24.0611 21.8867 23.2916 21.8981 22.5222 21.8809C21.7138 21.8638 21.4573 21.5899 21.435 20.7451C21.4183 20.1572 21.4183 19.5636 21.4071 18.9757C21.4071 18.9529 21.3793 18.9301 21.3012 18.7988C16.4728 19.1356 11.5776 19.1241 6.5931 18.776ZM14.0364 9.54671C11.02 9.54671 7.99812 9.56955 4.98178 9.5353C3.05825 9.51247 1.88182 11.0535 1.98218 12.5889C2.04351 13.5706 1.99333 14.5523 1.99333 15.5397C1.99333 16.4986 2.04909 16.59 2.93559 16.9609C4.11201 17.4575 5.36092 17.6744 6.6154 17.7943C9.87147 18.1082 13.1331 18.1767 16.4004 18.0796C18.7588 18.0054 21.1228 17.994 23.4422 17.4518C24.1335 17.292 24.8026 17.0294 25.4661 16.7726C25.9233 16.5957 26.1128 16.2361 26.1017 15.711C26.0682 14.6722 26.0961 13.6334 26.0905 12.5946C26.0905 12.3149 26.0738 12.0295 26.0125 11.7613C25.7114 10.4143 24.6242 9.55813 23.1746 9.55242C20.1248 9.5353 17.0806 9.54671 14.0364 9.54671ZM23.7544 8.54217C23.7098 8.3424 23.6875 8.20542 23.6485 8.07414C23.2415 6.82417 22.8344 5.57419 22.4107 4.32422C21.8476 2.66329 20.8496 1.93842 19.1379 1.93271C17.4374 1.927 15.7369 1.93271 14.0308 1.93271C12.1909 1.93271 10.351 1.90988 8.51663 1.94413C7.15622 1.97266 6.14148 2.63475 5.66757 3.96463C5.1602 5.38584 4.74204 6.84129 4.29043 8.28532C4.26812 8.35382 4.30158 8.43943 4.31273 8.54217C10.7914 8.54217 17.2478 8.54217 23.7544 8.54217ZM2.88541 20.8878C3.78863 20.8878 4.67513 20.8878 5.60066 20.8878C5.60066 20.1401 5.60066 19.4209 5.60066 18.6504C4.70301 18.4506 3.81651 18.2566 2.88541 18.0511C2.88541 19.0271 2.88541 19.9175 2.88541 20.8878ZM22.3884 20.9049C23.3028 20.9049 24.1614 20.9049 25.0702 20.9049C25.0702 19.9518 25.0702 19.0442 25.0702 18.0796C24.1558 18.2794 23.2805 18.4735 22.3884 18.6732C22.3884 19.4267 22.3884 20.1401 22.3884 20.9049ZM24.2283 6.76138C24.4346 7.40064 24.6242 7.9714 24.8026 8.51934C25.6501 8.55929 26.0626 8.24537 26.0571 7.63465C26.0459 6.9212 25.4884 6.63011 24.2283 6.76138ZM3.77191 6.65864C3.28126 6.70431 2.90213 6.69289 2.5453 6.78992C2.13272 6.90407 1.9543 7.24653 1.96545 7.68602C1.98218 8.12551 2.2052 8.42802 2.61221 8.54217C2.94116 8.63349 3.19763 8.58783 3.30914 8.194C3.44295 7.72597 3.59349 7.25795 3.77191 6.65864Z" fill="#3A62FF" stroke="#3A62FF" stroke-width="0.232111"/>
<path fill-rule="evenodd" clip-rule="evenodd" d="M13.9818 12.4007C15.5485 12.4007 17.1152 12.395 18.6763 12.4007C19.022 12.4007 19.4402 12.3207 19.5182 12.8403C19.574 13.1885 19.2952 13.3598 18.6596 13.3598C15.5541 13.3655 12.4541 13.3598 9.34857 13.3598C9.18688 13.3598 8.98617 13.3998 8.86351 13.3199C8.69624 13.2171 8.48438 13.023 8.48438 12.8631C8.48438 12.7147 8.70739 12.5091 8.87466 12.4292C9.03635 12.355 9.25379 12.4007 9.44336 12.395C10.9599 12.4007 12.4708 12.4007 13.9818 12.4007Z" fill="#3A62FF" stroke="#3A62FF" stroke-width="0.232111"/>
<path fill-rule="evenodd" clip-rule="evenodd" d="M13.9704 15.2546C12.7326 15.2546 11.4949 15.2603 10.2627 15.2546C9.61593 15.2489 9.35388 15.0947 9.40964 14.7408C9.48769 14.2269 9.8947 14.2897 10.246 14.284C12.7438 14.2783 15.2472 14.284 17.745 14.284C17.8007 14.284 17.8565 14.284 17.9122 14.284C18.3806 14.3126 18.6649 14.5124 18.6147 14.8036C18.5478 15.1861 18.2579 15.2546 17.929 15.2546C16.6131 15.2546 15.2918 15.2546 13.9704 15.2546Z" fill="#3A62FF" stroke="#3A62FF" stroke-width="0.232111"/>
<path fill-rule="evenodd" clip-rule="evenodd" d="M25.1161 13.3365C25.1217 14.3696 24.3132 15.2315 23.3096 15.2486C22.3116 15.2714 21.4641 14.4324 21.4418 13.405C21.4195 12.332 22.2559 11.4416 23.2873 11.4473C24.2853 11.453 25.1049 12.3034 25.1161 13.3365ZM23.2371 14.2783C23.778 14.2954 24.2017 13.8902 24.1961 13.3479C24.1905 12.8514 23.8003 12.4347 23.3096 12.4176C22.7855 12.3948 22.3506 12.8285 22.3506 13.3594C22.3562 13.8616 22.7354 14.2612 23.2371 14.2783Z" fill="#3A62FF" stroke="#3A62FF" stroke-width="0.232111"/>
<path fill-rule="evenodd" clip-rule="evenodd" d="M4.72348 15.2544C3.73662 15.2544 2.87242 14.3869 2.8557 13.3766C2.83897 12.3435 3.74777 11.4246 4.75693 11.4474C5.74379 11.476 6.59126 12.3664 6.58011 13.3709C6.57454 14.3812 5.71034 15.2544 4.72348 15.2544ZM5.63228 13.3253C5.62113 12.8173 5.23085 12.4177 4.73463 12.412C4.21054 12.4006 3.79238 12.8344 3.8091 13.3766C3.82025 13.9246 4.23841 14.3127 4.78481 14.2784C5.29218 14.2442 5.64901 13.8447 5.63228 13.3253Z" fill="#3A62FF" stroke="#3A62FF" stroke-width="0.232111"/>
</svg>
