<svg width="26" height="25" viewBox="0 0 26 25" fill="none" xmlns="http://www.w3.org/2000/svg">
<path d="M22.325 16.8403C22.765 16.3326 23.2135 15.8757 23.6028 15.3679C24.6352 14.0097 25.2318 12.4696 25.4476 10.7729C25.6972 8.82238 25.3883 6.95645 24.521 5.20477C23.6155 3.37693 22.2531 1.9722 20.4379 1.02442C19.0755 0.313597 17.6158 -0.0460484 16.0799 0.00472505C13.5031 0.0893474 11.3326 1.08366 9.56394 2.97074C8.41731 4.19353 7.67686 5.63211 7.27914 7.2484C6.95757 8.55159 6.92796 9.87169 7.14797 11.196C7.16067 11.2637 7.1649 11.3314 7.16913 11.3441C6.50061 11.6615 5.84479 11.928 5.22705 12.2792C4.05503 12.9435 3.13687 13.8955 2.35411 14.9744C2.06217 15.3764 1.81676 15.8164 1.53751 16.2311C1.44866 16.3622 1.32172 16.4722 1.21171 16.5907C0.771677 17.0646 0.534733 17.6316 0.505116 18.2705C0.471266 18.9601 0.399338 19.1929 0.589737 19.8656C0.915533 21.0165 1.66867 21.7527 2.84492 21.9812C3.14956 22.0404 3.24265 22.1462 3.3315 22.4127C3.95348 24.2617 6.05634 25.1291 7.76572 24.2321C8.57386 23.809 9.11121 23.1363 9.37354 22.2562C9.3947 22.1885 9.41162 22.125 9.43278 22.0489C9.50047 22.0446 9.56394 22.0404 9.62318 22.0404C10.9983 22.0404 12.3734 22.0446 13.7485 22.0362C13.9178 22.0362 13.9728 22.0954 14.0151 22.2477C14.544 24.1052 16.5791 25.1926 18.4747 24.249C19.3167 23.8302 19.8709 23.1278 20.1206 22.2096C20.1544 22.0912 20.1883 22.0235 20.3364 22.0108C21.2122 21.9135 21.8723 21.4523 22.3588 20.7372C22.6973 20.2379 22.8497 19.6794 22.8285 19.0786C22.8031 18.4947 22.7947 18.3762 22.7354 17.7966C22.7143 17.5681 22.5789 17.3481 22.4858 17.1281C22.435 17.0096 22.3588 16.9038 22.325 16.8403ZM9.49624 20.9826C9.31008 19.2732 7.89265 18.1562 6.66986 18.0885C4.63892 17.9785 3.55998 19.0871 3.11995 20.9615C2.47682 20.9191 1.79137 20.3691 1.63059 19.726C1.45712 19.0321 1.51212 18.7909 1.58405 18.0928C1.59674 17.9616 1.64752 17.8304 1.70675 17.7162C2.07486 16.98 2.67991 16.6415 3.49652 16.6415C7.81649 16.6457 12.1407 16.6415 16.4607 16.6415C17.5946 16.6415 18.7328 16.6457 19.8667 16.6415C20.8949 16.6373 21.5972 17.3227 21.7284 18.1308C21.8088 18.6343 21.7623 18.6893 21.7665 19.2055C21.7707 19.671 21.5888 20.0687 21.2799 20.4114C20.9964 20.7203 20.6537 20.9149 20.2264 20.9615C20.0063 19.214 18.5508 18.1266 17.1927 18.0631C15.8218 17.9954 14.1039 19.0236 13.8712 20.9868C12.4242 20.9826 10.9644 20.9826 9.49624 20.9826ZM10.3128 12.0338C10.3128 13.2312 10.3128 14.4201 10.3128 15.6006C7.93919 15.6006 5.58246 15.6006 3.21726 15.6006C4.29197 13.5401 7.70225 11.8265 10.3128 12.0338ZM4.19888 21.3507C4.16926 20.1364 5.08742 19.1463 6.28059 19.1167C7.45684 19.0828 8.41731 20.0391 8.44693 21.2661C8.47655 22.4847 7.55839 23.5086 6.41599 23.534C5.17204 23.5636 4.2285 22.637 4.19888 21.3507ZM17.0742 23.534C15.8768 23.5424 14.9586 22.5862 14.9332 21.3084C14.9078 20.1322 15.8768 19.1294 17.0446 19.1167C18.2462 19.104 19.1897 20.0729 19.194 21.3296C19.194 22.5481 18.2547 23.5255 17.0742 23.534ZM16.5918 15.6006C14.8232 15.6006 13.1054 15.6006 11.3918 15.6006C11.3918 14.4159 11.3918 13.2439 11.3918 12.0507C13.6639 12.4484 15.1913 13.887 16.5918 15.6006ZM20.6368 9.00855C19.3294 9.00855 18.0727 9.00855 16.8076 9.00855C16.8034 8.962 16.7907 8.92816 16.7907 8.89431C16.7907 7.96346 16.7949 7.03685 16.7865 6.106C16.7865 5.94945 16.8626 5.94099 16.9853 5.94099C18.0008 5.94522 19.012 5.94522 20.0275 5.93675C20.1798 5.93675 20.2391 5.99176 20.2602 6.13139C20.3448 6.66451 20.4548 7.19763 20.5268 7.73498C20.586 8.15386 20.6029 8.57697 20.6368 9.00855ZM11.9207 9.01278C11.9503 8.00577 12.0772 7.04108 12.2888 6.08061C12.3226 5.92829 12.4199 5.94522 12.5257 5.94522C13.5243 5.94522 14.527 5.94522 15.5256 5.94522C15.5933 5.94522 15.661 5.95368 15.7371 5.95791C15.7371 6.98607 15.7371 7.99731 15.7371 9.01278C14.4636 9.01278 13.2027 9.01278 11.9207 9.01278ZM16.8034 10.0917C18.0854 10.0917 19.3505 10.0917 20.6241 10.0917C20.5945 11.0522 20.4845 11.983 20.2687 12.9012C19.1051 12.9012 17.9627 12.9012 16.8034 12.9012C16.8034 11.9576 16.8034 11.031 16.8034 10.0917ZM24.4575 9.01278C23.5182 9.01278 22.6043 9.01278 21.7115 9.01278C21.5888 7.98885 21.4619 6.97338 21.3391 5.94522C22.0838 5.94522 22.8454 5.94099 23.607 5.94945C23.662 5.94945 23.7382 6.02561 23.7636 6.08484C24.174 7.01146 24.4067 7.97615 24.4575 9.01278ZM8.06613 9.01278C8.09575 8.7716 8.1169 8.55582 8.14652 8.34003C8.24806 7.5742 8.45962 6.83798 8.74734 6.12292C8.79811 5.99599 8.86581 5.94099 9.0139 5.94099C9.69934 5.94945 10.3805 5.94522 11.066 5.94522C11.121 5.94522 11.1718 5.95791 11.2014 5.95791C11.0745 6.98184 10.9517 7.99308 10.8248 9.01278C9.93205 9.01278 9.01813 9.01278 8.06613 9.01278ZM19.8921 4.8959C18.8597 4.8959 17.84 4.8959 16.8118 4.8959C16.8118 3.63926 16.8118 2.39108 16.8118 1.1429C17.2646 1.22752 17.8315 1.5787 18.2843 2.04836C19.0416 2.83111 19.4901 3.79158 19.8709 4.79012C19.8836 4.81974 19.8836 4.85359 19.8921 4.8959ZM15.7329 1.12597C15.7329 2.40377 15.7329 3.64349 15.7329 4.88744C14.7005 4.88744 13.6808 4.88744 12.6273 4.88744C12.7331 4.61664 12.8219 4.36278 12.9319 4.1216C13.3381 3.22038 13.8162 2.37415 14.5905 1.73102C14.9248 1.46023 15.2844 1.23175 15.7329 1.12597ZM21.7199 10.0875C22.6212 10.0875 23.5351 10.0875 24.4533 10.0875C24.4575 10.1256 24.4659 10.1552 24.4617 10.1806C24.3898 11.0606 24.2078 11.9196 23.8905 12.7489C23.8355 12.8885 23.7593 12.9181 23.624 12.9181C22.9258 12.9096 22.2277 12.9139 21.5338 12.9139C21.4745 12.9139 21.4153 12.9054 21.3857 12.9054C21.4957 11.9534 21.6057 11.0268 21.7199 10.0875ZM15.7414 12.9477C15.6018 12.9096 15.479 12.9054 15.3944 12.8462C14.9502 12.55 14.527 12.22 14.0785 11.9322C13.4862 11.5599 12.8346 11.3103 12.1576 11.141C12.0899 11.1241 11.9841 11.0606 11.9799 11.0099C11.9418 10.7052 11.9291 10.4006 11.908 10.0917C13.2069 10.0917 14.4678 10.0917 15.7414 10.0917C15.7414 11.031 15.7414 11.9576 15.7414 12.9477ZM13.1519 1.69294C13.1139 1.76064 13.1012 1.79026 13.08 1.81564C12.3946 2.69149 11.9334 3.68157 11.5949 4.73512C11.5526 4.86628 11.4933 4.90859 11.3579 4.90436C10.7656 4.8959 10.1775 4.90013 9.5851 4.90013C9.53432 4.90013 9.48355 4.88744 9.42431 4.88321C10.1859 3.62656 11.5018 2.38685 13.1519 1.69294ZM23.1585 4.90436C22.4731 4.90436 21.8469 4.8959 21.2207 4.90859C21.043 4.91282 20.9795 4.84936 20.9287 4.69281C20.6029 3.68157 20.1502 2.7338 19.5113 1.87911C19.4817 1.84103 19.4648 1.79449 19.4182 1.70564C21.0134 2.39531 22.1981 3.47847 23.1585 4.90436ZM20.0275 13.9674C19.7863 14.5217 19.5663 15.0294 19.3378 15.5329C19.3209 15.5752 19.2405 15.6091 19.1897 15.6091C18.7751 15.6133 18.3562 15.6133 17.9416 15.6091C17.8908 15.6091 17.8231 15.5752 17.7892 15.5372C17.4888 15.1394 17.1927 14.7375 16.9049 14.3313C16.8372 14.234 16.8119 14.1113 16.7526 13.9674C17.8654 13.9674 18.9063 13.9674 20.0275 13.9674ZM23.3024 13.959C23.1839 14.1409 23.0908 14.2805 22.9977 14.4201C22.6169 14.9913 22.1727 15.5075 21.6523 15.956C21.6057 15.9984 21.5126 16.0364 21.4619 16.0195C21.1318 15.8883 20.8103 15.7403 20.4929 15.5964C20.6706 15.1014 20.8568 14.5809 21.0514 14.0605C21.0684 14.014 21.1361 13.959 21.1826 13.959C21.8765 13.959 22.5662 13.959 23.3024 13.959ZM8.1846 11.1326C8.14229 10.7941 8.09998 10.4471 8.05766 10.0875C9.0139 10.0875 9.93205 10.0875 10.8671 10.0875C10.8798 10.3837 10.8967 10.6671 10.9094 10.9252C10.004 10.9929 9.11544 11.0606 8.1846 11.1326Z" fill="#3A62FF"/>
<path d="M17.0826 22.7258C16.3041 22.7301 15.661 22.0954 15.661 21.3126C15.6568 20.5257 16.2872 19.8952 17.0699 19.891C17.8569 19.891 18.4958 20.5172 18.4958 21.2957C18.5001 22.0742 17.8569 22.7174 17.0826 22.7258ZM17.0657 20.6949C16.7272 20.6991 16.4607 20.9699 16.4607 21.3126C16.4649 21.6469 16.7484 21.9262 17.0784 21.9219C17.4084 21.9177 17.6877 21.63 17.6835 21.2999C17.6835 20.9615 17.4084 20.6907 17.0657 20.6949Z" fill="#3A62FF"/>
<path d="M6.3356 22.7258C5.55707 22.7301 4.91394 22.0954 4.91394 21.3126C4.90971 20.5257 5.54015 19.8952 6.3229 19.891C7.10989 19.891 7.74879 20.5172 7.74879 21.2957C7.75302 22.0742 7.10989 22.7174 6.3356 22.7258ZM6.31867 20.6949C5.98018 20.6991 5.71362 20.9699 5.71362 21.3126C5.71786 21.6469 6.00134 21.9262 6.33137 21.9219C6.66139 21.9177 6.94065 21.63 6.93642 21.2999C6.93642 20.9615 6.66139 20.6907 6.31867 20.6949Z" fill="#3A62FF"/>
</svg>
