<svg width="28" height="31" viewBox="0 0 28 31" fill="none" xmlns="http://www.w3.org/2000/svg">
<path d="M10.8846 20.2289C11.0851 19.9706 11.2482 19.6988 11.2074 19.3454C11.1598 18.9343 10.9084 18.6692 10.5788 18.4688C10.4802 18.4076 10.4293 18.3396 10.4123 18.2343C10.3137 17.5819 10.188 16.9295 10.1167 16.2737C10.0385 15.5262 10.0793 14.7821 10.2798 14.0515C10.3069 13.9496 10.3477 13.9054 10.4598 13.8952C10.871 13.8612 11.2821 13.8137 11.6933 13.7729C12.6617 13.6744 13.6301 13.5826 14.5985 13.4807C14.8907 13.4501 14.9892 13.338 15.03 13.0492C15.1489 12.2371 15.2746 11.425 15.3834 10.6129C15.4071 10.4294 15.4819 10.392 15.6484 10.375C16.5794 10.2969 17.5104 10.2051 18.438 10.1168C19.8312 9.98767 21.2209 9.85516 22.614 9.72604C23.365 9.65468 24.1125 9.59012 24.8634 9.51537C25.1386 9.48819 25.2644 9.35907 25.3017 9.08724C25.3119 9.01928 25.3153 8.95132 25.3221 8.88337C25.3629 8.45523 25.4071 8.0271 25.4512 7.59218C25.8148 7.5582 26.1716 7.52762 26.525 7.49024C26.8138 7.45966 26.9701 7.26258 26.9429 6.98056C26.8138 5.62141 26.6813 4.26566 26.5522 2.90651C26.5182 2.57012 26.3517 2.43761 26.0187 2.47498C25.6381 2.51576 25.2542 2.54974 24.86 2.58711C24.8464 2.43421 24.8294 2.2915 24.8158 2.14539C24.7921 1.88036 24.7717 1.61532 24.7445 1.35029C24.7173 1.09885 24.6018 0.993512 24.3469 1.00031C23.98 1.0071 23.613 1.02749 23.246 1.03768C23.0422 1.04448 22.8825 1.11923 22.7465 1.27893C22.3184 1.77842 21.8801 2.26432 21.452 2.7638C21.3534 2.87933 21.2515 2.94049 21.0952 2.94729C20.8233 2.95748 20.5549 2.99146 20.2831 3.01864C18.3293 3.20213 12.4544 3.75258 10.1303 3.97005C10.0997 3.97005 10.0691 3.97005 10.0385 3.97005C8.70994 4.09237 7.37798 4.21809 6.04941 4.34381C4.52377 4.48652 2.99473 4.63263 1.46908 4.77534C1.13949 4.80592 0.972994 4.98601 1.00358 5.3122C1.1259 6.64077 1.25842 7.97274 1.38074 9.3013C1.39773 9.50518 1.47928 9.66488 1.61859 9.81098C2.13507 10.3682 2.64135 10.9323 3.15782 11.4895C3.22238 11.5609 3.23937 11.6187 3.20879 11.7138C2.76707 13.1205 2.3933 14.5544 2.13507 16.0155C1.9244 17.2183 1.77829 18.4246 1.82926 19.6444C1.84625 20.0997 1.921 20.555 1.98896 21.007C2.03313 21.2992 2.21322 21.4181 2.50543 21.3909C2.79425 21.3637 3.07967 21.34 3.36849 21.3128C4.39465 21.2176 5.42081 21.1225 6.44696 21.0274C7.60903 20.9186 8.76771 20.7963 9.92978 20.7113C10.3341 20.6842 10.6433 20.5415 10.8846 20.2289ZM14.2757 12.604C14.2689 12.6448 14.2009 12.7026 14.1567 12.706C13.3243 12.7909 12.4884 12.8725 11.6559 12.954C11.2923 12.988 10.9254 13.0254 10.5278 13.0627C10.7792 12.3118 11.1258 11.6322 11.5064 10.9289C11.5913 11.2857 11.7035 11.5949 11.9175 11.8565C12.118 12.1011 12.3728 12.2778 12.6753 12.3798C12.9063 12.4613 13.1204 12.373 13.2121 12.1623C13.3005 11.955 13.2155 11.7172 12.9845 11.6322C12.5937 11.4861 12.3864 11.2041 12.3185 10.8066C12.3117 10.7726 12.3151 10.7386 12.3117 10.6876C13.0762 10.6163 13.8237 10.5483 14.5815 10.477C14.4829 11.1973 14.3844 11.9041 14.2757 12.604ZM22.6242 2.65507C22.8213 2.43081 23.0252 2.20995 23.2154 1.97889C23.2936 1.88375 23.3751 1.83279 23.4975 1.83279C23.647 1.82939 23.7999 1.809 23.9664 1.79201C23.9936 2.08083 24.0207 2.35946 24.0513 2.66187C23.5348 2.70944 23.0422 2.75701 22.5019 2.80797C22.5597 2.73322 22.5902 2.69245 22.6242 2.65507ZM1.84964 5.55685C1.89721 5.55006 1.9278 5.54666 1.96177 5.54326C2.47485 5.49569 2.98793 5.44472 3.50101 5.39715C4.91112 5.26463 6.31784 5.13552 7.72796 5.003C8.23084 4.95543 8.73033 4.91126 9.23322 4.86369C9.2604 4.86029 9.29098 4.85689 9.31816 4.85689C10.1201 4.78214 15.2339 4.29964 16.0358 4.22489C17.0789 4.12635 18.122 4.02781 19.1618 3.93267C20.069 3.84772 20.9763 3.76617 21.8835 3.68123C22.7975 3.59628 23.7081 3.50794 24.6222 3.42299C25.0027 3.38901 25.3833 3.35503 25.7774 3.31766C25.8862 4.45254 25.9915 5.57384 26.0968 6.69854C26.0391 6.70873 25.9949 6.72232 25.9541 6.72572C25.1862 6.79707 24.4217 6.86843 23.6538 6.93978C23.1101 6.99075 22.5699 7.03832 22.0262 7.08929C21.9854 7.08249 21.9412 7.08249 21.8971 7.08589C21.452 7.12667 17.541 7.51063 17.0959 7.5514C16.0663 7.64654 15.0334 7.74508 14.0038 7.84022C12.9743 7.93536 11.9413 8.0305 10.9118 8.12904C9.99774 8.21399 9.08711 8.29893 8.17308 8.38728C7.26585 8.47222 6.35862 8.55717 5.45139 8.63872C4.65629 8.71347 3.86118 8.78823 3.06948 8.86298C2.77387 8.89016 2.47825 8.91734 2.17244 8.94453C2.06371 7.80624 1.95838 6.69174 1.84964 5.55685ZM4.60871 20.3852C3.9903 20.4429 3.37189 20.4973 2.73989 20.555C2.72629 20.4837 2.70931 20.4191 2.69911 20.3512C2.5598 19.2129 2.65494 18.078 2.81464 16.9499C3.07288 15.1524 3.518 13.3991 4.07525 11.673C4.14321 11.4623 4.09903 11.3026 3.95632 11.1463C3.56217 10.7182 3.17142 10.2833 2.78066 9.85176C2.75008 9.81778 2.7195 9.77701 2.67872 9.72604C2.73989 9.71584 2.77726 9.70565 2.81464 9.70225C3.59275 9.6309 4.37086 9.55954 5.14898 9.48479C6.76636 9.33528 8.38375 9.18578 10.0011 9.03287C11.5064 8.89356 13.0116 8.74745 14.5135 8.60814C15.7469 8.49261 19.9433 8.08826 21.6252 7.92517C21.6694 7.93196 21.717 7.93196 21.768 7.92856C22.3422 7.8776 22.9164 7.82323 23.4907 7.76886C23.861 7.73489 24.2314 7.7043 24.6222 7.66693C24.595 7.97613 24.561 8.26835 24.544 8.56057C24.5372 8.68629 24.4964 8.73046 24.3639 8.74066C22.3898 8.92074 20.419 9.10423 18.4448 9.29111C16.0901 9.51197 13.7354 9.73623 11.3773 9.95709C11.1904 9.97408 11.0579 10.0556 10.9695 10.2153C10.3375 11.3468 9.75989 12.4953 9.48806 13.7865C9.28079 14.7889 9.22642 15.781 9.33515 16.7868C9.38952 17.2897 9.48466 17.7892 9.55941 18.2955C9.54582 18.2989 9.52543 18.3091 9.50165 18.3091C8.39054 18.4144 7.27944 18.5197 6.17173 18.6217C5.7436 18.6624 5.31547 18.7032 4.88734 18.7474C4.72424 18.7644 4.61891 18.8663 4.56794 19.0158C4.52037 19.1687 4.55775 19.3046 4.66648 19.4236C4.7854 19.5493 4.93491 19.5527 5.09121 19.5391C6.12416 19.4439 7.15372 19.3454 8.18667 19.2503C8.76091 19.1959 9.33515 19.1415 9.91279 19.094C10.0861 19.0804 10.3885 19.2978 10.3919 19.4304C10.3953 19.5799 10.1506 19.8551 9.99434 19.8687C9.12109 19.9502 8.24783 20.0318 7.37458 20.1133C6.45716 20.2119 5.53294 20.3002 4.60871 20.3852Z" fill="#3A62FF"/>
<path d="M20.8539 17.5921C21.0544 17.1912 20.9593 16.9737 20.5243 16.848C20.2117 16.7596 19.8991 16.6679 19.5865 16.5795C19.5865 16.5693 19.5865 16.5558 19.5865 16.5456C19.6817 16.5252 19.7836 16.5184 19.8753 16.481C19.9875 16.4368 20.0928 16.3757 20.1981 16.3145C20.2797 16.2669 20.3544 16.1956 20.4394 16.1548C20.769 15.9951 21.1054 15.8456 21.435 15.6859C21.5131 15.6485 21.5845 15.584 21.649 15.5228C21.8801 15.3087 22.0398 15.0573 21.9548 14.7277C21.8699 14.4015 21.6151 14.2418 21.3126 14.1569C20.8811 14.0345 20.4428 14.0209 19.9977 14.0617C19.9297 14.0685 19.8618 14.0413 19.7904 14.0311C19.6613 14.0074 19.5254 13.9496 19.4064 13.97C18.7982 14.0753 18.1968 14.1976 17.592 14.3166C16.9328 14.4457 16.2702 14.5714 15.611 14.7039C15.346 14.7549 15.1625 14.901 15.1931 15.0947C15.2339 15.3427 15.1421 15.5092 15.0164 15.7097C14.7887 16.0733 12.7126 20.1745 12.519 20.5584C12.5088 20.5788 12.4986 20.6026 12.4918 20.623C11.4894 22.5802 10.4904 24.5407 9.48466 26.4979C9.37932 26.7052 9.22982 26.8955 9.07352 27.0722C8.84586 27.3304 8.59442 27.5683 8.35656 27.8197C8.19687 27.9862 8.17308 28.1425 8.26482 28.3294C8.33618 28.4789 8.47889 28.5231 8.6216 28.5604C10.7011 29.1007 12.7806 29.641 14.8601 30.1846C15.329 30.3069 15.8013 30.4293 16.2736 30.5482C16.593 30.6297 16.7969 30.5006 16.8478 30.1778C16.8954 29.8754 16.9294 29.573 16.9668 29.2706C16.9906 29.0871 16.9294 28.941 16.7765 28.8289C16.627 28.7201 16.4809 28.6012 16.3348 28.4857C16.1173 28.3158 15.8998 28.1459 15.6858 27.9794C15.7197 27.9114 15.7435 27.8605 15.7707 27.8095C17.4595 24.398 19.1584 20.9968 20.8539 17.5921ZM21.051 14.901C21.0578 14.9316 21.0612 14.9588 21.068 14.9893C20.7758 15.1286 20.487 15.2646 20.1778 15.4141C20.1404 15.2136 20.1064 15.0471 20.069 14.85C20.4054 14.867 20.7282 14.884 21.051 14.901ZM16.0731 15.4413C17.1197 15.2374 18.1628 15.0335 19.2264 14.8228C19.2841 15.1286 19.3419 15.4277 19.403 15.7437C19.1312 15.798 18.8662 15.849 18.6045 15.9C18.3735 15.9441 18.139 15.9951 17.9046 16.0325C17.823 16.0461 17.7347 16.0461 17.6565 16.0257C17.1774 15.8966 16.6983 15.7641 16.2226 15.6247C16.1547 15.6044 16.1037 15.533 16.0459 15.4854C16.0527 15.4752 16.0629 15.4582 16.0731 15.4413ZM15.9508 29.2162C16.1479 29.3657 16.1479 29.3657 16.0799 29.6545C13.8679 29.0803 11.6525 28.5027 9.44049 27.9284C9.4201 27.9012 9.40311 27.8775 9.38272 27.8503C9.50504 27.7517 9.62737 27.6464 9.75309 27.5547C9.78707 27.5309 9.84483 27.5139 9.889 27.5241C11.5574 27.8367 13.2223 28.1527 14.8873 28.4721C14.9654 28.4857 15.0436 28.5332 15.1115 28.5808C15.3936 28.7847 15.6688 29.0022 15.9508 29.2162ZM14.9994 27.5207C14.9484 27.6226 14.8975 27.6362 14.7887 27.6158C13.5587 27.378 12.3253 27.1503 11.0952 26.9193C10.8268 26.8683 10.555 26.8139 10.273 26.7596C10.3103 26.6848 10.3341 26.6304 10.3613 26.5761C11.4113 24.5272 12.4578 22.4748 13.5077 20.4259C13.5315 20.3818 13.5519 20.3376 13.5723 20.29C14.1873 19.094 15.4411 16.6543 15.5397 16.4538C15.5906 16.3451 15.6416 16.3111 15.7707 16.3485C16.8343 16.6543 17.8978 16.9533 18.9647 17.2523C19.2943 17.3441 19.6239 17.4426 19.9603 17.5377C19.9399 17.5887 19.9263 17.6193 19.9127 17.6499C18.2749 20.939 16.6372 24.2281 14.9994 27.5207Z" fill="#3A62FF"/>
<path d="M26.9939 23.3549C26.9939 23.2801 26.9837 23.1748 26.9361 23.134C26.7764 22.9913 26.79 22.801 26.7594 22.621C26.6915 22.2234 26.6065 21.8326 26.3925 21.4827C26.0187 20.8677 25.3663 20.8812 25.0129 21.5098C24.8057 21.8802 24.7105 22.288 24.6527 22.7025C24.6324 22.852 24.6256 23.0015 24.4964 23.117C24.4557 23.151 24.4387 23.2292 24.4353 23.2869C24.4319 24.0175 24.4217 25.8353 24.4353 26.5659C24.4353 26.5829 24.4353 26.5965 24.4387 26.6101C24.4353 26.6372 24.4319 26.661 24.4319 26.6916C24.4251 26.9057 24.4285 27.1231 24.4319 27.3372C24.4387 27.609 24.595 27.7687 24.8668 27.7721C25.4275 27.7755 25.9881 27.7755 26.5488 27.7721C26.8308 27.7687 26.9939 27.609 26.9939 27.3304C26.9973 26.0018 26.9973 24.6801 26.9939 23.3549ZM25.6721 21.9448C25.6993 21.9448 25.7265 21.9448 25.7503 21.9482C25.8318 22.2608 25.91 22.5734 25.9949 22.9064C25.791 22.9064 25.6279 22.9064 25.4275 22.9064C25.5158 22.5734 25.594 22.2574 25.6721 21.9448ZM26.1648 26.9464C25.859 26.9464 25.5668 26.9464 25.2474 26.9464C25.2474 26.8377 25.2542 26.7494 25.2474 26.6576C25.244 26.6372 25.2406 26.6202 25.2372 26.5999C25.244 26.5625 25.2474 26.5217 25.2474 26.4809C25.2474 25.9882 25.2474 24.4082 25.2474 23.9155C25.2474 23.8544 25.2542 23.7966 25.2576 23.7355C25.5736 23.7355 25.8692 23.7355 26.1682 23.7355C26.1648 24.816 26.1648 25.8829 26.1648 26.9464Z" fill="#3A62FF"/>
<path d="M23.3718 23.1102C23.2562 22.9913 23.246 22.8554 23.2222 22.7127C23.1441 22.2132 23.0456 21.7205 22.7194 21.3128C22.4407 20.9628 21.9752 20.9356 21.666 21.255C21.5811 21.3434 21.5097 21.4487 21.4486 21.554C21.2549 21.8972 21.1699 22.2812 21.1122 22.6651C21.0884 22.8214 21.0952 22.9879 20.9525 23.1102C20.8981 23.1578 20.8845 23.2632 20.8811 23.3447C20.8743 23.5316 20.8743 25.2237 20.8777 25.7232C20.8777 25.7266 20.8777 25.7266 20.8777 25.73C20.8743 26.2567 20.8743 26.7833 20.8777 27.31C20.8777 27.609 21.0442 27.7687 21.3432 27.7687C21.8869 27.7721 22.4305 27.7721 22.9742 27.7687C23.2834 27.7687 23.4499 27.6124 23.4499 27.2998C23.4533 25.9984 23.4533 24.6971 23.4499 23.3923C23.4465 23.3005 23.4295 23.1714 23.3718 23.1102ZM22.1145 21.9584C22.1315 21.9584 22.1485 21.9584 22.1655 21.9584C22.332 22.2472 22.3694 22.57 22.4169 22.903C22.2403 22.903 22.0806 22.903 21.8767 22.903C21.9616 22.5836 22.0398 22.271 22.1145 21.9584ZM22.6174 26.9464C22.3048 26.9464 22.0092 26.9464 21.6898 26.9464C21.6898 26.5523 21.6898 26.1751 21.6898 25.798C21.6932 25.5023 21.6898 23.8102 21.6898 23.7389C22.0126 23.7389 22.3082 23.7389 22.6174 23.7389C22.6174 24.8126 22.6174 25.8795 22.6174 26.9464Z" fill="#3A62FF"/>
<path d="M7.94542 7.864C8.14929 7.95575 8.37016 7.8742 8.48229 7.65334C8.56723 7.48684 8.64199 7.31695 8.72014 7.14705C8.92401 6.70193 9.12788 6.25341 9.32496 5.8049C9.44388 5.53307 9.2638 5.23745 8.97498 5.23066C8.79149 5.22386 8.65898 5.30881 8.58083 5.4719C8.49928 5.6384 8.42452 5.80829 8.34977 5.97819C8.1493 6.42671 7.94203 6.87183 7.74835 7.32035C7.64981 7.5582 7.73476 7.76547 7.94542 7.864Z" fill="#3A62FF"/>
<path d="M5.92029 8.08487C6.10038 8.12904 6.28386 8.04749 6.36881 7.86401C6.65083 7.25918 6.91247 6.65097 7.20129 6.04954C7.30662 5.83208 7.23527 5.55345 7.0246 5.45492C6.79694 5.35298 6.58288 5.45152 6.45716 5.72335C6.20571 6.26701 5.95767 6.81067 5.71302 7.35432C5.66545 7.45966 5.63147 7.57519 5.60769 7.63635C5.60769 7.88439 5.73341 8.04069 5.92029 8.08487Z" fill="#3A62FF"/>
<path d="M3.79662 8.27175C3.98011 8.32612 4.16699 8.25476 4.25873 8.08487C4.35387 7.90478 4.43203 7.7179 4.51697 7.53441C4.71405 7.10288 4.90773 6.67135 5.1048 6.23982C5.17276 6.09371 5.18635 5.94421 5.09121 5.8015C4.91452 5.53307 4.53056 5.55345 4.38785 5.85586C4.09564 6.47088 3.82041 7.09609 3.53839 7.7179C3.5146 7.76886 3.5078 7.82663 3.50441 7.85041C3.50441 8.06788 3.61654 8.21738 3.79662 8.27175Z" fill="#3A62FF"/>
<path d="M16.5828 18.1256C16.2736 18.129 16.0188 18.3906 16.0188 18.7066C16.0188 19.0158 16.2804 19.2774 16.593 19.274C16.9056 19.274 17.1638 19.0158 17.1672 18.7032C17.1706 18.3838 16.9022 18.1222 16.5828 18.1256Z" fill="#3A62FF"/>
<path d="M15.2169 20.8677C14.9077 20.8711 14.6596 21.1225 14.6562 21.4351C14.6528 21.7511 14.9077 22.0093 15.2237 22.0093C15.5431 22.0093 15.8013 21.7579 15.8013 21.4419C15.8081 21.1225 15.5465 20.8643 15.2169 20.8677Z" fill="#3A62FF"/>
<path d="M13.8747 23.6063C13.5485 23.6063 13.2937 23.8646 13.2971 24.1908C13.3005 24.5068 13.5587 24.7514 13.8815 24.748C14.1941 24.7446 14.4523 24.4796 14.4422 24.167C14.4354 23.8578 14.1805 23.6063 13.8747 23.6063Z" fill="#3A62FF"/>
<path d="M10.8846 20.2289C11.0851 19.9706 11.2482 19.6988 11.2074 19.3454C11.1598 18.9343 10.9084 18.6692 10.5788 18.4688C10.4802 18.4076 10.4293 18.3396 10.4123 18.2343C10.3137 17.5819 10.188 16.9295 10.1167 16.2737C10.0385 15.5262 10.0793 14.7821 10.2798 14.0515C10.3069 13.9496 10.3477 13.9054 10.4598 13.8952C10.871 13.8612 11.2821 13.8137 11.6933 13.7729C12.6617 13.6744 13.6301 13.5826 14.5985 13.4807C14.8907 13.4501 14.9892 13.338 15.03 13.0492C15.1489 12.2371 15.2746 11.425 15.3834 10.6129C15.4071 10.4294 15.4819 10.392 15.6484 10.375C16.5794 10.2969 17.5104 10.2051 18.438 10.1168C19.8312 9.98767 21.2209 9.85516 22.614 9.72604C23.365 9.65468 24.1125 9.59012 24.8634 9.51537C25.1386 9.48819 25.2644 9.35907 25.3017 9.08724C25.3119 9.01928 25.3153 8.95132 25.3221 8.88337C25.3629 8.45523 25.4071 8.0271 25.4512 7.59218C25.8148 7.5582 26.1716 7.52762 26.525 7.49024C26.8138 7.45966 26.9701 7.26258 26.9429 6.98056C26.8138 5.62141 26.6813 4.26566 26.5522 2.90651C26.5182 2.57012 26.3517 2.43761 26.0187 2.47498C25.6381 2.51576 25.2542 2.54974 24.86 2.58711C24.8464 2.43421 24.8294 2.2915 24.8158 2.14539C24.7921 1.88036 24.7717 1.61532 24.7445 1.35029C24.7173 1.09885 24.6018 0.993512 24.3469 1.00031C23.98 1.0071 23.613 1.02749 23.246 1.03768C23.0422 1.04448 22.8825 1.11923 22.7465 1.27893C22.3184 1.77842 21.8801 2.26432 21.452 2.7638C21.3534 2.87933 21.2515 2.94049 21.0952 2.94729C20.8233 2.95748 20.5549 2.99146 20.2831 3.01864C18.3293 3.20213 12.4544 3.75258 10.1303 3.97005C10.0997 3.97005 10.0691 3.97005 10.0385 3.97005C8.70994 4.09237 7.37798 4.21809 6.04941 4.34381C4.52377 4.48652 2.99473 4.63263 1.46908 4.77534C1.13949 4.80592 0.972994 4.98601 1.00358 5.3122C1.1259 6.64077 1.25842 7.97274 1.38074 9.3013C1.39773 9.50518 1.47928 9.66488 1.61859 9.81098C2.13507 10.3682 2.64135 10.9323 3.15782 11.4895C3.22238 11.5609 3.23937 11.6187 3.20879 11.7138C2.76707 13.1205 2.3933 14.5544 2.13507 16.0155C1.9244 17.2183 1.77829 18.4246 1.82926 19.6444C1.84625 20.0997 1.921 20.555 1.98896 21.007C2.03313 21.2992 2.21322 21.4181 2.50543 21.3909C2.79425 21.3637 3.07967 21.34 3.36849 21.3128C4.39465 21.2176 5.42081 21.1225 6.44696 21.0274C7.60903 20.9186 8.76771 20.7963 9.92978 20.7113C10.3341 20.6842 10.6433 20.5415 10.8846 20.2289ZM14.2757 12.604C14.2689 12.6448 14.2009 12.7026 14.1567 12.706C13.3243 12.7909 12.4884 12.8725 11.6559 12.954C11.2923 12.988 10.9254 13.0254 10.5278 13.0627C10.7792 12.3118 11.1258 11.6322 11.5064 10.9289C11.5913 11.2857 11.7035 11.5949 11.9175 11.8565C12.118 12.1011 12.3728 12.2778 12.6753 12.3798C12.9063 12.4613 13.1204 12.373 13.2121 12.1623C13.3005 11.955 13.2155 11.7172 12.9845 11.6322C12.5937 11.4861 12.3864 11.2041 12.3185 10.8066C12.3117 10.7726 12.3151 10.7386 12.3117 10.6876C13.0762 10.6163 13.8237 10.5483 14.5815 10.477C14.4829 11.1973 14.3844 11.9041 14.2757 12.604ZM22.6242 2.65507C22.8213 2.43081 23.0252 2.20995 23.2154 1.97889C23.2936 1.88375 23.3751 1.83279 23.4975 1.83279C23.647 1.82939 23.7999 1.809 23.9664 1.79201C23.9936 2.08083 24.0207 2.35946 24.0513 2.66187C23.5348 2.70944 23.0422 2.75701 22.5019 2.80797C22.5597 2.73322 22.5902 2.69245 22.6242 2.65507ZM1.84964 5.55685C1.89721 5.55006 1.9278 5.54666 1.96177 5.54326C2.47485 5.49569 2.98793 5.44472 3.50101 5.39715C4.91112 5.26463 6.31784 5.13552 7.72796 5.003C8.23084 4.95543 8.73033 4.91126 9.23322 4.86369C9.2604 4.86029 9.29098 4.85689 9.31816 4.85689C10.1201 4.78214 15.2339 4.29964 16.0358 4.22489C17.0789 4.12635 18.122 4.02781 19.1618 3.93267C20.069 3.84772 20.9763 3.76617 21.8835 3.68123C22.7975 3.59628 23.7081 3.50794 24.6222 3.42299C25.0027 3.38901 25.3833 3.35503 25.7774 3.31766C25.8862 4.45254 25.9915 5.57384 26.0968 6.69854C26.0391 6.70873 25.9949 6.72232 25.9541 6.72572C25.1862 6.79707 24.4217 6.86843 23.6538 6.93978C23.1101 6.99075 22.5699 7.03832 22.0262 7.08929C21.9854 7.08249 21.9412 7.08249 21.8971 7.08589C21.452 7.12667 17.541 7.51063 17.0959 7.5514C16.0663 7.64654 15.0334 7.74508 14.0038 7.84022C12.9743 7.93536 11.9413 8.0305 10.9118 8.12904C9.99774 8.21399 9.08711 8.29893 8.17308 8.38728C7.26585 8.47222 6.35862 8.55717 5.45139 8.63872C4.65629 8.71347 3.86118 8.78823 3.06948 8.86298C2.77387 8.89016 2.47825 8.91734 2.17244 8.94453C2.06371 7.80624 1.95838 6.69174 1.84964 5.55685ZM4.60871 20.3852C3.9903 20.4429 3.37189 20.4973 2.73989 20.555C2.72629 20.4837 2.70931 20.4191 2.69911 20.3512C2.5598 19.2129 2.65494 18.078 2.81464 16.9499C3.07288 15.1524 3.518 13.3991 4.07525 11.673C4.14321 11.4623 4.09903 11.3026 3.95632 11.1463C3.56217 10.7182 3.17142 10.2833 2.78066 9.85176C2.75008 9.81778 2.7195 9.77701 2.67872 9.72604C2.73989 9.71584 2.77726 9.70565 2.81464 9.70225C3.59275 9.6309 4.37086 9.55954 5.14898 9.48479C6.76636 9.33528 8.38375 9.18578 10.0011 9.03287C11.5064 8.89356 13.0116 8.74745 14.5135 8.60814C15.7469 8.49261 19.9433 8.08826 21.6252 7.92517C21.6694 7.93196 21.717 7.93196 21.768 7.92856C22.3422 7.8776 22.9164 7.82323 23.4907 7.76886C23.861 7.73489 24.2314 7.7043 24.6222 7.66693C24.595 7.97613 24.561 8.26835 24.544 8.56057C24.5372 8.68629 24.4964 8.73046 24.3639 8.74066C22.3898 8.92074 20.419 9.10423 18.4448 9.29111C16.0901 9.51197 13.7354 9.73623 11.3773 9.95709C11.1904 9.97408 11.0579 10.0556 10.9695 10.2153C10.3375 11.3468 9.75989 12.4953 9.48806 13.7865C9.28079 14.7889 9.22642 15.781 9.33515 16.7868C9.38952 17.2897 9.48466 17.7892 9.55941 18.2955C9.54582 18.2989 9.52543 18.3091 9.50165 18.3091C8.39054 18.4144 7.27944 18.5197 6.17173 18.6217C5.7436 18.6624 5.31547 18.7032 4.88734 18.7474C4.72424 18.7644 4.61891 18.8663 4.56794 19.0158C4.52037 19.1687 4.55775 19.3046 4.66648 19.4236C4.7854 19.5493 4.93491 19.5527 5.09121 19.5391C6.12416 19.4439 7.15372 19.3454 8.18667 19.2503C8.76091 19.1959 9.33515 19.1415 9.91279 19.094C10.0861 19.0804 10.3885 19.2978 10.3919 19.4304C10.3953 19.5799 10.1506 19.8551 9.99434 19.8687C9.12109 19.9502 8.24783 20.0318 7.37458 20.1133C6.45716 20.2119 5.53294 20.3002 4.60871 20.3852Z" stroke="#3A62FF" stroke-width="0.232111"/>
<path d="M20.8539 17.5921C21.0544 17.1912 20.9593 16.9737 20.5243 16.848C20.2117 16.7596 19.8991 16.6679 19.5865 16.5795C19.5865 16.5693 19.5865 16.5558 19.5865 16.5456C19.6817 16.5252 19.7836 16.5184 19.8753 16.481C19.9875 16.4368 20.0928 16.3757 20.1981 16.3145C20.2797 16.2669 20.3544 16.1956 20.4394 16.1548C20.769 15.9951 21.1054 15.8456 21.435 15.6859C21.5131 15.6485 21.5845 15.584 21.649 15.5228C21.8801 15.3087 22.0398 15.0573 21.9548 14.7277C21.8699 14.4015 21.6151 14.2418 21.3126 14.1569C20.8811 14.0345 20.4428 14.0209 19.9977 14.0617C19.9297 14.0685 19.8618 14.0413 19.7904 14.0311C19.6613 14.0074 19.5254 13.9496 19.4064 13.97C18.7982 14.0753 18.1968 14.1976 17.592 14.3166C16.9328 14.4457 16.2702 14.5714 15.611 14.7039C15.346 14.7549 15.1625 14.901 15.1931 15.0947C15.2339 15.3427 15.1421 15.5092 15.0164 15.7097C14.7887 16.0733 12.7126 20.1745 12.519 20.5584C12.5088 20.5788 12.4986 20.6026 12.4918 20.623C11.4894 22.5802 10.4904 24.5407 9.48466 26.4979C9.37932 26.7052 9.22982 26.8955 9.07352 27.0722C8.84586 27.3304 8.59442 27.5683 8.35656 27.8197C8.19687 27.9862 8.17308 28.1425 8.26482 28.3294C8.33618 28.4789 8.47889 28.5231 8.6216 28.5604C10.7011 29.1007 12.7806 29.641 14.8601 30.1846C15.329 30.3069 15.8013 30.4293 16.2736 30.5482C16.593 30.6297 16.7969 30.5006 16.8478 30.1778C16.8954 29.8754 16.9294 29.573 16.9668 29.2706C16.9906 29.0871 16.9294 28.941 16.7765 28.8289C16.627 28.7201 16.4809 28.6012 16.3348 28.4857C16.1173 28.3158 15.8998 28.1459 15.6858 27.9794C15.7197 27.9114 15.7435 27.8605 15.7707 27.8095C17.4595 24.398 19.1584 20.9968 20.8539 17.5921ZM21.051 14.901C21.0578 14.9316 21.0612 14.9588 21.068 14.9893C20.7758 15.1286 20.487 15.2646 20.1778 15.4141C20.1404 15.2136 20.1064 15.0471 20.069 14.85C20.4054 14.867 20.7282 14.884 21.051 14.901ZM16.0731 15.4413C17.1197 15.2374 18.1628 15.0335 19.2264 14.8228C19.2841 15.1286 19.3419 15.4277 19.403 15.7437C19.1312 15.798 18.8662 15.849 18.6045 15.9C18.3735 15.9441 18.139 15.9951 17.9046 16.0325C17.823 16.0461 17.7347 16.0461 17.6565 16.0257C17.1774 15.8966 16.6983 15.7641 16.2226 15.6247C16.1547 15.6044 16.1037 15.533 16.0459 15.4854C16.0527 15.4752 16.0629 15.4582 16.0731 15.4413ZM15.9508 29.2162C16.1479 29.3657 16.1479 29.3657 16.0799 29.6545C13.8679 29.0803 11.6525 28.5027 9.44049 27.9284C9.4201 27.9012 9.40311 27.8775 9.38272 27.8503C9.50504 27.7517 9.62737 27.6464 9.75309 27.5547C9.78707 27.5309 9.84483 27.5139 9.889 27.5241C11.5574 27.8367 13.2223 28.1527 14.8873 28.4721C14.9654 28.4857 15.0436 28.5332 15.1115 28.5808C15.3936 28.7847 15.6688 29.0022 15.9508 29.2162ZM14.9994 27.5207C14.9484 27.6226 14.8975 27.6362 14.7887 27.6158C13.5587 27.378 12.3253 27.1503 11.0952 26.9193C10.8268 26.8683 10.555 26.8139 10.273 26.7596C10.3103 26.6848 10.3341 26.6304 10.3613 26.5761C11.4113 24.5272 12.4578 22.4748 13.5077 20.4259C13.5315 20.3818 13.5519 20.3376 13.5723 20.29C14.1873 19.094 15.4411 16.6543 15.5397 16.4538C15.5906 16.3451 15.6416 16.3111 15.7707 16.3485C16.8343 16.6543 17.8978 16.9533 18.9647 17.2523C19.2943 17.3441 19.6239 17.4426 19.9603 17.5377C19.9399 17.5887 19.9263 17.6193 19.9127 17.6499C18.2749 20.939 16.6372 24.2281 14.9994 27.5207Z" stroke="#3A62FF" stroke-width="0.232111"/>
<path d="M26.9939 23.3549C26.9939 23.2801 26.9837 23.1748 26.9361 23.134C26.7764 22.9913 26.79 22.801 26.7594 22.621C26.6915 22.2234 26.6065 21.8326 26.3925 21.4827C26.0187 20.8677 25.3663 20.8812 25.0129 21.5098C24.8057 21.8802 24.7105 22.288 24.6527 22.7025C24.6324 22.852 24.6256 23.0015 24.4964 23.117C24.4557 23.151 24.4387 23.2292 24.4353 23.2869C24.4319 24.0175 24.4217 25.8353 24.4353 26.5659C24.4353 26.5829 24.4353 26.5965 24.4387 26.6101C24.4353 26.6372 24.4319 26.661 24.4319 26.6916C24.4251 26.9057 24.4285 27.1231 24.4319 27.3372C24.4387 27.609 24.595 27.7687 24.8668 27.7721C25.4275 27.7755 25.9881 27.7755 26.5488 27.7721C26.8308 27.7687 26.9939 27.609 26.9939 27.3304C26.9973 26.0018 26.9973 24.6801 26.9939 23.3549ZM25.6721 21.9448C25.6993 21.9448 25.7265 21.9448 25.7503 21.9482C25.8318 22.2608 25.91 22.5734 25.9949 22.9064C25.791 22.9064 25.6279 22.9064 25.4275 22.9064C25.5158 22.5734 25.594 22.2574 25.6721 21.9448ZM26.1648 26.9464C25.859 26.9464 25.5668 26.9464 25.2474 26.9464C25.2474 26.8377 25.2542 26.7494 25.2474 26.6576C25.244 26.6372 25.2406 26.6202 25.2372 26.5999C25.244 26.5625 25.2474 26.5217 25.2474 26.4809C25.2474 25.9882 25.2474 24.4082 25.2474 23.9155C25.2474 23.8544 25.2542 23.7966 25.2576 23.7355C25.5736 23.7355 25.8692 23.7355 26.1682 23.7355C26.1648 24.816 26.1648 25.8829 26.1648 26.9464Z" stroke="#3A62FF" stroke-width="0.232111"/>
<path d="M23.3718 23.1102C23.2562 22.9913 23.246 22.8554 23.2222 22.7127C23.1441 22.2132 23.0456 21.7205 22.7194 21.3128C22.4407 20.9628 21.9752 20.9356 21.666 21.255C21.5811 21.3434 21.5097 21.4487 21.4486 21.554C21.2549 21.8972 21.1699 22.2812 21.1122 22.6651C21.0884 22.8214 21.0952 22.9879 20.9525 23.1102C20.8981 23.1578 20.8845 23.2632 20.8811 23.3447C20.8743 23.5316 20.8743 25.2237 20.8777 25.7232C20.8777 25.7266 20.8777 25.7266 20.8777 25.73C20.8743 26.2567 20.8743 26.7833 20.8777 27.31C20.8777 27.609 21.0442 27.7687 21.3432 27.7687C21.8869 27.7721 22.4305 27.7721 22.9742 27.7687C23.2834 27.7687 23.4499 27.6124 23.4499 27.2998C23.4533 25.9984 23.4533 24.6971 23.4499 23.3923C23.4465 23.3005 23.4295 23.1714 23.3718 23.1102ZM22.1145 21.9584C22.1315 21.9584 22.1485 21.9584 22.1655 21.9584C22.332 22.2472 22.3694 22.57 22.4169 22.903C22.2403 22.903 22.0806 22.903 21.8767 22.903C21.9616 22.5836 22.0398 22.271 22.1145 21.9584ZM22.6174 26.9464C22.3048 26.9464 22.0092 26.9464 21.6898 26.9464C21.6898 26.5523 21.6898 26.1751 21.6898 25.798C21.6932 25.5023 21.6898 23.8102 21.6898 23.7389C22.0126 23.7389 22.3082 23.7389 22.6174 23.7389C22.6174 24.8126 22.6174 25.8795 22.6174 26.9464Z" stroke="#3A62FF" stroke-width="0.232111"/>
<path d="M7.94542 7.864C8.14929 7.95575 8.37016 7.8742 8.48229 7.65334C8.56723 7.48684 8.64199 7.31695 8.72014 7.14705C8.92401 6.70193 9.12788 6.25341 9.32496 5.8049C9.44388 5.53307 9.2638 5.23745 8.97498 5.23066C8.79149 5.22386 8.65898 5.30881 8.58083 5.4719C8.49928 5.6384 8.42452 5.80829 8.34977 5.97819C8.1493 6.42671 7.94203 6.87183 7.74835 7.32035C7.64981 7.5582 7.73476 7.76547 7.94542 7.864Z" stroke="#3A62FF" stroke-width="0.232111"/>
<path d="M5.92029 8.08487C6.10038 8.12904 6.28386 8.04749 6.36881 7.86401C6.65083 7.25918 6.91247 6.65097 7.20129 6.04954C7.30662 5.83208 7.23527 5.55345 7.0246 5.45492C6.79694 5.35298 6.58288 5.45152 6.45716 5.72335C6.20571 6.26701 5.95767 6.81067 5.71302 7.35432C5.66545 7.45966 5.63147 7.57519 5.60769 7.63635C5.60769 7.88439 5.73341 8.04069 5.92029 8.08487Z" stroke="#3A62FF" stroke-width="0.232111"/>
<path d="M3.79662 8.27175C3.98011 8.32612 4.16699 8.25476 4.25873 8.08487C4.35387 7.90478 4.43203 7.7179 4.51697 7.53441C4.71405 7.10288 4.90773 6.67135 5.1048 6.23982C5.17276 6.09371 5.18635 5.94421 5.09121 5.8015C4.91452 5.53307 4.53056 5.55345 4.38785 5.85586C4.09564 6.47088 3.82041 7.09609 3.53839 7.7179C3.5146 7.76886 3.5078 7.82663 3.50441 7.85041C3.50441 8.06788 3.61654 8.21738 3.79662 8.27175Z" stroke="#3A62FF" stroke-width="0.232111"/>
<path d="M16.5828 18.1256C16.2736 18.129 16.0188 18.3906 16.0188 18.7066C16.0188 19.0158 16.2804 19.2774 16.593 19.274C16.9056 19.274 17.1638 19.0158 17.1672 18.7032C17.1706 18.3838 16.9022 18.1222 16.5828 18.1256Z" stroke="#3A62FF" stroke-width="0.232111"/>
<path d="M15.2169 20.8677C14.9077 20.8711 14.6596 21.1225 14.6562 21.4351C14.6528 21.7511 14.9077 22.0093 15.2237 22.0093C15.5431 22.0093 15.8013 21.7579 15.8013 21.4419C15.8081 21.1225 15.5465 20.8643 15.2169 20.8677Z" stroke="#3A62FF" stroke-width="0.232111"/>
<path d="M13.8747 23.6063C13.5485 23.6063 13.2937 23.8646 13.2971 24.1908C13.3005 24.5068 13.5587 24.7514 13.8815 24.748C14.1941 24.7446 14.4523 24.4796 14.4422 24.167C14.4354 23.8578 14.1805 23.6063 13.8747 23.6063Z" stroke="#3A62FF" stroke-width="0.232111"/>
</svg>
