<svg width="28" height="31" viewBox="0 0 28 31" fill="none" xmlns="http://www.w3.org/2000/svg">
<path d="M20.3696 19.1577C20.5079 19.485 20.5493 19.803 20.7982 20.0427C21.2407 20.4713 21.6602 20.9276 21.7984 21.5591C21.8537 21.8126 21.8906 22.0753 21.8906 22.3334C21.8998 24.3937 21.8952 26.4494 21.8952 28.5097C21.8952 29.7174 21.0932 30.5055 19.881 30.5101C19.5445 30.5101 19.2035 30.5147 18.867 30.5101C17.7516 30.4963 16.9542 29.7081 16.9311 28.5927C16.9265 28.3761 16.9219 28.1641 16.9311 27.9474C16.9357 27.7953 16.8758 27.7354 16.7283 27.7538C16.6961 27.7584 16.6684 27.7538 16.6361 27.7538C13.1654 27.7538 9.69011 27.7538 6.2194 27.7538C6.13644 27.7538 6.05347 27.7538 5.92902 27.7538C5.92902 28.0212 5.92902 28.2701 5.92902 28.519C5.92441 28.9937 5.81379 29.4316 5.50498 29.8049C5.13624 30.252 4.6615 30.4871 4.08535 30.5055C3.72584 30.5193 3.36171 30.5101 3.00219 30.5101C1.82225 30.5055 1.02025 29.7588 1.01103 28.5881C0.992593 26.514 1.00181 24.4398 1.00642 22.3657C1.01103 21.596 1.28758 20.9276 1.88677 20.4345C2.38917 20.0242 2.68416 19.5126 2.88697 18.9088C3.25109 17.8349 3.66592 16.7748 4.06231 15.7101C4.40339 14.7928 5.02562 14.355 6.00738 14.355C8.2797 14.3503 10.5566 14.355 12.829 14.355C13.1793 14.355 13.1793 14.355 13.1793 14.0093C13.1793 11.0502 13.1839 8.09569 13.1793 5.1366C13.1793 4.5835 13.3682 4.13641 13.8799 3.89212C14.0642 3.80455 14.2901 3.77228 14.5021 3.76767C15.0414 3.74924 15.576 3.75845 16.1153 3.76306C16.2398 3.76306 16.3043 3.72619 16.355 3.60635C16.6408 2.86427 17.1985 2.49554 17.982 2.47249C18.171 2.46788 18.2401 2.41257 18.2908 2.22821C18.4844 1.523 19.1205 1.03443 19.8487 1.00677C20.2313 0.992947 20.6139 0.983729 20.978 1.15427C21.4573 1.38012 21.78 1.74424 21.9137 2.25586C21.9551 2.40797 22.0105 2.46788 22.1764 2.46788C22.9922 2.4771 23.5591 2.85045 23.8633 3.62018C23.8864 3.68471 24.0062 3.74924 24.0846 3.74924C24.6054 3.75845 25.1309 3.75385 25.6517 3.75385C26.486 3.77228 26.993 4.26086 26.993 5.09973C26.9976 9.32634 26.9976 13.5484 26.993 17.775C26.993 18.6507 26.4675 19.1577 25.5918 19.1577C23.9555 19.1577 22.3193 19.1577 20.683 19.1577C20.5954 19.1577 20.5032 19.1577 20.3696 19.1577ZM11.4324 26.8228C14.244 26.8228 17.0556 26.8228 19.8626 26.8228C20.5816 26.8228 20.9596 26.4448 20.9596 25.7304C20.9596 24.6104 20.9596 23.4903 20.9596 22.3657C20.9596 22.2597 20.9503 22.1491 20.9411 22.0431C20.895 21.5084 20.5632 21.1397 20.2037 20.7802C20.0469 20.6234 19.8948 20.5497 19.6644 20.5497C14.3869 20.5543 9.11397 20.5635 3.83646 20.5451C3.33406 20.5451 2.96071 20.6649 2.59659 21.0198C2.16332 21.4439 1.92365 21.914 1.93287 22.5224C1.94669 23.5918 1.93747 24.6565 1.93747 25.7258C1.93747 26.4771 2.28316 26.8228 3.03907 26.8228C5.84145 26.8228 8.63922 26.8228 11.4324 26.8228ZM24.5363 11.2852C24.5363 9.57985 24.5363 7.87445 24.5317 6.16906C24.5317 6.08609 24.4625 5.9386 24.4303 5.9386C24.2643 5.9386 23.9878 5.9386 23.9555 6.01695C23.8219 6.37186 23.5637 6.40412 23.2549 6.40412C21.1439 6.40412 19.0329 6.40412 16.9173 6.40412C16.8343 6.40412 16.7468 6.40412 16.6638 6.39491C16.4656 6.37186 16.3181 6.27046 16.249 6.07687C16.1522 5.79571 15.9263 5.94321 15.7604 5.93399C15.5806 5.92477 15.6313 6.09531 15.6313 6.19671C15.6267 9.58446 15.6313 12.9722 15.6267 16.3553C15.6267 16.5535 15.6682 16.6365 15.8895 16.6365C18.6826 16.6273 21.4804 16.6273 24.2736 16.6365C24.4764 16.6365 24.5317 16.5766 24.5317 16.3784C24.5317 14.6822 24.5363 12.986 24.5363 11.2852ZM3.61983 19.6094C8.93882 19.6094 14.2163 19.6094 19.4984 19.6094C19.4247 19.1623 19.4201 19.1577 19.0007 19.1577C17.5349 19.1577 16.0692 19.1577 14.5989 19.1577C13.6909 19.1577 13.1793 18.6507 13.1793 17.7473C13.1747 17.0237 13.1793 16.3046 13.1793 15.581C13.1793 15.4934 13.17 15.4012 13.1654 15.3091C13.0963 15.3044 13.0502 15.2952 13.0087 15.2952C10.6488 15.2952 8.29353 15.2906 5.93363 15.2952C5.44967 15.2952 5.13624 15.5257 4.9611 15.9958C4.79977 16.4199 4.64767 16.8439 4.49096 17.268C4.20519 18.0377 3.91942 18.8074 3.61983 19.6094ZM23.9601 4.9845C24.2643 4.9845 24.5455 4.9845 24.8267 4.9845C25.2968 4.9845 25.4719 5.15504 25.4719 5.62056C25.4719 9.39087 25.4719 13.1658 25.4719 16.9361C25.4719 17.4108 25.3106 17.5722 24.8313 17.5722C21.6648 17.5722 18.5029 17.5722 15.3364 17.5722C14.8662 17.5722 14.6957 17.397 14.6957 16.9315C14.6957 13.1658 14.6957 9.4047 14.6957 5.639C14.6957 5.16425 14.8754 4.9845 15.3502 4.9845C15.6313 4.9845 15.9125 4.9845 16.1983 4.9845C16.1983 4.87388 16.1983 4.79552 16.1983 4.69412C15.6636 4.69412 15.152 4.69412 14.6404 4.69412C14.1887 4.69412 14.1149 4.76326 14.1149 5.21035C14.1149 9.36783 14.1149 13.5207 14.1149 17.6782C14.1149 18.1299 14.1979 18.2174 14.6496 18.2174C18.277 18.2174 21.8998 18.2174 25.5273 18.2174C25.9743 18.2174 26.0481 18.1437 26.0481 17.692C26.0481 15.8622 26.0481 14.0369 26.0481 12.2071C26.0481 9.8564 26.0481 7.50572 26.0481 5.15504C26.0481 4.77247 25.9697 4.69873 25.5918 4.69412C25.1677 4.69412 24.7483 4.69412 24.3243 4.69412C24.2044 4.69412 24.0846 4.69412 23.9601 4.69412C23.9601 4.80474 23.9601 4.87388 23.9601 4.9845ZM17.1754 5.4408C17.2261 5.45463 17.2446 5.46385 17.2676 5.46385C19.1251 5.46385 20.9826 5.46385 22.8447 5.46846C22.9784 5.46846 23.0153 5.40393 23.0106 5.28409C23.006 4.96145 23.0106 4.63881 23.0106 4.31617C23.006 3.70775 22.711 3.41277 22.1072 3.41277C20.7798 3.41277 19.4477 3.41277 18.1203 3.41277C18.0189 3.41277 17.9221 3.41738 17.8207 3.4312C17.5073 3.47729 17.1985 3.76306 17.1846 4.07188C17.157 4.52358 17.1754 4.97528 17.1754 5.4408ZM17.8622 27.7815C17.8622 28.0488 17.8576 28.3069 17.8622 28.5651C17.8714 29.1412 18.2309 29.5376 18.8117 29.5699C19.2081 29.5883 19.6091 29.5883 20.0055 29.5699C20.4525 29.5514 20.8397 29.2933 20.8996 28.9107C20.9734 28.4683 20.9596 28.0073 20.9826 27.5326C19.9409 27.9382 18.9085 27.657 17.8622 27.7815ZM1.97435 27.5556C1.96513 27.5833 1.9513 27.6017 1.9513 27.6248C1.9513 27.9613 1.94208 28.3023 1.9513 28.6388C1.96513 29.1781 2.32004 29.5468 2.86392 29.5745C3.26031 29.5929 3.66131 29.5929 4.06231 29.5745C4.59236 29.5514 4.94266 29.1965 4.97953 28.6665C4.99336 28.4821 4.98414 28.2977 4.98414 28.1134C4.98414 27.7584 4.98414 27.7769 4.63845 27.7585C3.75349 27.7031 2.84548 27.9106 1.97435 27.5556ZM20.9596 2.45406C20.8904 2.05767 20.4433 1.91478 19.9916 1.94244C19.5814 1.96548 19.3049 2.14524 19.2496 2.45406C19.8165 2.45406 20.3834 2.45406 20.9596 2.45406Z" fill="#3A62FF"/>
<path d="M17.6409 25.5368C17.1339 25.5368 16.6269 25.5414 16.1199 25.5368C15.6913 25.5322 15.5207 25.3617 15.5161 24.933C15.5115 24.2555 15.5115 23.5825 15.5161 22.905C15.5207 22.4855 15.6913 22.315 16.1015 22.315C17.1385 22.3104 18.1756 22.3104 19.2081 22.315C19.6091 22.315 19.7842 22.4855 19.7888 22.8912C19.7934 23.5825 19.7934 24.2739 19.7888 24.9653C19.7842 25.3663 19.6091 25.5322 19.2035 25.5368C18.6826 25.5414 18.1618 25.5368 17.6409 25.5368ZM18.8347 23.2645C18.0373 23.2645 17.263 23.2645 16.461 23.2645C16.461 23.6517 16.4656 24.025 16.4564 24.403C16.4518 24.5597 16.5117 24.6012 16.6592 24.5966C17.2353 24.5919 17.8115 24.5919 18.3876 24.5919C18.5305 24.5919 18.6734 24.5919 18.8347 24.5919C18.8347 24.1402 18.8347 23.7116 18.8347 23.2645Z" fill="#3A62FF"/>
<path d="M5.18695 25.5368C4.67994 25.5368 4.17293 25.5368 3.66592 25.5368C3.21883 25.5322 3.0529 25.3663 3.0529 24.9238C3.0529 24.2555 3.04829 23.5871 3.0529 22.9188C3.0529 22.4855 3.21883 22.315 3.65209 22.315C4.67994 22.3104 5.70778 22.3104 6.73563 22.315C7.15967 22.315 7.321 22.4809 7.321 22.9004C7.3256 23.5825 7.3256 24.2647 7.321 24.9515C7.321 25.3663 7.15046 25.5322 6.73102 25.5368C6.21479 25.5414 5.70317 25.5368 5.18695 25.5368ZM6.43603 23.2645C6.35307 23.2599 6.29315 23.2507 6.23323 23.2507C5.53263 23.2507 4.83665 23.2461 4.13605 23.2599C4.08535 23.2599 3.99778 23.3705 3.99778 23.4304C3.98395 23.7439 3.99778 24.0619 3.98856 24.3753C3.98395 24.5505 4.04387 24.6012 4.21441 24.6012C4.89657 24.5919 5.57873 24.5966 6.26549 24.5966C6.32541 24.5966 6.38072 24.5827 6.44064 24.5735C6.43603 24.131 6.43603 23.7116 6.43603 23.2645Z" fill="#3A62FF"/>
<path d="M11.4416 24.1218C12.0915 24.1218 12.746 24.1218 13.3959 24.1218C13.5019 24.1218 13.6125 24.131 13.7139 24.1541C13.9167 24.2048 14.0504 24.3937 14.0504 24.5966C14.0504 24.8086 13.9029 24.9883 13.6863 25.0344C13.5987 25.0529 13.5019 25.0621 13.4143 25.0621C12.1007 25.0621 10.7917 25.0621 9.47809 25.0621C9.04483 25.0621 8.81898 24.8962 8.82359 24.5873C8.8282 24.2785 9.05405 24.1172 9.48731 24.1172C10.1372 24.1218 10.7871 24.1218 11.4416 24.1218Z" fill="#3A62FF"/>
<path d="M11.4324 23.7208C10.7825 23.7208 10.128 23.7208 9.47809 23.7208C9.39513 23.7208 9.30755 23.7208 9.22459 23.707C8.98491 23.6701 8.81898 23.4811 8.81898 23.2507C8.81898 23.0202 8.98491 22.8312 9.2292 22.7944C9.30294 22.7851 9.3813 22.7851 9.45966 22.7851C10.7779 22.7851 12.1007 22.7851 13.4189 22.7851C13.4881 22.7851 13.5572 22.7851 13.6264 22.7944C13.8799 22.8266 14.055 23.0202 14.0504 23.2553C14.0504 23.495 13.8752 23.6885 13.6171 23.7116C13.4328 23.73 13.2484 23.7208 13.064 23.7208C12.5248 23.7208 11.9763 23.7208 11.4324 23.7208Z" fill="#3A62FF"/>
<path d="M19.6091 11.9121C19.6091 11.3406 19.6137 10.7921 19.5998 10.2436C19.5998 10.179 19.4754 10.0592 19.4155 10.0638C19.3371 10.0684 19.2496 10.1606 19.1896 10.2344C19.1528 10.2758 19.1666 10.3542 19.1435 10.4095C19.0698 10.6123 18.9177 10.7183 18.7057 10.7137C18.489 10.7137 18.3462 10.5985 18.2724 10.3957C18.254 10.345 18.2632 10.2804 18.2355 10.239C18.1894 10.1698 18.1203 10.0638 18.0604 10.0638C17.9866 10.0638 17.876 10.1329 17.8391 10.2021C17.6317 10.5893 17.475 10.7045 17.2077 10.6307C16.9542 10.5616 16.8574 10.3496 16.8804 9.92554C16.9864 8.27545 18.4568 6.94801 20.1391 6.98488C21.8445 7.02636 23.1858 8.30311 23.301 10.0039C23.3056 10.1007 23.3056 10.2067 23.2826 10.2989C23.2411 10.4879 23.112 10.6077 22.9185 10.6354C22.7295 10.6676 22.5682 10.6031 22.4622 10.4372C22.4114 10.3588 22.3976 10.262 22.3377 10.1929C22.287 10.1283 22.1994 10.0546 22.1303 10.0592C22.0658 10.0638 21.992 10.156 21.9459 10.2205C21.909 10.2758 21.9137 10.3542 21.8906 10.4187C21.8169 10.6123 21.6648 10.7091 21.462 10.7091C21.2592 10.7091 21.1117 10.6077 21.0333 10.4187C21.0149 10.3772 21.0103 10.3311 21.001 10.2851C20.9734 10.1468 20.9227 10.0269 20.7521 10.0454C20.5816 10.0638 20.5539 10.1929 20.5539 10.3311C20.5539 10.9764 20.5586 11.6217 20.5493 12.267C20.5447 12.691 20.3373 12.9906 19.9686 13.1197C19.4524 13.2995 18.89 12.9261 18.8532 12.3822C18.8301 12.0365 19.1113 11.8015 19.4477 11.8752C19.4984 11.889 19.5399 11.8983 19.6091 11.9121ZM18.1295 9.08206C18.277 9.13737 18.4199 9.2019 18.572 9.24338C18.655 9.26642 18.7656 9.27103 18.8439 9.23877C19.2173 9.06823 19.5814 9.06823 19.9548 9.23416C20.0331 9.26642 20.1483 9.27103 20.2221 9.23877C20.6047 9.06362 20.9734 9.06362 21.3513 9.24799C21.402 9.27564 21.4712 9.30791 21.5173 9.28947C21.7016 9.22494 21.8768 9.14659 22.0565 9.06823C21.7477 8.37224 20.872 7.87906 20.0147 7.91133C19.1896 7.94359 18.3508 8.46443 18.1295 9.08206Z" fill="#3A62FF"/>
<path d="M20.1069 14.9403C20.9457 14.9403 21.78 14.9403 22.6189 14.9403C22.711 14.9403 22.8032 14.9403 22.8954 14.9588C23.112 15.0002 23.2595 15.1846 23.2641 15.4012C23.2688 15.604 23.1305 15.793 22.9323 15.8483C22.8447 15.8714 22.7525 15.876 22.6603 15.876C20.9503 15.876 19.2357 15.876 17.5257 15.876C17.4658 15.876 17.4013 15.876 17.3414 15.8668C17.0832 15.8253 16.9265 15.6409 16.9357 15.392C16.945 15.1523 17.1017 14.9726 17.3506 14.9542C17.6087 14.9357 17.8714 14.9449 18.1341 14.9403C18.784 14.9403 19.4477 14.9403 20.1069 14.9403Z" fill="#3A62FF"/>
<path d="M20.0838 13.5345C20.9042 13.5345 21.7247 13.5345 22.5497 13.5345C22.6096 13.5345 22.6742 13.5345 22.7341 13.5345C23.0567 13.553 23.2595 13.7281 23.2641 13.9954C23.2688 14.272 23.0613 14.4702 22.7249 14.4702C20.9688 14.4748 19.2081 14.4748 17.452 14.4702C17.1201 14.4702 16.9311 14.2858 16.9265 14.0093C16.9219 13.7235 17.1155 13.5391 17.4566 13.5345C18.3323 13.5299 19.2081 13.5345 20.0838 13.5345Z" fill="#3A62FF"/>
<path d="M20.3696 19.1577C20.5079 19.485 20.5493 19.803 20.7982 20.0427C21.2407 20.4713 21.6602 20.9276 21.7984 21.5591C21.8537 21.8126 21.8906 22.0753 21.8906 22.3334C21.8998 24.3937 21.8952 26.4494 21.8952 28.5097C21.8952 29.7174 21.0932 30.5055 19.881 30.5101C19.5445 30.5101 19.2035 30.5147 18.867 30.5101C17.7516 30.4963 16.9542 29.7081 16.9311 28.5927C16.9265 28.3761 16.9219 28.1641 16.9311 27.9474C16.9357 27.7953 16.8758 27.7354 16.7283 27.7538C16.6961 27.7584 16.6684 27.7538 16.6361 27.7538C13.1654 27.7538 9.69011 27.7538 6.2194 27.7538C6.13644 27.7538 6.05347 27.7538 5.92902 27.7538C5.92902 28.0212 5.92902 28.2701 5.92902 28.519C5.92441 28.9937 5.81379 29.4316 5.50498 29.8049C5.13624 30.252 4.6615 30.4871 4.08535 30.5055C3.72584 30.5193 3.36171 30.5101 3.00219 30.5101C1.82225 30.5055 1.02025 29.7588 1.01103 28.5881C0.992593 26.514 1.00181 24.4398 1.00642 22.3657C1.01103 21.596 1.28758 20.9276 1.88677 20.4345C2.38917 20.0242 2.68416 19.5126 2.88697 18.9088C3.25109 17.8349 3.66592 16.7748 4.06231 15.7101C4.40339 14.7928 5.02562 14.355 6.00738 14.355C8.2797 14.3503 10.5566 14.355 12.829 14.355C13.1793 14.355 13.1793 14.355 13.1793 14.0093C13.1793 11.0502 13.1839 8.09569 13.1793 5.1366C13.1793 4.5835 13.3682 4.13641 13.8799 3.89212C14.0642 3.80455 14.2901 3.77228 14.5021 3.76767C15.0414 3.74924 15.576 3.75845 16.1153 3.76306C16.2398 3.76306 16.3043 3.72619 16.355 3.60635C16.6408 2.86427 17.1985 2.49554 17.982 2.47249C18.171 2.46788 18.2401 2.41257 18.2908 2.22821C18.4844 1.523 19.1205 1.03443 19.8487 1.00677C20.2313 0.992947 20.6139 0.983729 20.978 1.15427C21.4573 1.38012 21.78 1.74424 21.9137 2.25586C21.9551 2.40797 22.0105 2.46788 22.1764 2.46788C22.9922 2.4771 23.5591 2.85045 23.8633 3.62018C23.8864 3.68471 24.0062 3.74924 24.0846 3.74924C24.6054 3.75845 25.1309 3.75385 25.6517 3.75385C26.486 3.77228 26.993 4.26086 26.993 5.09973C26.9976 9.32634 26.9976 13.5484 26.993 17.775C26.993 18.6507 26.4675 19.1577 25.5918 19.1577C23.9555 19.1577 22.3193 19.1577 20.683 19.1577C20.5954 19.1577 20.5032 19.1577 20.3696 19.1577ZM11.4324 26.8228C14.244 26.8228 17.0556 26.8228 19.8626 26.8228C20.5816 26.8228 20.9596 26.4448 20.9596 25.7304C20.9596 24.6104 20.9596 23.4903 20.9596 22.3657C20.9596 22.2597 20.9503 22.1491 20.9411 22.0431C20.895 21.5084 20.5632 21.1397 20.2037 20.7802C20.0469 20.6234 19.8948 20.5497 19.6644 20.5497C14.3869 20.5543 9.11397 20.5635 3.83646 20.5451C3.33406 20.5451 2.96071 20.6649 2.59659 21.0198C2.16332 21.4439 1.92365 21.914 1.93287 22.5224C1.94669 23.5918 1.93747 24.6565 1.93747 25.7258C1.93747 26.4771 2.28316 26.8228 3.03907 26.8228C5.84145 26.8228 8.63922 26.8228 11.4324 26.8228ZM24.5363 11.2852C24.5363 9.57985 24.5363 7.87445 24.5317 6.16906C24.5317 6.08609 24.4625 5.9386 24.4303 5.9386C24.2643 5.9386 23.9878 5.9386 23.9555 6.01695C23.8219 6.37186 23.5637 6.40412 23.2549 6.40412C21.1439 6.40412 19.0329 6.40412 16.9173 6.40412C16.8343 6.40412 16.7468 6.40412 16.6638 6.39491C16.4656 6.37186 16.3181 6.27046 16.249 6.07687C16.1522 5.79571 15.9263 5.94321 15.7604 5.93399C15.5806 5.92477 15.6313 6.09531 15.6313 6.19671C15.6267 9.58446 15.6313 12.9722 15.6267 16.3553C15.6267 16.5535 15.6682 16.6365 15.8895 16.6365C18.6826 16.6273 21.4804 16.6273 24.2736 16.6365C24.4764 16.6365 24.5317 16.5766 24.5317 16.3784C24.5317 14.6822 24.5363 12.986 24.5363 11.2852ZM3.61983 19.6094C8.93882 19.6094 14.2163 19.6094 19.4984 19.6094C19.4247 19.1623 19.4201 19.1577 19.0007 19.1577C17.5349 19.1577 16.0692 19.1577 14.5989 19.1577C13.6909 19.1577 13.1793 18.6507 13.1793 17.7473C13.1747 17.0237 13.1793 16.3046 13.1793 15.581C13.1793 15.4934 13.17 15.4012 13.1654 15.3091C13.0963 15.3044 13.0502 15.2952 13.0087 15.2952C10.6488 15.2952 8.29353 15.2906 5.93363 15.2952C5.44967 15.2952 5.13624 15.5257 4.9611 15.9958C4.79977 16.4199 4.64767 16.8439 4.49096 17.268C4.20519 18.0377 3.91942 18.8074 3.61983 19.6094ZM23.9601 4.9845C24.2643 4.9845 24.5455 4.9845 24.8267 4.9845C25.2968 4.9845 25.4719 5.15504 25.4719 5.62056C25.4719 9.39087 25.4719 13.1658 25.4719 16.9361C25.4719 17.4108 25.3106 17.5722 24.8313 17.5722C21.6648 17.5722 18.5029 17.5722 15.3364 17.5722C14.8662 17.5722 14.6957 17.397 14.6957 16.9315C14.6957 13.1658 14.6957 9.4047 14.6957 5.639C14.6957 5.16425 14.8754 4.9845 15.3502 4.9845C15.6313 4.9845 15.9125 4.9845 16.1983 4.9845C16.1983 4.87388 16.1983 4.79552 16.1983 4.69412C15.6636 4.69412 15.152 4.69412 14.6404 4.69412C14.1887 4.69412 14.1149 4.76326 14.1149 5.21035C14.1149 9.36783 14.1149 13.5207 14.1149 17.6782C14.1149 18.1299 14.1979 18.2174 14.6496 18.2174C18.277 18.2174 21.8998 18.2174 25.5273 18.2174C25.9743 18.2174 26.0481 18.1437 26.0481 17.692C26.0481 15.8622 26.0481 14.0369 26.0481 12.2071C26.0481 9.8564 26.0481 7.50572 26.0481 5.15504C26.0481 4.77247 25.9697 4.69873 25.5918 4.69412C25.1677 4.69412 24.7483 4.69412 24.3243 4.69412C24.2044 4.69412 24.0846 4.69412 23.9601 4.69412C23.9601 4.80474 23.9601 4.87388 23.9601 4.9845ZM17.1754 5.4408C17.2261 5.45463 17.2446 5.46385 17.2676 5.46385C19.1251 5.46385 20.9826 5.46385 22.8447 5.46846C22.9784 5.46846 23.0153 5.40393 23.0106 5.28409C23.006 4.96145 23.0106 4.63881 23.0106 4.31617C23.006 3.70775 22.711 3.41277 22.1072 3.41277C20.7798 3.41277 19.4477 3.41277 18.1203 3.41277C18.0189 3.41277 17.9221 3.41738 17.8207 3.4312C17.5073 3.47729 17.1985 3.76306 17.1846 4.07188C17.157 4.52358 17.1754 4.97528 17.1754 5.4408ZM17.8622 27.7815C17.8622 28.0488 17.8576 28.3069 17.8622 28.5651C17.8714 29.1412 18.2309 29.5376 18.8117 29.5699C19.2081 29.5883 19.6091 29.5883 20.0055 29.5699C20.4525 29.5514 20.8397 29.2933 20.8996 28.9107C20.9734 28.4683 20.9596 28.0073 20.9826 27.5326C19.9409 27.9382 18.9085 27.657 17.8622 27.7815ZM1.97435 27.5556C1.96513 27.5833 1.9513 27.6017 1.9513 27.6248C1.9513 27.9613 1.94208 28.3023 1.9513 28.6388C1.96513 29.1781 2.32004 29.5468 2.86392 29.5745C3.26031 29.5929 3.66131 29.5929 4.06231 29.5745C4.59236 29.5514 4.94266 29.1965 4.97953 28.6665C4.99336 28.4821 4.98414 28.2977 4.98414 28.1134C4.98414 27.7584 4.98414 27.7769 4.63845 27.7585C3.75349 27.7031 2.84548 27.9106 1.97435 27.5556ZM20.9596 2.45406C20.8904 2.05767 20.4433 1.91478 19.9916 1.94244C19.5814 1.96548 19.3049 2.14524 19.2496 2.45406C19.8165 2.45406 20.3834 2.45406 20.9596 2.45406Z" stroke="#3A62FF" stroke-width="0.139267"/>
<path d="M17.6409 25.5368C17.1339 25.5368 16.6269 25.5414 16.1199 25.5368C15.6913 25.5322 15.5207 25.3617 15.5161 24.933C15.5115 24.2555 15.5115 23.5825 15.5161 22.905C15.5207 22.4855 15.6913 22.315 16.1015 22.315C17.1385 22.3104 18.1756 22.3104 19.2081 22.315C19.6091 22.315 19.7842 22.4855 19.7888 22.8912C19.7934 23.5825 19.7934 24.2739 19.7888 24.9653C19.7842 25.3663 19.6091 25.5322 19.2035 25.5368C18.6826 25.5414 18.1618 25.5368 17.6409 25.5368ZM18.8347 23.2645C18.0373 23.2645 17.263 23.2645 16.461 23.2645C16.461 23.6517 16.4656 24.025 16.4564 24.403C16.4518 24.5597 16.5117 24.6012 16.6592 24.5966C17.2353 24.5919 17.8115 24.5919 18.3876 24.5919C18.5305 24.5919 18.6734 24.5919 18.8347 24.5919C18.8347 24.1402 18.8347 23.7116 18.8347 23.2645Z" stroke="#3A62FF" stroke-width="0.139267"/>
<path d="M5.18695 25.5368C4.67994 25.5368 4.17293 25.5368 3.66592 25.5368C3.21883 25.5322 3.0529 25.3663 3.0529 24.9238C3.0529 24.2555 3.04829 23.5871 3.0529 22.9188C3.0529 22.4855 3.21883 22.315 3.65209 22.315C4.67994 22.3104 5.70778 22.3104 6.73563 22.315C7.15967 22.315 7.321 22.4809 7.321 22.9004C7.3256 23.5825 7.3256 24.2647 7.321 24.9515C7.321 25.3663 7.15046 25.5322 6.73102 25.5368C6.21479 25.5414 5.70317 25.5368 5.18695 25.5368ZM6.43603 23.2645C6.35307 23.2599 6.29315 23.2507 6.23323 23.2507C5.53263 23.2507 4.83665 23.2461 4.13605 23.2599C4.08535 23.2599 3.99778 23.3705 3.99778 23.4304C3.98395 23.7439 3.99778 24.0619 3.98856 24.3753C3.98395 24.5505 4.04387 24.6012 4.21441 24.6012C4.89657 24.5919 5.57873 24.5966 6.26549 24.5966C6.32541 24.5966 6.38072 24.5827 6.44064 24.5735C6.43603 24.131 6.43603 23.7116 6.43603 23.2645Z" stroke="#3A62FF" stroke-width="0.139267"/>
<path d="M11.4416 24.1218C12.0915 24.1218 12.746 24.1218 13.3959 24.1218C13.5019 24.1218 13.6125 24.131 13.7139 24.1541C13.9167 24.2048 14.0504 24.3937 14.0504 24.5966C14.0504 24.8086 13.9029 24.9883 13.6863 25.0344C13.5987 25.0529 13.5019 25.0621 13.4143 25.0621C12.1007 25.0621 10.7917 25.0621 9.47809 25.0621C9.04483 25.0621 8.81898 24.8962 8.82359 24.5873C8.8282 24.2785 9.05405 24.1172 9.48731 24.1172C10.1372 24.1218 10.7871 24.1218 11.4416 24.1218Z" stroke="#3A62FF" stroke-width="0.139267"/>
<path d="M11.4324 23.7208C10.7825 23.7208 10.128 23.7208 9.47809 23.7208C9.39513 23.7208 9.30755 23.7208 9.22459 23.707C8.98491 23.6701 8.81898 23.4811 8.81898 23.2507C8.81898 23.0202 8.98491 22.8312 9.2292 22.7944C9.30294 22.7851 9.3813 22.7851 9.45966 22.7851C10.7779 22.7851 12.1007 22.7851 13.4189 22.7851C13.4881 22.7851 13.5572 22.7851 13.6264 22.7944C13.8799 22.8266 14.055 23.0202 14.0504 23.2553C14.0504 23.495 13.8752 23.6885 13.6171 23.7116C13.4328 23.73 13.2484 23.7208 13.064 23.7208C12.5248 23.7208 11.9763 23.7208 11.4324 23.7208Z" stroke="#3A62FF" stroke-width="0.139267"/>
<path d="M19.6091 11.9121C19.6091 11.3406 19.6137 10.7921 19.5998 10.2436C19.5998 10.179 19.4754 10.0592 19.4155 10.0638C19.3371 10.0684 19.2496 10.1606 19.1896 10.2344C19.1528 10.2758 19.1666 10.3542 19.1435 10.4095C19.0698 10.6123 18.9177 10.7183 18.7057 10.7137C18.489 10.7137 18.3462 10.5985 18.2724 10.3957C18.254 10.345 18.2632 10.2804 18.2355 10.239C18.1894 10.1698 18.1203 10.0638 18.0604 10.0638C17.9866 10.0638 17.876 10.1329 17.8391 10.2021C17.6317 10.5893 17.475 10.7045 17.2077 10.6307C16.9542 10.5616 16.8574 10.3496 16.8804 9.92554C16.9864 8.27545 18.4568 6.94801 20.1391 6.98488C21.8445 7.02636 23.1858 8.30311 23.301 10.0039C23.3056 10.1007 23.3056 10.2067 23.2826 10.2989C23.2411 10.4879 23.112 10.6077 22.9185 10.6354C22.7295 10.6676 22.5682 10.6031 22.4622 10.4372C22.4114 10.3588 22.3976 10.262 22.3377 10.1929C22.287 10.1283 22.1994 10.0546 22.1303 10.0592C22.0658 10.0638 21.992 10.156 21.9459 10.2205C21.909 10.2758 21.9137 10.3542 21.8906 10.4187C21.8169 10.6123 21.6648 10.7091 21.462 10.7091C21.2592 10.7091 21.1117 10.6077 21.0333 10.4187C21.0149 10.3772 21.0103 10.3311 21.001 10.2851C20.9734 10.1468 20.9227 10.0269 20.7521 10.0454C20.5816 10.0638 20.5539 10.1929 20.5539 10.3311C20.5539 10.9764 20.5586 11.6217 20.5493 12.267C20.5447 12.691 20.3373 12.9906 19.9686 13.1197C19.4524 13.2995 18.89 12.9261 18.8532 12.3822C18.8301 12.0365 19.1113 11.8015 19.4477 11.8752C19.4984 11.889 19.5399 11.8983 19.6091 11.9121ZM18.1295 9.08206C18.277 9.13737 18.4199 9.2019 18.572 9.24338C18.655 9.26642 18.7656 9.27103 18.8439 9.23877C19.2173 9.06823 19.5814 9.06823 19.9548 9.23416C20.0331 9.26642 20.1483 9.27103 20.2221 9.23877C20.6047 9.06362 20.9734 9.06362 21.3513 9.24799C21.402 9.27564 21.4712 9.30791 21.5173 9.28947C21.7016 9.22494 21.8768 9.14659 22.0565 9.06823C21.7477 8.37224 20.872 7.87906 20.0147 7.91133C19.1896 7.94359 18.3508 8.46443 18.1295 9.08206Z" stroke="#3A62FF" stroke-width="0.139267"/>
<path d="M20.1069 14.9403C20.9457 14.9403 21.78 14.9403 22.6189 14.9403C22.711 14.9403 22.8032 14.9403 22.8954 14.9588C23.112 15.0002 23.2595 15.1846 23.2641 15.4012C23.2688 15.604 23.1305 15.793 22.9323 15.8483C22.8447 15.8714 22.7525 15.876 22.6603 15.876C20.9503 15.876 19.2357 15.876 17.5257 15.876C17.4658 15.876 17.4013 15.876 17.3414 15.8668C17.0832 15.8253 16.9265 15.6409 16.9357 15.392C16.945 15.1523 17.1017 14.9726 17.3506 14.9542C17.6087 14.9357 17.8714 14.9449 18.1341 14.9403C18.784 14.9403 19.4477 14.9403 20.1069 14.9403Z" stroke="#3A62FF" stroke-width="0.139267"/>
<path d="M20.0838 13.5345C20.9042 13.5345 21.7247 13.5345 22.5497 13.5345C22.6096 13.5345 22.6742 13.5345 22.7341 13.5345C23.0567 13.553 23.2595 13.7281 23.2641 13.9954C23.2688 14.272 23.0613 14.4702 22.7249 14.4702C20.9688 14.4748 19.2081 14.4748 17.452 14.4702C17.1201 14.4702 16.9311 14.2858 16.9265 14.0093C16.9219 13.7235 17.1155 13.5391 17.4566 13.5345C18.3323 13.5299 19.2081 13.5345 20.0838 13.5345Z" stroke="#3A62FF" stroke-width="0.139267"/>
</svg>
