<svg width="28" height="22" viewBox="0 0 28 22" fill="none" xmlns="http://www.w3.org/2000/svg">
<path d="M13.5967 18.1993C13.5598 19.2368 13.5334 19.9892 13.5017 20.7389C13.4911 20.9818 13.3433 21.156 13.1031 21.193C12.4378 21.2933 11.7725 21.3857 11.1072 21.4807C10.5027 21.5652 9.89815 21.647 9.29361 21.7368C8.94777 21.787 8.70226 21.6497 8.65474 21.3514C8.6389 21.259 8.65738 21.1587 8.6785 21.0663C8.83689 20.306 8.66002 19.6196 8.22179 18.9939C7.80995 18.4078 7.2714 17.9485 6.7091 17.5155C6.2471 17.1591 5.78775 16.7948 5.31256 16.4569C4.45722 15.8444 3.93979 15.0049 3.68371 14.007C3.49892 13.2837 3.35372 12.5524 3.20324 11.8212C2.74653 9.61152 2.18686 7.4362 1.36848 5.3348C1.25496 5.04441 1.152 4.74873 1.04641 4.4557C0.922328 4.11251 1.04905 3.84587 1.4028 3.75875C1.73015 3.67692 2.06015 3.60564 2.39542 3.55284C3.02637 3.45252 3.51476 3.71124 3.90283 4.19699C4.33314 4.73818 4.61298 5.35856 4.83473 6.00271C5.01425 6.52542 5.16209 7.05869 5.31784 7.58932C5.3416 7.6738 5.37856 7.7134 5.46832 7.73716C6.08343 7.90347 6.57446 8.26779 6.97309 8.7509C7.27668 9.12049 7.5618 9.50592 7.85219 9.88872C8.26139 10.4299 8.76298 10.8576 9.34904 11.2034C10.273 11.7446 11.1389 12.3676 11.9283 13.0963C12.3058 13.4447 12.6543 13.8222 12.9526 14.2473C13.2694 14.7013 13.4357 15.2029 13.47 15.7468C13.5281 16.6602 13.565 17.5736 13.5967 18.1993ZM2.0971 4.55338C2.22118 4.90185 2.33998 5.22393 2.4535 5.546C2.80989 6.5835 3.20852 7.61044 3.45404 8.68226C3.72595 9.86232 3.99787 11.045 4.24338 12.233C4.37802 12.8798 4.5021 13.5239 4.72385 14.147C4.93505 14.7409 5.2756 15.232 5.77983 15.6095C6.15735 15.892 6.52694 16.1824 6.90181 16.4648C7.6014 16.9928 8.29042 17.534 8.83689 18.2283C9.32264 18.8461 9.63944 19.5351 9.68168 20.335C9.6896 20.4591 9.68168 20.5858 9.68168 20.7231C10.6585 20.5858 11.6088 20.4511 12.5645 20.3165C12.5671 20.2875 12.5724 20.2664 12.5751 20.2452C12.6305 18.8117 12.6675 17.3809 12.5487 15.95C12.5064 15.4326 12.3507 14.9601 12.0022 14.5641C11.7831 14.3159 11.5666 14.0678 11.3264 13.8434C10.5423 13.1042 9.66056 12.4943 8.73658 11.9452C8.23763 11.6496 7.78355 11.2932 7.41396 10.847C7.06549 10.4273 6.74077 9.98903 6.4055 9.55872C6.16527 9.25249 5.90127 8.97001 5.55016 8.7905C5.4604 8.74298 5.36272 8.70866 5.25448 8.66114C5.24128 8.74562 5.23072 8.80106 5.22808 8.8565C5.2228 8.94889 5.21488 9.04129 5.2228 9.13369C5.30464 10.0313 5.56864 10.8787 5.93559 11.6997C6.02535 11.9004 6.15207 12.072 6.33158 12.2013C6.63518 12.4204 6.93877 12.6369 7.24236 12.8534C7.5618 13.0804 7.84163 13.3418 8.02115 13.6982C8.15315 13.9542 8.08187 14.2288 7.84427 14.3608C7.60932 14.4928 7.34796 14.4004 7.18693 14.1602C7.07605 13.9965 6.94405 13.8354 6.79093 13.7114C6.56126 13.5213 6.30254 13.3682 6.05967 13.1939C5.68215 12.9247 5.3284 12.6316 5.12249 12.196C4.69745 11.2958 4.40178 10.356 4.29354 9.36337C4.24866 8.95153 4.24602 8.53706 4.45458 8.15427C4.47042 8.12523 4.4625 8.07771 4.45194 8.04339C4.28562 7.33324 4.07971 6.63366 3.80251 5.95783C3.63091 5.53808 3.43556 5.13153 3.15044 4.77249C3.01581 4.60354 2.85477 4.47946 2.62509 4.4953C2.45086 4.49794 2.2819 4.52962 2.0971 4.55338Z" fill="#3A62FF"/>
<path d="M25.5372 3.53964C25.8276 3.55548 26.2606 3.65052 26.6856 3.78779C26.9628 3.87755 27.0605 4.14683 26.9549 4.44778C26.6935 5.17377 26.4401 5.90503 26.1708 6.62838C25.7009 7.89027 25.3762 9.19441 25.0911 10.5091C24.8878 11.4436 24.7083 12.3861 24.5076 13.3206C24.3915 13.8618 24.2093 14.3845 23.9928 14.8967C23.7315 15.5118 23.2933 15.9764 22.7785 16.3803C22.1607 16.8635 21.5324 17.3281 20.9199 17.8165C20.4368 18.2019 19.996 18.6322 19.6712 19.1629C19.3069 19.7568 19.1802 20.3957 19.328 21.0847C19.3993 21.4147 19.2937 21.6444 19.0297 21.7262C18.9479 21.7526 18.8555 21.7553 18.771 21.7447C17.8101 21.6127 16.8465 21.4754 15.8856 21.3408C15.5952 21.2986 15.3021 21.2563 15.0117 21.2194C14.6606 21.1745 14.5075 21.0267 14.4943 20.6755C14.4283 19.1919 14.3808 17.7056 14.4864 16.2193C14.5286 15.6042 14.5867 14.9917 14.9273 14.4479C15.1622 14.0678 15.442 13.7246 15.7562 13.4104C16.5693 12.592 17.4827 11.8951 18.4806 11.3196C19.2964 10.847 19.9405 10.2213 20.4843 9.46368C20.7615 9.08089 21.0757 8.72186 21.403 8.3813C21.7225 8.05131 22.1264 7.84011 22.5752 7.73188C22.6649 7.71076 22.6676 7.65004 22.6834 7.58932C22.8735 6.84485 23.0953 6.10831 23.4041 5.40344C23.6206 4.90977 23.8688 4.43722 24.2436 4.04123C24.5499 3.70596 24.9221 3.5238 25.5372 3.53964ZM22.7336 8.66114C22.4722 8.7509 22.2373 8.86177 22.0657 9.05185C21.7568 9.38712 21.4558 9.73296 21.1839 10.0999C20.6559 10.8074 20.0804 11.4568 19.3122 11.9136C18.9532 12.1274 18.5994 12.3491 18.2536 12.5841C17.4642 13.1227 16.7145 13.714 16.0888 14.4426C15.7747 14.8096 15.5239 15.2108 15.4843 15.7045C15.442 16.2246 15.3919 16.7473 15.384 17.27C15.3734 18.0963 15.3919 18.9226 15.4024 19.7489C15.4051 19.9364 15.4183 20.1238 15.4288 20.3139C16.3951 20.4485 17.3454 20.5831 18.309 20.7178C18.309 20.6676 18.309 20.6333 18.309 20.599C18.3011 19.8994 18.4912 19.2553 18.8608 18.6613C19.2383 18.0514 19.7346 17.5472 20.289 17.1037C20.9305 16.5889 21.5931 16.1005 22.2373 15.591C22.5382 15.3534 22.8207 15.0973 23.0029 14.7489C23.2959 14.1866 23.478 13.5873 23.6127 12.9722C23.9348 11.5017 24.2146 10.0181 24.5842 8.55818C24.8376 7.555 25.2072 6.5835 25.5293 5.5988C25.6428 5.25297 25.7722 4.91505 25.8962 4.5613C25.7959 4.54018 25.7062 4.5217 25.6138 4.50586C25.3471 4.46098 25.0884 4.45834 24.9063 4.70122C24.7769 4.87281 24.6423 5.04441 24.5393 5.23185C24.0562 6.11887 23.7816 7.08245 23.5414 8.05659C23.5335 8.08563 23.5335 8.12259 23.5467 8.14371C23.7605 8.52914 23.7526 8.94889 23.7077 9.366C23.61 10.2821 23.3434 11.1533 22.9685 11.9928C22.8392 12.2858 22.6913 12.5788 22.4326 12.7821C22.071 13.0672 21.6961 13.3365 21.3212 13.6084C21.11 13.7615 20.9226 13.9331 20.7932 14.1681C20.6612 14.4057 20.384 14.4769 20.157 14.3529C19.93 14.2288 19.8481 13.9569 19.9669 13.714C20.1491 13.3444 20.4395 13.0725 20.7695 12.8375C21.0361 12.6501 21.3027 12.4653 21.5694 12.2779C21.7885 12.1221 21.9627 11.9294 22.0736 11.6812C22.4062 10.9341 22.6491 10.1633 22.7573 9.35016C22.7864 9.12577 22.8075 8.89873 22.7336 8.66114Z" fill="#3A62FF"/>
<path d="M19.5392 6.53862C19.5392 9.59304 17.063 12.0799 14.0033 12.0799C10.9093 12.0825 8.39338 9.5508 8.45938 6.41454C8.52274 3.43668 10.9515 1.00529 14.0006 1.00001C17.0524 0.994728 19.5392 3.48684 19.5392 6.53862ZM13.9848 11.1321C16.4795 11.1242 18.5651 9.16273 18.5836 6.56502C18.6021 4.04651 16.5983 1.99791 14.0587 1.95303C11.5244 1.90815 9.43088 3.95411 9.4124 6.52542C9.39656 9.03337 11.3924 11.0978 13.9848 11.1321Z" fill="#3A62FF"/>
<path d="M15.4209 7.78468C15.4209 7.98267 15.4209 8.16219 15.4209 8.34434C15.4209 8.70602 15.4236 9.06505 15.4209 9.42672C15.4183 9.71976 15.2282 9.92039 14.9352 9.92303C14.3861 9.92831 13.8343 9.92831 13.2852 9.92303C12.9816 9.92039 12.7995 9.7224 12.7968 9.40296C12.7942 8.92249 12.7968 8.44466 12.7968 7.96419C12.7968 7.91139 12.7968 7.85859 12.7968 7.79259C12.7387 7.78996 12.6939 7.78732 12.6463 7.78732C12.1659 7.78732 11.688 7.78732 11.2076 7.78732C10.8406 7.78732 10.6585 7.60252 10.6585 7.23557C10.6585 6.72606 10.6585 6.21391 10.6585 5.7044C10.6585 5.35064 10.8433 5.16849 11.1944 5.16849C11.6748 5.16849 12.1527 5.16849 12.6331 5.16849C12.6807 5.16849 12.7282 5.16849 12.7889 5.16849C12.7915 5.10777 12.7968 5.05761 12.7968 5.00745C12.7968 4.53226 12.7968 4.05707 12.7968 3.58188C12.7968 3.20701 12.979 3.02749 13.3565 3.02485C13.8528 3.02485 14.3517 3.02485 14.8481 3.02485C15.2414 3.02485 15.4209 3.20437 15.4209 3.59508C15.4209 4.06499 15.4209 4.53754 15.4209 5.00745C15.4209 5.05497 15.4209 5.10249 15.4209 5.16849C15.4764 5.16849 15.5239 5.16849 15.5688 5.16849C16.0624 5.16849 16.5535 5.16849 17.0471 5.16849C17.3613 5.16849 17.5566 5.3612 17.5593 5.678C17.5619 6.21127 17.5619 6.7419 17.5593 7.27517C17.5593 7.58932 17.3692 7.78468 17.0498 7.78732C16.5614 7.7926 16.073 7.78732 15.5846 7.78996C15.5371 7.78468 15.4896 7.78468 15.4209 7.78468ZM16.601 6.11359C16.5429 6.11359 16.4954 6.11359 16.4479 6.11359C15.978 6.11359 15.5054 6.11359 15.0355 6.11359C14.6474 6.11359 14.4705 5.93671 14.4679 5.55128C14.4679 5.07609 14.4679 4.6009 14.4679 4.12571C14.4679 4.07819 14.4679 4.03331 14.4679 3.98579C14.2171 3.98579 13.9874 3.98579 13.7472 3.98579C13.7472 4.04915 13.7472 4.10195 13.7472 4.15475C13.7472 4.62466 13.7498 5.09721 13.7472 5.56712C13.7446 5.93407 13.5571 6.11623 13.1902 6.11623C12.715 6.11623 12.2398 6.11623 11.7646 6.11623C11.7171 6.11623 11.6696 6.11623 11.6168 6.11623C11.6168 6.36174 11.6168 6.59142 11.6168 6.83693C11.6722 6.83693 11.7197 6.83693 11.7672 6.83693C12.2345 6.83693 12.6991 6.83693 13.1664 6.83693C13.5677 6.83693 13.7446 7.01381 13.7472 7.41772C13.7472 7.88499 13.7472 8.34962 13.7472 8.8169C13.7472 8.86705 13.7525 8.91721 13.7551 8.97001C13.998 8.97001 14.225 8.97001 14.4679 8.97001C14.4679 8.91721 14.4679 8.86969 14.4679 8.82218C14.4679 8.3417 14.4653 7.86387 14.4679 7.3834C14.4705 7.02701 14.658 6.83957 15.0144 6.83957C15.4948 6.83957 15.9727 6.83957 16.4531 6.83957C16.5007 6.83957 16.5482 6.83957 16.601 6.83957C16.601 6.58878 16.601 6.36174 16.601 6.11359Z" fill="#3A62FF"/>
<path d="M13.5967 18.1993C13.5598 19.2368 13.5334 19.9892 13.5017 20.7389C13.4911 20.9818 13.3433 21.156 13.1031 21.193C12.4378 21.2933 11.7725 21.3857 11.1072 21.4807C10.5027 21.5652 9.89815 21.647 9.29361 21.7368C8.94777 21.787 8.70226 21.6497 8.65474 21.3514C8.6389 21.259 8.65738 21.1587 8.6785 21.0663C8.83689 20.306 8.66002 19.6196 8.22179 18.9939C7.80995 18.4078 7.2714 17.9485 6.7091 17.5155C6.2471 17.1591 5.78775 16.7948 5.31256 16.4569C4.45722 15.8444 3.93979 15.0049 3.68371 14.007C3.49892 13.2837 3.35372 12.5524 3.20324 11.8212C2.74653 9.61152 2.18686 7.4362 1.36848 5.3348C1.25496 5.04441 1.152 4.74873 1.04641 4.4557C0.922328 4.11251 1.04905 3.84587 1.4028 3.75875C1.73015 3.67692 2.06015 3.60564 2.39542 3.55284C3.02637 3.45252 3.51476 3.71124 3.90283 4.19699C4.33314 4.73818 4.61298 5.35856 4.83473 6.00271C5.01425 6.52542 5.16209 7.05869 5.31784 7.58932C5.3416 7.6738 5.37856 7.7134 5.46832 7.73716C6.08343 7.90347 6.57446 8.26779 6.97309 8.7509C7.27668 9.12049 7.5618 9.50592 7.85219 9.88872C8.26139 10.4299 8.76298 10.8576 9.34904 11.2034C10.273 11.7446 11.1389 12.3676 11.9283 13.0963C12.3058 13.4447 12.6543 13.8222 12.9526 14.2473C13.2694 14.7013 13.4357 15.2029 13.47 15.7468C13.5281 16.6602 13.565 17.5736 13.5967 18.1993ZM2.0971 4.55338C2.22118 4.90185 2.33998 5.22393 2.4535 5.546C2.80989 6.5835 3.20852 7.61044 3.45404 8.68226C3.72595 9.86232 3.99787 11.045 4.24338 12.233C4.37802 12.8798 4.5021 13.5239 4.72385 14.147C4.93505 14.7409 5.2756 15.232 5.77983 15.6095C6.15735 15.892 6.52694 16.1824 6.90181 16.4648C7.6014 16.9928 8.29042 17.534 8.83689 18.2283C9.32264 18.8461 9.63944 19.5351 9.68168 20.335C9.6896 20.4591 9.68168 20.5858 9.68168 20.7231C10.6585 20.5858 11.6088 20.4511 12.5645 20.3165C12.5671 20.2875 12.5724 20.2664 12.5751 20.2452C12.6305 18.8117 12.6675 17.3809 12.5487 15.95C12.5064 15.4326 12.3507 14.9601 12.0022 14.5641C11.7831 14.3159 11.5666 14.0678 11.3264 13.8434C10.5423 13.1042 9.66056 12.4943 8.73658 11.9452C8.23763 11.6496 7.78355 11.2932 7.41396 10.847C7.06549 10.4273 6.74077 9.98903 6.4055 9.55872C6.16527 9.25249 5.90127 8.97001 5.55016 8.7905C5.4604 8.74298 5.36272 8.70866 5.25448 8.66114C5.24128 8.74562 5.23072 8.80106 5.22808 8.8565C5.2228 8.94889 5.21488 9.04129 5.2228 9.13369C5.30464 10.0313 5.56864 10.8787 5.93559 11.6997C6.02535 11.9004 6.15207 12.072 6.33158 12.2013C6.63518 12.4204 6.93877 12.6369 7.24236 12.8534C7.5618 13.0804 7.84163 13.3418 8.02115 13.6982C8.15315 13.9542 8.08187 14.2288 7.84427 14.3608C7.60932 14.4928 7.34796 14.4004 7.18693 14.1602C7.07605 13.9965 6.94405 13.8354 6.79093 13.7114C6.56126 13.5213 6.30254 13.3682 6.05967 13.1939C5.68215 12.9247 5.3284 12.6316 5.12249 12.196C4.69745 11.2958 4.40178 10.356 4.29354 9.36337C4.24866 8.95153 4.24602 8.53706 4.45458 8.15427C4.47042 8.12523 4.4625 8.07771 4.45194 8.04339C4.28562 7.33324 4.07971 6.63366 3.80251 5.95783C3.63091 5.53808 3.43556 5.13153 3.15044 4.77249C3.01581 4.60354 2.85477 4.47946 2.62509 4.4953C2.45086 4.49794 2.2819 4.52962 2.0971 4.55338Z" stroke="#3A62FF" stroke-width="0.139267"/>
<path d="M25.5372 3.53964C25.8276 3.55548 26.2606 3.65052 26.6856 3.78779C26.9628 3.87755 27.0605 4.14683 26.9549 4.44778C26.6935 5.17377 26.4401 5.90503 26.1708 6.62838C25.7009 7.89027 25.3762 9.19441 25.0911 10.5091C24.8878 11.4436 24.7083 12.3861 24.5076 13.3206C24.3915 13.8618 24.2093 14.3845 23.9928 14.8967C23.7315 15.5118 23.2933 15.9764 22.7785 16.3803C22.1607 16.8635 21.5324 17.3281 20.9199 17.8165C20.4368 18.2019 19.996 18.6322 19.6712 19.1629C19.3069 19.7568 19.1802 20.3957 19.328 21.0847C19.3993 21.4147 19.2937 21.6444 19.0297 21.7262C18.9479 21.7526 18.8555 21.7553 18.771 21.7447C17.8101 21.6127 16.8465 21.4754 15.8856 21.3408C15.5952 21.2986 15.3021 21.2563 15.0117 21.2194C14.6606 21.1745 14.5075 21.0267 14.4943 20.6755C14.4283 19.1919 14.3808 17.7056 14.4864 16.2193C14.5286 15.6042 14.5867 14.9917 14.9273 14.4479C15.1622 14.0678 15.442 13.7246 15.7562 13.4104C16.5693 12.592 17.4827 11.8951 18.4806 11.3196C19.2964 10.847 19.9405 10.2213 20.4843 9.46368C20.7615 9.08089 21.0757 8.72186 21.403 8.3813C21.7225 8.05131 22.1264 7.84011 22.5752 7.73188C22.6649 7.71076 22.6676 7.65004 22.6834 7.58932C22.8735 6.84485 23.0953 6.10831 23.4041 5.40344C23.6206 4.90977 23.8688 4.43722 24.2436 4.04123C24.5499 3.70596 24.9221 3.5238 25.5372 3.53964ZM22.7336 8.66114C22.4722 8.7509 22.2373 8.86177 22.0657 9.05185C21.7568 9.38712 21.4558 9.73296 21.1839 10.0999C20.6559 10.8074 20.0804 11.4568 19.3122 11.9136C18.9532 12.1274 18.5994 12.3491 18.2536 12.5841C17.4642 13.1227 16.7145 13.714 16.0888 14.4426C15.7747 14.8096 15.5239 15.2108 15.4843 15.7045C15.442 16.2246 15.3919 16.7473 15.384 17.27C15.3734 18.0963 15.3919 18.9226 15.4024 19.7489C15.4051 19.9364 15.4183 20.1238 15.4288 20.3139C16.3951 20.4485 17.3454 20.5831 18.309 20.7178C18.309 20.6676 18.309 20.6333 18.309 20.599C18.3011 19.8994 18.4912 19.2553 18.8608 18.6613C19.2383 18.0514 19.7346 17.5472 20.289 17.1037C20.9305 16.5889 21.5931 16.1005 22.2373 15.591C22.5382 15.3534 22.8207 15.0973 23.0029 14.7489C23.2959 14.1866 23.478 13.5873 23.6127 12.9722C23.9348 11.5017 24.2146 10.0181 24.5842 8.55818C24.8376 7.555 25.2072 6.5835 25.5293 5.5988C25.6428 5.25297 25.7722 4.91505 25.8962 4.5613C25.7959 4.54018 25.7062 4.5217 25.6138 4.50586C25.3471 4.46098 25.0884 4.45834 24.9063 4.70122C24.7769 4.87281 24.6423 5.04441 24.5393 5.23185C24.0562 6.11887 23.7816 7.08245 23.5414 8.05659C23.5335 8.08563 23.5335 8.12259 23.5467 8.14371C23.7605 8.52914 23.7526 8.94889 23.7077 9.366C23.61 10.2821 23.3434 11.1533 22.9685 11.9928C22.8392 12.2858 22.6913 12.5788 22.4326 12.7821C22.071 13.0672 21.6961 13.3365 21.3212 13.6084C21.11 13.7615 20.9226 13.9331 20.7932 14.1681C20.6612 14.4057 20.384 14.4769 20.157 14.3529C19.93 14.2288 19.8481 13.9569 19.9669 13.714C20.1491 13.3444 20.4395 13.0725 20.7695 12.8375C21.0361 12.6501 21.3027 12.4653 21.5694 12.2779C21.7885 12.1221 21.9627 11.9294 22.0736 11.6812C22.4062 10.9341 22.6491 10.1633 22.7573 9.35016C22.7864 9.12577 22.8075 8.89873 22.7336 8.66114Z" stroke="#3A62FF" stroke-width="0.139267"/>
<path d="M19.5392 6.53862C19.5392 9.59304 17.063 12.0799 14.0033 12.0799C10.9093 12.0825 8.39338 9.5508 8.45938 6.41454C8.52274 3.43668 10.9515 1.00529 14.0006 1.00001C17.0524 0.994728 19.5392 3.48684 19.5392 6.53862ZM13.9848 11.1321C16.4795 11.1242 18.5651 9.16273 18.5836 6.56502C18.6021 4.04651 16.5983 1.99791 14.0587 1.95303C11.5244 1.90815 9.43088 3.95411 9.4124 6.52542C9.39656 9.03337 11.3924 11.0978 13.9848 11.1321Z" stroke="#3A62FF" stroke-width="0.139267"/>
<path d="M15.4209 7.78468C15.4209 7.98267 15.4209 8.16219 15.4209 8.34434C15.4209 8.70602 15.4236 9.06505 15.4209 9.42672C15.4183 9.71976 15.2282 9.92039 14.9352 9.92303C14.3861 9.92831 13.8343 9.92831 13.2852 9.92303C12.9816 9.92039 12.7995 9.7224 12.7968 9.40296C12.7942 8.92249 12.7968 8.44466 12.7968 7.96419C12.7968 7.91139 12.7968 7.85859 12.7968 7.79259C12.7387 7.78996 12.6939 7.78732 12.6463 7.78732C12.1659 7.78732 11.688 7.78732 11.2076 7.78732C10.8406 7.78732 10.6585 7.60252 10.6585 7.23557C10.6585 6.72606 10.6585 6.21391 10.6585 5.7044C10.6585 5.35064 10.8433 5.16849 11.1944 5.16849C11.6748 5.16849 12.1527 5.16849 12.6331 5.16849C12.6807 5.16849 12.7282 5.16849 12.7889 5.16849C12.7915 5.10777 12.7968 5.05761 12.7968 5.00745C12.7968 4.53226 12.7968 4.05707 12.7968 3.58188C12.7968 3.20701 12.979 3.02749 13.3565 3.02485C13.8528 3.02485 14.3517 3.02485 14.8481 3.02485C15.2414 3.02485 15.4209 3.20437 15.4209 3.59508C15.4209 4.06499 15.4209 4.53754 15.4209 5.00745C15.4209 5.05497 15.4209 5.10249 15.4209 5.16849C15.4764 5.16849 15.5239 5.16849 15.5688 5.16849C16.0624 5.16849 16.5535 5.16849 17.0471 5.16849C17.3613 5.16849 17.5566 5.3612 17.5593 5.678C17.5619 6.21127 17.5619 6.7419 17.5593 7.27517C17.5593 7.58932 17.3692 7.78468 17.0498 7.78732C16.5614 7.7926 16.073 7.78732 15.5846 7.78996C15.5371 7.78468 15.4896 7.78468 15.4209 7.78468ZM16.601 6.11359C16.5429 6.11359 16.4954 6.11359 16.4479 6.11359C15.978 6.11359 15.5054 6.11359 15.0355 6.11359C14.6474 6.11359 14.4705 5.93671 14.4679 5.55128C14.4679 5.07609 14.4679 4.6009 14.4679 4.12571C14.4679 4.07819 14.4679 4.03331 14.4679 3.98579C14.2171 3.98579 13.9874 3.98579 13.7472 3.98579C13.7472 4.04915 13.7472 4.10195 13.7472 4.15475C13.7472 4.62466 13.7498 5.09721 13.7472 5.56712C13.7446 5.93407 13.5571 6.11623 13.1902 6.11623C12.715 6.11623 12.2398 6.11623 11.7646 6.11623C11.7171 6.11623 11.6696 6.11623 11.6168 6.11623C11.6168 6.36174 11.6168 6.59142 11.6168 6.83693C11.6722 6.83693 11.7197 6.83693 11.7672 6.83693C12.2345 6.83693 12.6991 6.83693 13.1664 6.83693C13.5677 6.83693 13.7446 7.01381 13.7472 7.41772C13.7472 7.88499 13.7472 8.34962 13.7472 8.8169C13.7472 8.86705 13.7525 8.91721 13.7551 8.97001C13.998 8.97001 14.225 8.97001 14.4679 8.97001C14.4679 8.91721 14.4679 8.86969 14.4679 8.82218C14.4679 8.3417 14.4653 7.86387 14.4679 7.3834C14.4705 7.02701 14.658 6.83957 15.0144 6.83957C15.4948 6.83957 15.9727 6.83957 16.4531 6.83957C16.5007 6.83957 16.5482 6.83957 16.601 6.83957C16.601 6.58878 16.601 6.36174 16.601 6.11359Z" stroke="#3A62FF" stroke-width="0.139267"/>
</svg>
