<svg width="28" height="23" viewBox="0 0 28 23" fill="none" xmlns="http://www.w3.org/2000/svg">
<path d="M26.6307 18.752C26.3099 18.7438 24.7626 18.7398 23.6498 18.7438C23.6092 18.7438 23.5686 18.7438 23.528 18.7438C22.8091 18.7438 22.0944 18.7398 21.3756 18.7479C21.2172 18.7479 21.1644 18.6992 21.1644 18.5367C21.1725 17.8138 21.1725 17.0869 21.1644 16.364C21.1644 16.2056 21.2212 16.1691 21.3674 16.1731C21.7939 16.1813 22.2203 16.1772 22.6467 16.1772C23.7148 16.1772 24.7869 16.1813 25.855 16.1731C26.4358 16.1691 26.9231 15.7305 26.9881 15.1781C27.0571 14.5974 26.6916 14.0776 26.119 13.9314C26.0621 13.9151 26.0053 13.8989 25.9322 13.8786C25.9322 13.4887 25.9362 13.111 25.9322 12.7333C25.92 11.9292 25.388 11.2226 24.6001 11.0479C24.2102 10.9627 23.796 10.983 23.3899 10.9748C23.2315 10.9708 23.1625 10.9302 23.1422 10.7677C23.0528 10.0773 22.9513 9.38693 22.866 8.69653C22.8579 8.61531 22.9026 8.49753 22.9635 8.44474C23.8732 7.64063 24.2224 6.41416 23.8366 5.31358C23.4346 4.14803 22.4274 3.39265 21.1969 3.33986C21.0669 3.3358 21.0101 3.283 20.9654 3.16929C20.4537 1.83317 19.2881 1.00875 17.8545 1.00469C13.3263 0.996567 8.79814 1.00063 4.26994 1.00469C3.79072 1.00469 3.32369 1.10216 2.89727 1.32146C1.70329 1.92251 1.05756 2.89719 1.00071 4.24144C0.988522 4.50947 1.13472 4.65567 1.3987 4.67598C1.4718 4.68004 1.54896 4.68004 1.62206 4.68004C3.26683 4.68004 4.9116 4.68004 6.55638 4.68004C6.82035 4.68004 6.82035 4.68004 6.82441 4.95214C6.82441 5.22018 6.82441 7.54722 6.82441 8.3229C6.82441 11.8886 6.82441 15.4584 6.82441 19.0241C6.82441 19.2312 6.82847 19.4464 6.86502 19.6495C7.17367 21.3186 8.49761 22.4192 10.1952 22.4192C14.6706 22.4192 19.1419 22.4192 23.6173 22.4151C23.9057 22.4151 24.1981 22.3786 24.4823 22.3136C25.9078 21.9887 27.0003 20.616 26.9881 19.1784C26.9881 18.9225 26.8662 18.756 26.6307 18.752ZM25.6966 14.6583C25.7251 14.6583 25.7494 14.6583 25.7779 14.6583C26.0621 14.6624 26.2327 14.8086 26.2246 15.0441C26.2205 15.2675 26.054 15.4096 25.7779 15.4096C24.2062 15.4096 22.6386 15.4096 21.0669 15.4096C19.5359 15.4096 18.0089 15.4096 16.4778 15.4096C16.4088 15.4096 16.3397 15.4137 16.2747 15.4056C16.0757 15.3812 15.9377 15.2228 15.9377 15.036C15.9377 14.8451 16.0717 14.6908 16.2747 14.6664C16.3397 14.6583 16.4088 14.6624 16.4778 14.6624C19.5521 14.6583 22.6223 14.6583 25.6966 14.6583ZM24.0478 11.7343C24.7626 11.7302 25.1321 12.2257 25.1565 12.644C25.1809 13.0501 25.1606 13.4562 25.1606 13.8786C22.4436 13.8786 19.7348 13.8786 17.0017 13.8786C17.0017 13.4643 16.9814 13.0623 17.0057 12.6643C17.0423 12.1566 17.4444 11.783 17.952 11.7465C18.0738 11.7383 18.1957 11.7383 18.3175 11.7383C20.2303 11.7383 22.1391 11.7465 24.0478 11.7343ZM23.0366 5.36638C23.4224 6.22734 23.195 7.29543 22.4355 7.85587C22.0781 8.11984 22.0172 8.38788 22.0903 8.78588C22.2081 9.42348 22.2771 10.0692 22.3665 10.7149C22.3746 10.788 22.3787 10.8611 22.3868 10.9586C21.5055 10.9586 20.6486 10.9586 19.7673 10.9586C19.8161 10.6053 19.8567 10.2723 19.9054 9.94331C19.9745 9.43972 20.0476 8.9402 20.1166 8.43662C20.145 8.22544 20.0313 8.09954 19.8729 7.98583C19.1988 7.49849 18.8861 6.83652 18.9592 6.00398C19.0485 5.04148 19.7917 4.27392 20.7704 4.11554C21.7045 3.96122 22.6386 4.48104 23.0366 5.36638ZM1.82512 3.89624C1.78451 2.86876 3.04753 1.77225 4.26182 1.76413C5.51266 1.75194 6.77974 2.82815 6.75943 3.89624C5.11466 3.89624 3.46989 3.89624 1.82512 3.89624ZM11.178 21.408C10.2967 21.8222 9.43168 21.7329 8.64381 21.1724C7.90468 20.6485 7.58385 19.9053 7.58385 19.0038C7.58791 15.4462 7.58791 11.8927 7.58385 8.33509C7.58791 7.43351 7.59603 4.68816 7.57573 4.17646C7.54324 3.29925 7.20616 2.55199 6.57668 1.9347C6.53201 1.89002 6.49546 1.84129 6.43454 1.77631C6.49952 1.77225 6.52795 1.76413 6.55231 1.76413C10.3495 1.76413 14.1467 1.75194 17.9439 1.77225C18.9307 1.77631 19.6617 2.28802 20.1288 3.15711C20.1735 3.24239 20.2059 3.3358 20.2506 3.43733C20.141 3.47794 20.0597 3.51043 19.9785 3.54292C18.0901 4.32266 17.5581 6.78372 18.9957 8.22137C19.2719 8.49753 19.3369 8.73714 19.2597 9.08234C19.1947 9.36662 19.211 9.37068 18.9226 9.37068C15.8077 9.37068 12.6969 9.37068 9.58194 9.37068C9.50072 9.37068 9.4195 9.36662 9.33827 9.37474C9.13927 9.39505 8.99713 9.54125 8.98901 9.73213C8.98089 9.93112 9.11897 10.0976 9.32203 10.1261C9.40325 10.1382 9.48447 10.1342 9.5657 10.1342C12.6522 10.1342 15.7387 10.1342 18.8251 10.1342C18.9104 10.1342 18.9917 10.1342 19.0932 10.1342C19.0607 10.39 19.0404 10.6134 18.9957 10.8286C18.9835 10.8855 18.8861 10.9627 18.8251 10.9667C18.5693 10.983 18.3094 10.9748 18.0535 10.9748C17.7286 10.9748 17.4281 11.052 17.1357 11.2023C17.0261 11.2591 16.8961 11.2997 16.7743 11.2997C14.366 11.3038 11.9537 11.3038 9.54539 11.3038C9.47229 11.3038 9.39513 11.2997 9.32203 11.3079C9.12709 11.3282 8.98495 11.4825 8.98089 11.6734C8.97683 11.8642 9.11085 12.0267 9.30172 12.0592C9.37482 12.0714 9.45198 12.0673 9.52509 12.0673C11.7059 12.0673 13.8827 12.0673 16.0636 12.0673C16.1488 12.0673 16.2382 12.0673 16.3072 12.0673C16.2666 12.4612 16.226 12.8349 16.1854 13.2328C16.1123 13.2328 16.027 13.2328 15.9417 13.2328C13.8177 13.2328 11.6897 13.2328 9.5657 13.2328C9.48447 13.2328 9.40325 13.2288 9.32203 13.241C9.11491 13.2694 8.97683 13.4318 8.98495 13.6308C8.99307 13.8217 9.13521 13.972 9.33015 13.9923C9.39919 14.0004 9.46417 13.9963 9.53321 13.9963C11.5313 13.9963 13.5253 13.9963 15.5234 13.9963C15.5925 13.9963 15.6615 13.9963 15.7305 13.9963C15.3285 14.2969 15.1539 14.6786 15.1539 15.166C15.0523 15.166 14.9752 15.166 14.8939 15.166C13.1273 15.166 11.3607 15.166 9.59412 15.166C9.1677 15.166 8.98089 15.2837 8.98495 15.5518C8.98901 15.8157 9.1677 15.9295 9.586 15.9295C11.5232 15.9295 13.4563 15.9295 15.3935 15.9335C15.4909 15.9335 15.5884 15.966 15.6859 15.9904C15.9255 16.0513 16.161 16.1691 16.4006 16.1691C17.6393 16.1894 18.8779 16.1772 20.1166 16.1772C20.1978 16.1772 20.279 16.1772 20.3968 16.1772C20.3968 16.2787 20.3968 16.3518 20.3968 16.4249C20.3968 17.095 20.3968 17.7651 20.3968 18.4352C20.3968 18.7479 20.3968 18.7479 20.0922 18.7479C17.8058 18.7479 15.5153 18.7479 13.2289 18.7479C12.7375 18.7479 12.6603 18.8332 12.6156 19.3165C12.5466 20.283 12.0552 20.9937 11.178 21.408ZM26.1474 19.747C25.8469 20.8922 24.856 21.6557 23.6498 21.6557C19.9217 21.6598 16.1895 21.6557 12.4613 21.6557C12.4044 21.6557 12.3476 21.6516 12.2907 21.6476C12.2704 21.6232 12.2501 21.5948 12.2298 21.5704C12.2907 21.5379 12.3638 21.5217 12.4085 21.477C12.8877 21.0059 13.2167 20.4414 13.3304 19.7754C13.371 19.552 13.4563 19.5033 13.6715 19.5033C16.8271 19.5114 19.9826 19.5073 23.134 19.5073C24.064 19.5114 25.7251 19.5073 25.8997 19.5073C25.989 19.5073 26.0784 19.5195 26.188 19.5236C26.1718 19.6129 26.1637 19.682 26.1474 19.747Z" fill="#3A62FF"/>
<path d="M15.3204 17.826C15.5194 17.7854 15.6371 17.6311 15.625 17.4321C15.6128 17.2087 15.4584 17.0788 15.1904 17.0788C14.236 17.0747 13.2817 17.0788 12.3273 17.0788C11.3932 17.0788 10.4592 17.0788 9.52509 17.0788C9.45605 17.0788 9.39107 17.0747 9.32203 17.0869C9.13927 17.1113 9.01338 17.2453 8.99713 17.424C8.98089 17.6067 9.08648 17.7732 9.27329 17.822C9.35858 17.8423 9.44792 17.8463 9.53321 17.8463C11.3892 17.8463 13.241 17.8463 15.097 17.8463C15.1742 17.8423 15.2473 17.8423 15.3204 17.826Z" fill="#3A62FF"/>
<path d="M26.6307 18.752C26.3099 18.7438 24.7626 18.7398 23.6498 18.7438C23.6092 18.7438 23.5686 18.7438 23.528 18.7438C22.8091 18.7438 22.0944 18.7398 21.3756 18.7479C21.2172 18.7479 21.1644 18.6992 21.1644 18.5367C21.1725 17.8138 21.1725 17.0869 21.1644 16.364C21.1644 16.2056 21.2212 16.1691 21.3674 16.1731C21.7939 16.1813 22.2203 16.1772 22.6467 16.1772C23.7148 16.1772 24.7869 16.1813 25.855 16.1731C26.4358 16.1691 26.9231 15.7305 26.9881 15.1781C27.0571 14.5974 26.6916 14.0776 26.119 13.9314C26.0621 13.9151 26.0053 13.8989 25.9322 13.8786C25.9322 13.4887 25.9362 13.111 25.9322 12.7333C25.92 11.9292 25.388 11.2226 24.6001 11.0479C24.2102 10.9627 23.796 10.983 23.3899 10.9748C23.2315 10.9708 23.1625 10.9302 23.1422 10.7677C23.0528 10.0773 22.9513 9.38693 22.866 8.69653C22.8579 8.61531 22.9026 8.49753 22.9635 8.44474C23.8732 7.64063 24.2224 6.41416 23.8366 5.31358C23.4346 4.14803 22.4274 3.39265 21.1969 3.33986C21.0669 3.3358 21.0101 3.283 20.9654 3.16929C20.4537 1.83317 19.2881 1.00875 17.8545 1.00469C13.3263 0.996567 8.79814 1.00063 4.26994 1.00469C3.79072 1.00469 3.32369 1.10216 2.89727 1.32146C1.70329 1.92251 1.05756 2.89719 1.00071 4.24144C0.988522 4.50947 1.13472 4.65567 1.3987 4.67598C1.4718 4.68004 1.54896 4.68004 1.62206 4.68004C3.26683 4.68004 4.9116 4.68004 6.55638 4.68004C6.82035 4.68004 6.82035 4.68004 6.82441 4.95214C6.82441 5.22018 6.82441 7.54722 6.82441 8.3229C6.82441 11.8886 6.82441 15.4584 6.82441 19.0241C6.82441 19.2312 6.82847 19.4464 6.86502 19.6495C7.17367 21.3186 8.49761 22.4192 10.1952 22.4192C14.6706 22.4192 19.1419 22.4192 23.6173 22.4151C23.9057 22.4151 24.1981 22.3786 24.4823 22.3136C25.9078 21.9887 27.0003 20.616 26.9881 19.1784C26.9881 18.9225 26.8662 18.756 26.6307 18.752ZM25.6966 14.6583C25.7251 14.6583 25.7494 14.6583 25.7779 14.6583C26.0621 14.6624 26.2327 14.8086 26.2246 15.0441C26.2205 15.2675 26.054 15.4096 25.7779 15.4096C24.2062 15.4096 22.6386 15.4096 21.0669 15.4096C19.5359 15.4096 18.0089 15.4096 16.4778 15.4096C16.4088 15.4096 16.3397 15.4137 16.2747 15.4056C16.0757 15.3812 15.9377 15.2228 15.9377 15.036C15.9377 14.8451 16.0717 14.6908 16.2747 14.6664C16.3397 14.6583 16.4088 14.6624 16.4778 14.6624C19.5521 14.6583 22.6223 14.6583 25.6966 14.6583ZM24.0478 11.7343C24.7626 11.7302 25.1321 12.2257 25.1565 12.644C25.1809 13.0501 25.1606 13.4562 25.1606 13.8786C22.4436 13.8786 19.7348 13.8786 17.0017 13.8786C17.0017 13.4643 16.9814 13.0623 17.0057 12.6643C17.0423 12.1566 17.4444 11.783 17.952 11.7465C18.0738 11.7383 18.1957 11.7383 18.3175 11.7383C20.2303 11.7383 22.1391 11.7465 24.0478 11.7343ZM23.0366 5.36638C23.4224 6.22734 23.195 7.29543 22.4355 7.85587C22.0781 8.11984 22.0172 8.38788 22.0903 8.78588C22.2081 9.42348 22.2771 10.0692 22.3665 10.7149C22.3746 10.788 22.3787 10.8611 22.3868 10.9586C21.5055 10.9586 20.6486 10.9586 19.7673 10.9586C19.8161 10.6053 19.8567 10.2723 19.9054 9.94331C19.9745 9.43972 20.0476 8.9402 20.1166 8.43662C20.145 8.22544 20.0313 8.09954 19.8729 7.98583C19.1988 7.49849 18.8861 6.83652 18.9592 6.00398C19.0485 5.04148 19.7917 4.27392 20.7704 4.11554C21.7045 3.96122 22.6386 4.48104 23.0366 5.36638ZM1.82512 3.89624C1.78451 2.86876 3.04753 1.77225 4.26182 1.76413C5.51266 1.75194 6.77974 2.82815 6.75943 3.89624C5.11466 3.89624 3.46989 3.89624 1.82512 3.89624ZM11.178 21.408C10.2967 21.8222 9.43168 21.7329 8.64381 21.1724C7.90468 20.6485 7.58385 19.9053 7.58385 19.0038C7.58791 15.4462 7.58791 11.8927 7.58385 8.33509C7.58791 7.43351 7.59603 4.68816 7.57573 4.17646C7.54324 3.29925 7.20616 2.55199 6.57668 1.9347C6.53201 1.89002 6.49546 1.84129 6.43454 1.77631C6.49952 1.77225 6.52795 1.76413 6.55231 1.76413C10.3495 1.76413 14.1467 1.75194 17.9439 1.77225C18.9307 1.77631 19.6617 2.28802 20.1288 3.15711C20.1735 3.24239 20.2059 3.3358 20.2506 3.43733C20.141 3.47794 20.0597 3.51043 19.9785 3.54292C18.0901 4.32266 17.5581 6.78372 18.9957 8.22137C19.2719 8.49753 19.3369 8.73714 19.2597 9.08234C19.1947 9.36662 19.211 9.37068 18.9226 9.37068C15.8077 9.37068 12.6969 9.37068 9.58194 9.37068C9.50072 9.37068 9.4195 9.36662 9.33827 9.37474C9.13927 9.39505 8.99713 9.54125 8.98901 9.73213C8.98089 9.93112 9.11897 10.0976 9.32203 10.1261C9.40325 10.1382 9.48447 10.1342 9.5657 10.1342C12.6522 10.1342 15.7387 10.1342 18.8251 10.1342C18.9104 10.1342 18.9917 10.1342 19.0932 10.1342C19.0607 10.39 19.0404 10.6134 18.9957 10.8286C18.9835 10.8855 18.8861 10.9627 18.8251 10.9667C18.5693 10.983 18.3094 10.9748 18.0535 10.9748C17.7286 10.9748 17.4281 11.052 17.1357 11.2023C17.0261 11.2591 16.8961 11.2997 16.7743 11.2997C14.366 11.3038 11.9537 11.3038 9.54539 11.3038C9.47229 11.3038 9.39513 11.2997 9.32203 11.3079C9.12709 11.3282 8.98495 11.4825 8.98089 11.6734C8.97683 11.8642 9.11085 12.0267 9.30172 12.0592C9.37482 12.0714 9.45198 12.0673 9.52509 12.0673C11.7059 12.0673 13.8827 12.0673 16.0636 12.0673C16.1488 12.0673 16.2382 12.0673 16.3072 12.0673C16.2666 12.4612 16.226 12.8349 16.1854 13.2328C16.1123 13.2328 16.027 13.2328 15.9417 13.2328C13.8177 13.2328 11.6897 13.2328 9.5657 13.2328C9.48447 13.2328 9.40325 13.2288 9.32203 13.241C9.11491 13.2694 8.97683 13.4318 8.98495 13.6308C8.99307 13.8217 9.13521 13.972 9.33015 13.9923C9.39919 14.0004 9.46417 13.9963 9.53321 13.9963C11.5313 13.9963 13.5253 13.9963 15.5234 13.9963C15.5925 13.9963 15.6615 13.9963 15.7305 13.9963C15.3285 14.2969 15.1539 14.6786 15.1539 15.166C15.0523 15.166 14.9752 15.166 14.8939 15.166C13.1273 15.166 11.3607 15.166 9.59412 15.166C9.1677 15.166 8.98089 15.2837 8.98495 15.5518C8.98901 15.8157 9.1677 15.9295 9.586 15.9295C11.5232 15.9295 13.4563 15.9295 15.3935 15.9335C15.4909 15.9335 15.5884 15.966 15.6859 15.9904C15.9255 16.0513 16.161 16.1691 16.4006 16.1691C17.6393 16.1894 18.8779 16.1772 20.1166 16.1772C20.1978 16.1772 20.279 16.1772 20.3968 16.1772C20.3968 16.2787 20.3968 16.3518 20.3968 16.4249C20.3968 17.095 20.3968 17.7651 20.3968 18.4352C20.3968 18.7479 20.3968 18.7479 20.0922 18.7479C17.8058 18.7479 15.5153 18.7479 13.2289 18.7479C12.7375 18.7479 12.6603 18.8332 12.6156 19.3165C12.5466 20.283 12.0552 20.9937 11.178 21.408ZM26.1474 19.747C25.8469 20.8922 24.856 21.6557 23.6498 21.6557C19.9217 21.6598 16.1895 21.6557 12.4613 21.6557C12.4044 21.6557 12.3476 21.6516 12.2907 21.6476C12.2704 21.6232 12.2501 21.5948 12.2298 21.5704C12.2907 21.5379 12.3638 21.5217 12.4085 21.477C12.8877 21.0059 13.2167 20.4414 13.3304 19.7754C13.371 19.552 13.4563 19.5033 13.6715 19.5033C16.8271 19.5114 19.9826 19.5073 23.134 19.5073C24.064 19.5114 25.7251 19.5073 25.8997 19.5073C25.989 19.5073 26.0784 19.5195 26.188 19.5236C26.1718 19.6129 26.1637 19.682 26.1474 19.747Z" stroke="#3A62FF" stroke-width="0.232111"/>
<path d="M15.3204 17.826C15.5194 17.7854 15.6371 17.6311 15.625 17.4321C15.6128 17.2087 15.4584 17.0788 15.1904 17.0788C14.236 17.0747 13.2817 17.0788 12.3273 17.0788C11.3932 17.0788 10.4592 17.0788 9.52509 17.0788C9.45605 17.0788 9.39107 17.0747 9.32203 17.0869C9.13927 17.1113 9.01338 17.2453 8.99713 17.424C8.98089 17.6067 9.08648 17.7732 9.27329 17.822C9.35858 17.8423 9.44792 17.8463 9.53321 17.8463C11.3892 17.8463 13.241 17.8463 15.097 17.8463C15.1742 17.8423 15.2473 17.8423 15.3204 17.826Z" stroke="#3A62FF" stroke-width="0.232111"/>
</svg>
