<svg width="26" height="26" viewBox="0 0 26 26" fill="none" xmlns="http://www.w3.org/2000/svg">
<path d="M14.8767 19.422C14.9441 19.422 15.026 19.422 15.1128 19.422C15.6042 19.422 16.0909 19.4268 16.5824 19.422C16.8715 19.4172 17.0546 19.2678 17.0594 18.9883C17.0691 18.3137 17.0883 17.6392 17.0498 16.9646C17.0112 16.3189 16.5294 15.8467 15.8741 15.76C15.0887 15.6539 14.2984 15.5672 13.513 15.4564C13.407 15.4419 13.2769 15.3648 13.2143 15.2733C12.8336 14.7288 12.4674 14.1699 12.1012 13.6157C11.7109 13.0231 11.1664 12.734 10.463 12.7388C9.04151 12.7436 7.62007 12.7436 6.19862 12.7388C5.57222 12.7388 5.06629 12.9749 4.66635 13.4616C4.17487 14.0639 3.66893 14.6565 3.17745 15.2588C3.08108 15.3793 2.98471 15.4227 2.83052 15.4178C2.53178 15.4082 2.23785 15.413 1.93911 15.413C1.17298 15.4178 0.589943 15.9768 0.575487 16.7429C0.561033 17.4753 0.565851 18.2029 0.575487 18.9353C0.580307 19.2533 0.758589 19.422 1.07661 19.422C1.58254 19.4268 2.08848 19.4268 2.59442 19.422C2.75825 19.4172 2.81125 19.4702 2.83052 19.634C2.85943 19.8605 2.94135 20.0773 3.00881 20.323C2.86425 20.323 2.7197 20.323 2.57996 20.323C1.86683 20.323 1.91984 20.3278 1.20671 20.3182C0.985056 20.3182 0.81641 20.3905 0.69595 20.5736C0.642946 20.6555 0.580305 20.7278 0.527304 20.8049C-0.0220013 21.5517 -0.0219994 21.5517 0.0117283 22.4769C0.0261841 22.8286 0.185194 22.9828 0.541759 22.9828C1.61146 22.9828 1.90538 22.9828 2.97508 22.9828C3.06181 22.9828 3.14854 22.9828 3.25937 22.9828C3.37019 23.7489 3.71712 24.3705 4.36279 24.7994C4.84945 25.1222 5.38912 25.2523 5.96734 25.1897C6.90693 25.0885 7.93808 24.4187 8.15973 23.0069C9.77873 23.0069 11.4025 23.0069 13.0601 23.0069C13.0601 23.1177 13.0601 23.2286 13.0601 23.3394C13.0649 23.7104 13.2336 23.8839 13.6094 23.8887C14.9104 23.8887 17.1273 23.8887 18.4283 23.8887C18.7029 23.8887 18.9728 23.8935 19.2474 23.8887C19.6088 23.8839 19.7726 23.7152 19.7823 23.3538C19.7871 23.243 19.7823 23.1322 19.7823 22.9925C20.0617 22.9925 19.8835 22.9828 20.1388 23.0021C20.1918 23.0069 19.7827 23.1129 19.7923 23.1804C20.0381 24.4332 21.0692 25.2571 22.3365 25.2041C23.4544 25.1559 24.4229 24.3175 24.6108 23.2045C24.6397 23.0262 24.7072 22.978 24.871 22.9925C25.0685 23.0069 25.2709 22.9973 25.4733 22.9973C25.825 22.9924 25.9889 22.8334 25.9937 22.4817C25.9985 21.942 25.9937 21.4072 25.9937 20.8675C25.9937 20.0098 26.0033 19.1473 25.984 18.2896C25.9792 18.0921 25.9214 17.8753 25.8202 17.7066C25.136 16.5984 24.4421 14.581 23.7627 13.4823C23.6134 13.2414 23.4303 13.1402 23.1508 13.1451C21.6185 13.1499 20.9965 13.1499 19.4643 13.1499C19.0113 13.1499 18.8668 13.2992 18.8668 13.7618C18.8668 15.535 18.8668 18.2415 18.8668 20.0146C18.8668 20.111 18.8668 20.2026 18.8668 20.3134C17.7489 20.3134 15.7392 20.3134 14.6357 20.3134C14.7176 20.0195 14.7947 19.74 14.8767 19.422ZM20.8909 14.0606C21.0981 15.1013 21.3053 17.0513 21.5125 18.0728C21.5848 18.4342 21.7197 18.5402 22.0907 18.545C22.7894 18.5498 23.4881 18.5498 24.1868 18.5547C24.4807 18.5547 24.7746 18.5547 25.0685 18.5547C25.0685 19.1666 25.0685 19.74 25.0685 20.3086C22.9918 20.3086 21.8494 20.3086 19.7775 20.3086C19.7775 18.5306 19.7775 15.8386 19.7775 14.0654C20.4569 14.0606 20.2067 14.0606 20.8909 14.0606ZM8.61749 18.5402C8.61749 17.7885 8.61749 17.0658 8.61749 16.3093C8.72349 16.3093 8.81504 16.3093 8.91141 16.3093C9.90401 16.3093 10.9014 16.3333 11.894 16.3044C13.1854 16.2659 14.4478 16.5068 15.7199 16.6514C16.0427 16.6899 16.168 16.8489 16.168 17.1669C16.1728 17.5621 16.168 17.9523 16.168 18.3475C16.168 18.4101 16.1535 18.4679 16.1487 18.5402C15.6813 18.5402 15.2332 18.5498 14.7851 18.5354C14.6887 18.5306 14.5586 18.4679 14.5008 18.3908C13.7588 17.4079 12.347 17.3982 11.6146 18.3956C11.5278 18.5161 11.4363 18.5498 11.2965 18.5498C10.5497 18.545 9.80282 18.545 9.05596 18.545C8.91623 18.5402 8.77168 18.5402 8.61749 18.5402ZM7.68752 18.5402C7.1864 18.5402 6.7142 18.545 6.24199 18.5354C6.17935 18.5354 6.09261 18.4776 6.05407 18.4246C5.32166 17.3886 3.83758 17.3886 3.10999 18.4342C3.07626 18.4824 3.01362 18.5402 2.96544 18.5402C2.46914 18.5498 1.97766 18.545 1.4669 18.545C1.4669 17.9764 1.4669 17.4368 1.4669 16.9019C1.4669 16.4586 1.60663 16.3189 2.05957 16.3189C3.84722 16.3189 5.63486 16.3189 7.42733 16.3189C7.51406 16.3189 7.59597 16.3285 7.68752 16.3333C7.68752 17.0658 7.68752 17.7885 7.68752 18.5402ZM13.966 22.9732C13.966 22.3805 13.966 21.8023 13.966 21.2193C15.3007 21.2193 17.5369 21.2193 18.8571 21.2193C18.8571 21.8119 18.8571 22.3853 18.8571 22.9732C17.5321 22.9732 15.3007 22.9732 13.966 22.9732ZM5.69268 24.3272C4.84945 24.3272 4.12187 23.6044 4.13632 22.7853C4.15078 21.9179 4.84464 21.2144 5.69268 21.2048C6.55037 21.2 7.25386 21.9131 7.25868 22.7901C7.25868 23.6237 6.54073 24.332 5.69268 24.3272ZM23.7435 22.8045C23.7386 23.6429 23.0255 24.3368 22.1775 24.332C21.3294 24.3272 20.6163 23.614 20.6307 22.7804C20.6452 21.9083 21.3391 21.2096 22.1871 21.2096C23.0496 21.2048 23.7483 21.9228 23.7435 22.8045ZM12.2121 15.3986C10.9882 15.3986 9.80282 15.3986 8.61749 15.3986C8.61749 14.8059 8.61749 14.2229 8.61749 13.635C9.30171 13.635 9.96665 13.6254 10.6316 13.6398C10.8918 13.6447 11.1134 13.7748 11.2628 13.9916C11.576 14.4445 11.8796 14.9071 12.2121 15.3986ZM7.68752 15.3938C6.52146 15.3938 5.3843 15.3938 4.21824 15.3938C4.63744 14.8926 5.0181 14.406 5.43249 13.953C5.55777 13.8133 5.76014 13.6736 5.93843 13.6639C6.51664 13.6302 7.09967 13.6495 7.68752 13.6495C7.68752 14.2373 7.68752 14.8107 7.68752 15.3938ZM21.8016 14.0461C22.1775 14.0461 22.5244 14.0557 22.8665 14.0413C23.0159 14.0365 23.093 14.0943 23.1701 14.2147C23.6519 15.0002 24.1434 16.7092 24.6301 17.4898C24.659 17.538 24.6782 17.5958 24.6975 17.6343C23.941 17.6343 23.2038 17.6391 22.4666 17.6295C22.4136 17.6295 22.322 17.5524 22.3124 17.4994C22.1389 16.6755 21.9751 14.9134 21.8016 14.0461ZM7.64416 21.2241C9.44144 21.2241 11.2387 21.2241 13.036 21.2241C13.036 21.518 13.036 21.7975 13.036 22.101C12.5927 22.101 12.159 22.101 11.7302 22.101C10.5738 22.101 9.41735 22.101 8.26092 22.0962C8.18382 22.0962 8.06336 22.0721 8.03445 22.0239C7.89472 21.7686 7.77426 21.4987 7.64416 21.2241ZM6.16489 20.3134C6.22753 20.0821 6.31426 19.8701 6.33836 19.6533C6.35763 19.4605 6.42991 19.422 6.60819 19.422C8.08264 19.4268 9.5619 19.4268 11.0363 19.4268C11.1038 19.4268 11.1761 19.4364 11.2243 19.4364C11.3062 19.74 11.3881 20.0243 11.4652 20.3134C9.70646 20.3134 7.9429 20.3134 6.16489 20.3134ZM0.922419 22.1059C0.821232 21.7445 1.08624 21.5758 1.23562 21.3638C1.29344 21.2819 1.42354 21.2193 1.52472 21.2144C2.46914 21.2048 2.64742 21.2096 3.59184 21.2096C3.64966 21.2096 3.70748 21.2193 3.7653 21.2289C3.64484 21.465 3.50993 21.677 3.42319 21.9083C3.36537 22.0577 3.30273 22.1155 3.13408 22.1155C2.5896 22.101 2.81607 22.1107 2.26676 22.1107C1.82347 22.1059 1.37535 22.1059 0.922419 22.1059ZM12.1687 19.4268C12.1687 18.9353 12.5638 18.545 13.0553 18.545C13.5419 18.545 13.9467 18.9498 13.9467 19.4316C13.9467 19.899 13.5227 20.323 13.0505 20.323C12.5686 20.3182 12.1687 19.9135 12.1687 19.4268ZM5.44694 19.4268C5.45176 19.9038 5.06147 20.3086 4.58444 20.3182C4.12187 20.3278 3.70748 19.9183 3.69303 19.4461C3.68339 18.9787 4.08332 18.5643 4.56035 18.5595C5.03255 18.5498 5.43731 18.9498 5.44694 19.4268ZM19.7823 21.2289C20.2593 21.2289 19.7972 21.2289 20.2453 21.2289C20.1152 21.4987 19.9947 21.7589 19.8694 22.0143C19.8502 22.0529 19.802 22.0962 19.7682 22.101C19.4695 22.1059 20.081 22.1059 19.7823 22.1059C19.7823 21.783 19.7823 21.5084 19.7823 21.2289ZM25.0878 22.1059C24.9625 22.1059 24.8662 22.1107 24.7698 22.1059C24.6879 22.0962 24.5626 22.0962 24.5337 22.048C24.3843 21.783 24.2639 21.4987 24.1338 21.2241C24.447 21.2241 24.7553 21.2241 25.0734 21.2241C25.0782 21.2819 25.083 21.3301 25.083 21.3783C25.0878 21.6047 25.0878 21.836 25.0878 22.1059Z" fill="#3A62FF"/>
<path d="M5.03256 22.766C5.03256 23.1418 5.32648 23.4357 5.70232 23.4357C6.07816 23.4357 6.37209 23.1322 6.36727 22.7563C6.36245 22.3901 6.07334 22.1059 5.70714 22.101C5.32648 22.101 5.03256 22.3901 5.03256 22.766Z" fill="#3A62FF"/>
<path d="M22.1871 22.1059C21.8113 22.1059 21.5173 22.4094 21.5222 22.7804C21.527 23.1418 21.8209 23.4357 22.1823 23.4406C22.5533 23.4454 22.8617 23.1418 22.8617 22.7708C22.8617 22.3998 22.5629 22.101 22.1871 22.1059Z" fill="#3A62FF"/>
<path d="M19.7871 20.5736C19.7871 18.333 19.7871 6.81994 19.7871 4.57936C19.7871 4.52636 19.7871 4.46854 19.7871 4.41553C19.7823 4.10715 19.604 3.92887 19.2956 3.92405C18.7174 3.91923 18.6403 3.92887 18.0621 3.91923C17.9753 3.91923 17.8742 3.88551 17.8019 3.83732C16.0432 2.60862 14.2844 1.37027 12.5257 0.141568C12.4389 0.0789285 12.3329 0.0259257 12.2269 0.00665186C11.9812 -0.0367142 11.7692 0.13675 11.7355 0.38731C11.7258 0.440313 11.7258 0.498134 11.7258 0.551137C11.7258 2.72908 11.7258 4.90702 11.7258 7.08978C11.7258 7.29697 11.7885 7.45116 11.9523 7.58608C12.4052 7.96192 12.3908 8.2462 11.9089 8.57868C11.6969 8.72323 11.4656 8.82924 11.2392 8.95452C11.138 9.00752 11.0512 8.97861 10.9934 8.88224C10.897 8.71841 10.8007 8.55459 10.7139 8.38112C10.5742 8.11129 10.3381 8.00528 10.0972 8.11129C9.87553 8.21247 9.76953 8.39558 9.85144 8.62686C9.98636 9.02198 10.1839 9.38336 10.5019 9.66283C10.738 9.87002 11.032 9.93748 11.3355 9.86038C11.9186 9.71583 12.4245 9.40745 12.8341 8.97379C13.3448 8.42449 13.3014 7.68726 12.7521 7.10423C12.6654 7.01268 12.6317 6.92113 12.6317 6.80067C12.6365 5.04675 12.6317 3.28802 12.6317 1.5341C12.6317 1.4811 12.6317 1.42809 12.6317 1.34136C12.6991 1.38473 12.7473 1.41364 12.7907 1.44255C14.2603 2.4737 15.73 3.50485 17.1996 4.536C17.2911 4.59864 17.32 4.66609 17.32 4.7721C17.3152 6.8874 17.32 18.2752 17.32 20.3905C17.32 20.4579 17.3249 20.5206 17.3249 20.588C17.6284 20.588 17.9272 20.588 18.2307 20.588C18.2307 20.5591 18.2259 20.5302 18.2259 20.4965C18.2259 18.4149 18.2259 7.05123 18.2259 4.96966C18.2259 4.93111 18.2307 4.89256 18.2355 4.85401C18.621 4.85401 18.4909 4.85401 18.8764 4.85401C18.8764 7.01268 18.8764 18.439 18.8764 20.588C19.1848 20.5736 19.4835 20.5736 19.7871 20.5736Z" fill="#3A62FF"/>
</svg>
