<svg width="28" height="27" viewBox="0 0 28 27" fill="none" xmlns="http://www.w3.org/2000/svg">
<path d="M23.0317 14.5369C22.9606 14.6316 22.8997 14.6655 22.7813 14.6215C22.5917 14.5504 22.3955 14.503 22.1992 14.4523C22.101 14.4286 22.0604 14.3778 22.0638 14.2729C22.0706 14.0935 22.0739 13.9108 22.057 13.7314C22.0333 13.508 21.8641 13.3727 21.6543 13.3862C21.4546 13.3997 21.3125 13.552 21.3091 13.772C21.3057 13.9988 21.3023 14.2221 21.3057 14.4489C21.3125 14.7772 21.4851 15.0208 21.7998 15.119C22.2093 15.2476 22.6188 15.366 23.0317 15.4811C23.2889 15.5556 23.4649 15.4473 23.5495 15.19C23.58 15.1021 23.6273 15.0107 23.6883 14.9464C23.8169 14.811 24.1011 14.7873 24.2771 14.8787C24.4091 14.9498 24.4497 15.0716 24.4294 15.207C24.3584 15.674 24.2873 16.1444 24.2061 16.6081C24.1655 16.8314 23.9759 16.96 23.7492 16.9499C23.4987 16.9364 23.3464 16.7502 23.3464 16.4625C23.3464 16.1681 23.2111 16.0294 22.9166 16.0192C22.5105 16.0057 22.1044 15.9854 21.6983 15.9786C21.3057 15.9684 21.0519 16.141 20.93 16.5133C20.7202 17.1733 20.4292 17.7926 20.0772 18.3848C19.8775 18.7199 19.9181 19.0279 20.1923 19.3088C20.4122 19.5355 20.639 19.7555 20.8657 19.9755C21.0789 20.1853 21.1872 20.2022 21.4546 20.077C21.6577 19.9822 21.8607 20.0195 21.9893 20.1785C22.1179 20.3376 22.1179 20.5474 21.9792 20.7234C21.8641 20.8689 21.7457 21.0145 21.6204 21.1532C21.4783 21.3157 21.2752 21.3563 21.0993 21.2683C20.9131 21.1735 20.8319 20.9942 20.8793 20.7708C20.9233 20.5474 20.8725 20.4087 20.683 20.297C20.3818 20.1176 20.0806 19.9416 19.776 19.7724C19.4646 19.5998 19.1668 19.6337 18.9028 19.8706C18.7539 20.0026 18.6152 20.1413 18.4663 20.2699C17.6777 20.9502 16.7944 21.4713 15.8096 21.8199C15.3358 21.9891 15.1902 22.2057 15.2241 22.7134C15.2478 23.0789 15.285 23.4444 15.3188 23.8099C15.3459 24.1382 15.4779 24.2533 15.8129 24.2431C16.0668 24.233 16.2495 24.3616 16.2935 24.5748C16.3375 24.7948 16.2157 25.0317 15.9855 25.0892C15.505 25.2076 15.0176 25.3058 14.5337 25.4073C14.4051 25.4344 14.3002 25.3836 14.2392 25.2584C14.0937 24.9572 14.2223 24.6289 14.5303 24.5071C14.7976 24.4022 14.8789 24.2296 14.7875 23.9588C14.669 23.617 14.5472 23.2786 14.4288 22.9401C14.2358 22.3851 14.0396 22.2531 13.4473 22.2836C12.7095 22.3242 11.9819 22.2599 11.2644 22.0974C9.97837 21.8064 8.82432 21.2412 7.80564 20.4019C7.50105 20.1515 7.22692 20.1345 6.8851 20.3308C6.59066 20.5 6.29961 20.6726 6.00856 20.8419C5.50768 21.1363 5.48399 21.292 5.86304 21.7218C6.18116 22.0805 6.17101 22.5713 5.83596 22.8725C5.5043 23.1737 5.01695 23.1432 4.68868 22.7878C4.30286 22.375 3.92043 21.9621 3.53801 21.5458C3.51432 21.5221 3.49063 21.495 3.47032 21.4713C3.25372 21.1938 3.21988 20.8926 3.38233 20.5847C3.53801 20.2868 3.80198 20.1582 4.13703 20.1751C4.41793 20.1887 4.5973 20.3579 4.77328 20.5474C5.02372 20.8216 5.27078 20.8013 5.48061 20.4967C5.68705 20.2022 5.89011 19.9044 6.09655 19.6066C6.40791 19.1531 6.41468 18.9669 6.11686 18.4999C5.26401 17.1631 4.82405 15.7045 4.8139 14.1206C4.81051 13.7619 4.85112 13.3997 4.86466 13.041C4.8782 12.7229 4.74621 12.469 4.45177 12.3472C4.03889 12.1712 3.61246 12.0155 3.18942 11.8666C2.96944 11.7888 2.78669 11.8802 2.69869 12.0765C2.53286 12.4352 2.42795 12.4927 2.04214 12.4352C1.82554 12.4014 1.73755 12.2931 1.78493 12.0866C1.88984 11.6297 1.99476 11.1762 2.10982 10.7227C2.17751 10.4655 2.40087 10.3099 2.61747 10.3538C2.86114 10.4012 2.99651 10.6009 2.97621 10.8852C2.9559 11.1695 3.09128 11.3285 3.37894 11.3556C3.78168 11.3962 4.1878 11.4368 4.59053 11.4808C4.9425 11.5181 5.23017 11.3691 5.36892 11.0409C5.61598 10.4452 5.91718 9.88004 6.27592 9.34532C6.48575 9.03396 6.45529 8.70907 6.21501 8.42817C5.95103 8.1202 5.68028 7.81561 5.40954 7.5144C5.22001 7.30119 5.02372 7.29442 4.80374 7.47379C4.59391 7.64977 4.34686 7.65654 4.17764 7.4941C4.00843 7.33165 4.00166 7.05752 4.17764 6.85107C4.43824 6.54649 4.70221 6.24528 4.97296 5.95084C5.15571 5.74779 5.39938 5.72748 5.59229 5.88316C5.77166 6.0253 5.79873 6.27236 5.66336 6.49234C5.49414 6.76308 5.53137 6.93907 5.79873 7.12182C6.12363 7.34519 6.44852 7.56855 6.7768 7.78515C7.11862 8.01528 7.42321 8.00174 7.73795 7.73777C8.99353 6.69201 10.4251 6.05914 12.0462 5.86285C12.4726 5.81209 12.6892 5.59211 12.7501 5.16907C12.8043 4.79679 12.8517 4.42113 12.8923 4.04547C12.9329 3.67658 12.8483 3.56828 12.4862 3.50059C12.2425 3.45321 12.0936 3.27046 12.1071 3.03694C12.124 2.80342 12.3 2.63082 12.5437 2.62744C12.9667 2.62067 13.3898 2.62067 13.8128 2.62744C14.0497 2.63082 14.2325 2.81019 14.2494 3.04033C14.2629 3.26031 14.1106 3.46675 13.8805 3.49044C13.5522 3.52429 13.3999 3.70365 13.4575 4.07931C13.515 4.46513 13.5556 4.85094 13.6064 5.23675C13.6504 5.56165 13.8771 5.81209 14.1817 5.86962C14.4186 5.917 14.6589 5.961 14.8958 6.00161C15.1192 6.04222 15.3053 5.917 15.3527 5.70379C15.3967 5.50411 15.2715 5.31121 15.0582 5.26044C14.8755 5.21983 14.6927 5.1826 14.51 5.15553C14.4118 5.14199 14.3577 5.10815 14.3475 4.99985C14.3238 4.77648 14.2934 4.55312 14.2595 4.32975C14.2426 4.22484 14.2798 4.17069 14.3746 4.11993C14.8755 3.8458 15.109 3.3043 14.9702 2.75604C14.8383 2.23486 14.3577 1.86597 13.7959 1.86258C13.3796 1.8592 12.96 1.85581 12.5437 1.86597C12.4015 1.86935 12.2493 1.89304 12.1173 1.94719C11.6502 2.13333 11.3829 2.48191 11.349 2.98618C11.3152 3.48706 11.5385 3.86949 11.9717 4.11993C12.0733 4.17746 12.1071 4.23161 12.0868 4.34329C12.053 4.54297 12.0327 4.74603 12.0157 4.94908C12.0056 5.054 11.9684 5.10476 11.8533 5.1183C11.0614 5.21983 10.2965 5.42627 9.5621 5.74102C9.44703 5.7884 9.39288 5.77148 9.33535 5.66318C9.18644 5.37213 9.03076 5.08446 8.8717 4.80017C8.73971 4.5565 8.5265 4.47866 8.32682 4.59035C8.12376 4.70203 8.07638 4.91524 8.2016 5.15891C8.35051 5.4432 8.49942 5.72748 8.65849 6.00838C8.71602 6.10991 8.69233 6.15729 8.59757 6.22159C8.17114 6.50587 7.75149 6.79693 7.33183 7.09475C7.25738 7.14889 7.20323 7.16243 7.122 7.1049C6.93587 6.96953 6.74296 6.84092 6.54667 6.7157C6.46883 6.66494 6.46883 6.61079 6.47221 6.51941C6.48575 6.30958 6.51283 6.08283 6.45529 5.88654C6.18793 4.97616 5.07787 4.72572 4.42808 5.41612C4.14718 5.71733 3.87982 6.02868 3.60908 6.34004C3.21988 6.78677 3.1725 7.39595 3.48386 7.85622C3.7986 8.31987 4.35701 8.49247 4.92219 8.28941C5.01696 8.25557 5.06772 8.27926 5.12525 8.34695C5.26401 8.50939 5.40277 8.67184 5.55168 8.82752C5.62613 8.90536 5.60921 8.96289 5.56183 9.05088C5.28432 9.55853 5.0068 10.0662 4.73944 10.584C4.68191 10.6957 4.62437 10.7295 4.50592 10.7126C4.29271 10.6821 4.0795 10.6754 3.86629 10.6415C3.80537 10.6314 3.72753 10.5671 3.71061 10.5095C3.53124 9.93419 3.07435 9.57884 2.51933 9.59238C1.9643 9.60591 1.49726 9.99849 1.35512 10.5738C1.24682 11.0307 1.13514 11.491 1.02684 11.9512C0.921925 12.3878 1.13175 12.8786 1.5311 13.0715C2.03537 13.3151 2.73592 13.3084 3.15896 12.8041C3.22326 12.7263 3.28757 12.7127 3.37894 12.7499C3.57862 12.8312 3.77491 12.909 3.97797 12.9767C4.08288 13.0105 4.09642 13.0715 4.09304 13.1696C4.07611 13.5791 4.05919 13.992 4.05919 14.4015C4.05919 14.5335 4.0152 14.5809 3.89336 14.5944C3.62938 14.6249 3.36879 14.6621 3.10481 14.7027C2.87468 14.7365 2.72238 14.9159 2.74946 15.1156C2.77653 15.339 2.97282 15.4845 3.2165 15.4506C3.4737 15.4168 3.73091 15.3863 3.98812 15.3423C4.10657 15.322 4.14042 15.3593 4.16411 15.4743C4.2521 15.8872 4.34686 16.3001 4.45177 16.7062C4.52284 16.9837 4.53638 16.9804 4.28594 17.1123C4.20133 17.1563 4.11673 17.2003 4.03212 17.2477C3.81214 17.3695 3.7343 17.576 3.82906 17.7689C3.93059 17.972 4.15057 18.0363 4.3807 17.9246C4.51608 17.8569 4.65145 17.7858 4.79021 17.7147C5.04065 18.1547 5.28432 18.5778 5.5246 19.0042C5.53814 19.0279 5.53814 19.0752 5.52122 19.0989C5.37569 19.3189 5.2234 19.5321 5.0711 19.7555C5.0068 19.7183 4.96619 19.6912 4.92219 19.6641C4.26564 19.2411 3.42971 19.3561 2.90852 19.9349C2.40764 20.4899 2.3738 21.3597 2.86791 21.9384C3.30787 22.4528 3.76814 22.9503 4.24871 23.4275C4.73606 23.9148 5.50091 23.9791 6.09655 23.6305C6.67527 23.2921 6.97309 22.6017 6.81065 21.9452C6.76327 21.7556 6.67866 21.5796 6.6042 21.3834C6.78019 21.2818 6.95956 21.1803 7.13554 21.0686C7.24722 20.9975 7.31829 21.0077 7.43336 21.0821C7.96132 21.4341 8.50281 21.7726 9.03753 22.1144C9.08153 22.1448 9.13229 22.1685 9.18306 22.199C9.06799 22.4731 8.95292 22.7303 8.84801 22.9943C8.75325 23.2312 8.83109 23.4579 9.03415 23.5358C9.24736 23.6204 9.44365 23.5256 9.54856 23.2853C9.64332 23.0687 9.74485 22.8521 9.82608 22.6322C9.87007 22.5069 9.93438 22.5036 10.0427 22.5374C10.4149 22.6491 10.7872 22.7608 11.1629 22.8555C11.2983 22.8894 11.3389 22.9401 11.3456 23.0789C11.3524 23.2041 11.393 23.3463 11.4607 23.4512C11.5487 23.5798 11.7044 23.5865 11.8465 23.5392C12.009 23.485 12.0936 23.3598 12.0936 23.1906C12.0936 23.0586 12.1376 23.018 12.2729 23.0247C12.6892 23.0417 13.1055 23.0349 13.5251 23.0484C13.5793 23.0518 13.6639 23.1026 13.6842 23.1534C13.7756 23.3767 13.8534 23.6069 13.9245 23.8404C13.938 23.8844 13.9177 23.9656 13.8805 23.996C13.4981 24.3176 13.3864 24.7237 13.4371 25.2076C13.5048 25.8676 14.0632 26.2906 14.713 26.1552C15.1598 26.0605 15.6065 25.9657 16.0532 25.871C16.615 25.7491 17.0279 25.2922 17.055 24.7609C17.0854 24.172 16.7606 23.7118 16.1852 23.5189C16.1243 23.4986 16.0498 23.4309 16.0397 23.3767C16.0058 23.1601 16.0025 22.9401 15.9788 22.7202C15.9686 22.6186 16.0025 22.5713 16.0972 22.5306C16.5744 22.3174 17.0516 22.0974 17.522 21.8707C17.6303 21.8199 17.6879 21.8165 17.7555 21.9215C17.8774 22.1042 18.0128 22.2802 18.1481 22.4528C18.2497 22.5814 18.3884 22.6186 18.5441 22.5746C18.693 22.534 18.8013 22.4257 18.8047 22.2768C18.8081 22.1617 18.7607 22.0331 18.6998 21.935C18.5847 21.7455 18.4426 21.5729 18.3173 21.4003C18.6761 21.0889 19.0145 20.7911 19.3563 20.5034C19.3834 20.4797 19.4646 20.4899 19.5052 20.5102C19.6643 20.5948 19.8234 20.6794 19.9723 20.7843C20.0298 20.8249 20.084 20.9095 20.0907 20.9772C20.1516 21.4781 20.4021 21.8402 20.8725 22.0095C21.3497 22.1821 21.7863 22.0805 22.145 21.7116C22.3142 21.539 22.4699 21.3495 22.6087 21.1532C22.8862 20.7606 22.9234 20.3342 22.7034 19.9078C22.4868 19.4949 22.1281 19.2377 21.6644 19.2885C21.3125 19.3291 21.106 19.2005 20.9097 18.9602C20.8894 18.9331 20.8657 18.9094 20.8387 18.8891C20.7371 18.818 20.7473 18.7436 20.8082 18.6454C21.1466 18.0904 21.4106 17.4982 21.6137 16.8822C21.6509 16.7705 21.705 16.7434 21.81 16.7502C22.0232 16.7638 22.2398 16.7739 22.453 16.7739C22.5681 16.7739 22.6154 16.8179 22.6527 16.9296C22.8388 17.4643 23.3634 17.7824 23.9285 17.7181C24.4667 17.6606 24.8965 17.2274 24.9743 16.6758C25.0285 16.2967 25.0928 15.9177 25.1604 15.542C25.2315 15.1257 25.2112 14.7365 24.8998 14.4049C24.4971 13.9751 23.5055 13.8972 23.0317 14.5369Z" fill="#3A62FF"/>
<path d="M26.6834 9.70406C25.0657 7.11844 23.4683 4.52266 21.854 1.93365C21.0756 0.684839 19.4037 0.691608 18.6185 1.93704C18.3343 2.39054 17.2377 4.17069 16.588 5.22322C16.5676 5.24691 16.5507 5.2706 16.5338 5.29767C16.412 5.48719 16.2969 5.6801 16.1784 5.873C15.3764 7.16582 14.5709 8.45863 13.7722 9.75144C13.4101 10.3369 13.3661 10.9563 13.6741 11.5722C14.0226 12.2728 14.6115 12.6213 15.3899 12.6247C17.0042 12.6315 18.6152 12.6281 20.2295 12.6281C21.8269 12.6281 23.4209 12.6281 25.0183 12.6281C25.3669 12.6281 25.7019 12.5706 26.0133 12.4047C26.8628 11.9479 27.3535 10.7769 26.6834 9.70406ZM26.0742 11.315C25.8407 11.711 25.4718 11.8666 25.0217 11.8633C21.8337 11.8599 18.649 11.8633 15.461 11.8633C15.4001 11.8633 15.3358 11.8633 15.2748 11.8599C14.8992 11.8193 14.598 11.6534 14.4051 11.3218C14.1614 10.9055 14.202 10.496 14.4558 10.0933C15.2173 8.87151 15.9754 7.64639 16.7335 6.42127C16.7606 6.38742 16.791 6.34681 16.8181 6.3062C17.187 5.71394 18.9096 2.91849 19.2785 2.32624C19.5154 1.94381 19.8606 1.74752 20.3107 1.77459C20.7134 1.79828 21.0045 2.00472 21.2143 2.34654C21.7727 3.25354 22.3379 4.15715 22.8997 5.06415C23.9421 6.74616 24.9845 8.42817 26.0302 10.1068C26.2739 10.4994 26.3145 10.9055 26.0742 11.315Z" fill="#3A62FF"/>
<path d="M25.3127 10.3911C24.179 8.56016 23.0419 6.73262 21.9081 4.9017C21.4715 4.19777 21.035 3.49383 20.595 2.78989C20.3953 2.47515 20.084 2.47515 19.8809 2.78989C19.8572 2.82712 19.8301 2.86434 19.8064 2.90495C18.4595 5.07431 17.1159 7.24366 15.7689 9.41301C15.5456 9.77174 15.3188 10.1271 15.1022 10.4926C14.9195 10.7972 15.0887 11.0882 15.4474 11.1018C15.5084 11.1052 15.5727 11.1018 15.6336 11.1018C17.3088 11.1018 18.9841 11.1018 20.6593 11.1018C21.0756 11.1018 23.1874 11.1052 23.6037 11.0984C23.6172 11.0984 23.6273 11.0984 23.6375 11.095C24.1215 11.1018 24.6054 11.1052 25.0894 11.0916C25.377 11.0815 25.5226 10.7938 25.3973 10.5332C25.3737 10.4858 25.3432 10.4385 25.3127 10.3911ZM23.6104 10.3437C23.607 10.3437 23.6037 10.3437 23.6003 10.3437C23.5427 10.3437 23.4886 10.3437 23.4311 10.3437C21.6306 10.3437 18.1414 10.3437 16.3409 10.3437C16.2766 10.3437 16.2123 10.3437 16.0938 10.3437C17.4848 8.10327 18.8521 5.90008 20.2396 3.66304C21.6306 5.90346 22.9945 8.10666 24.3854 10.3471C24.1011 10.3437 23.8541 10.3403 23.6104 10.3437Z" fill="#3A62FF"/>
<path d="M11.701 20.8757C12.9667 20.8892 14.0057 19.8638 14.0125 18.5879C14.0193 17.312 13.0006 16.2832 11.7247 16.2764C10.4522 16.273 9.42673 17.2917 9.41996 18.571C9.41996 19.8401 10.4285 20.8622 11.701 20.8757ZM11.7213 17.0413C12.5708 17.0413 13.2544 17.7249 13.2544 18.5778C13.2544 19.4272 12.564 20.1142 11.7179 20.1142C10.8684 20.1108 10.1848 19.4238 10.1848 18.5744C10.1848 17.7215 10.8684 17.0413 11.7213 17.0413Z" fill="#3A62FF"/>
<path d="M17.0753 17.3899C17.8131 17.3932 18.4223 16.7908 18.4223 16.0497C18.4256 15.3051 17.83 14.7061 17.0854 14.7027C16.3409 14.7027 15.7351 15.2983 15.7317 16.0361C15.7317 16.7705 16.3375 17.3831 17.0753 17.3899ZM17.0888 15.4676C17.4103 15.4709 17.6642 15.7282 17.6608 16.053C17.6574 16.3712 17.39 16.6351 17.0753 16.6284C16.7606 16.6216 16.4966 16.3509 16.5 16.0395C16.5033 15.718 16.7673 15.4642 17.0888 15.4676Z" fill="#3A62FF"/>
<path d="M19.8572 5.51088C19.8538 6.15729 19.8538 6.80369 19.8572 7.4501C19.8572 7.71069 20.0129 7.87314 20.2396 7.87314C20.4664 7.87314 20.6119 7.71408 20.6153 7.44672C20.6187 7.1252 20.6153 6.80708 20.6153 6.48557C20.6153 6.16067 20.6187 5.83239 20.6153 5.5075C20.6119 5.24691 20.4596 5.08107 20.2363 5.08107C20.0163 5.08107 19.8572 5.25706 19.8572 5.51088Z" fill="#3A62FF"/>
<path d="M20.6085 9.1118C20.6085 9.02719 20.6153 8.94258 20.6085 8.85798C20.5916 8.67861 20.4427 8.53985 20.2633 8.52293C20.0975 8.50939 19.908 8.61769 19.8843 8.79029C19.8572 8.99673 19.8538 9.21671 19.8843 9.42316C19.908 9.60591 20.0873 9.70406 20.2769 9.68714C20.4596 9.67021 20.5916 9.53484 20.6085 9.34532C20.6153 9.27086 20.6119 9.19302 20.6085 9.1118Z" fill="#3A62FF"/>
<path d="M13.0547 12.3574C13.0547 10.4994 11.5453 8.98997 9.68732 8.98997C7.82933 8.98997 6.31992 10.4994 6.31992 12.3574C6.31992 14.2154 7.82933 15.7248 9.68732 15.7248C11.5453 15.7248 13.0547 14.2154 13.0547 12.3574ZM9.68732 14.9464C8.25914 14.9464 7.09831 13.7856 7.09831 12.3574C7.09831 10.9292 8.25914 9.76836 9.68732 9.76836C11.1155 9.76836 12.2763 10.9292 12.2763 12.3574C12.2763 13.7856 11.1155 14.9464 9.68732 14.9464Z" fill="#3A62FF"/>
<path d="M23.0317 14.5369C22.9606 14.6316 22.8997 14.6655 22.7813 14.6215C22.5917 14.5504 22.3955 14.503 22.1992 14.4523C22.101 14.4286 22.0604 14.3778 22.0638 14.2729C22.0706 14.0935 22.0739 13.9108 22.057 13.7314C22.0333 13.508 21.8641 13.3727 21.6543 13.3862C21.4546 13.3997 21.3125 13.552 21.3091 13.772C21.3057 13.9988 21.3023 14.2221 21.3057 14.4489C21.3125 14.7772 21.4851 15.0208 21.7998 15.119C22.2093 15.2476 22.6188 15.366 23.0317 15.4811C23.2889 15.5556 23.4649 15.4473 23.5495 15.19C23.58 15.1021 23.6273 15.0107 23.6883 14.9464C23.8169 14.811 24.1011 14.7873 24.2771 14.8787C24.4091 14.9498 24.4497 15.0716 24.4294 15.207C24.3584 15.674 24.2873 16.1444 24.2061 16.6081C24.1655 16.8314 23.9759 16.96 23.7492 16.9499C23.4987 16.9364 23.3464 16.7502 23.3464 16.4625C23.3464 16.1681 23.2111 16.0294 22.9166 16.0192C22.5105 16.0057 22.1044 15.9854 21.6983 15.9786C21.3057 15.9684 21.0519 16.141 20.93 16.5133C20.7202 17.1733 20.4292 17.7926 20.0772 18.3848C19.8775 18.7199 19.9181 19.0279 20.1923 19.3088C20.4122 19.5355 20.639 19.7555 20.8657 19.9755C21.0789 20.1853 21.1872 20.2022 21.4546 20.077C21.6577 19.9822 21.8607 20.0195 21.9893 20.1785C22.1179 20.3376 22.1179 20.5474 21.9792 20.7234C21.8641 20.8689 21.7457 21.0145 21.6204 21.1532C21.4783 21.3157 21.2752 21.3563 21.0993 21.2683C20.9131 21.1735 20.8319 20.9942 20.8793 20.7708C20.9233 20.5474 20.8725 20.4087 20.683 20.297C20.3818 20.1176 20.0806 19.9416 19.776 19.7724C19.4646 19.5998 19.1668 19.6337 18.9028 19.8706C18.7539 20.0026 18.6152 20.1413 18.4663 20.2699C17.6777 20.9502 16.7944 21.4713 15.8096 21.8199C15.3358 21.9891 15.1902 22.2057 15.2241 22.7134C15.2478 23.0789 15.285 23.4444 15.3188 23.8099C15.3459 24.1382 15.4779 24.2533 15.8129 24.2431C16.0668 24.233 16.2495 24.3616 16.2935 24.5748C16.3375 24.7948 16.2157 25.0317 15.9855 25.0892C15.505 25.2076 15.0176 25.3058 14.5337 25.4073C14.4051 25.4344 14.3002 25.3836 14.2392 25.2584C14.0937 24.9572 14.2223 24.6289 14.5303 24.5071C14.7976 24.4022 14.8789 24.2296 14.7875 23.9588C14.669 23.617 14.5472 23.2786 14.4288 22.9401C14.2358 22.3851 14.0396 22.2531 13.4473 22.2836C12.7095 22.3242 11.9819 22.2599 11.2644 22.0974C9.97837 21.8064 8.82432 21.2412 7.80564 20.4019C7.50105 20.1515 7.22692 20.1345 6.8851 20.3308C6.59066 20.5 6.29961 20.6726 6.00856 20.8419C5.50768 21.1363 5.48399 21.292 5.86304 21.7218C6.18116 22.0805 6.17101 22.5713 5.83596 22.8725C5.5043 23.1737 5.01695 23.1432 4.68868 22.7878C4.30286 22.375 3.92043 21.9621 3.53801 21.5458C3.51432 21.5221 3.49063 21.495 3.47032 21.4713C3.25372 21.1938 3.21988 20.8926 3.38233 20.5847C3.53801 20.2868 3.80198 20.1582 4.13703 20.1751C4.41793 20.1887 4.5973 20.3579 4.77328 20.5474C5.02372 20.8216 5.27078 20.8013 5.48061 20.4967C5.68705 20.2022 5.89011 19.9044 6.09655 19.6066C6.40791 19.1531 6.41468 18.9669 6.11686 18.4999C5.26401 17.1631 4.82405 15.7045 4.8139 14.1206C4.81051 13.7619 4.85112 13.3997 4.86466 13.041C4.8782 12.7229 4.74621 12.469 4.45177 12.3472C4.03889 12.1712 3.61246 12.0155 3.18942 11.8666C2.96944 11.7888 2.78669 11.8802 2.69869 12.0765C2.53286 12.4352 2.42795 12.4927 2.04214 12.4352C1.82554 12.4014 1.73755 12.2931 1.78493 12.0866C1.88984 11.6297 1.99476 11.1762 2.10982 10.7227C2.17751 10.4655 2.40087 10.3099 2.61747 10.3538C2.86114 10.4012 2.99651 10.6009 2.97621 10.8852C2.9559 11.1695 3.09128 11.3285 3.37894 11.3556C3.78168 11.3962 4.1878 11.4368 4.59053 11.4808C4.9425 11.5181 5.23017 11.3691 5.36892 11.0409C5.61598 10.4452 5.91718 9.88004 6.27592 9.34532C6.48575 9.03396 6.45529 8.70907 6.21501 8.42817C5.95103 8.1202 5.68028 7.81561 5.40954 7.5144C5.22001 7.30119 5.02372 7.29442 4.80374 7.47379C4.59391 7.64977 4.34686 7.65654 4.17764 7.4941C4.00843 7.33165 4.00166 7.05752 4.17764 6.85107C4.43824 6.54649 4.70221 6.24528 4.97296 5.95084C5.15571 5.74779 5.39938 5.72748 5.59229 5.88316C5.77166 6.0253 5.79873 6.27236 5.66336 6.49234C5.49414 6.76308 5.53137 6.93907 5.79873 7.12182C6.12363 7.34519 6.44852 7.56855 6.7768 7.78515C7.11862 8.01528 7.42321 8.00174 7.73795 7.73777C8.99353 6.69201 10.4251 6.05914 12.0462 5.86285C12.4726 5.81209 12.6892 5.59211 12.7501 5.16907C12.8043 4.79679 12.8517 4.42113 12.8923 4.04547C12.9329 3.67658 12.8483 3.56828 12.4862 3.50059C12.2425 3.45321 12.0936 3.27046 12.1071 3.03694C12.124 2.80342 12.3 2.63082 12.5437 2.62744C12.9667 2.62067 13.3898 2.62067 13.8128 2.62744C14.0497 2.63082 14.2325 2.81019 14.2494 3.04033C14.2629 3.26031 14.1106 3.46675 13.8805 3.49044C13.5522 3.52429 13.3999 3.70365 13.4575 4.07931C13.515 4.46513 13.5556 4.85094 13.6064 5.23675C13.6504 5.56165 13.8771 5.81209 14.1817 5.86962C14.4186 5.917 14.6589 5.961 14.8958 6.00161C15.1192 6.04222 15.3053 5.917 15.3527 5.70379C15.3967 5.50411 15.2715 5.31121 15.0582 5.26044C14.8755 5.21983 14.6927 5.1826 14.51 5.15553C14.4118 5.14199 14.3577 5.10815 14.3475 4.99985C14.3238 4.77648 14.2934 4.55312 14.2595 4.32975C14.2426 4.22484 14.2798 4.17069 14.3746 4.11993C14.8755 3.8458 15.109 3.3043 14.9702 2.75604C14.8383 2.23486 14.3577 1.86597 13.7959 1.86258C13.3796 1.8592 12.96 1.85581 12.5437 1.86597C12.4015 1.86935 12.2493 1.89304 12.1173 1.94719C11.6502 2.13333 11.3829 2.48191 11.349 2.98618C11.3152 3.48706 11.5385 3.86949 11.9717 4.11993C12.0733 4.17746 12.1071 4.23161 12.0868 4.34329C12.053 4.54297 12.0327 4.74603 12.0157 4.94908C12.0056 5.054 11.9684 5.10476 11.8533 5.1183C11.0614 5.21983 10.2965 5.42627 9.5621 5.74102C9.44703 5.7884 9.39288 5.77148 9.33535 5.66318C9.18644 5.37213 9.03076 5.08446 8.8717 4.80017C8.73971 4.5565 8.5265 4.47866 8.32682 4.59035C8.12376 4.70203 8.07638 4.91524 8.2016 5.15891C8.35051 5.4432 8.49942 5.72748 8.65849 6.00838C8.71602 6.10991 8.69233 6.15729 8.59757 6.22159C8.17114 6.50587 7.75149 6.79693 7.33183 7.09475C7.25738 7.14889 7.20323 7.16243 7.122 7.1049C6.93587 6.96953 6.74296 6.84092 6.54667 6.7157C6.46883 6.66494 6.46883 6.61079 6.47221 6.51941C6.48575 6.30958 6.51283 6.08283 6.45529 5.88654C6.18793 4.97616 5.07787 4.72572 4.42808 5.41612C4.14718 5.71733 3.87982 6.02868 3.60908 6.34004C3.21988 6.78677 3.1725 7.39595 3.48386 7.85622C3.7986 8.31987 4.35701 8.49247 4.92219 8.28941C5.01696 8.25557 5.06772 8.27926 5.12525 8.34695C5.26401 8.50939 5.40277 8.67184 5.55168 8.82752C5.62613 8.90536 5.60921 8.96289 5.56183 9.05088C5.28432 9.55853 5.0068 10.0662 4.73944 10.584C4.68191 10.6957 4.62437 10.7295 4.50592 10.7126C4.29271 10.6821 4.0795 10.6754 3.86629 10.6415C3.80537 10.6314 3.72753 10.5671 3.71061 10.5095C3.53124 9.93419 3.07435 9.57884 2.51933 9.59238C1.9643 9.60591 1.49726 9.99849 1.35512 10.5738C1.24682 11.0307 1.13514 11.491 1.02684 11.9512C0.921925 12.3878 1.13175 12.8786 1.5311 13.0715C2.03537 13.3151 2.73592 13.3084 3.15896 12.8041C3.22326 12.7263 3.28757 12.7127 3.37894 12.7499C3.57862 12.8312 3.77491 12.909 3.97797 12.9767C4.08288 13.0105 4.09642 13.0715 4.09304 13.1696C4.07611 13.5791 4.05919 13.992 4.05919 14.4015C4.05919 14.5335 4.0152 14.5809 3.89336 14.5944C3.62938 14.6249 3.36879 14.6621 3.10481 14.7027C2.87468 14.7365 2.72238 14.9159 2.74946 15.1156C2.77653 15.339 2.97282 15.4845 3.2165 15.4506C3.4737 15.4168 3.73091 15.3863 3.98812 15.3423C4.10657 15.322 4.14042 15.3593 4.16411 15.4743C4.2521 15.8872 4.34686 16.3001 4.45177 16.7062C4.52284 16.9837 4.53638 16.9804 4.28594 17.1123C4.20133 17.1563 4.11673 17.2003 4.03212 17.2477C3.81214 17.3695 3.7343 17.576 3.82906 17.7689C3.93059 17.972 4.15057 18.0363 4.3807 17.9246C4.51608 17.8569 4.65145 17.7858 4.79021 17.7147C5.04065 18.1547 5.28432 18.5778 5.5246 19.0042C5.53814 19.0279 5.53814 19.0752 5.52122 19.0989C5.37569 19.3189 5.2234 19.5321 5.0711 19.7555C5.0068 19.7183 4.96619 19.6912 4.92219 19.6641C4.26564 19.2411 3.42971 19.3561 2.90852 19.9349C2.40764 20.4899 2.3738 21.3597 2.86791 21.9384C3.30787 22.4528 3.76814 22.9503 4.24871 23.4275C4.73606 23.9148 5.50091 23.9791 6.09655 23.6305C6.67527 23.2921 6.97309 22.6017 6.81065 21.9452C6.76327 21.7556 6.67866 21.5796 6.6042 21.3834C6.78019 21.2818 6.95956 21.1803 7.13554 21.0686C7.24722 20.9975 7.31829 21.0077 7.43336 21.0821C7.96132 21.4341 8.50281 21.7726 9.03753 22.1144C9.08153 22.1448 9.13229 22.1685 9.18306 22.199C9.06799 22.4731 8.95292 22.7303 8.84801 22.9943C8.75325 23.2312 8.83109 23.4579 9.03415 23.5358C9.24736 23.6204 9.44365 23.5256 9.54856 23.2853C9.64332 23.0687 9.74485 22.8521 9.82608 22.6322C9.87007 22.5069 9.93438 22.5036 10.0427 22.5374C10.4149 22.6491 10.7872 22.7608 11.1629 22.8555C11.2983 22.8894 11.3389 22.9401 11.3456 23.0789C11.3524 23.2041 11.393 23.3463 11.4607 23.4512C11.5487 23.5798 11.7044 23.5865 11.8465 23.5392C12.009 23.485 12.0936 23.3598 12.0936 23.1906C12.0936 23.0586 12.1376 23.018 12.2729 23.0247C12.6892 23.0417 13.1055 23.0349 13.5251 23.0484C13.5793 23.0518 13.6639 23.1026 13.6842 23.1534C13.7756 23.3767 13.8534 23.6069 13.9245 23.8404C13.938 23.8844 13.9177 23.9656 13.8805 23.996C13.4981 24.3176 13.3864 24.7237 13.4371 25.2076C13.5048 25.8676 14.0632 26.2906 14.713 26.1552C15.1598 26.0605 15.6065 25.9657 16.0532 25.871C16.615 25.7491 17.0279 25.2922 17.055 24.7609C17.0854 24.172 16.7606 23.7118 16.1852 23.5189C16.1243 23.4986 16.0498 23.4309 16.0397 23.3767C16.0058 23.1601 16.0025 22.9401 15.9788 22.7202C15.9686 22.6186 16.0025 22.5713 16.0972 22.5306C16.5744 22.3174 17.0516 22.0974 17.522 21.8707C17.6303 21.8199 17.6879 21.8165 17.7555 21.9215C17.8774 22.1042 18.0128 22.2802 18.1481 22.4528C18.2497 22.5814 18.3884 22.6186 18.5441 22.5746C18.693 22.534 18.8013 22.4257 18.8047 22.2768C18.8081 22.1617 18.7607 22.0331 18.6998 21.935C18.5847 21.7455 18.4426 21.5729 18.3173 21.4003C18.6761 21.0889 19.0145 20.7911 19.3563 20.5034C19.3834 20.4797 19.4646 20.4899 19.5052 20.5102C19.6643 20.5948 19.8234 20.6794 19.9723 20.7843C20.0298 20.8249 20.084 20.9095 20.0907 20.9772C20.1516 21.4781 20.4021 21.8402 20.8725 22.0095C21.3497 22.1821 21.7863 22.0805 22.145 21.7116C22.3142 21.539 22.4699 21.3495 22.6087 21.1532C22.8862 20.7606 22.9234 20.3342 22.7034 19.9078C22.4868 19.4949 22.1281 19.2377 21.6644 19.2885C21.3125 19.3291 21.106 19.2005 20.9097 18.9602C20.8894 18.9331 20.8657 18.9094 20.8387 18.8891C20.7371 18.818 20.7473 18.7436 20.8082 18.6454C21.1466 18.0904 21.4106 17.4982 21.6137 16.8822C21.6509 16.7705 21.705 16.7434 21.81 16.7502C22.0232 16.7638 22.2398 16.7739 22.453 16.7739C22.5681 16.7739 22.6154 16.8179 22.6527 16.9296C22.8388 17.4643 23.3634 17.7824 23.9285 17.7181C24.4667 17.6606 24.8965 17.2274 24.9743 16.6758C25.0285 16.2967 25.0928 15.9177 25.1604 15.542C25.2315 15.1257 25.2112 14.7365 24.8998 14.4049C24.4971 13.9751 23.5055 13.8972 23.0317 14.5369Z" stroke="#3A62FF" stroke-width="0.232111"/>
<path d="M26.6834 9.70406C25.0657 7.11844 23.4683 4.52266 21.854 1.93365C21.0756 0.684839 19.4037 0.691608 18.6185 1.93704C18.3343 2.39054 17.2377 4.17069 16.588 5.22322C16.5676 5.24691 16.5507 5.2706 16.5338 5.29767C16.412 5.48719 16.2969 5.6801 16.1784 5.873C15.3764 7.16582 14.5709 8.45863 13.7722 9.75144C13.4101 10.3369 13.3661 10.9563 13.6741 11.5722C14.0226 12.2728 14.6115 12.6213 15.3899 12.6247C17.0042 12.6315 18.6152 12.6281 20.2295 12.6281C21.8269 12.6281 23.4209 12.6281 25.0183 12.6281C25.3669 12.6281 25.7019 12.5706 26.0133 12.4047C26.8628 11.9479 27.3535 10.7769 26.6834 9.70406ZM26.0742 11.315C25.8407 11.711 25.4718 11.8666 25.0217 11.8633C21.8337 11.8599 18.649 11.8633 15.461 11.8633C15.4001 11.8633 15.3358 11.8633 15.2748 11.8599C14.8992 11.8193 14.598 11.6534 14.4051 11.3218C14.1614 10.9055 14.202 10.496 14.4558 10.0933C15.2173 8.87151 15.9754 7.64639 16.7335 6.42127C16.7606 6.38742 16.791 6.34681 16.8181 6.3062C17.187 5.71394 18.9096 2.91849 19.2785 2.32624C19.5154 1.94381 19.8606 1.74752 20.3107 1.77459C20.7134 1.79828 21.0045 2.00472 21.2143 2.34654C21.7727 3.25354 22.3379 4.15715 22.8997 5.06415C23.9421 6.74616 24.9845 8.42817 26.0302 10.1068C26.2739 10.4994 26.3145 10.9055 26.0742 11.315Z" stroke="#3A62FF" stroke-width="0.232111"/>
<path d="M25.3127 10.3911C24.179 8.56016 23.0419 6.73262 21.9081 4.9017C21.4715 4.19777 21.035 3.49383 20.595 2.78989C20.3953 2.47515 20.084 2.47515 19.8809 2.78989C19.8572 2.82712 19.8301 2.86434 19.8064 2.90495C18.4595 5.07431 17.1159 7.24366 15.7689 9.41301C15.5456 9.77174 15.3188 10.1271 15.1022 10.4926C14.9195 10.7972 15.0887 11.0882 15.4474 11.1018C15.5084 11.1052 15.5727 11.1018 15.6336 11.1018C17.3088 11.1018 18.9841 11.1018 20.6593 11.1018C21.0756 11.1018 23.1874 11.1052 23.6037 11.0984C23.6172 11.0984 23.6273 11.0984 23.6375 11.095C24.1215 11.1018 24.6054 11.1052 25.0894 11.0916C25.377 11.0815 25.5226 10.7938 25.3973 10.5332C25.3737 10.4858 25.3432 10.4385 25.3127 10.3911ZM23.6104 10.3437C23.607 10.3437 23.6037 10.3437 23.6003 10.3437C23.5427 10.3437 23.4886 10.3437 23.4311 10.3437C21.6306 10.3437 18.1414 10.3437 16.3409 10.3437C16.2766 10.3437 16.2123 10.3437 16.0938 10.3437C17.4848 8.10327 18.8521 5.90008 20.2396 3.66304C21.6306 5.90346 22.9945 8.10666 24.3854 10.3471C24.1011 10.3437 23.8541 10.3403 23.6104 10.3437Z" stroke="#3A62FF" stroke-width="0.232111"/>
<path d="M11.701 20.8757C12.9667 20.8892 14.0057 19.8638 14.0125 18.5879C14.0193 17.312 13.0006 16.2832 11.7247 16.2764C10.4522 16.273 9.42673 17.2917 9.41996 18.571C9.41996 19.8401 10.4285 20.8622 11.701 20.8757ZM11.7213 17.0413C12.5708 17.0413 13.2544 17.7249 13.2544 18.5778C13.2544 19.4272 12.564 20.1142 11.7179 20.1142C10.8684 20.1108 10.1848 19.4238 10.1848 18.5744C10.1848 17.7215 10.8684 17.0413 11.7213 17.0413Z" stroke="#3A62FF" stroke-width="0.232111"/>
<path d="M17.0753 17.3899C17.8131 17.3932 18.4223 16.7908 18.4223 16.0497C18.4256 15.3051 17.83 14.7061 17.0854 14.7027C16.3409 14.7027 15.7351 15.2983 15.7317 16.0361C15.7317 16.7705 16.3375 17.3831 17.0753 17.3899ZM17.0888 15.4676C17.4103 15.4709 17.6642 15.7282 17.6608 16.053C17.6574 16.3712 17.39 16.6351 17.0753 16.6284C16.7606 16.6216 16.4966 16.3509 16.5 16.0395C16.5033 15.718 16.7673 15.4642 17.0888 15.4676Z" stroke="#3A62FF" stroke-width="0.232111"/>
<path d="M19.8572 5.51088C19.8538 6.15729 19.8538 6.80369 19.8572 7.4501C19.8572 7.71069 20.0129 7.87314 20.2396 7.87314C20.4664 7.87314 20.6119 7.71408 20.6153 7.44672C20.6187 7.1252 20.6153 6.80708 20.6153 6.48557C20.6153 6.16067 20.6187 5.83239 20.6153 5.5075C20.6119 5.24691 20.4596 5.08107 20.2363 5.08107C20.0163 5.08107 19.8572 5.25706 19.8572 5.51088Z" stroke="#3A62FF" stroke-width="0.232111"/>
<path d="M20.6085 9.1118C20.6085 9.02719 20.6153 8.94258 20.6085 8.85798C20.5916 8.67861 20.4427 8.53985 20.2633 8.52293C20.0975 8.50939 19.908 8.61769 19.8843 8.79029C19.8572 8.99673 19.8538 9.21671 19.8843 9.42316C19.908 9.60591 20.0873 9.70406 20.2769 9.68714C20.4596 9.67021 20.5916 9.53484 20.6085 9.34532C20.6153 9.27086 20.6119 9.19302 20.6085 9.1118Z" stroke="#3A62FF" stroke-width="0.232111"/>
<path d="M13.0547 12.3574C13.0547 10.4994 11.5453 8.98997 9.68732 8.98997C7.82933 8.98997 6.31992 10.4994 6.31992 12.3574C6.31992 14.2154 7.82933 15.7248 9.68732 15.7248C11.5453 15.7248 13.0547 14.2154 13.0547 12.3574ZM9.68732 14.9464C8.25914 14.9464 7.09831 13.7856 7.09831 12.3574C7.09831 10.9292 8.25914 9.76836 9.68732 9.76836C11.1155 9.76836 12.2763 10.9292 12.2763 12.3574C12.2763 13.7856 11.1155 14.9464 9.68732 14.9464Z" stroke="#3A62FF" stroke-width="0.232111"/>
</svg>
