<svg width="26" height="27" viewBox="0 0 26 27" fill="none" xmlns="http://www.w3.org/2000/svg">
<path fill-rule="evenodd" clip-rule="evenodd" d="M20.6247 2.83772C19.5755 2.83772 18.6137 2.83772 17.578 2.83772C17.578 3.35559 17.578 3.03276 17.578 3.51701C17.578 4.12232 17.5713 4.72762 17.578 5.33293C17.578 5.62213 17.5242 5.8777 17.2215 5.98531C16.939 6.0862 16.7575 5.89788 16.5826 5.72301C15.5199 4.66037 14.4573 3.59772 13.3946 2.54179C13.2669 2.41401 13.1458 2.27949 13.0046 2.17188C12.7019 1.94321 12.3791 1.94994 12.0764 2.17188C11.9554 2.26604 11.8477 2.3871 11.7334 2.49471C8.72705 5.50779 5.71397 8.52088 2.70762 11.534C2.5731 11.6685 2.44532 11.8232 2.20992 12.0855C2.74124 12.0855 3.13133 12.0855 3.52142 12.0855C4.4092 12.0855 4.48991 12.1594 4.48991 13.0405C4.48991 16.4907 4.48991 19.941 4.48991 23.3912C4.48991 23.6334 4.48991 23.8755 4.48991 24.1916C4.79929 24.1916 5.04141 24.1916 5.28353 24.1916C8.7136 24.1916 11.2793 24.1916 14.7026 24.1916C14.9044 24.1916 15.1061 24.1849 15.3079 24.2118C15.5635 24.2521 15.7047 24.4404 15.7115 24.6758C15.7182 24.918 15.5702 25.1063 15.3214 25.1534C15.1667 25.1803 15.012 25.1735 14.8506 25.1735C11.064 25.1735 8.14192 25.1735 4.3554 25.1735C3.5685 25.1735 3.46761 25.0726 3.46761 24.279C3.46761 20.8288 3.46761 17.3785 3.46761 13.9283C3.46761 13.666 3.46761 13.4037 3.46761 13.0674C2.72107 13.0674 2.05523 13.0741 1.38939 13.0674C1.06656 13.0607 0.676476 13.1683 0.508335 12.758C0.34692 12.3545 0.66975 12.146 0.905148 11.9106C4.30159 8.50743 7.71148 5.10426 11.1079 1.68764C11.6594 1.13614 12.2782 0.840209 13.0382 1.08906C13.3408 1.18994 13.6368 1.39171 13.8789 1.61366C14.5985 2.29294 15.2778 2.99914 15.9773 3.6986C16.132 3.85329 16.2934 3.99453 16.5691 4.2501C16.5759 3.83984 16.5893 3.55736 16.5893 3.28161C16.5893 2.76374 16.5826 3.05967 16.5893 2.54179C16.596 1.92303 16.7306 1.78852 17.3359 1.77507C17.8941 1.76162 18.459 1.77507 19.0173 1.77507C19.6226 1.77507 20.2279 1.76835 20.8332 1.77507C21.4788 1.78852 21.6066 1.91631 21.6134 2.57542C21.6201 4.79488 21.6403 6.20726 21.5999 8.42672C21.5865 9.09256 21.7748 9.56335 22.2657 10.0005C22.9316 10.5991 23.5436 11.2582 24.1758 11.8904C24.27 11.9846 24.3978 12.0653 24.4516 12.1796C24.5323 12.3478 24.6332 12.5495 24.5995 12.7177C24.5592 12.9598 24.3372 13.0607 24.0884 13.0607C23.5503 13.0607 23.0123 13.0607 22.4742 13.0674C22.2321 13.0674 21.9833 13.0674 21.7748 13.0674C21.7008 13.1212 21.6537 13.1414 21.6335 13.175C21.4788 13.444 21.2905 13.666 20.9408 13.5315C20.6314 13.4104 20.6247 13.1347 20.6247 12.8522C20.6247 12.22 20.7323 12.0989 21.3511 12.0787C21.795 12.0653 22.2456 12.0586 22.6962 12.0518C22.7096 12.0518 22.7164 12.0182 22.7769 11.924C22.4742 11.6147 22.1447 11.2918 21.8286 10.9623C21.4385 10.5587 20.9139 10.209 20.7189 9.72476C20.5171 9.24052 20.6381 8.62176 20.6381 8.06353C20.6314 6.29469 20.6381 5.33293 20.6381 3.55736C20.6247 3.34887 20.6247 3.12692 20.6247 2.83772Z" fill="#3A62FF"/>
<path fill-rule="evenodd" clip-rule="evenodd" d="M25.5245 18.69C25.5245 19.5442 25.4976 21.256 25.5312 22.1102C25.5581 22.8702 25.2487 23.4486 24.7107 23.9396C23.9709 24.6121 23.1234 25.1098 22.2289 25.5268C20.7695 26.2128 20.7273 26.2263 19.3217 25.5335C18.5012 25.13 17.3022 24.6121 16.5557 24.0808C15.836 23.5696 15.5199 22.8567 15.5468 21.9353C15.5939 20.2337 15.5603 17.661 15.5603 15.9594C15.5603 15.2801 15.6208 15.2062 16.2799 15.038C17.4098 14.7488 18.9652 14.4529 20.1019 14.1906C20.3776 14.1301 20.687 14.1166 20.956 14.1839C22.1128 14.4529 23.6951 14.7488 24.8385 15.0447C25.4505 15.2062 25.5178 15.2869 25.5178 15.9258C25.5312 16.8472 25.5245 17.7686 25.5245 18.69ZM16.6162 16.0065C16.6028 16.2352 16.5893 16.41 16.5893 16.5849C16.5893 18.1318 16.6095 20.5364 16.5759 22.0833C16.5624 22.6146 16.7373 23.0114 17.161 23.2804C18.0286 23.8252 19.3486 24.3498 20.2431 24.8475C20.3911 24.9282 20.6466 24.9349 20.8081 24.8677C21.79 24.4305 23.1638 23.9194 23.9978 23.2266C24.3475 22.9374 24.5089 22.5944 24.5022 22.1236C24.4753 20.5566 24.4955 18.1251 24.4887 16.558C24.4887 16.3831 24.4686 16.2083 24.4551 15.9998C23.7893 15.8249 23.1302 15.7039 22.4979 15.4819C21.4622 15.1254 20.0212 15.1389 18.9854 15.4886C18.3599 15.7038 17.2686 15.8384 16.6162 16.0065Z" fill="#3A62FF"/>
<path fill-rule="evenodd" clip-rule="evenodd" d="M9.54758 14.1031C9.54758 16.141 9.54758 18.0982 9.54758 20.1091C9.7628 20.1226 9.95112 20.1495 10.1462 20.1562C11.2693 20.1629 12.3858 20.1562 13.509 20.1562C13.6233 20.1562 13.7309 20.1562 13.8453 20.1562C14.3228 20.1697 14.5784 20.358 14.5582 20.6741C14.5447 20.97 14.3093 21.1382 13.8654 21.1382C12.7019 21.1449 11.5384 21.1382 10.3681 21.1382C9.98475 21.1382 9.60811 21.1449 9.22475 21.1382C8.64635 21.1247 8.53201 21.0104 8.52529 20.4118C8.51856 19.45 8.52529 18.4815 8.52529 17.5198C8.52529 16.3092 8.51856 15.0985 8.52529 13.8879C8.53201 13.1952 8.65307 13.0741 9.35254 13.0674C11.4778 13.0607 13.6099 13.0607 15.7352 13.0674C16.3136 13.0674 16.596 13.2557 16.5691 13.6122C16.549 13.9417 16.2934 14.0964 15.7419 14.0964C13.926 14.1031 12.11 14.0964 10.2941 14.0964C10.0587 14.1031 9.82333 14.1031 9.54758 14.1031Z" fill="#3A62FF"/>
<path fill-rule="evenodd" clip-rule="evenodd" d="M20.6247 2.83772C19.5755 2.83772 18.6137 2.83772 17.578 2.83772C17.578 3.35559 17.578 3.03276 17.578 3.51701C17.578 4.12232 17.5713 4.72762 17.578 5.33293C17.578 5.62213 17.5242 5.8777 17.2215 5.98531C16.939 6.0862 16.7575 5.89788 16.5826 5.72301C15.5199 4.66037 14.4573 3.59772 13.3946 2.54179C13.2669 2.41401 13.1458 2.27949 13.0046 2.17188C12.7019 1.94321 12.3791 1.94994 12.0764 2.17188C11.9554 2.26604 11.8477 2.3871 11.7334 2.49471C8.72705 5.50779 5.71397 8.52088 2.70762 11.534C2.5731 11.6685 2.44532 11.8232 2.20992 12.0855C2.74124 12.0855 3.13133 12.0855 3.52142 12.0855C4.4092 12.0855 4.48991 12.1594 4.48991 13.0405C4.48991 16.4907 4.48991 19.941 4.48991 23.3912C4.48991 23.6334 4.48991 23.8755 4.48991 24.1916C4.79929 24.1916 5.04141 24.1916 5.28353 24.1916C8.7136 24.1916 11.2793 24.1916 14.7026 24.1916C14.9044 24.1916 15.1061 24.1849 15.3079 24.2118C15.5635 24.2521 15.7047 24.4404 15.7115 24.6758C15.7182 24.918 15.5702 25.1063 15.3214 25.1534C15.1667 25.1803 15.012 25.1735 14.8506 25.1735C11.064 25.1735 8.14192 25.1735 4.3554 25.1735C3.5685 25.1735 3.46761 25.0726 3.46761 24.279C3.46761 20.8288 3.46761 17.3785 3.46761 13.9283C3.46761 13.666 3.46761 13.4037 3.46761 13.0674C2.72107 13.0674 2.05523 13.0741 1.38939 13.0674C1.06656 13.0607 0.676476 13.1683 0.508335 12.758C0.34692 12.3545 0.66975 12.146 0.905148 11.9106C4.30159 8.50743 7.71148 5.10426 11.1079 1.68764C11.6594 1.13614 12.2782 0.840209 13.0382 1.08906C13.3408 1.18994 13.6368 1.39171 13.8789 1.61366C14.5985 2.29294 15.2778 2.99914 15.9773 3.6986C16.132 3.85329 16.2934 3.99453 16.5691 4.2501C16.5759 3.83984 16.5893 3.55736 16.5893 3.28161C16.5893 2.76374 16.5826 3.05967 16.5893 2.54179C16.596 1.92303 16.7306 1.78852 17.3359 1.77507C17.8941 1.76162 18.459 1.77507 19.0173 1.77507C19.6226 1.77507 20.2279 1.76835 20.8332 1.77507C21.4788 1.78852 21.6066 1.91631 21.6134 2.57542C21.6201 4.79488 21.6403 6.20726 21.5999 8.42672C21.5865 9.09256 21.7748 9.56335 22.2657 10.0005C22.9316 10.5991 23.5436 11.2582 24.1758 11.8904C24.27 11.9846 24.3978 12.0653 24.4516 12.1796C24.5323 12.3478 24.6332 12.5495 24.5995 12.7177C24.5592 12.9598 24.3372 13.0607 24.0884 13.0607C23.5503 13.0607 23.0123 13.0607 22.4742 13.0674C22.2321 13.0674 21.9833 13.0674 21.7748 13.0674C21.7008 13.1212 21.6537 13.1414 21.6335 13.175C21.4788 13.444 21.2905 13.666 20.9408 13.5315C20.6314 13.4104 20.6247 13.1347 20.6247 12.8522C20.6247 12.22 20.7323 12.0989 21.3511 12.0787C21.795 12.0653 22.2456 12.0586 22.6962 12.0518C22.7096 12.0518 22.7164 12.0182 22.7769 11.924C22.4742 11.6147 22.1447 11.2918 21.8286 10.9623C21.4385 10.5587 20.9139 10.209 20.7189 9.72476C20.5171 9.24052 20.6381 8.62176 20.6381 8.06353C20.6314 6.29469 20.6381 5.33293 20.6381 3.55736C20.6247 3.34887 20.6247 3.12692 20.6247 2.83772Z" stroke="#3A62FF" stroke-width="0.232111"/>
<path fill-rule="evenodd" clip-rule="evenodd" d="M25.5245 18.69C25.5245 19.5442 25.4976 21.256 25.5312 22.1102C25.5581 22.8702 25.2487 23.4486 24.7107 23.9396C23.9709 24.6121 23.1234 25.1098 22.2289 25.5268C20.7695 26.2128 20.7273 26.2263 19.3217 25.5335C18.5012 25.13 17.3022 24.6121 16.5557 24.0808C15.836 23.5696 15.5199 22.8567 15.5468 21.9353C15.5939 20.2337 15.5603 17.661 15.5603 15.9594C15.5603 15.2801 15.6208 15.2062 16.2799 15.038C17.4098 14.7488 18.9652 14.4529 20.1019 14.1906C20.3776 14.1301 20.687 14.1166 20.956 14.1839C22.1128 14.4529 23.6951 14.7488 24.8385 15.0447C25.4505 15.2062 25.5178 15.2869 25.5178 15.9258C25.5312 16.8472 25.5245 17.7686 25.5245 18.69ZM16.6162 16.0065C16.6028 16.2352 16.5893 16.41 16.5893 16.5849C16.5893 18.1318 16.6095 20.5364 16.5759 22.0833C16.5624 22.6146 16.7373 23.0114 17.161 23.2804C18.0286 23.8252 19.3486 24.3498 20.2431 24.8475C20.3911 24.9282 20.6466 24.9349 20.8081 24.8677C21.79 24.4305 23.1638 23.9194 23.9978 23.2266C24.3475 22.9374 24.5089 22.5944 24.5022 22.1236C24.4753 20.5566 24.4955 18.1251 24.4887 16.558C24.4887 16.3831 24.4686 16.2083 24.4551 15.9998C23.7893 15.8249 23.1302 15.7039 22.4979 15.4819C21.4622 15.1254 20.0212 15.1389 18.9854 15.4886C18.3599 15.7038 17.2686 15.8384 16.6162 16.0065Z" stroke="#3A62FF" stroke-width="0.232111"/>
<path fill-rule="evenodd" clip-rule="evenodd" d="M9.54758 14.1031C9.54758 16.141 9.54758 18.0982 9.54758 20.1091C9.7628 20.1226 9.95112 20.1495 10.1462 20.1562C11.2693 20.1629 12.3858 20.1562 13.509 20.1562C13.6233 20.1562 13.7309 20.1562 13.8453 20.1562C14.3228 20.1697 14.5784 20.358 14.5582 20.6741C14.5447 20.97 14.3093 21.1382 13.8654 21.1382C12.7019 21.1449 11.5384 21.1382 10.3681 21.1382C9.98475 21.1382 9.60811 21.1449 9.22475 21.1382C8.64635 21.1247 8.53201 21.0104 8.52529 20.4118C8.51856 19.45 8.52529 18.4815 8.52529 17.5198C8.52529 16.3092 8.51856 15.0985 8.52529 13.8879C8.53201 13.1952 8.65307 13.0741 9.35254 13.0674C11.4778 13.0607 13.6099 13.0607 15.7352 13.0674C16.3136 13.0674 16.596 13.2557 16.5691 13.6122C16.549 13.9417 16.2934 14.0964 15.7419 14.0964C13.926 14.1031 12.11 14.0964 10.2941 14.0964C10.0587 14.1031 9.82333 14.1031 9.54758 14.1031Z" stroke="#3A62FF" stroke-width="0.232111"/>
</svg>
