<svg width="28" height="29" viewBox="0 0 28 29" fill="none" xmlns="http://www.w3.org/2000/svg">
<path d="M26.9763 8.67024C26.9394 7.73748 26.2227 7.08402 25.2847 7.07348C24.6154 7.06821 23.9514 7.07348 23.2822 7.07348C23.1873 7.07348 23.0977 7.07348 22.9818 7.07348C22.9818 6.37259 22.9765 5.70859 22.9871 5.03933C22.9871 4.97609 23.0661 4.89177 23.1293 4.84961C23.4771 4.61774 23.6563 4.29628 23.6511 3.87469C23.6458 3.67444 23.6511 3.46892 23.6511 3.26866C23.63 2.01971 22.6445 1.02898 21.4061 1.0079C20.6789 0.997365 19.9464 0.997365 19.2191 1.0079C18.4813 1.02371 17.8806 1.33463 17.4326 1.91959C16.9215 2.58358 16.9004 3.35298 17.0111 4.12765C17.0427 4.34898 17.1955 4.61247 17.38 4.73368C17.6224 4.89704 17.6645 5.07094 17.6434 5.31863C17.6329 5.43983 17.6434 5.56631 17.6434 5.68752C17.6434 6.14072 17.6434 6.59393 17.6434 7.06821C16.874 7.06821 16.1363 7.06294 15.3985 7.06821C14.3445 7.07348 13.6384 7.77964 13.6331 8.84414C13.6331 9.88757 13.6331 10.9363 13.6331 11.9797C13.6331 12.0746 13.6331 12.1694 13.6331 12.2695C12.7741 12.2695 11.9468 12.2695 11.093 12.2695C11.093 12.0324 11.1036 11.8163 11.093 11.595C11.0403 10.5726 10.2604 9.8296 9.25914 9.84541C8.27895 9.86649 7.53064 10.6412 7.5201 11.6582C7.5201 11.8585 7.5201 12.0587 7.5201 12.2853C7.39889 12.2853 7.30404 12.2853 7.20918 12.2853C6.33966 12.2853 5.47013 12.2853 4.60061 12.2853C3.51503 12.2853 2.89846 12.8966 2.89846 13.977C2.89846 15.3102 2.89846 18.8305 2.89846 20.7382C2.89846 20.8172 2.89846 20.8962 2.89846 20.9911C2.89846 21.0069 2.89846 21.0175 2.89846 21.0333C2.74563 21.0333 2.62443 21.028 2.50322 21.0333C1.70747 21.0596 1.06456 21.6393 1.02767 22.4298C0.990778 23.2782 0.990778 24.1319 1.02767 24.9856C1.05929 25.7498 1.66532 26.3084 2.43471 26.3663C2.58227 26.3769 2.72982 26.3821 2.87738 26.3927C2.89319 26.5086 2.909 26.6035 2.91954 26.6983C3.03547 27.4414 3.6415 27.9842 4.39509 27.9894C7.66238 27.9947 10.9297 27.9947 14.197 27.9894C14.9295 27.9894 15.5302 27.473 15.6725 26.7616C15.6936 26.6456 15.6989 26.5244 15.7147 26.4085C15.8254 26.4085 15.9149 26.4085 16.0203 26.4085C16.0203 26.5771 16.0151 26.73 16.0203 26.8775C16.0414 27.3044 16.2311 27.6364 16.6158 27.8366C17.2956 28.1897 18.1072 27.7418 18.1757 26.9776C18.1968 26.7141 18.181 26.4454 18.181 26.1872C19.6354 26.1872 21.0267 26.1872 22.4337 26.1872C22.4337 26.4348 22.4285 26.6614 22.4337 26.8933C22.4495 27.4993 22.9185 27.9578 23.514 27.9578C24.1095 27.9578 24.5785 27.4993 24.5944 26.8933C24.5996 26.6667 24.5944 26.4348 24.5944 26.1397C24.958 26.1397 25.2952 26.1819 25.6167 26.1292C26.4651 25.9922 26.9921 25.286 26.9921 24.3374C26.9921 20.775 26.9921 14.4934 26.9921 10.7571C26.9974 10.0562 27.0027 9.36059 26.9763 8.67024ZM17.7647 3.13165C17.8648 2.34117 18.4761 1.80892 19.2718 1.79838C19.6249 1.79311 19.9727 1.79838 20.3258 1.79838C20.6789 1.79838 21.0267 1.79311 21.3798 1.79838C22.2018 1.81419 22.8342 2.45184 22.8553 3.2792C22.8606 3.47419 22.8553 3.6639 22.8553 3.85888C22.8606 4.05387 22.7815 4.19615 22.576 4.19615C22.3863 4.19615 22.3072 4.05914 22.3125 3.86942C22.3178 3.68498 22.3178 3.50054 22.3125 3.31609C22.2914 2.74695 21.912 2.35698 21.3481 2.34117C20.6578 2.32536 19.9622 2.32536 19.2666 2.34117C18.6816 2.35171 18.3127 2.74168 18.3022 3.3319C18.2969 3.51634 18.3022 3.70079 18.2969 3.88523C18.2916 4.06968 18.202 4.19615 18.0123 4.19088C17.8332 4.18561 17.7488 4.05914 17.7488 3.8905C17.7488 3.63755 17.733 3.37933 17.7647 3.13165ZM19.7039 3.13165C20.2046 3.13165 20.7052 3.14219 21.2059 3.12638C21.4483 3.12111 21.5431 3.21596 21.5273 3.45311C21.5168 3.6112 21.5273 3.7693 21.5273 3.92739C21.5273 4.31736 21.7118 4.61247 22.0279 4.8338C22.0912 4.88123 22.1808 4.95501 22.1808 5.01825C22.1913 5.69278 22.186 6.36732 22.186 7.0524C20.9265 7.0524 19.6934 7.0524 18.4234 7.0524C18.4234 6.37259 18.4181 5.71386 18.4286 5.05514C18.4286 4.9919 18.4761 4.90231 18.5288 4.87069C18.9714 4.61247 19.1032 4.21723 19.1032 3.73768C19.0926 3.08422 19.0083 3.13165 19.7039 3.13165ZM12.2998 13.0811C12.4843 13.0811 12.6424 13.0811 12.8215 13.0811C12.8215 14.7358 12.8215 16.3905 12.8215 18.0558C12.6529 18.0558 12.4843 18.0558 12.2998 18.0558C12.2998 16.4011 12.2998 14.7569 12.2998 13.0811ZM11.6358 18.8832C12.2524 18.8832 12.869 18.8832 13.5066 18.8832C13.5066 18.9833 13.5066 19.4793 13.5066 19.5689C12.8795 19.5689 12.2682 19.5689 11.6358 19.5689C11.6358 19.4793 11.6358 18.978 11.6358 18.8832ZM8.31584 11.4527C8.36854 10.9995 8.77959 10.6517 9.23806 10.6359C9.72816 10.6148 10.1392 10.9205 10.2499 11.3789C10.271 11.4527 10.2815 11.5318 10.2868 11.6108C10.292 11.8216 10.2868 12.0271 10.2868 12.2695C9.61222 12.2695 8.9693 12.2695 8.3053 12.2695C8.31057 11.9902 8.28422 11.7215 8.31584 11.4527ZM7.10378 13.0969C8.55826 13.0969 10.0075 13.0969 11.4725 13.0969C11.4725 14.3406 11.4725 15.579 11.4725 16.8438C10.0285 16.8438 8.57407 16.8438 7.10378 16.8438C7.10378 15.5895 7.10378 14.3564 7.10378 13.0969ZM5.75471 13.0864C5.93388 13.0864 6.09724 13.0864 6.28169 13.0864C6.28169 14.7411 6.28169 16.3958 6.28169 18.0663C6.09724 18.0663 5.93388 18.0663 5.75471 18.0663C5.75471 16.4011 5.75471 14.7516 5.75471 13.0864ZM5.09071 18.8832C5.71782 18.8832 6.33439 18.8832 6.9615 18.8832C6.9615 18.978 6.9615 19.4688 6.9615 19.5689C6.33439 19.5689 5.72836 19.5689 5.09071 19.5689C5.09071 19.4635 5.09071 18.9728 5.09071 18.8832ZM3.68893 13.8083C3.69947 13.3551 3.99985 13.0811 4.44779 13.0705C4.60588 13.0653 4.75871 13.0705 4.92734 13.0705C4.93788 13.1391 4.94842 13.1812 4.94842 13.2181C4.94842 14.4196 4.94842 15.6211 4.94842 16.8385C4.70074 16.8385 4.4636 16.8701 4.23699 16.8332C3.90499 16.7752 3.6942 16.4959 3.68893 16.1218C3.67839 15.3524 3.67312 14.583 3.68893 13.8083ZM2.87738 25.539C2.22392 25.7023 1.80233 25.3809 1.79706 24.7169C1.79179 24.0529 1.79706 23.3836 1.79706 22.7196C1.79706 22.024 2.15541 21.7342 2.87738 21.8501C2.87738 23.0832 2.87738 24.3111 2.87738 25.539ZM14.8979 26.4032C14.8979 26.9197 14.6028 27.1937 14.06 27.1937C10.8875 27.1937 7.72035 27.1937 4.54791 27.1937C3.96823 27.1937 3.68893 26.9197 3.68366 26.3453C3.67839 25.8025 3.68366 25.2544 3.68366 24.7116C3.68366 23.547 3.68366 22.3823 3.68366 21.2177C3.68893 20.2164 3.68366 18.0189 3.68366 17.7344C3.68366 17.6606 3.6942 17.5868 3.69947 17.5604C4.12633 17.6079 4.5321 17.6553 4.93788 17.7027C4.93788 17.8239 4.93788 17.9451 4.93788 18.0611C4.38455 18.2982 4.28969 18.4458 4.28969 19.0465C4.28969 19.0992 4.28969 19.5636 4.28969 19.6163C4.3055 20.0695 4.57953 20.3646 5.03274 20.3752C5.70201 20.391 6.36601 20.3857 7.03527 20.3752C7.34092 20.3699 7.59915 20.2276 7.694 19.9378C7.86264 19.4108 7.96333 18.0716 7.11432 18.0716C7.11432 17.9451 7.11432 17.8187 7.11432 17.6817C8.57407 17.6817 10.0233 17.6817 11.4725 17.6817C11.5199 17.9135 11.5357 18.0822 11.2459 18.177C10.9876 18.2613 10.8559 18.4932 10.8348 18.7725C10.8243 18.9148 10.8296 19.4688 10.8296 19.611C10.8401 20.0748 11.1194 20.3752 11.5779 20.3857C12.2366 20.4015 12.8953 20.3962 13.5541 20.3857C13.9282 20.3804 14.2128 20.1802 14.2655 19.8376C14.3867 19.1104 14.3182 18.293 13.6489 18.0663C13.6489 17.9399 13.6489 17.8081 13.6489 17.708C14.0758 17.6606 14.4763 17.6131 14.8873 17.5657C14.8873 17.5763 14.8926 17.6237 14.8926 17.6658C14.8979 20.5748 14.8979 23.489 14.8979 26.4032ZM14.8926 16.1534C14.8873 16.5592 14.5975 16.8438 14.197 16.8648C14.0231 16.8754 13.8492 16.8648 13.6542 16.8648C13.6542 15.6053 13.6542 14.3564 13.6542 13.0758C13.8492 13.0758 14.0231 13.0705 14.197 13.0758C14.5975 13.0969 14.8873 13.3867 14.8926 13.7872C14.9031 14.5777 14.9031 15.3682 14.8926 16.1534ZM15.7041 25.5495C15.7041 24.3216 15.7041 23.0885 15.7041 21.8554C16.3418 21.6973 16.8319 22.0556 16.795 22.7354C16.7634 23.3836 16.7897 24.0318 16.7897 24.6853C16.7897 25.3756 16.4156 25.6813 15.7041 25.5495ZM17.3747 26.8828C17.3589 26.9829 17.2008 27.1252 17.1112 27.1252C17.0163 27.1252 16.8582 26.9934 16.8319 26.8933C16.7845 26.7036 16.8003 26.4928 16.8161 26.2926C16.8214 26.2399 16.9162 26.1661 16.9794 26.1555C17.0954 26.1345 17.2219 26.1503 17.3852 26.1503C17.3852 26.419 17.4116 26.6562 17.3747 26.8828ZM23.7933 26.8722C23.7828 27.0409 23.6827 27.1463 23.5035 27.1463C23.3296 27.1463 23.2295 27.0409 23.2189 26.867C23.2084 26.6404 23.2189 26.4138 23.2189 26.1661C23.4244 26.1661 23.5984 26.1661 23.7986 26.1661C23.7986 26.4085 23.8039 26.6404 23.7933 26.8722ZM25.1424 25.3598C22.7025 25.3598 20.2573 25.3598 17.8174 25.3598C17.7225 25.3598 17.6276 25.3598 17.5275 25.3598C17.5486 25.1806 17.5802 25.0331 17.5802 24.8855C17.5855 24.095 17.5855 23.3046 17.5802 22.5141C17.5802 22.1768 17.4748 21.8659 17.2535 21.6182C17.1165 21.4654 17.0796 21.3126 17.0796 21.1176C17.0848 17.2601 17.0848 13.4078 17.0848 9.5503C17.0848 9.45544 17.0901 9.35532 17.0743 9.26046C17.0427 9.02332 16.8899 8.8863 16.6685 8.89684C16.4419 8.90738 16.3207 9.03913 16.2944 9.26046C16.2838 9.35532 16.2891 9.45544 16.2891 9.5503C16.2891 13.255 16.2891 16.965 16.2891 20.6696C16.2891 20.7803 16.2891 20.8962 16.2891 21.0122C16.0783 21.0122 15.8991 21.0122 15.6883 21.0122C15.6883 20.8962 15.6883 20.7909 15.6883 20.6907C15.6883 18.4089 15.6883 16.1218 15.6883 13.8399C15.6883 13.118 15.2878 12.5488 14.6186 12.3486C14.4447 12.2959 14.4078 12.2221 14.4078 12.0587C14.413 11.0048 14.413 9.95081 14.413 8.89684C14.413 8.18015 14.745 7.85342 15.4617 7.85342C18.6869 7.85342 21.9067 7.85342 25.1319 7.85342C25.8591 7.85342 26.1964 8.18541 26.1964 8.91265C26.1964 9.52922 26.1964 10.1405 26.1964 10.7571C26.1964 14.4407 26.1964 20.7434 26.1964 24.29C26.1964 25.0331 25.8749 25.3598 25.1424 25.3598Z" fill="#3A62FF"/>
<path d="M12.4685 21.4258C11.4145 21.4258 10.3605 21.4258 9.30657 21.4258C8.24207 21.4258 7.18283 21.4258 6.11832 21.4258C5.44906 21.4258 5.06963 21.7947 5.06436 22.4639C5.05909 23.3703 5.05909 24.2715 5.06436 25.1779C5.06963 25.8577 5.44906 26.2319 6.13413 26.2319C8.24207 26.2319 10.35 26.2319 12.4527 26.2319C13.1325 26.2319 13.5172 25.8472 13.5172 25.1779C13.5172 24.282 13.5172 23.3861 13.5172 22.4903C13.5224 21.8052 13.1483 21.4258 12.4685 21.4258ZM12.7372 25.1146C12.7372 25.3465 12.6687 25.4414 12.421 25.4414C10.3395 25.4361 8.25788 25.4361 6.17629 25.4414C5.92861 25.4414 5.85483 25.3571 5.85483 25.1199C5.86537 24.2609 5.86537 23.3967 5.85483 22.5377C5.84956 22.2795 5.95496 22.211 6.19737 22.211C7.22499 22.2215 8.25261 22.2162 9.28022 22.2162C10.3236 22.2162 11.3723 22.2215 12.4158 22.211C12.6582 22.211 12.7372 22.29 12.7372 22.5324C12.7267 23.3914 12.7267 24.2504 12.7372 25.1146Z" fill="#3A62FF"/>
<path d="M19.4879 16.2324C19.4879 13.9928 19.4879 11.7531 19.4879 9.51341C19.4879 9.41856 19.4932 9.31843 19.4773 9.22357C19.451 9.03913 19.3351 8.92319 19.1453 8.90211C18.9451 8.88103 18.7975 8.96008 18.7343 9.14979C18.7027 9.25519 18.6974 9.3764 18.6974 9.48706C18.6974 13.9822 18.6974 18.4774 18.6974 22.9726C18.6974 23.0674 18.6974 23.1675 18.7185 23.2624C18.7712 23.4679 18.9082 23.5786 19.1243 23.5628C19.3351 23.547 19.4615 23.4258 19.4826 23.2097C19.4932 23.1148 19.4879 23.0147 19.4879 22.9199C19.4879 20.6907 19.4879 18.4616 19.4879 16.2324Z" fill="#3A62FF"/>
<path d="M21.9015 9.43437C21.9015 9.37113 21.9067 9.30789 21.8962 9.24992C21.8593 9.0444 21.7434 8.91792 21.5273 8.90211C21.3007 8.89157 21.1637 9.01805 21.1163 9.22884C21.0952 9.31316 21.1057 9.40275 21.1057 9.49233C21.1057 11.7426 21.1057 13.9875 21.1057 16.2377C21.1057 18.4774 21.1057 20.7171 21.1057 22.9568C21.1057 23.0463 21.0952 23.1359 21.111 23.2202C21.1479 23.4363 21.2744 23.5681 21.5062 23.5681C21.7328 23.5628 21.8593 23.431 21.8909 23.215C21.9015 23.157 21.8962 23.0938 21.8962 23.0305C21.9015 18.4932 21.9015 13.9612 21.9015 9.43437Z" fill="#3A62FF"/>
<path d="M24.3203 9.48706C24.3203 9.3764 24.3203 9.25519 24.2834 9.14979C24.2202 8.96008 24.0568 8.84941 23.8724 8.91265C23.7406 8.96008 23.63 9.10764 23.5404 9.22884C23.4982 9.28681 23.5298 9.39748 23.5298 9.48706C23.5298 11.7267 23.5298 13.9664 23.5298 16.2061C23.5298 18.4563 23.5298 20.7013 23.5298 22.9515C23.5298 23.0411 23.5246 23.1307 23.5351 23.215C23.5615 23.4258 23.6827 23.547 23.8987 23.5628C24.1148 23.5786 24.2518 23.4627 24.3045 23.2624C24.3309 23.1728 24.3203 23.0727 24.3203 22.9726C24.3203 18.4774 24.3203 13.9822 24.3203 9.48706Z" fill="#3A62FF"/>
<path d="M26.9763 8.67024C26.9394 7.73748 26.2227 7.08402 25.2847 7.07348C24.6154 7.06821 23.9514 7.07348 23.2822 7.07348C23.1873 7.07348 23.0977 7.07348 22.9818 7.07348C22.9818 6.37259 22.9765 5.70859 22.9871 5.03933C22.9871 4.97609 23.0661 4.89177 23.1293 4.84961C23.4771 4.61774 23.6563 4.29628 23.6511 3.87469C23.6458 3.67444 23.6511 3.46892 23.6511 3.26866C23.63 2.01971 22.6445 1.02898 21.4061 1.0079C20.6789 0.997365 19.9464 0.997365 19.2191 1.0079C18.4813 1.02371 17.8806 1.33463 17.4326 1.91959C16.9215 2.58358 16.9004 3.35298 17.0111 4.12765C17.0427 4.34898 17.1955 4.61247 17.38 4.73368C17.6224 4.89704 17.6645 5.07094 17.6434 5.31863C17.6329 5.43983 17.6434 5.56631 17.6434 5.68752C17.6434 6.14072 17.6434 6.59393 17.6434 7.06821C16.874 7.06821 16.1363 7.06294 15.3985 7.06821C14.3445 7.07348 13.6384 7.77964 13.6331 8.84414C13.6331 9.88757 13.6331 10.9363 13.6331 11.9797C13.6331 12.0746 13.6331 12.1694 13.6331 12.2695C12.7741 12.2695 11.9468 12.2695 11.093 12.2695C11.093 12.0324 11.1036 11.8163 11.093 11.595C11.0403 10.5726 10.2604 9.8296 9.25914 9.84541C8.27895 9.86649 7.53064 10.6412 7.5201 11.6582C7.5201 11.8585 7.5201 12.0587 7.5201 12.2853C7.39889 12.2853 7.30404 12.2853 7.20918 12.2853C6.33966 12.2853 5.47013 12.2853 4.60061 12.2853C3.51503 12.2853 2.89846 12.8966 2.89846 13.977C2.89846 15.3102 2.89846 18.8305 2.89846 20.7382C2.89846 20.8172 2.89846 20.8962 2.89846 20.9911C2.89846 21.0069 2.89846 21.0175 2.89846 21.0333C2.74563 21.0333 2.62443 21.028 2.50322 21.0333C1.70747 21.0596 1.06456 21.6393 1.02767 22.4298C0.990778 23.2782 0.990778 24.1319 1.02767 24.9856C1.05929 25.7498 1.66532 26.3084 2.43471 26.3663C2.58227 26.3769 2.72982 26.3821 2.87738 26.3927C2.89319 26.5086 2.909 26.6035 2.91954 26.6983C3.03547 27.4414 3.6415 27.9842 4.39509 27.9894C7.66238 27.9947 10.9297 27.9947 14.197 27.9894C14.9295 27.9894 15.5302 27.473 15.6725 26.7616C15.6936 26.6456 15.6989 26.5244 15.7147 26.4085C15.8254 26.4085 15.9149 26.4085 16.0203 26.4085C16.0203 26.5771 16.0151 26.73 16.0203 26.8775C16.0414 27.3044 16.2311 27.6364 16.6158 27.8366C17.2956 28.1897 18.1072 27.7418 18.1757 26.9776C18.1968 26.7141 18.181 26.4454 18.181 26.1872C19.6354 26.1872 21.0267 26.1872 22.4337 26.1872C22.4337 26.4348 22.4285 26.6614 22.4337 26.8933C22.4495 27.4993 22.9185 27.9578 23.514 27.9578C24.1095 27.9578 24.5785 27.4993 24.5944 26.8933C24.5996 26.6667 24.5944 26.4348 24.5944 26.1397C24.958 26.1397 25.2952 26.1819 25.6167 26.1292C26.4651 25.9922 26.9921 25.286 26.9921 24.3374C26.9921 20.775 26.9921 14.4934 26.9921 10.7571C26.9974 10.0562 27.0027 9.36059 26.9763 8.67024ZM17.7647 3.13165C17.8648 2.34117 18.4761 1.80892 19.2718 1.79838C19.6249 1.79311 19.9727 1.79838 20.3258 1.79838C20.6789 1.79838 21.0267 1.79311 21.3798 1.79838C22.2018 1.81419 22.8342 2.45184 22.8553 3.2792C22.8606 3.47419 22.8553 3.6639 22.8553 3.85888C22.8606 4.05387 22.7815 4.19615 22.576 4.19615C22.3863 4.19615 22.3072 4.05914 22.3125 3.86942C22.3178 3.68498 22.3178 3.50054 22.3125 3.31609C22.2914 2.74695 21.912 2.35698 21.3481 2.34117C20.6578 2.32536 19.9622 2.32536 19.2666 2.34117C18.6816 2.35171 18.3127 2.74168 18.3022 3.3319C18.2969 3.51634 18.3022 3.70079 18.2969 3.88523C18.2916 4.06968 18.202 4.19615 18.0123 4.19088C17.8332 4.18561 17.7488 4.05914 17.7488 3.8905C17.7488 3.63755 17.733 3.37933 17.7647 3.13165ZM19.7039 3.13165C20.2046 3.13165 20.7052 3.14219 21.2059 3.12638C21.4483 3.12111 21.5431 3.21596 21.5273 3.45311C21.5168 3.6112 21.5273 3.7693 21.5273 3.92739C21.5273 4.31736 21.7118 4.61247 22.0279 4.8338C22.0912 4.88123 22.1808 4.95501 22.1808 5.01825C22.1913 5.69278 22.186 6.36732 22.186 7.0524C20.9265 7.0524 19.6934 7.0524 18.4234 7.0524C18.4234 6.37259 18.4181 5.71386 18.4286 5.05514C18.4286 4.9919 18.4761 4.90231 18.5288 4.87069C18.9714 4.61247 19.1032 4.21723 19.1032 3.73768C19.0926 3.08422 19.0083 3.13165 19.7039 3.13165ZM12.2998 13.0811C12.4843 13.0811 12.6424 13.0811 12.8215 13.0811C12.8215 14.7358 12.8215 16.3905 12.8215 18.0558C12.6529 18.0558 12.4843 18.0558 12.2998 18.0558C12.2998 16.4011 12.2998 14.7569 12.2998 13.0811ZM11.6358 18.8832C12.2524 18.8832 12.869 18.8832 13.5066 18.8832C13.5066 18.9833 13.5066 19.4793 13.5066 19.5689C12.8795 19.5689 12.2682 19.5689 11.6358 19.5689C11.6358 19.4793 11.6358 18.978 11.6358 18.8832ZM8.31584 11.4527C8.36854 10.9995 8.77959 10.6517 9.23806 10.6359C9.72816 10.6148 10.1392 10.9205 10.2499 11.3789C10.271 11.4527 10.2815 11.5318 10.2868 11.6108C10.292 11.8216 10.2868 12.0271 10.2868 12.2695C9.61222 12.2695 8.9693 12.2695 8.3053 12.2695C8.31057 11.9902 8.28422 11.7215 8.31584 11.4527ZM7.10378 13.0969C8.55826 13.0969 10.0075 13.0969 11.4725 13.0969C11.4725 14.3406 11.4725 15.579 11.4725 16.8438C10.0285 16.8438 8.57407 16.8438 7.10378 16.8438C7.10378 15.5895 7.10378 14.3564 7.10378 13.0969ZM5.75471 13.0864C5.93388 13.0864 6.09724 13.0864 6.28169 13.0864C6.28169 14.7411 6.28169 16.3958 6.28169 18.0663C6.09724 18.0663 5.93388 18.0663 5.75471 18.0663C5.75471 16.4011 5.75471 14.7516 5.75471 13.0864ZM5.09071 18.8832C5.71782 18.8832 6.33439 18.8832 6.9615 18.8832C6.9615 18.978 6.9615 19.4688 6.9615 19.5689C6.33439 19.5689 5.72836 19.5689 5.09071 19.5689C5.09071 19.4635 5.09071 18.9728 5.09071 18.8832ZM3.68893 13.8083C3.69947 13.3551 3.99985 13.0811 4.44779 13.0705C4.60588 13.0653 4.75871 13.0705 4.92734 13.0705C4.93788 13.1391 4.94842 13.1812 4.94842 13.2181C4.94842 14.4196 4.94842 15.6211 4.94842 16.8385C4.70074 16.8385 4.4636 16.8701 4.23699 16.8332C3.90499 16.7752 3.6942 16.4959 3.68893 16.1218C3.67839 15.3524 3.67312 14.583 3.68893 13.8083ZM2.87738 25.539C2.22392 25.7023 1.80233 25.3809 1.79706 24.7169C1.79179 24.0529 1.79706 23.3836 1.79706 22.7196C1.79706 22.024 2.15541 21.7342 2.87738 21.8501C2.87738 23.0832 2.87738 24.3111 2.87738 25.539ZM14.8979 26.4032C14.8979 26.9197 14.6028 27.1937 14.06 27.1937C10.8875 27.1937 7.72035 27.1937 4.54791 27.1937C3.96823 27.1937 3.68893 26.9197 3.68366 26.3453C3.67839 25.8025 3.68366 25.2544 3.68366 24.7116C3.68366 23.547 3.68366 22.3823 3.68366 21.2177C3.68893 20.2164 3.68366 18.0189 3.68366 17.7344C3.68366 17.6606 3.6942 17.5868 3.69947 17.5604C4.12633 17.6079 4.5321 17.6553 4.93788 17.7027C4.93788 17.8239 4.93788 17.9451 4.93788 18.0611C4.38455 18.2982 4.28969 18.4458 4.28969 19.0465C4.28969 19.0992 4.28969 19.5636 4.28969 19.6163C4.3055 20.0695 4.57953 20.3646 5.03274 20.3752C5.70201 20.391 6.36601 20.3857 7.03527 20.3752C7.34092 20.3699 7.59915 20.2276 7.694 19.9378C7.86264 19.4108 7.96333 18.0716 7.11432 18.0716C7.11432 17.9451 7.11432 17.8187 7.11432 17.6817C8.57407 17.6817 10.0233 17.6817 11.4725 17.6817C11.5199 17.9135 11.5357 18.0822 11.2459 18.177C10.9876 18.2613 10.8559 18.4932 10.8348 18.7725C10.8243 18.9148 10.8296 19.4688 10.8296 19.611C10.8401 20.0748 11.1194 20.3752 11.5779 20.3857C12.2366 20.4015 12.8953 20.3962 13.5541 20.3857C13.9282 20.3804 14.2128 20.1802 14.2655 19.8376C14.3867 19.1104 14.3182 18.293 13.6489 18.0663C13.6489 17.9399 13.6489 17.8081 13.6489 17.708C14.0758 17.6606 14.4763 17.6131 14.8873 17.5657C14.8873 17.5763 14.8926 17.6237 14.8926 17.6658C14.8979 20.5748 14.8979 23.489 14.8979 26.4032ZM14.8926 16.1534C14.8873 16.5592 14.5975 16.8438 14.197 16.8648C14.0231 16.8754 13.8492 16.8648 13.6542 16.8648C13.6542 15.6053 13.6542 14.3564 13.6542 13.0758C13.8492 13.0758 14.0231 13.0705 14.197 13.0758C14.5975 13.0969 14.8873 13.3867 14.8926 13.7872C14.9031 14.5777 14.9031 15.3682 14.8926 16.1534ZM15.7041 25.5495C15.7041 24.3216 15.7041 23.0885 15.7041 21.8554C16.3418 21.6973 16.8319 22.0556 16.795 22.7354C16.7634 23.3836 16.7897 24.0318 16.7897 24.6853C16.7897 25.3756 16.4156 25.6813 15.7041 25.5495ZM17.3747 26.8828C17.3589 26.9829 17.2008 27.1252 17.1112 27.1252C17.0163 27.1252 16.8582 26.9934 16.8319 26.8933C16.7845 26.7036 16.8003 26.4928 16.8161 26.2926C16.8214 26.2399 16.9162 26.1661 16.9794 26.1555C17.0954 26.1345 17.2219 26.1503 17.3852 26.1503C17.3852 26.419 17.4116 26.6562 17.3747 26.8828ZM23.7933 26.8722C23.7828 27.0409 23.6827 27.1463 23.5035 27.1463C23.3296 27.1463 23.2295 27.0409 23.2189 26.867C23.2084 26.6404 23.2189 26.4138 23.2189 26.1661C23.4244 26.1661 23.5984 26.1661 23.7986 26.1661C23.7986 26.4085 23.8039 26.6404 23.7933 26.8722ZM25.1424 25.3598C22.7025 25.3598 20.2573 25.3598 17.8174 25.3598C17.7225 25.3598 17.6276 25.3598 17.5275 25.3598C17.5486 25.1806 17.5802 25.0331 17.5802 24.8855C17.5855 24.095 17.5855 23.3046 17.5802 22.5141C17.5802 22.1768 17.4748 21.8659 17.2535 21.6182C17.1165 21.4654 17.0796 21.3126 17.0796 21.1176C17.0848 17.2601 17.0848 13.4078 17.0848 9.5503C17.0848 9.45544 17.0901 9.35532 17.0743 9.26046C17.0427 9.02332 16.8899 8.8863 16.6685 8.89684C16.4419 8.90738 16.3207 9.03913 16.2944 9.26046C16.2838 9.35532 16.2891 9.45544 16.2891 9.5503C16.2891 13.255 16.2891 16.965 16.2891 20.6696C16.2891 20.7803 16.2891 20.8962 16.2891 21.0122C16.0783 21.0122 15.8991 21.0122 15.6883 21.0122C15.6883 20.8962 15.6883 20.7909 15.6883 20.6907C15.6883 18.4089 15.6883 16.1218 15.6883 13.8399C15.6883 13.118 15.2878 12.5488 14.6186 12.3486C14.4447 12.2959 14.4078 12.2221 14.4078 12.0587C14.413 11.0048 14.413 9.95081 14.413 8.89684C14.413 8.18015 14.745 7.85342 15.4617 7.85342C18.6869 7.85342 21.9067 7.85342 25.1319 7.85342C25.8591 7.85342 26.1964 8.18541 26.1964 8.91265C26.1964 9.52922 26.1964 10.1405 26.1964 10.7571C26.1964 14.4407 26.1964 20.7434 26.1964 24.29C26.1964 25.0331 25.8749 25.3598 25.1424 25.3598Z" stroke="#3A62FF" stroke-width="0.232111"/>
<path d="M12.4685 21.4258C11.4145 21.4258 10.3605 21.4258 9.30657 21.4258C8.24207 21.4258 7.18283 21.4258 6.11832 21.4258C5.44906 21.4258 5.06963 21.7947 5.06436 22.4639C5.05909 23.3703 5.05909 24.2715 5.06436 25.1779C5.06963 25.8577 5.44906 26.2319 6.13413 26.2319C8.24207 26.2319 10.35 26.2319 12.4527 26.2319C13.1325 26.2319 13.5172 25.8472 13.5172 25.1779C13.5172 24.282 13.5172 23.3861 13.5172 22.4903C13.5224 21.8052 13.1483 21.4258 12.4685 21.4258ZM12.7372 25.1146C12.7372 25.3465 12.6687 25.4414 12.421 25.4414C10.3395 25.4361 8.25788 25.4361 6.17629 25.4414C5.92861 25.4414 5.85483 25.3571 5.85483 25.1199C5.86537 24.2609 5.86537 23.3967 5.85483 22.5377C5.84956 22.2795 5.95496 22.211 6.19737 22.211C7.22499 22.2215 8.25261 22.2162 9.28022 22.2162C10.3236 22.2162 11.3723 22.2215 12.4158 22.211C12.6582 22.211 12.7372 22.29 12.7372 22.5324C12.7267 23.3914 12.7267 24.2504 12.7372 25.1146Z" stroke="#3A62FF" stroke-width="0.232111"/>
<path d="M19.4879 16.2324C19.4879 13.9928 19.4879 11.7531 19.4879 9.51341C19.4879 9.41856 19.4932 9.31843 19.4773 9.22357C19.451 9.03913 19.3351 8.92319 19.1453 8.90211C18.9451 8.88103 18.7975 8.96008 18.7343 9.14979C18.7027 9.25519 18.6974 9.3764 18.6974 9.48706C18.6974 13.9822 18.6974 18.4774 18.6974 22.9726C18.6974 23.0674 18.6974 23.1675 18.7185 23.2624C18.7712 23.4679 18.9082 23.5786 19.1243 23.5628C19.3351 23.547 19.4615 23.4258 19.4826 23.2097C19.4932 23.1148 19.4879 23.0147 19.4879 22.9199C19.4879 20.6907 19.4879 18.4616 19.4879 16.2324Z" stroke="#3A62FF" stroke-width="0.232111"/>
<path d="M21.9015 9.43437C21.9015 9.37113 21.9067 9.30789 21.8962 9.24992C21.8593 9.0444 21.7434 8.91792 21.5273 8.90211C21.3007 8.89157 21.1637 9.01805 21.1163 9.22884C21.0952 9.31316 21.1057 9.40275 21.1057 9.49233C21.1057 11.7426 21.1057 13.9875 21.1057 16.2377C21.1057 18.4774 21.1057 20.7171 21.1057 22.9568C21.1057 23.0463 21.0952 23.1359 21.111 23.2202C21.1479 23.4363 21.2744 23.5681 21.5062 23.5681C21.7328 23.5628 21.8593 23.431 21.8909 23.215C21.9015 23.157 21.8962 23.0938 21.8962 23.0305C21.9015 18.4932 21.9015 13.9612 21.9015 9.43437Z" stroke="#3A62FF" stroke-width="0.232111"/>
<path d="M24.3203 9.48706C24.3203 9.3764 24.3203 9.25519 24.2834 9.14979C24.2202 8.96008 24.0568 8.84941 23.8724 8.91265C23.7406 8.96008 23.63 9.10764 23.5404 9.22884C23.4982 9.28681 23.5298 9.39748 23.5298 9.48706C23.5298 11.7267 23.5298 13.9664 23.5298 16.2061C23.5298 18.4563 23.5298 20.7013 23.5298 22.9515C23.5298 23.0411 23.5246 23.1307 23.5351 23.215C23.5615 23.4258 23.6827 23.547 23.8987 23.5628C24.1148 23.5786 24.2518 23.4627 24.3045 23.2624C24.3309 23.1728 24.3203 23.0727 24.3203 22.9726C24.3203 18.4774 24.3203 13.9822 24.3203 9.48706Z" stroke="#3A62FF" stroke-width="0.232111"/>
</svg>
