<svg width="20" height="20" viewBox="0 0 20 20" fill="none" xmlns="http://www.w3.org/2000/svg">
<path d="M19.9993 10.2086C19.9993 9.37181 19.914 8.78605 19.7861 8.15845H10.1914V11.8822H15.8203C15.6924 12.8027 15.0954 14.1834 13.7308 15.1458V15.2713L16.7584 17.5725H16.9717C18.8906 15.857 19.9993 13.2629 19.9993 10.2086Z" fill="#4285F4"/>
<path d="M10.192 20C12.9638 20 15.2666 19.1214 16.9296 17.5733L13.7314 15.1466C12.8785 15.7323 11.7272 16.1507 10.192 16.1507C7.50551 16.1507 5.20278 14.3934 4.39257 12.0085H4.26464L1.10905 14.3934L1.06641 14.519C2.77213 17.7825 6.22622 20 10.192 20Z" fill="#34A853"/>
<path d="M4.39224 11.9669C4.17902 11.3393 4.05109 10.6699 4.05109 10.0004C4.05109 9.33098 4.17902 8.66154 4.39224 8.03394V7.90842L1.19401 5.48169L1.10872 5.52353C0.383788 6.86241 0 8.4105 0 10.0004C0 11.5904 0.383788 13.1384 1.10872 14.4773L4.39224 11.9669Z" fill="#FBBC05"/>
<path d="M10.1923 3.84929C12.1113 3.84929 13.3906 4.64426 14.1155 5.35554L17.0152 2.59409C15.2669 1.00416 12.9641 0 10.1923 0C6.22654 0 2.77245 2.25937 1.10938 5.5229L4.39289 8.03331C5.20311 5.60658 7.50584 3.84929 10.1923 3.84929Z" fill="#EA4335"/>
</svg>
