<svg width="34" height="40" viewBox="0 0 34 40" fill="none" xmlns="http://www.w3.org/2000/svg">
<path d="M34 17.1429C34 16.931 34 16.739 33.9799 16.5734C33.8863 15.8318 33.5988 15.2756 33.0639 14.8386C32.4153 14.3023 31.6397 14.0771 30.6234 14.1367C30.2824 14.1566 29.9414 14.0308 29.694 13.799C29.4466 13.5607 29.3062 13.2362 29.3129 12.8919C29.4667 5.21106 23.7365 0.549578 18.2604 0.0595928C17.8324 0.0198643 17.4045 0 16.99 0C14.4559 0 12.1491 0.708492 10.1231 2.11223C6.45231 4.66148 4.68043 8.18408 4.71386 12.8853C4.72055 13.5408 4.19902 14.0838 3.53038 14.1169C3.47021 14.1169 3.41672 14.1235 3.3766 14.1235C3.28968 14.1301 3.20944 14.1301 3.1292 14.1301C1.02301 14.1632 0 15.1895 0 17.2687V21.4335C0 26.5387 0 31.8225 0 37.0137C0 38.9008 1.08987 39.9868 2.9821 39.9868C11.2464 39.9934 21.0486 40 31.0246 39.9735C31.506 39.9735 32.0342 39.8609 32.4621 39.6689C33.1776 39.3511 34 38.7618 33.9933 36.9939C33.9933 32.8687 33.9933 28.737 33.9933 24.6118C34 22.1288 34 19.6325 34 17.1429ZM11.7211 3.84042C13.4997 2.73465 15.3451 2.18507 17.1906 2.21155C19.0427 2.23142 20.868 2.82735 22.6199 3.9861C24.1778 5.01242 25.3412 6.31684 26.0767 7.86625C26.7788 9.34945 27.093 11.0578 27.0061 12.9449C26.9793 13.6004 26.4311 14.1169 25.7691 14.1169H8.3178C7.64248 14.1169 7.0942 13.5872 7.08083 12.9184C6.98722 8.85284 8.55182 5.80036 11.7211 3.84042ZM30.8775 36.8879C30.3091 37.4441 29.5402 37.7421 28.6576 37.7421C28.6442 37.7421 28.6242 37.7421 28.6108 37.7421C25.8293 37.709 23.001 37.7156 20.2596 37.7222C19.1764 37.7222 18.0865 37.7289 17.0033 37.7289H13.7605C10.9723 37.7289 8.17738 37.7289 5.38918 37.7289C3.40334 37.7289 2.26667 36.6098 2.26667 34.6631C2.25998 29.5382 2.25998 24.4397 2.26667 19.5067C2.26667 17.5666 3.38997 16.4609 5.34907 16.4609C13.1119 16.4609 20.8747 16.4609 28.6442 16.4609C30.6033 16.4609 31.7333 17.5666 31.74 19.5001C31.7467 21.2349 31.7467 22.9631 31.7467 24.6979C31.7467 27.9623 31.7534 31.3392 31.7668 34.6565C31.7668 35.5239 31.4525 36.3185 30.8775 36.8879Z" fill="#3A62FF"/>
<path d="M17.3243 23.6517C17.1036 23.6451 16.8763 23.6451 16.649 23.6517C16.1475 23.6583 15.8867 23.9099 15.8734 24.3867C15.86 24.9959 15.8667 25.6249 15.8667 26.2274C15.8667 26.4724 15.8667 26.7174 15.8667 26.9624C15.8667 26.9955 15.8734 27.0352 15.8734 27.0684C15.8734 27.3597 15.8734 27.6577 15.8667 27.949C15.86 28.5913 15.86 29.26 15.8734 29.9089C15.88 30.2268 16.094 30.4651 16.4083 30.5115C16.7359 30.5578 17.0903 30.5645 17.4313 30.5247C18.0197 30.4585 18.0999 30.1142 18.0999 29.856C18.1333 27.949 18.1333 26.0884 18.0999 24.3271C18.0999 23.7775 17.6787 23.6583 17.3243 23.6517Z" fill="#3A62FF"/>
</svg>
