<svg width="20" height="20" viewBox="0 0 20 20" fill="none" xmlns="http://www.w3.org/2000/svg">
<path d="M19.9998 10.0068C19.9897 15.527 15.483 20.0236 9.98303 19.9999C4.46281 19.9763 -0.0101179 15.4932 1.71895e-05 9.99324C0.0101522 4.47302 4.52025 -0.0235556 10.0168 9.28536e-05C15.537 0.0237413 20.01 4.50681 19.9998 10.0068ZM18.9998 10C18.9965 5.04396 14.9627 1.01022 10.0033 1.00008C5.06078 0.989949 1.02366 5.02032 1.00001 9.99324C0.976359 14.9256 5.06754 19.0168 10.0067 18.9999C14.9729 18.983 19.0032 14.9493 18.9998 10Z" fill="#3A62FF"/>
<path d="M10.5033 8.47974C10.5033 9.57095 10.5033 10.6622 10.5033 11.7567C10.5033 12.054 10.3513 12.2567 10.1013 12.304C9.80398 12.3615 9.53371 12.1588 9.49993 11.8581C9.49655 11.8176 9.49655 11.7804 9.49655 11.7398C9.49655 9.56757 9.49655 7.39529 9.49655 5.22302C9.49655 5.01356 9.5506 4.83113 9.73641 4.71627C10.0709 4.50681 10.4898 4.73654 10.4999 5.13856C10.5101 5.53383 10.5033 5.92571 10.5033 6.32098C10.5033 7.04057 10.5033 7.76016 10.5033 8.47974Z" fill="#3A62FF"/>
<path d="M10.5033 14.3581C10.5033 14.6351 10.2769 14.8682 10.0033 14.8648C9.72628 14.8648 9.49655 14.6351 9.49993 14.3614C9.49993 14.0946 9.72628 13.8648 9.99317 13.8615C10.2668 13.8547 10.5033 14.0844 10.5033 14.3581Z" fill="#3A62FF"/>
</svg>
