<svg width="56" height="55" viewBox="0 0 56 55" fill="none" xmlns="http://www.w3.org/2000/svg">
<path d="M32.0471 41.8377C32.1925 41.8377 32.3689 41.8377 32.5557 41.8377C33.6145 41.8377 34.6628 41.8481 35.7215 41.8377C36.3443 41.8273 36.7387 41.5056 36.7491 40.9035C36.7699 39.4504 36.8114 37.9972 36.7284 36.5441C36.6453 35.1532 35.6074 34.136 34.1957 33.9492C32.5039 33.7208 30.8016 33.534 29.1097 33.2953C28.8814 33.2641 28.6011 33.098 28.4662 32.9008C27.6462 31.7279 26.8573 30.5239 26.0685 29.3302C25.2277 28.0536 24.0548 27.4308 22.5394 27.4412C19.4774 27.4515 16.4154 27.4515 13.3534 27.4412C12.0041 27.4412 10.9142 27.9498 10.0527 28.9981C8.99399 30.2955 7.90413 31.5722 6.84541 32.8697C6.63781 33.1292 6.43022 33.2226 6.09807 33.2122C5.45454 33.1915 4.82138 33.2018 4.17784 33.2018C2.52748 33.2122 1.27155 34.4163 1.24041 36.0666C1.20927 37.6443 1.21965 39.2117 1.24041 40.7894C1.25079 41.4744 1.63483 41.8377 2.31989 41.8377C3.40975 41.8481 4.49961 41.8481 5.58947 41.8377C5.94238 41.8273 6.05655 41.9415 6.09807 42.2944C6.16035 42.7822 6.33681 43.2493 6.48212 43.7787C6.17073 43.7787 5.85934 43.7787 5.55833 43.7787C4.02214 43.7787 4.13632 43.7891 2.60014 43.7683C2.12267 43.7683 1.75939 43.924 1.4999 44.3184C1.38572 44.4949 1.25079 44.6506 1.13661 44.8167C-0.046669 46.4255 -0.046669 46.4255 0.0259895 48.4184C0.0571289 49.1761 0.399658 49.5082 1.16775 49.5082C3.47203 49.5082 4.10518 49.5082 6.40946 49.5082C6.59629 49.5082 6.78313 49.5082 7.02186 49.5082C7.26059 51.1586 8.00792 52.4976 9.39879 53.4214C10.4471 54.1168 11.6097 54.397 12.8552 54.2621C14.8792 54.0441 17.1005 52.6014 17.5779 49.5601C21.0655 49.5601 24.5634 49.5601 28.134 49.5601C28.134 49.7989 28.134 50.0376 28.134 50.2763C28.1444 51.0756 28.5077 51.4492 29.3173 51.4596C32.1198 51.4596 36.8954 51.4596 39.6979 51.4596C40.2895 51.4596 40.8708 51.47 41.4624 51.4596C42.2409 51.4492 42.5938 51.086 42.6145 50.3075C42.6249 50.0687 42.6145 49.83 42.6145 49.529C43.2166 49.529 42.8325 49.5082 43.3826 49.5498C43.4968 49.5601 42.6155 49.7885 42.6362 49.9338C43.1656 52.6325 45.3868 54.4074 48.1167 54.2933C50.5247 54.1895 52.6111 52.3834 53.0159 49.9857C53.0781 49.6017 53.2234 49.4979 53.5764 49.529C54.0019 49.5601 54.4379 49.5394 54.8738 49.5394C55.6315 49.529 55.9844 49.1865 55.9948 48.4288C56.0052 47.2663 55.9948 46.1141 55.9948 44.9516C55.9948 43.104 56.0156 41.2461 55.9741 39.3985C55.9637 38.9729 55.8391 38.5058 55.6211 38.1426C54.1472 35.7552 52.6526 31.4094 51.189 29.0429C50.8673 28.5239 50.4728 28.3059 49.8708 28.3163C46.5701 28.3267 45.2302 28.3267 41.9295 28.3267C40.9538 28.3267 40.6424 28.6485 40.6424 29.6449C40.6424 33.4646 40.6424 39.2947 40.6424 43.1144C40.6424 43.322 40.6424 43.5192 40.6424 43.7579C38.2343 43.7579 33.9051 43.7579 31.5282 43.7579C31.7046 43.1248 31.8707 42.5228 32.0471 41.8377ZM45.0028 30.2884C45.4491 32.5304 45.8954 36.7309 46.3418 38.9314C46.4974 39.7099 46.7881 39.9382 47.5873 39.9486C49.0924 39.959 50.5974 39.959 52.1024 39.9694C52.7356 39.9694 53.3688 39.9694 54.0019 39.9694C54.0019 41.2876 54.0019 42.5228 54.0019 43.7476C49.5283 43.7476 47.0674 43.7476 42.6042 43.7476C42.6042 39.9175 42.6042 34.1185 42.6042 30.2988C44.0677 30.2884 43.5289 30.2884 45.0028 30.2884ZM18.564 39.9382C18.564 38.319 18.564 36.7621 18.564 35.1325C18.7924 35.1325 18.9896 35.1325 19.1972 35.1325C21.3354 35.1325 23.484 35.1844 25.6222 35.1221C28.4039 35.039 31.1234 35.558 33.8636 35.8694C34.559 35.9525 34.8289 36.295 34.8289 36.98C34.8393 37.8312 34.8289 38.6719 34.8289 39.523C34.8289 39.658 34.7978 39.7825 34.7874 39.9382C33.7805 39.9382 32.8152 39.959 31.8499 39.9279C31.6423 39.9175 31.3621 39.7825 31.2375 39.6165C29.6391 37.499 26.5978 37.4783 25.0201 39.6268C24.8333 39.8863 24.6361 39.959 24.3351 39.959C22.7262 39.9486 21.1174 39.9486 19.5086 39.9486C19.2075 39.9382 18.8962 39.9382 18.564 39.9382ZM16.5607 39.9382C15.4813 39.9382 14.4641 39.9486 13.4468 39.9279C13.3119 39.9279 13.1251 39.8033 13.042 39.6891C11.4643 37.4575 8.26741 37.4575 6.70009 39.7099C6.62743 39.8137 6.4925 39.9382 6.3887 39.9382C5.3196 39.959 4.26088 39.9486 3.16064 39.9486C3.16064 38.7238 3.16064 37.5613 3.16064 36.4092C3.16064 35.4542 3.46164 35.1532 4.43733 35.1532C8.28817 35.1532 12.139 35.1532 16.0002 35.1532C16.1871 35.1532 16.3635 35.174 16.5607 35.1844C16.5607 36.7621 16.5607 38.319 16.5607 39.9382ZM30.0854 49.4875C30.0854 48.2108 30.0854 46.9652 30.0854 45.7093C32.9606 45.7093 37.7776 45.7093 40.6217 45.7093C40.6217 46.986 40.6217 48.2212 40.6217 49.4875C37.7673 49.4875 32.9606 49.4875 30.0854 49.4875ZM12.2636 52.4042C10.4471 52.4042 8.87981 50.8472 8.91095 49.0827C8.94209 47.2144 10.4368 45.6989 12.2636 45.6782C14.1111 45.6678 15.6266 47.204 15.637 49.0931C15.637 50.8887 14.0904 52.4145 12.2636 52.4042ZM51.1475 49.1242C51.1371 50.9303 49.601 52.4249 47.7741 52.4145C45.9473 52.4042 44.4111 50.868 44.4423 49.0723C44.4734 47.1936 45.9681 45.6885 47.7949 45.6885C49.6529 45.6782 51.1579 47.2247 51.1475 49.1242ZM26.3072 33.1707C23.6708 33.1707 21.1174 33.1707 18.564 33.1707C18.564 31.894 18.564 30.6381 18.564 29.3718C20.0379 29.3718 21.4703 29.351 22.9027 29.3821C23.4632 29.3925 23.9407 29.6728 24.2624 30.1399C24.9371 31.1155 25.591 32.112 26.3072 33.1707ZM16.5607 33.1603C14.0489 33.1603 11.5993 33.1603 9.08741 33.1603C9.99043 32.0808 10.8104 31.0325 11.7031 30.0568C11.9729 29.7558 12.4089 29.4548 12.7929 29.434C14.0385 29.3614 15.2944 29.4029 16.5607 29.4029C16.5607 30.6692 16.5607 31.9044 16.5607 33.1603ZM46.9645 30.2573C47.7741 30.2573 48.5215 30.2781 49.2584 30.2469C49.5802 30.2365 49.7463 30.3611 49.9123 30.6206C50.9503 32.3125 52.009 35.994 53.0574 37.6755C53.1197 37.7793 53.1612 37.9038 53.2027 37.9869C51.5731 37.9869 49.985 37.9972 48.3969 37.9765C48.2827 37.9765 48.0855 37.8104 48.0648 37.6962C47.6911 35.9213 47.3382 32.1256 46.9645 30.2573ZM16.4673 45.7197C20.3389 45.7197 24.2105 45.7197 28.0821 45.7197C28.0821 46.3528 28.0821 46.9549 28.0821 47.6088C27.1272 47.6088 26.193 47.6088 25.2693 47.6088C22.7781 47.6088 20.287 47.6088 17.7959 47.5984C17.6298 47.5984 17.3703 47.5465 17.3081 47.4427C17.0071 46.8926 16.7476 46.3113 16.4673 45.7197ZM13.2808 43.7579C13.4157 43.2597 13.6025 42.803 13.6544 42.3359C13.696 41.9207 13.8517 41.8377 14.2357 41.8377C17.4119 41.8481 20.5984 41.8481 23.7746 41.8481C23.9199 41.8481 24.0756 41.8688 24.1794 41.8688C24.3558 42.5228 24.5323 43.1352 24.6984 43.7579C20.9098 43.7579 17.1109 43.7579 13.2808 43.7579ZM1.98774 47.6192C1.76977 46.8407 2.34065 46.4774 2.66242 46.0207C2.78697 45.8442 3.06722 45.7093 3.28519 45.6989C5.3196 45.6782 5.70364 45.6885 7.73805 45.6885C7.86261 45.6885 7.98717 45.7093 8.11172 45.7301C7.85223 46.2387 7.5616 46.6954 7.37477 47.1936C7.25021 47.5154 7.11528 47.6399 6.75199 47.6399C5.57909 47.6088 6.06693 47.6295 4.88366 47.6295C3.92873 47.6192 2.96343 47.6192 1.98774 47.6192ZM26.2138 41.8481C26.2138 40.7894 27.0649 39.9486 28.1236 39.9486C29.172 39.9486 30.0439 40.8205 30.0439 41.8585C30.0439 42.8653 29.1305 43.7787 28.1133 43.7787C27.0753 43.7683 26.2138 42.8964 26.2138 41.8481ZM11.7342 41.8481C11.7446 42.8757 10.9038 43.7476 9.87626 43.7683C8.87981 43.7891 7.98716 42.9068 7.95602 41.8896C7.93526 40.8828 8.79677 39.9901 9.82436 39.9797C10.8416 39.959 11.7135 40.8205 11.7342 41.8481ZM42.6145 45.7301C43.6421 45.7301 42.6466 45.7301 43.6119 45.7301C43.3317 46.3113 43.0722 46.8718 42.8023 47.4219C42.7608 47.505 42.657 47.5984 42.5843 47.6088C41.9408 47.6192 43.2581 47.6192 42.6145 47.6192C42.6145 46.9237 42.6145 46.3321 42.6145 45.7301ZM54.0434 47.6192C53.7736 47.6192 53.566 47.6295 53.3584 47.6192C53.1819 47.5984 52.9121 47.5984 52.8498 47.4946C52.528 46.9237 52.2685 46.3113 51.9883 45.7197C52.6629 45.7197 53.3272 45.7197 54.0123 45.7197C54.0227 45.8442 54.0331 45.948 54.0331 46.0518C54.0434 46.5397 54.0434 47.0379 54.0434 47.6192Z" fill="#3A62FF"/>
<path d="M10.8416 49.0412C10.8416 49.8508 11.4747 50.4839 12.2843 50.4839C13.0939 50.4839 13.7271 49.83 13.7167 49.0204C13.7063 48.2316 13.0836 47.6192 12.2947 47.6088C11.4747 47.6088 10.8416 48.2316 10.8416 49.0412Z" fill="#3A62FF"/>
<path d="M47.7949 47.6192C46.9853 47.6192 46.3521 48.2731 46.3625 49.0723C46.3729 49.8508 47.0061 50.4839 47.7845 50.4943C48.5838 50.5047 49.248 49.8508 49.248 49.0515C49.248 48.2523 48.6045 47.6088 47.7949 47.6192Z" fill="#3A62FF"/>
<path d="M42.6249 44.3184C42.6249 39.4919 42.6249 14.6911 42.6249 9.8646C42.6249 9.75042 42.6249 9.62586 42.6249 9.51169C42.6145 8.84739 42.2305 8.46335 41.5662 8.45297C40.3206 8.44259 40.1546 8.46335 38.909 8.44259C38.7222 8.44259 38.5042 8.36993 38.3485 8.26613C34.5599 5.61933 30.7714 2.95176 26.9828 0.304958C26.796 0.170023 26.5676 0.0558476 26.3393 0.0143291C25.8099 -0.0790876 25.3532 0.294579 25.2806 0.83432C25.2598 0.948496 25.2598 1.07305 25.2598 1.18723C25.2598 5.87882 25.2598 10.5704 25.2598 15.2724C25.2598 15.7187 25.3947 16.0509 25.7476 16.3415C26.7233 17.1511 26.6922 17.7635 25.6542 18.4797C25.1975 18.7911 24.6993 19.0194 24.2115 19.2893C23.9935 19.4035 23.8066 19.3412 23.6821 19.1336C23.4745 18.7807 23.2669 18.4278 23.0801 18.0541C22.7791 17.4729 22.2705 17.2445 21.7515 17.4729C21.274 17.6908 21.0457 18.0853 21.2221 18.5835C21.5128 19.4346 21.9383 20.2131 22.6234 20.8151C23.132 21.2614 23.7651 21.4067 24.419 21.2407C25.675 20.9293 26.7648 20.265 27.6471 19.3308C28.7474 18.1475 28.6539 16.5595 27.4707 15.3035C27.2838 15.1063 27.2112 14.9091 27.2112 14.6496C27.2215 10.8714 27.2112 7.08286 27.2112 3.30467C27.2112 3.1905 27.2112 3.07632 27.2112 2.88949C27.3565 2.9829 27.4603 3.04518 27.5537 3.10746C30.7195 5.3287 33.8853 7.54994 37.0511 9.77118C37.2483 9.90612 37.3105 10.0514 37.3105 10.2798C37.3002 14.8364 37.3105 39.3673 37.3105 43.924C37.3105 44.0693 37.3209 44.2043 37.3209 44.3496C37.9748 44.3496 38.6184 44.3496 39.2723 44.3496C39.2723 44.2873 39.2619 44.225 39.2619 44.1524C39.2619 39.6684 39.2619 15.1893 39.2619 10.7053C39.2619 10.6223 39.2723 10.5393 39.2827 10.4562C40.113 10.4562 39.8328 10.4562 40.6632 10.4562C40.6632 15.1063 40.6632 39.7203 40.6632 44.3496C41.3275 44.3184 41.971 44.3184 42.6249 44.3184Z" fill="#3A62FF"/>
</svg>
