<svg width="58" height="47" viewBox="0 0 58 47" fill="none" xmlns="http://www.w3.org/2000/svg">
<path fill-rule="evenodd" clip-rule="evenodd" d="M13.0483 39.292C13.0483 40.7182 13.0603 41.9723 13.0483 43.2264C13.0123 45.3289 12.4238 45.9559 10.4181 45.9805C8.76062 46.0051 7.10319 46.0051 5.44576 45.9805C3.66823 45.9436 3.11575 45.3904 3.06771 43.5707C3.03168 41.751 3.03168 39.9313 3.06771 38.1117C3.07972 37.2879 2.99565 36.5994 2.25101 36.0461C1.32621 35.3576 1.00193 34.3617 1.02595 33.1813C1.06198 31.1158 1.09801 29.0625 1.01394 26.9969C0.893837 24.1444 1.53039 21.5871 3.68024 19.4477C3.30792 19.1403 3.01967 18.8944 2.7074 18.6362C1.25415 17.4313 0.713682 15.7715 1.23013 14.124C1.75858 12.4272 3.10374 11.3821 4.95334 11.2838C5.8301 11.2346 6.71886 11.2715 7.64366 11.2715C8.08804 9.93133 8.48439 8.72641 8.89274 7.53378C10.394 3.15673 13.3005 1.01739 17.8645 1.00509C25.2629 0.992798 32.6612 1.00509 40.0596 1.01739C44.7557 1.02968 47.6021 3.13214 49.1274 7.64444C49.5118 8.78788 49.8961 9.91903 50.3405 11.2715C51.0491 11.2715 51.7337 11.2592 52.4303 11.2715C54.7243 11.3084 56.2136 12.2551 56.742 14.0502C57.3185 16.0297 56.5739 18.0953 54.7843 19.0174C54.6402 19.0912 54.5441 19.2387 54.3039 19.46C56.766 21.7223 57.0903 24.6731 56.9822 27.7838C56.9222 29.4805 56.9462 31.1772 56.9822 32.874C57.0062 34.2141 56.766 35.4313 55.601 36.2182C55.0005 36.624 54.9885 37.1895 54.9885 37.8043C55.0005 39.624 55.0125 41.4436 54.9885 43.2633C54.9645 45.3535 54.376 45.9559 52.3342 45.9805C50.6768 45.9928 49.0194 46.0174 47.3619 45.9805C45.6204 45.9436 45.0679 45.3535 45.0199 43.5338C44.9839 42.2674 44.9839 40.9887 44.9599 39.7223C44.9599 39.6731 44.8998 39.624 44.7317 39.3412C34.3307 40.0666 23.7856 40.042 13.0483 39.292ZM29.0822 19.4108C22.5845 19.4108 16.0749 19.46 9.57733 19.3862C5.43375 19.3371 2.89957 22.6567 3.11575 25.9641C3.24787 28.0789 3.13977 30.1936 3.13977 32.3207C3.13977 34.3863 3.25988 34.583 5.16953 35.3822C7.70371 36.4518 10.394 36.919 13.0964 37.1772C20.1104 37.8535 27.1365 38.001 34.1745 37.792C39.2549 37.6322 44.3473 37.6076 49.3436 36.4395C50.8329 36.0953 52.2742 35.5297 53.7034 34.9764C54.6882 34.5953 55.0966 33.8207 55.0726 32.6895C55.0005 30.4518 55.0606 28.2141 55.0486 25.9764C55.0486 25.374 55.0125 24.7592 54.8804 24.1813C54.2318 21.2797 51.8898 19.4354 48.7671 19.4231C42.1975 19.3862 35.6398 19.4108 29.0822 19.4108ZM50.0162 17.2469C49.9201 16.8166 49.8721 16.5215 49.788 16.2387C48.9113 13.5461 48.0345 10.8535 47.1217 8.16083C45.9087 4.58296 43.7588 3.02149 40.0716 3.00919C36.4085 2.9969 32.7453 3.00919 29.0701 3.00919C25.1067 3.00919 21.1433 2.96001 17.1919 3.03378C14.2614 3.09526 12.0755 4.52149 11.0546 7.38624C9.96166 10.4477 9.06088 13.583 8.08804 16.6936C8.04 16.8412 8.11206 17.0256 8.13608 17.2469C22.0921 17.2469 36.0001 17.2469 50.0162 17.2469ZM5.06143 43.8412C7.00711 43.8412 8.91676 43.8412 10.9105 43.8412C10.9105 42.2305 10.9105 40.6813 10.9105 39.0215C8.97681 38.5912 7.06716 38.1731 5.06143 37.7305C5.06143 39.833 5.06143 41.751 5.06143 43.8412ZM47.0737 43.8781C49.0434 43.8781 50.893 43.8781 52.8507 43.8781C52.8507 41.8248 52.8507 39.8699 52.8507 37.792C50.881 38.2223 48.9953 38.6404 47.0737 39.0707C47.0737 40.6936 47.0737 42.2305 47.0737 43.8781ZM51.0371 13.4108C51.4815 14.7879 51.8898 16.0174 52.2742 17.1977C54.0997 17.2838 54.9885 16.6076 54.9765 15.292C54.9525 13.7551 53.7514 13.128 51.0371 13.4108ZM6.97108 13.1895C5.91417 13.2879 5.09746 13.2633 4.3288 13.4723C3.44003 13.7182 3.0557 14.4559 3.07972 15.4026C3.11575 16.3494 3.59617 17.001 4.47292 17.2469C5.18154 17.4436 5.73401 17.3453 5.97422 16.4969C6.26247 15.4887 6.58675 14.4805 6.97108 13.1895Z" fill="#3A62FF" stroke="#3A62FF" stroke-width="0.5"/>
<path fill-rule="evenodd" clip-rule="evenodd" d="M28.9633 25.5584C32.3382 25.5584 35.7131 25.5461 39.076 25.5584C39.8207 25.5584 40.7214 25.3862 40.8896 26.5054C41.0097 27.2556 40.4092 27.6245 39.04 27.6245C32.3502 27.6368 25.6725 27.6245 18.9827 27.6245C18.6344 27.6245 18.202 27.7106 17.9378 27.5384C17.5775 27.3171 17.1211 26.8989 17.1211 26.5546C17.1211 26.2348 17.6015 25.7921 17.9618 25.6199C18.3101 25.46 18.7785 25.5584 19.1869 25.5461C22.4537 25.5584 25.7085 25.5584 28.9633 25.5584Z" fill="#3A62FF" stroke="#3A62FF" stroke-width="0.5"/>
<path fill-rule="evenodd" clip-rule="evenodd" d="M28.9378 31.7065C26.2715 31.7065 23.6052 31.7188 20.9509 31.7065C19.5577 31.6942 18.9933 31.3622 19.1134 30.5997C19.2815 29.4928 20.1583 29.6281 20.9149 29.6158C26.2956 29.6035 31.6882 29.6158 37.0688 29.6158C37.1889 29.6158 37.309 29.6158 37.4291 29.6158C38.438 29.6773 39.0505 30.1077 38.9425 30.7349C38.7983 31.5589 38.1738 31.7065 37.4652 31.7065C34.6307 31.7065 31.7843 31.7065 28.9378 31.7065Z" fill="#3A62FF" stroke="#3A62FF" stroke-width="0.5"/>
<path fill-rule="evenodd" clip-rule="evenodd" d="M52.947 27.5746C52.959 29.8 51.2175 31.6566 49.0557 31.6935C46.9058 31.7426 45.0802 29.9353 45.0322 27.7222C44.9841 25.4107 46.7857 23.4926 49.0076 23.5049C51.1575 23.5172 52.923 25.3492 52.947 27.5746ZM48.8995 29.6033C50.0645 29.6402 50.9773 28.7672 50.9653 27.5992C50.9533 26.5295 50.1126 25.632 49.0557 25.5951C47.9267 25.5459 46.9899 26.4804 46.9899 27.6238C47.0019 28.7058 47.8186 29.5664 48.8995 29.6033Z" fill="#3A62FF" stroke="#3A62FF" stroke-width="0.5"/>
<path fill-rule="evenodd" clip-rule="evenodd" d="M9.02396 31.7056C6.89813 31.7056 5.03652 29.8368 5.00049 27.6605C4.96446 25.4351 6.92215 23.4556 9.09602 23.5048C11.2219 23.5663 13.0474 25.4843 13.0234 27.6483C13.0114 29.8245 11.1498 31.7056 9.02396 31.7056ZM10.9816 27.5499C10.9576 26.4556 10.1169 25.595 9.04798 25.5827C7.91901 25.5581 7.01823 26.4925 7.05426 27.6605C7.07828 28.8409 7.97906 29.6769 9.15608 29.6032C10.249 29.5294 11.0177 28.6687 10.9816 27.5499Z" fill="#3A62FF" stroke="#3A62FF" stroke-width="0.5"/>
</svg>
