<svg width="58" height="65" viewBox="0 0 58 65" fill="none" xmlns="http://www.w3.org/2000/svg">
<path d="M42.7248 40.1143C43.0227 40.8193 43.1121 41.5043 43.6482 42.0206C44.6014 42.944 45.5049 43.927 45.8028 45.2872C45.9219 45.8333 46.0013 46.3993 46.0013 46.9553C46.0212 51.3935 46.0113 55.8217 46.0113 60.2599C46.0113 62.8613 44.2837 64.5591 41.6724 64.569C40.9476 64.569 40.2128 64.5789 39.488 64.569C37.0853 64.5392 35.3676 62.8414 35.3179 60.4386C35.308 59.972 35.2981 59.5152 35.3179 59.0486C35.3279 58.7209 35.1988 58.5919 34.8811 58.6316C34.8116 58.6415 34.752 58.6316 34.6825 58.6316C27.2061 58.6316 19.7197 58.6316 12.2433 58.6316C12.0646 58.6316 11.8859 58.6316 11.6178 58.6316C11.6178 59.2074 11.6178 59.7436 11.6178 60.2798C11.6079 61.3024 11.3696 62.2457 10.7044 63.0499C9.91006 64.013 8.88739 64.5194 7.64629 64.5591C6.87184 64.5889 6.08746 64.569 5.31301 64.569C2.77123 64.5591 1.04362 62.9506 1.02376 60.4287C0.984044 55.9607 1.0039 51.4927 1.01383 47.0248C1.02376 45.3667 1.61949 43.927 2.91024 42.8646C3.99248 41.9809 4.62792 40.8788 5.06479 39.5782C5.84917 37.2647 6.74276 34.9811 7.59664 32.6875C8.33138 30.7117 9.67177 29.7685 11.7866 29.7685C16.6815 29.7585 21.5864 29.7685 26.4813 29.7685C27.2359 29.7685 27.2359 29.7685 27.2359 29.0238C27.2359 22.6495 27.2458 16.2851 27.2359 9.91082C27.2359 8.71936 27.6429 7.75627 28.745 7.23004C29.1422 7.04139 29.6287 6.97189 30.0854 6.96196C31.2471 6.92225 32.3989 6.9421 33.5605 6.95203C33.8286 6.95203 33.9676 6.8726 34.0768 6.61445C34.6924 5.01591 35.8938 4.2216 37.5817 4.17196C37.9888 4.16203 38.1377 4.04289 38.2469 3.64573C38.6639 2.12662 40.0341 1.07417 41.6029 1.01459C42.427 0.984807 43.2511 0.96495 44.0354 1.33232C45.068 1.81883 45.7631 2.60321 46.051 3.70531C46.1403 4.03296 46.2595 4.16203 46.6169 4.16203C48.3743 4.18189 49.5956 4.98612 50.2509 6.64424C50.3005 6.78324 50.5587 6.92225 50.7275 6.92225C51.8494 6.9421 52.9813 6.93217 54.1033 6.93217C55.9004 6.97189 56.9925 8.02435 56.9925 9.83139C57.0025 18.9361 57.0025 28.0309 56.9925 37.1357C56.9925 39.0221 55.8607 40.1143 53.9742 40.1143C50.4495 40.1143 46.9247 40.1143 43.4 40.1143C43.2113 40.1143 43.0128 40.1143 42.7248 40.1143ZM23.4728 56.6259C29.5294 56.6259 35.586 56.6259 41.6327 56.6259C43.1816 56.6259 43.9957 55.8118 43.9957 54.2728C43.9957 51.8601 43.9957 49.4474 43.9957 47.0248C43.9957 46.7964 43.9759 46.5581 43.956 46.3298C43.8567 45.178 43.1418 44.3837 42.3674 43.6093C42.0298 43.2717 41.7022 43.1128 41.2057 43.1128C29.8372 43.1227 18.4786 43.1426 7.11013 43.1029C6.02789 43.1029 5.22365 43.361 4.43928 44.1256C3.50597 45.039 2.98967 46.0517 3.00952 47.3624C3.03931 49.6658 3.01945 51.9594 3.01945 54.2629C3.01945 55.8813 3.76412 56.6259 5.39244 56.6259C11.4292 56.6259 17.456 56.6259 23.4728 56.6259ZM51.7005 23.1559C51.7005 19.4822 51.7005 15.8085 51.6906 12.1349C51.6906 11.9562 51.5416 11.6384 51.4721 11.6384C51.1147 11.6384 50.519 11.6384 50.4495 11.8072C50.1615 12.5717 49.6055 12.6412 48.9403 12.6412C44.3929 12.6412 39.8455 12.6412 35.2881 12.6412C35.1094 12.6412 34.9208 12.6412 34.7421 12.6214C34.3151 12.5717 33.9974 12.3533 33.8485 11.9363C33.64 11.3306 33.1534 11.6484 32.796 11.6285C32.4088 11.6087 32.518 11.976 32.518 12.1945C32.5081 19.4921 32.518 26.7898 32.5081 34.0776C32.5081 34.5045 32.5974 34.6832 33.074 34.6832C39.0909 34.6634 45.1177 34.6634 51.1345 34.6832C51.5714 34.6832 51.6906 34.5542 51.6906 34.1272C51.6906 30.4734 51.7005 26.8196 51.7005 23.1559ZM6.64348 41.0873C18.1013 41.0873 29.4698 41.0873 40.8483 41.0873C40.6894 40.1242 40.6795 40.1143 39.776 40.1143C36.6186 40.1143 33.4612 40.1143 30.2939 40.1143C28.338 40.1143 27.2359 39.0221 27.2359 37.0761C27.2259 35.5173 27.2359 33.9684 27.2359 32.4095C27.2359 32.2209 27.216 32.0223 27.2061 31.8237C27.0571 31.8138 26.9579 31.794 26.8685 31.794C21.7849 31.794 16.7113 31.784 11.6277 31.794C10.5852 31.794 9.91006 32.2904 9.53276 33.3031C9.18525 34.2166 8.8576 35.13 8.52002 36.0435C7.90444 37.7016 7.28885 39.3597 6.64348 41.0873ZM50.4594 9.58317C51.1147 9.58317 51.7203 9.58317 52.326 9.58317C53.3387 9.58317 53.716 9.95054 53.716 10.9533C53.716 19.0751 53.716 27.2068 53.716 35.3286C53.716 36.3513 53.3685 36.6988 52.3359 36.6988C45.5148 36.6988 38.7037 36.6988 31.8826 36.6988C30.8698 36.6988 30.5024 36.3215 30.5024 35.3187C30.5024 27.2068 30.5024 19.1049 30.5024 10.9931C30.5024 9.9704 30.8897 9.58317 31.9123 9.58317C32.518 9.58317 33.1237 9.58317 33.7392 9.58317C33.7392 9.34488 33.7392 9.17609 33.7392 8.95765C32.5875 8.95765 31.4854 8.95765 30.3833 8.95765C29.4103 8.95765 29.2514 9.10659 29.2514 10.0697C29.2514 19.0255 29.2514 27.9714 29.2514 36.9272C29.2514 37.9002 29.4301 38.0888 30.4032 38.0888C38.2171 38.0888 46.0212 38.0888 53.8352 38.0888C54.7983 38.0888 54.9571 37.93 54.9571 36.9569C54.9571 33.0152 54.9571 29.0834 54.9571 25.1416C54.9571 20.0779 54.9571 15.0142 54.9571 9.95054C54.9571 9.12644 54.7883 8.96758 53.9742 8.95765C53.0607 8.95765 52.1572 8.95765 51.2438 8.95765C50.9856 8.95765 50.7275 8.95765 50.4594 8.95765C50.4594 9.19595 50.4594 9.34488 50.4594 9.58317ZM35.8442 10.5661C35.9534 10.5959 35.9931 10.6158 36.0427 10.6158C40.044 10.6158 44.0454 10.6158 48.0566 10.6257C48.3445 10.6257 48.424 10.4867 48.414 10.2285C48.4041 9.53353 48.414 8.83851 48.414 8.14349C48.4041 6.83289 47.7687 6.19744 46.468 6.19744C43.6085 6.19744 40.7391 6.19744 37.8796 6.19744C37.6611 6.19744 37.4526 6.20737 37.2342 6.23716C36.559 6.33644 35.8938 6.95203 35.864 7.61726C35.8044 8.59029 35.8442 9.56331 35.8442 10.5661ZM37.3235 58.6911C37.3235 59.267 37.3136 59.823 37.3235 60.379C37.3434 61.6202 38.1179 62.474 39.3689 62.5435C40.2228 62.5832 41.0866 62.5832 41.9405 62.5435C42.9035 62.5038 43.7376 61.9478 43.8666 61.1237C44.0255 60.1705 43.9957 59.1777 44.0454 58.155C41.8014 59.0287 39.5774 58.4231 37.3235 58.6911ZM3.09888 58.2046C3.07903 58.2642 3.04924 58.3039 3.04924 58.3536C3.04924 59.0784 3.02938 59.8131 3.04924 60.5379C3.07903 61.6996 3.84355 62.4939 5.01515 62.5535C5.86903 62.5932 6.73283 62.5932 7.59664 62.5535C8.73846 62.5038 9.49305 61.7393 9.57248 60.5975C9.60227 60.2003 9.58241 59.8032 9.58241 59.406C9.58241 58.6415 9.58241 58.6812 8.83775 58.6415C6.93141 58.5224 4.97543 58.9692 3.09888 58.2046ZM43.9957 4.13225C43.8468 3.27837 42.8837 2.97057 41.9107 3.03015C41.027 3.07979 40.4313 3.46701 40.3121 4.13225C41.5334 4.13225 42.7546 4.13225 43.9957 4.13225Z" fill="#3A62FF"/>
<path d="M36.847 53.8558C35.7548 53.8558 34.6626 53.8657 33.5704 53.8558C32.6471 53.8459 32.2797 53.4785 32.2698 52.5551C32.2598 51.0956 32.2598 49.646 32.2698 48.1864C32.2797 47.2829 32.6471 46.9156 33.5307 46.9156C35.7647 46.9056 37.9987 46.9056 40.2228 46.9156C41.0866 46.9156 41.4639 47.2829 41.4738 48.1567C41.4837 49.646 41.4837 51.1353 41.4738 52.6246C41.4639 53.4884 41.0866 53.8459 40.2128 53.8558C39.0909 53.8657 37.9689 53.8558 36.847 53.8558ZM39.4185 48.9609C37.7008 48.9609 36.0328 48.9609 34.3052 48.9609C34.3052 49.7949 34.3151 50.5992 34.2953 51.4133C34.2853 51.7509 34.4144 51.8403 34.7321 51.8303C35.9732 51.8204 37.2143 51.8204 38.4554 51.8204C38.7632 51.8204 39.071 51.8204 39.4185 51.8204C39.4185 50.8474 39.4185 49.924 39.4185 48.9609Z" fill="#3A62FF"/>
<path d="M10.0193 53.8558C8.9271 53.8558 7.83493 53.8558 6.74276 53.8558C5.77967 53.8459 5.42223 53.4884 5.42223 52.5353C5.42223 51.0956 5.4123 49.6559 5.42223 48.2162C5.42223 47.2829 5.77967 46.9156 6.71298 46.9156C8.9271 46.9056 11.1412 46.9056 13.3554 46.9156C14.2688 46.9156 14.6163 47.273 14.6163 48.1765C14.6263 49.646 14.6263 51.1155 14.6163 52.5948C14.6163 53.4884 14.249 53.8459 13.3454 53.8558C12.2334 53.8657 11.1313 53.8558 10.0193 53.8558ZM12.71 48.9609C12.5313 48.951 12.4022 48.9311 12.2731 48.9311C10.7639 48.9311 9.26468 48.9212 7.7555 48.951C7.64629 48.951 7.45764 49.1893 7.45764 49.3183C7.42785 49.9935 7.45764 50.6786 7.43778 51.3537C7.42785 51.731 7.55693 51.8403 7.92429 51.8403C9.39376 51.8204 10.8632 51.8303 12.3426 51.8303C12.4717 51.8303 12.5908 51.8005 12.7199 51.7807C12.71 50.8275 12.71 49.924 12.71 48.9609Z" fill="#3A62FF"/>
<path d="M23.4927 50.8077C24.8927 50.8077 26.3026 50.8077 27.7025 50.8077C27.9309 50.8077 28.1692 50.8275 28.3876 50.8772C28.8245 50.9864 29.1124 51.3935 29.1124 51.8303C29.1124 52.287 28.7947 52.6743 28.328 52.7736C28.1394 52.8133 27.9309 52.8331 27.7422 52.8331C24.9125 52.8331 22.0927 52.8331 19.263 52.8331C18.3297 52.8331 17.8432 52.4757 17.8531 51.8105C17.863 51.1452 18.3496 50.7977 19.2829 50.7977C20.6828 50.8077 22.0828 50.8077 23.4927 50.8077Z" fill="#3A62FF"/>
<path d="M23.4728 49.9438C22.0729 49.9438 20.663 49.9438 19.263 49.9438C19.0843 49.9438 18.8956 49.9438 18.7169 49.9141C18.2006 49.8346 17.8432 49.4276 17.8432 48.9311C17.8432 48.4347 18.2006 48.0276 18.7269 47.9482C18.8857 47.9283 19.0545 47.9283 19.2233 47.9283C22.0629 47.9283 24.9125 47.9283 27.7522 47.9283C27.9011 47.9283 28.05 47.9283 28.199 47.9482C28.745 48.0177 29.1223 48.4347 29.1124 48.941C29.1124 49.4573 28.7351 49.8743 28.1791 49.924C27.7819 49.9637 27.3848 49.9438 26.9876 49.9438C25.826 49.9438 24.6444 49.9438 23.4728 49.9438Z" fill="#3A62FF"/>
<path d="M41.0866 24.5062C41.0866 23.275 41.0965 22.0935 41.0667 20.912C41.0667 20.773 40.7986 20.5148 40.6696 20.5247C40.5008 20.5347 40.3121 20.7332 40.1831 20.8921C40.1036 20.9815 40.1334 21.1503 40.0838 21.2694C39.9249 21.7063 39.5973 21.9346 39.1405 21.9247C38.6739 21.9247 38.3661 21.6765 38.2072 21.2396C38.1675 21.1304 38.1874 20.9914 38.1278 20.902C38.0285 20.7531 37.8796 20.5247 37.7505 20.5247C37.5916 20.5247 37.3533 20.6737 37.2739 20.8226C36.8271 21.6566 36.4895 21.9048 35.9137 21.746C35.3676 21.5971 35.1591 21.1403 35.2087 20.2269C35.4371 16.6724 38.6044 13.8129 42.2284 13.8923C45.9021 13.9816 48.7913 16.7319 49.0396 20.3957C49.0495 20.6042 49.0495 20.8325 48.9998 21.0311C48.9105 21.4382 48.6325 21.6963 48.2155 21.7559C47.8084 21.8254 47.4609 21.6864 47.2325 21.329C47.1233 21.1602 47.0935 20.9517 46.9644 20.8027C46.8552 20.6637 46.6666 20.5049 46.5176 20.5148C46.3786 20.5247 46.2198 20.7233 46.1205 20.8623C46.0411 20.9815 46.051 21.1503 46.0013 21.2893C45.8425 21.7063 45.5148 21.9148 45.078 21.9148C44.6411 21.9148 44.3234 21.6963 44.1546 21.2893C44.1149 21.1999 44.1049 21.1006 44.0851 21.0013C44.0255 20.7035 43.9163 20.4453 43.5489 20.485C43.1816 20.5247 43.122 20.8027 43.122 21.1006C43.122 22.4906 43.1319 23.8807 43.1121 25.2707C43.1021 26.1842 42.6553 26.8295 41.861 27.1075C40.749 27.4948 39.5377 26.6905 39.4582 25.5189C39.4086 24.7743 40.0143 24.2679 40.7391 24.4268C40.8483 24.4566 40.9376 24.4764 41.0866 24.5062ZM37.8994 18.4099C38.2171 18.529 38.5249 18.668 38.8526 18.7574C39.0313 18.8071 39.2696 18.817 39.4384 18.7475C40.2426 18.3801 41.027 18.3801 41.8312 18.7375C42 18.8071 42.2482 18.817 42.4071 18.7475C43.2312 18.3702 44.0255 18.3702 44.8397 18.7673C44.9489 18.8269 45.0978 18.8964 45.1971 18.8567C45.5943 18.7177 45.9716 18.5489 46.3588 18.3801C45.6936 16.8809 43.8071 15.8185 41.9603 15.888C40.1831 15.9575 38.376 17.0794 37.8994 18.4099Z" fill="#3A62FF"/>
<path d="M42.1589 31.0294C43.9659 31.0294 45.7631 31.0294 47.5701 31.0294C47.7687 31.0294 47.9673 31.0294 48.1658 31.0692C48.6325 31.1585 48.9502 31.5557 48.9601 32.0223C48.9701 32.4592 48.6722 32.8663 48.2453 32.9854C48.0566 33.0351 47.858 33.045 47.6595 33.045C43.9759 33.045 40.2823 33.045 36.5987 33.045C36.4697 33.045 36.3307 33.045 36.2016 33.0251C35.6456 32.9358 35.308 32.5386 35.3279 32.0025C35.3477 31.4862 35.6853 31.0989 36.2214 31.0592C36.7775 31.0195 37.3434 31.0394 37.9093 31.0294C39.3093 31.0294 40.7391 31.0294 42.1589 31.0294Z" fill="#3A62FF"/>
<path d="M42.1092 28.0011C43.8766 28.0011 45.6439 28.0011 47.4212 28.0011C47.5502 28.0011 47.6892 28.0011 47.8183 28.0011C48.5133 28.0409 48.9502 28.4182 48.9601 28.994C48.9701 29.5898 48.5233 30.0167 47.7985 30.0167C44.0156 30.0266 40.2228 30.0266 36.4399 30.0167C35.725 30.0167 35.3179 29.6195 35.308 29.0238C35.2981 28.4082 35.7151 28.0111 36.4498 28.0011C38.3363 27.9912 40.2228 28.0011 42.1092 28.0011Z" fill="#3A62FF"/>
<path d="M42.7248 40.1143C43.0227 40.8193 43.1121 41.5043 43.6482 42.0206C44.6014 42.944 45.5049 43.927 45.8028 45.2872C45.9219 45.8333 46.0013 46.3993 46.0013 46.9553C46.0212 51.3935 46.0113 55.8217 46.0113 60.2599C46.0113 62.8613 44.2837 64.5591 41.6724 64.569C40.9476 64.569 40.2128 64.5789 39.488 64.569C37.0853 64.5392 35.3676 62.8414 35.3179 60.4386C35.308 59.972 35.2981 59.5152 35.3179 59.0486C35.3279 58.7209 35.1988 58.5919 34.8811 58.6316C34.8116 58.6415 34.752 58.6316 34.6825 58.6316C27.2061 58.6316 19.7197 58.6316 12.2433 58.6316C12.0646 58.6316 11.8859 58.6316 11.6178 58.6316C11.6178 59.2074 11.6178 59.7436 11.6178 60.2798C11.6079 61.3024 11.3696 62.2457 10.7044 63.0499C9.91006 64.013 8.88739 64.5194 7.64629 64.5591C6.87184 64.5889 6.08746 64.569 5.31301 64.569C2.77123 64.5591 1.04362 62.9506 1.02376 60.4287C0.984044 55.9607 1.0039 51.4927 1.01383 47.0248C1.02376 45.3667 1.61949 43.927 2.91024 42.8646C3.99248 41.9809 4.62792 40.8788 5.06479 39.5782C5.84917 37.2647 6.74276 34.9811 7.59664 32.6875C8.33138 30.7117 9.67177 29.7685 11.7866 29.7685C16.6815 29.7585 21.5864 29.7685 26.4813 29.7685C27.2359 29.7685 27.2359 29.7685 27.2359 29.0238C27.2359 22.6495 27.2458 16.2851 27.2359 9.91082C27.2359 8.71936 27.6429 7.75627 28.745 7.23004C29.1422 7.04139 29.6287 6.97189 30.0854 6.96196C31.2471 6.92225 32.3989 6.9421 33.5605 6.95203C33.8286 6.95203 33.9676 6.8726 34.0768 6.61445C34.6924 5.01591 35.8938 4.2216 37.5817 4.17196C37.9888 4.16203 38.1377 4.04289 38.2469 3.64573C38.6639 2.12662 40.0341 1.07417 41.6029 1.01459C42.427 0.984807 43.2511 0.96495 44.0354 1.33232C45.068 1.81883 45.7631 2.60321 46.051 3.70531C46.1403 4.03296 46.2595 4.16203 46.6169 4.16203C48.3743 4.18189 49.5956 4.98612 50.2509 6.64424C50.3005 6.78324 50.5587 6.92225 50.7275 6.92225C51.8494 6.9421 52.9813 6.93217 54.1033 6.93217C55.9004 6.97189 56.9925 8.02435 56.9925 9.83139C57.0025 18.9361 57.0025 28.0309 56.9925 37.1357C56.9925 39.0221 55.8607 40.1143 53.9742 40.1143C50.4495 40.1143 46.9247 40.1143 43.4 40.1143C43.2113 40.1143 43.0128 40.1143 42.7248 40.1143ZM23.4728 56.6259C29.5294 56.6259 35.586 56.6259 41.6327 56.6259C43.1816 56.6259 43.9957 55.8118 43.9957 54.2728C43.9957 51.8601 43.9957 49.4474 43.9957 47.0248C43.9957 46.7964 43.9759 46.5581 43.956 46.3298C43.8567 45.178 43.1418 44.3837 42.3674 43.6093C42.0298 43.2717 41.7022 43.1128 41.2057 43.1128C29.8372 43.1227 18.4786 43.1426 7.11013 43.1029C6.02789 43.1029 5.22365 43.361 4.43928 44.1256C3.50597 45.039 2.98967 46.0517 3.00952 47.3624C3.03931 49.6658 3.01945 51.9594 3.01945 54.2629C3.01945 55.8813 3.76412 56.6259 5.39244 56.6259C11.4292 56.6259 17.456 56.6259 23.4728 56.6259ZM51.7005 23.1559C51.7005 19.4822 51.7005 15.8085 51.6906 12.1349C51.6906 11.9562 51.5416 11.6384 51.4721 11.6384C51.1147 11.6384 50.519 11.6384 50.4495 11.8072C50.1615 12.5717 49.6055 12.6412 48.9403 12.6412C44.3929 12.6412 39.8455 12.6412 35.2881 12.6412C35.1094 12.6412 34.9208 12.6412 34.7421 12.6214C34.3151 12.5717 33.9974 12.3533 33.8485 11.9363C33.64 11.3306 33.1534 11.6484 32.796 11.6285C32.4088 11.6087 32.518 11.976 32.518 12.1945C32.5081 19.4921 32.518 26.7898 32.5081 34.0776C32.5081 34.5045 32.5974 34.6832 33.074 34.6832C39.0909 34.6634 45.1177 34.6634 51.1345 34.6832C51.5714 34.6832 51.6906 34.5542 51.6906 34.1272C51.6906 30.4734 51.7005 26.8196 51.7005 23.1559ZM6.64348 41.0873C18.1013 41.0873 29.4698 41.0873 40.8483 41.0873C40.6894 40.1242 40.6795 40.1143 39.776 40.1143C36.6186 40.1143 33.4612 40.1143 30.2939 40.1143C28.338 40.1143 27.2359 39.0221 27.2359 37.0761C27.2259 35.5173 27.2359 33.9684 27.2359 32.4095C27.2359 32.2209 27.216 32.0223 27.2061 31.8237C27.0571 31.8138 26.9579 31.794 26.8685 31.794C21.7849 31.794 16.7113 31.784 11.6277 31.794C10.5852 31.794 9.91006 32.2904 9.53276 33.3031C9.18525 34.2166 8.8576 35.13 8.52002 36.0435C7.90444 37.7016 7.28885 39.3597 6.64348 41.0873ZM50.4594 9.58317C51.1147 9.58317 51.7203 9.58317 52.326 9.58317C53.3387 9.58317 53.716 9.95054 53.716 10.9533C53.716 19.0751 53.716 27.2068 53.716 35.3286C53.716 36.3513 53.3685 36.6988 52.3359 36.6988C45.5148 36.6988 38.7037 36.6988 31.8826 36.6988C30.8698 36.6988 30.5024 36.3215 30.5024 35.3187C30.5024 27.2068 30.5024 19.1049 30.5024 10.9931C30.5024 9.9704 30.8897 9.58317 31.9123 9.58317C32.518 9.58317 33.1237 9.58317 33.7392 9.58317C33.7392 9.34488 33.7392 9.17609 33.7392 8.95765C32.5875 8.95765 31.4854 8.95765 30.3833 8.95765C29.4103 8.95765 29.2514 9.10659 29.2514 10.0697C29.2514 19.0255 29.2514 27.9714 29.2514 36.9272C29.2514 37.9002 29.4301 38.0888 30.4032 38.0888C38.2171 38.0888 46.0212 38.0888 53.8352 38.0888C54.7983 38.0888 54.9571 37.93 54.9571 36.9569C54.9571 33.0152 54.9571 29.0834 54.9571 25.1416C54.9571 20.0779 54.9571 15.0142 54.9571 9.95054C54.9571 9.12644 54.7883 8.96758 53.9742 8.95765C53.0607 8.95765 52.1572 8.95765 51.2438 8.95765C50.9856 8.95765 50.7275 8.95765 50.4594 8.95765C50.4594 9.19595 50.4594 9.34488 50.4594 9.58317ZM35.8442 10.5661C35.9534 10.5959 35.9931 10.6158 36.0427 10.6158C40.044 10.6158 44.0454 10.6158 48.0566 10.6257C48.3445 10.6257 48.424 10.4867 48.414 10.2285C48.4041 9.53353 48.414 8.83851 48.414 8.14349C48.4041 6.83289 47.7687 6.19744 46.468 6.19744C43.6085 6.19744 40.7391 6.19744 37.8796 6.19744C37.6611 6.19744 37.4526 6.20737 37.2342 6.23716C36.559 6.33644 35.8938 6.95203 35.864 7.61726C35.8044 8.59029 35.8442 9.56331 35.8442 10.5661ZM37.3235 58.6911C37.3235 59.267 37.3136 59.823 37.3235 60.379C37.3434 61.6202 38.1179 62.474 39.3689 62.5435C40.2228 62.5832 41.0866 62.5832 41.9405 62.5435C42.9035 62.5038 43.7376 61.9478 43.8666 61.1237C44.0255 60.1705 43.9957 59.1777 44.0454 58.155C41.8014 59.0287 39.5774 58.4231 37.3235 58.6911ZM3.09888 58.2046C3.07903 58.2642 3.04924 58.3039 3.04924 58.3536C3.04924 59.0784 3.02938 59.8131 3.04924 60.5379C3.07903 61.6996 3.84355 62.4939 5.01515 62.5535C5.86903 62.5932 6.73283 62.5932 7.59664 62.5535C8.73846 62.5038 9.49305 61.7393 9.57248 60.5975C9.60227 60.2003 9.58241 59.8032 9.58241 59.406C9.58241 58.6415 9.58241 58.6812 8.83775 58.6415C6.93141 58.5224 4.97543 58.9692 3.09888 58.2046ZM43.9957 4.13225C43.8468 3.27837 42.8837 2.97057 41.9107 3.03015C41.027 3.07979 40.4313 3.46701 40.3121 4.13225C41.5334 4.13225 42.7546 4.13225 43.9957 4.13225Z" stroke="#3A62FF" stroke-width="0.3"/>
<path d="M36.847 53.8558C35.7548 53.8558 34.6626 53.8657 33.5704 53.8558C32.6471 53.8459 32.2797 53.4785 32.2698 52.5551C32.2598 51.0956 32.2598 49.646 32.2698 48.1864C32.2797 47.2829 32.6471 46.9156 33.5307 46.9156C35.7647 46.9056 37.9987 46.9056 40.2228 46.9156C41.0866 46.9156 41.4639 47.2829 41.4738 48.1567C41.4837 49.646 41.4837 51.1353 41.4738 52.6246C41.4639 53.4884 41.0866 53.8459 40.2128 53.8558C39.0909 53.8657 37.9689 53.8558 36.847 53.8558ZM39.4185 48.9609C37.7008 48.9609 36.0328 48.9609 34.3052 48.9609C34.3052 49.7949 34.3151 50.5992 34.2953 51.4133C34.2853 51.7509 34.4144 51.8403 34.7321 51.8303C35.9732 51.8204 37.2143 51.8204 38.4554 51.8204C38.7632 51.8204 39.071 51.8204 39.4185 51.8204C39.4185 50.8474 39.4185 49.924 39.4185 48.9609Z" stroke="#3A62FF" stroke-width="0.3"/>
<path d="M10.0193 53.8558C8.9271 53.8558 7.83493 53.8558 6.74276 53.8558C5.77967 53.8459 5.42223 53.4884 5.42223 52.5353C5.42223 51.0956 5.4123 49.6559 5.42223 48.2162C5.42223 47.2829 5.77967 46.9156 6.71298 46.9156C8.9271 46.9056 11.1412 46.9056 13.3554 46.9156C14.2688 46.9156 14.6163 47.273 14.6163 48.1765C14.6263 49.646 14.6263 51.1155 14.6163 52.5948C14.6163 53.4884 14.249 53.8459 13.3454 53.8558C12.2334 53.8657 11.1313 53.8558 10.0193 53.8558ZM12.71 48.9609C12.5313 48.951 12.4022 48.9311 12.2731 48.9311C10.7639 48.9311 9.26468 48.9212 7.7555 48.951C7.64629 48.951 7.45764 49.1893 7.45764 49.3183C7.42785 49.9935 7.45764 50.6786 7.43778 51.3537C7.42785 51.731 7.55693 51.8403 7.92429 51.8403C9.39376 51.8204 10.8632 51.8303 12.3426 51.8303C12.4717 51.8303 12.5908 51.8005 12.7199 51.7807C12.71 50.8275 12.71 49.924 12.71 48.9609Z" stroke="#3A62FF" stroke-width="0.3"/>
<path d="M23.4927 50.8077C24.8927 50.8077 26.3026 50.8077 27.7025 50.8077C27.9309 50.8077 28.1692 50.8275 28.3876 50.8772C28.8245 50.9864 29.1124 51.3935 29.1124 51.8303C29.1124 52.287 28.7947 52.6743 28.328 52.7736C28.1394 52.8133 27.9309 52.8331 27.7422 52.8331C24.9125 52.8331 22.0927 52.8331 19.263 52.8331C18.3297 52.8331 17.8432 52.4757 17.8531 51.8105C17.863 51.1452 18.3496 50.7977 19.2829 50.7977C20.6828 50.8077 22.0828 50.8077 23.4927 50.8077Z" stroke="#3A62FF" stroke-width="0.3"/>
<path d="M23.4728 49.9438C22.0729 49.9438 20.663 49.9438 19.263 49.9438C19.0843 49.9438 18.8956 49.9438 18.7169 49.9141C18.2006 49.8346 17.8432 49.4276 17.8432 48.9311C17.8432 48.4347 18.2006 48.0276 18.7269 47.9482C18.8857 47.9283 19.0545 47.9283 19.2233 47.9283C22.0629 47.9283 24.9125 47.9283 27.7522 47.9283C27.9011 47.9283 28.05 47.9283 28.199 47.9482C28.745 48.0177 29.1223 48.4347 29.1124 48.941C29.1124 49.4573 28.7351 49.8743 28.1791 49.924C27.7819 49.9637 27.3848 49.9438 26.9876 49.9438C25.826 49.9438 24.6444 49.9438 23.4728 49.9438Z" stroke="#3A62FF" stroke-width="0.3"/>
<path d="M41.0866 24.5062C41.0866 23.275 41.0965 22.0935 41.0667 20.912C41.0667 20.773 40.7986 20.5148 40.6696 20.5247C40.5008 20.5347 40.3121 20.7332 40.1831 20.8921C40.1036 20.9815 40.1334 21.1503 40.0838 21.2694C39.9249 21.7063 39.5973 21.9346 39.1405 21.9247C38.6739 21.9247 38.3661 21.6765 38.2072 21.2396C38.1675 21.1304 38.1874 20.9914 38.1278 20.902C38.0285 20.7531 37.8796 20.5247 37.7505 20.5247C37.5916 20.5247 37.3533 20.6737 37.2739 20.8226C36.8271 21.6566 36.4895 21.9048 35.9137 21.746C35.3676 21.5971 35.1591 21.1403 35.2087 20.2269C35.4371 16.6724 38.6044 13.8129 42.2284 13.8923C45.9021 13.9816 48.7913 16.7319 49.0396 20.3957C49.0495 20.6042 49.0495 20.8325 48.9998 21.0311C48.9105 21.4382 48.6325 21.6963 48.2155 21.7559C47.8084 21.8254 47.4609 21.6864 47.2325 21.329C47.1233 21.1602 47.0935 20.9517 46.9644 20.8027C46.8552 20.6637 46.6666 20.5049 46.5176 20.5148C46.3786 20.5247 46.2198 20.7233 46.1205 20.8623C46.0411 20.9815 46.051 21.1503 46.0013 21.2893C45.8425 21.7063 45.5148 21.9148 45.078 21.9148C44.6411 21.9148 44.3234 21.6963 44.1546 21.2893C44.1149 21.1999 44.1049 21.1006 44.0851 21.0013C44.0255 20.7035 43.9163 20.4453 43.5489 20.485C43.1816 20.5247 43.122 20.8027 43.122 21.1006C43.122 22.4906 43.1319 23.8807 43.1121 25.2707C43.1021 26.1842 42.6553 26.8295 41.861 27.1075C40.749 27.4948 39.5377 26.6905 39.4582 25.5189C39.4086 24.7743 40.0143 24.2679 40.7391 24.4268C40.8483 24.4566 40.9376 24.4764 41.0866 24.5062ZM37.8994 18.4099C38.2171 18.529 38.5249 18.668 38.8526 18.7574C39.0313 18.8071 39.2696 18.817 39.4384 18.7475C40.2426 18.3801 41.027 18.3801 41.8312 18.7375C42 18.8071 42.2482 18.817 42.4071 18.7475C43.2312 18.3702 44.0255 18.3702 44.8397 18.7673C44.9489 18.8269 45.0978 18.8964 45.1971 18.8567C45.5943 18.7177 45.9716 18.5489 46.3588 18.3801C45.6936 16.8809 43.8071 15.8185 41.9603 15.888C40.1831 15.9575 38.376 17.0794 37.8994 18.4099Z" stroke="#3A62FF" stroke-width="0.3"/>
<path d="M42.1589 31.0294C43.9659 31.0294 45.7631 31.0294 47.5701 31.0294C47.7687 31.0294 47.9673 31.0294 48.1658 31.0692C48.6325 31.1585 48.9502 31.5557 48.9601 32.0223C48.9701 32.4592 48.6722 32.8663 48.2453 32.9854C48.0566 33.0351 47.858 33.045 47.6595 33.045C43.9759 33.045 40.2823 33.045 36.5987 33.045C36.4697 33.045 36.3307 33.045 36.2016 33.0251C35.6456 32.9358 35.308 32.5386 35.3279 32.0025C35.3477 31.4862 35.6853 31.0989 36.2214 31.0592C36.7775 31.0195 37.3434 31.0394 37.9093 31.0294C39.3093 31.0294 40.7391 31.0294 42.1589 31.0294Z" stroke="#3A62FF" stroke-width="0.3"/>
<path d="M42.1092 28.0011C43.8766 28.0011 45.6439 28.0011 47.4212 28.0011C47.5502 28.0011 47.6892 28.0011 47.8183 28.0011C48.5133 28.0409 48.9502 28.4182 48.9601 28.994C48.9701 29.5898 48.5233 30.0167 47.7985 30.0167C44.0156 30.0266 40.2228 30.0266 36.4399 30.0167C35.725 30.0167 35.3179 29.6195 35.308 29.0238C35.2981 28.4082 35.7151 28.0111 36.4498 28.0011C38.3363 27.9912 40.2228 28.0011 42.1092 28.0011Z" stroke="#3A62FF" stroke-width="0.3"/>
</svg>
