<svg width="58" height="56" viewBox="0 0 58 56" fill="none" xmlns="http://www.w3.org/2000/svg">
<path d="M48.4594 30.1603C48.3063 30.3645 48.1751 30.4374 47.9199 30.3426C47.5117 30.1895 47.0888 30.0874 46.666 29.9781C46.4546 29.9271 46.3671 29.8177 46.3744 29.5917C46.389 29.2053 46.3963 28.8116 46.3598 28.4252C46.3088 27.9441 45.9443 27.6525 45.4923 27.6816C45.0621 27.7108 44.7559 28.0389 44.7486 28.5127C44.7414 29.0012 44.7341 29.4823 44.7414 29.9708C44.7559 30.678 45.1277 31.2029 45.8057 31.4143C46.6879 31.6913 47.57 31.9465 48.4594 32.1943C49.0135 32.3547 49.3926 32.1214 49.5748 31.5674C49.6404 31.3778 49.7425 31.181 49.8737 31.0425C50.1508 30.7509 50.7632 30.6998 51.1423 30.8967C51.4266 31.0498 51.5141 31.3122 51.4703 31.6038C51.3172 32.6099 51.1641 33.6232 50.9892 34.622C50.9017 35.1032 50.4934 35.3802 50.005 35.3583C49.4655 35.3292 49.1374 34.9282 49.1374 34.3085C49.1374 33.6743 48.8458 33.3754 48.2115 33.3535C47.3367 33.3243 46.4619 33.2806 45.587 33.266C44.7414 33.2441 44.1946 33.6159 43.9321 34.4179C43.4801 35.8395 42.8532 37.1736 42.095 38.4494C41.6648 39.1712 41.7523 39.8346 42.3428 40.4397C42.8167 40.9281 43.3052 41.402 43.7936 41.8759C44.2529 42.3279 44.4862 42.3643 45.0621 42.0946C45.4996 41.8905 45.937 41.9706 46.214 42.3133C46.491 42.6559 46.491 43.1079 46.1921 43.487C45.9443 43.8005 45.6891 44.114 45.4194 44.4129C45.1132 44.7628 44.6757 44.8503 44.2967 44.6608C43.8957 44.4566 43.7207 44.0703 43.8228 43.5891C43.9176 43.1079 43.8082 42.809 43.3999 42.5685C42.7511 42.1821 42.1023 41.803 41.4461 41.4385C40.7754 41.0666 40.1339 41.1395 39.5652 41.6499C39.2445 41.9342 38.9456 42.2331 38.6248 42.5101C36.9261 43.9755 35.0234 45.0982 32.9019 45.8491C31.8813 46.2136 31.5678 46.6802 31.6407 47.7737C31.6917 48.5611 31.7719 49.3484 31.8448 50.1358C31.9031 50.843 32.1874 51.0908 32.9092 51.069C33.456 51.0471 33.8496 51.3241 33.9444 51.7834C34.0392 52.2573 33.7767 52.7676 33.281 52.8915C32.2458 53.1467 31.196 53.3581 30.1534 53.5768C29.8764 53.6351 29.6504 53.5258 29.5192 53.256C29.2057 52.6072 29.4827 51.9 30.1462 51.6376C30.7221 51.4116 30.8971 51.0398 30.7002 50.4566C30.4451 49.7202 30.1826 48.9912 29.9274 48.2622C29.5119 47.0666 29.0891 46.7823 27.8133 46.8479C26.224 46.9353 24.6566 46.7968 23.111 46.4469C20.3407 45.8199 17.8547 44.6024 15.6603 42.7944C15.0042 42.255 14.4137 42.2185 13.6773 42.6414C13.0431 43.0059 12.4161 43.3777 11.7892 43.7422C10.7102 44.3764 10.6592 44.7118 11.4757 45.6377C12.161 46.4104 12.1391 47.4675 11.4173 48.1164C10.7029 48.7652 9.65309 48.6996 8.94593 47.9341C8.11484 47.0447 7.29103 46.1553 6.46723 45.2586C6.41619 45.2075 6.36516 45.1492 6.32142 45.0982C5.85484 44.5004 5.78194 43.8515 6.13187 43.1881C6.46723 42.5466 7.03587 42.2695 7.75761 42.306C8.36271 42.3352 8.74909 42.6997 9.12819 43.1079C9.66767 43.6984 10.1999 43.6547 10.6519 42.9986C11.0966 42.3643 11.534 41.7228 11.9787 41.0812C12.6494 40.1043 12.664 39.7034 12.0224 38.6973C10.1853 35.8176 9.23754 32.6755 9.21567 29.2636C9.20838 28.4909 9.29587 27.7108 9.32503 26.938C9.35419 26.2527 9.06987 25.706 8.43561 25.4435C7.54619 25.0644 6.62761 24.7291 5.71632 24.4083C5.24245 24.2406 4.84878 24.4374 4.65923 24.8603C4.302 25.6331 4.076 25.757 3.24491 25.6331C2.77833 25.5602 2.58878 25.3269 2.69085 24.8822C2.91684 23.898 3.14284 22.9211 3.39071 21.9442C3.53652 21.3901 4.01768 21.0547 4.48426 21.1495C5.00916 21.2516 5.30078 21.6817 5.25703 22.2941C5.21329 22.9065 5.50491 23.2491 6.12458 23.3074C6.99213 23.3949 7.86697 23.4824 8.73451 23.5772C9.49271 23.6574 10.1124 23.3366 10.4113 22.6295C10.9435 21.3464 11.5923 20.1289 12.3651 18.977C12.8171 18.3063 12.7515 17.6064 12.2339 17.0013C11.6652 16.3379 11.082 15.6818 10.4988 15.0329C10.0905 14.5737 9.66767 14.5591 9.1938 14.9455C8.7418 15.3246 8.20961 15.3391 7.8451 14.9892C7.48058 14.6393 7.466 14.0488 7.8451 13.604C8.40645 12.9479 8.97509 12.2991 9.55832 11.6648C9.95199 11.2274 10.4769 11.1837 10.8924 11.519C11.2788 11.8252 11.3372 12.3574 11.0455 12.8313C10.681 13.4145 10.7612 13.7936 11.3372 14.1873C12.037 14.6684 12.7369 15.1496 13.4441 15.6162C14.1804 16.1119 14.8365 16.0828 15.5145 15.5141C18.2192 13.2614 21.303 11.8981 24.7951 11.4753C25.7136 11.3659 26.1802 10.892 26.3115 9.98076C26.4281 9.17883 26.5302 8.3696 26.6176 7.56038C26.7051 6.76573 26.5229 6.53244 25.7428 6.38664C25.2179 6.28457 24.8971 5.8909 24.9263 5.38786C24.9627 4.88483 25.3418 4.51303 25.8667 4.50574C26.778 4.49116 27.6893 4.49116 28.6006 4.50574C29.1109 4.51303 29.5046 4.89941 29.5411 5.39515C29.5702 5.86902 29.2422 6.31373 28.7464 6.36477C28.0393 6.43767 27.7112 6.82406 27.8351 7.63328C27.9591 8.46438 28.0465 9.29547 28.1559 10.1266C28.2507 10.8264 28.7391 11.3659 29.3953 11.4899C29.9056 11.5919 30.4232 11.6867 30.9335 11.7742C31.4147 11.8617 31.8156 11.5919 31.9177 11.1326C32.0125 10.7025 31.7427 10.287 31.2834 10.1776C30.8898 10.0901 30.4961 10.0099 30.1024 9.9516C29.891 9.92244 29.7744 9.84953 29.7525 9.61624C29.7014 9.13508 29.6358 8.65392 29.5629 8.17276C29.5265 7.94676 29.6067 7.83012 29.8108 7.72076C30.8898 7.13025 31.3928 5.9638 31.0939 4.78277C30.8096 3.66006 29.7744 2.86542 28.5642 2.85813C27.6675 2.85084 26.7635 2.84355 25.8667 2.86542C25.5606 2.87271 25.2325 2.92374 24.9482 3.04038C23.9421 3.44135 23.3662 4.19225 23.2933 5.27851C23.2204 6.35748 23.7015 7.18128 24.6347 7.72076C24.8534 7.8447 24.9263 7.96134 24.8826 8.20192C24.8096 8.63205 24.7659 9.06947 24.7295 9.50689C24.7076 9.73289 24.6274 9.84224 24.3795 9.87141C22.6736 10.0901 21.026 10.5348 19.444 11.2128C19.1961 11.3149 19.0795 11.2784 18.9555 11.0451C18.6348 10.4182 18.2994 9.7985 17.9568 9.18612C17.6724 8.66121 17.2131 8.49354 16.783 8.73412C16.3456 8.9747 16.2435 9.43399 16.5133 9.95889C16.834 10.5713 17.1548 11.1837 17.4975 11.7888C17.6214 12.0075 17.5704 12.1095 17.3662 12.248C16.4477 12.8604 15.5437 13.4874 14.6397 14.1289C14.4793 14.2456 14.3626 14.2748 14.1877 14.1508C13.7867 13.8592 13.3712 13.5822 12.9483 13.3124C12.7806 13.2031 12.7806 13.0864 12.7879 12.8896C12.8171 12.4376 12.8754 11.9491 12.7515 11.5263C12.1755 9.56521 9.78432 9.02573 8.38458 10.513C7.77948 11.1618 7.20355 11.8325 6.62032 12.5032C5.78194 13.4655 5.67987 14.7778 6.35058 15.7693C7.02858 16.768 8.23148 17.1398 9.44896 16.7024C9.65309 16.6295 9.76245 16.6806 9.88638 16.8264C10.1853 17.1763 10.4842 17.5262 10.805 17.8616C10.9653 18.0293 10.9289 18.1532 10.8268 18.3427C10.229 19.4363 9.63122 20.5298 9.05529 21.6453C8.93135 21.8858 8.80742 21.9587 8.55226 21.9223C8.09297 21.8567 7.63368 21.8421 7.17439 21.7692C7.04316 21.7473 6.87548 21.6088 6.83903 21.4849C6.45265 20.2455 5.46845 19.48 4.27284 19.5092C3.07723 19.5384 2.07117 20.384 1.76498 21.6234C1.53169 22.6076 1.29111 23.5991 1.05782 24.5905C0.831816 25.531 1.28381 26.5881 2.14407 27.0036C3.23033 27.5285 4.73942 27.514 5.65071 26.4277C5.78923 26.26 5.92774 26.2309 6.12458 26.3111C6.55471 26.486 6.97755 26.6537 7.41497 26.7995C7.64097 26.8724 7.67013 27.0036 7.66284 27.2151C7.62639 28.0972 7.58993 28.9866 7.58993 29.8687C7.58993 30.1531 7.49516 30.2551 7.23271 30.2843C6.66406 30.3499 6.10271 30.4301 5.53407 30.5176C5.03833 30.5905 4.71026 30.9769 4.76858 31.407C4.82691 31.8881 5.24974 32.2016 5.77465 32.1287C6.32871 32.0558 6.88277 31.9902 7.43684 31.8954C7.692 31.8517 7.7649 31.9319 7.81593 32.1798C8.00548 33.0692 8.20961 33.9586 8.43561 34.8334C8.58871 35.4312 8.61787 35.4239 8.07838 35.7083C7.89613 35.803 7.71387 35.8978 7.53161 35.9999C7.05774 36.2623 6.89006 36.707 7.09419 37.1226C7.3129 37.56 7.78677 37.6985 8.28251 37.4579C8.57413 37.3121 8.86574 37.159 9.16464 37.0059C9.70412 37.9537 10.229 38.865 10.7466 39.7836C10.7758 39.8346 10.7758 39.9366 10.7393 39.9877C10.4259 40.4616 10.0978 40.9208 9.76974 41.402C9.63122 41.3218 9.54374 41.2635 9.44896 41.2052C8.03464 40.2939 6.23394 40.5417 5.11123 41.7884C4.03226 42.984 3.95936 44.8576 5.02374 46.1043C5.97149 47.2124 6.96297 48.2841 7.99819 49.312C9.048 50.3618 10.6956 50.5003 11.9787 49.7494C13.2253 49.0204 13.8669 47.5332 13.517 46.1188C13.4149 45.7106 13.2326 45.3315 13.0722 44.9086C13.4513 44.6899 13.8377 44.4712 14.2168 44.2306C14.4574 44.0775 14.6105 44.0994 14.8584 44.2598C15.9957 45.018 17.1621 45.747 18.314 46.4833C18.4088 46.549 18.5181 46.6 18.6275 46.6656C18.3796 47.2561 18.1317 47.8102 17.9057 48.3788C17.7016 48.8892 17.8693 49.3776 18.3067 49.5453C18.766 49.7275 19.1888 49.5234 19.4148 49.0058C19.6189 48.5392 19.8377 48.0726 20.0126 47.5988C20.1074 47.329 20.2459 47.3217 20.4792 47.3946C21.2811 47.6352 22.0831 47.8758 22.8923 48.0799C23.1839 48.1528 23.2714 48.2622 23.286 48.5611C23.3006 48.8308 23.388 49.137 23.5338 49.363C23.7234 49.6401 24.0587 49.6546 24.3649 49.5526C24.7149 49.4359 24.8971 49.1662 24.8971 48.8017C24.8971 48.5173 24.9919 48.4299 25.2835 48.4444C26.1802 48.4809 27.0769 48.4663 27.9809 48.4955C28.0976 48.5028 28.2798 48.6121 28.3236 48.7215C28.5204 49.2026 28.6881 49.6984 28.8412 50.2014C28.8704 50.2962 28.8266 50.4711 28.7464 50.5368C27.9226 51.2293 27.682 52.1042 27.7914 53.1467C27.9372 54.5683 29.1401 55.4796 30.5398 55.188C31.5022 54.9838 32.4645 54.7797 33.4268 54.5756C34.637 54.3131 35.5264 53.3289 35.5847 52.1844C35.6503 50.9159 34.9505 49.9244 33.7111 49.5088C33.5799 49.4651 33.4195 49.3193 33.3976 49.2026C33.3247 48.7361 33.3174 48.2622 33.2664 47.7883C33.2445 47.5696 33.3174 47.4675 33.5216 47.3801C34.5495 46.9208 35.5774 46.4469 36.5908 45.9584C36.8241 45.8491 36.948 45.8418 37.0938 46.0678C37.3563 46.4615 37.6479 46.8406 37.9395 47.2124C38.1582 47.4894 38.4571 47.5696 38.7925 47.4748C39.1132 47.3873 39.3465 47.1541 39.3538 46.8333C39.3611 46.5854 39.259 46.3084 39.1278 46.097C38.8799 45.6887 38.5738 45.3169 38.304 44.9451C39.0768 44.2744 39.8058 43.6328 40.5421 43.0132C40.6005 42.9621 40.7754 42.984 40.8629 43.0277C41.2056 43.21 41.5482 43.3923 41.869 43.6183C41.9929 43.7057 42.1096 43.888 42.1241 44.0338C42.2554 45.1128 42.7948 45.8928 43.8082 46.2573C44.8361 46.6292 45.7766 46.4104 46.5494 45.6158C46.9139 45.244 47.2492 44.8357 47.5481 44.4129C48.1459 43.5672 48.2261 42.6486 47.7523 41.7301C47.2857 40.8406 46.5129 40.2866 45.5141 40.3959C44.7559 40.4834 44.3112 40.2064 43.8884 39.6888C43.8447 39.6305 43.7936 39.5794 43.7353 39.5357C43.5166 39.3826 43.5385 39.2222 43.6697 39.0108C44.3987 37.8152 44.9674 36.5394 45.4048 35.2125C45.485 34.9719 45.6016 34.9136 45.8276 34.9282C46.2869 34.9574 46.7535 34.9792 47.2128 34.9792C47.4606 34.9792 47.5627 35.074 47.6429 35.3146C48.0439 36.4665 49.1739 37.1517 50.3913 37.0132C51.5505 36.8893 52.4764 35.9561 52.6441 34.7678C52.7607 33.9513 52.8992 33.1348 53.045 32.3256C53.1981 31.4289 53.1544 30.5905 52.4837 29.876C51.6161 28.9501 49.4801 28.7825 48.4594 30.1603Z" fill="#3A62FF"/>
<path d="M56.3257 19.7498C52.8409 14.18 49.3999 8.58831 45.9224 3.01122C44.2456 0.321098 40.6442 0.335679 38.9529 3.01851C38.3405 3.99541 35.9784 7.83012 34.5787 10.0974C34.5349 10.1484 34.4985 10.1995 34.462 10.2578C34.1996 10.666 33.9517 11.0816 33.6965 11.4971C31.9687 14.282 30.2336 17.0669 28.5131 19.8518C27.7331 21.1131 27.6383 22.4472 28.3017 23.774C29.0526 25.2831 30.3211 26.034 31.9979 26.0413C35.4754 26.0559 38.9456 26.0486 42.423 26.0486C45.8641 26.0486 49.2978 26.0486 52.7388 26.0486C53.4897 26.0486 54.2115 25.9247 54.8822 25.5674C56.712 24.5833 57.7691 22.0608 56.3257 19.7498ZM55.0134 23.22C54.5104 24.0729 53.7157 24.4083 52.7461 24.401C45.8786 24.3937 39.0185 24.401 32.151 24.401C32.0198 24.401 31.8813 24.401 31.75 24.3937C30.9408 24.3062 30.292 23.949 29.8764 23.2345C29.3515 22.3378 29.439 21.4557 29.9858 20.5882C31.6261 17.9564 33.2591 15.3173 34.8921 12.6782C34.9505 12.6053 35.0161 12.5178 35.0744 12.4303C35.869 11.1545 39.5798 5.1327 40.3745 3.8569C40.8848 3.03309 41.6284 2.61026 42.598 2.66858C43.4656 2.71961 44.0925 3.16432 44.5445 3.90064C45.7474 5.85444 46.9649 7.80096 48.1751 9.75476C50.4205 13.378 52.6659 17.0013 54.9186 20.6173C55.4435 21.463 55.531 22.3378 55.0134 23.22Z" fill="#3A62FF"/>
<path d="M53.3731 21.2297C50.9308 17.2857 48.4813 13.3489 46.039 9.40483C45.0986 7.88844 44.1581 6.37206 43.2104 4.85567C42.7803 4.17767 42.1096 4.17767 41.6721 4.85567C41.6211 4.93587 41.5628 5.01606 41.5118 5.10354C38.6102 9.77663 35.716 14.4497 32.8144 19.1228C32.3333 19.8956 31.8448 20.6611 31.3782 21.4484C30.9845 22.1045 31.3491 22.7315 32.1218 22.7607C32.2531 22.768 32.3916 22.7607 32.5228 22.7607C36.1315 22.7607 39.7402 22.7607 43.3489 22.7607C44.2456 22.7607 48.7948 22.768 49.6915 22.7534C49.7206 22.7534 49.7425 22.7534 49.7644 22.7461C50.8069 22.7607 51.8494 22.768 52.8919 22.7388C53.5116 22.7169 53.8251 22.0973 53.5553 21.5359C53.5043 21.4338 53.4387 21.3318 53.3731 21.2297ZM49.7061 21.1276C49.6988 21.1276 49.6915 21.1276 49.6842 21.1276C49.5603 21.1276 49.4436 21.1276 49.3197 21.1276C45.4412 21.1276 37.9249 21.1276 34.0465 21.1276C33.908 21.1276 33.7694 21.1276 33.5143 21.1276C36.5106 16.3015 39.4559 11.5555 42.4449 6.73657C45.4412 11.5628 48.3792 16.3088 51.3755 21.1349C50.7632 21.1276 50.231 21.1204 49.7061 21.1276Z" fill="#3A62FF"/>
<path d="M24.0515 43.8151C26.778 43.8443 29.0162 41.6353 29.0307 38.8868C29.0453 36.1384 26.8509 33.9221 24.1025 33.9076C21.3613 33.9003 19.1524 36.0947 19.1378 38.8504C19.1378 41.5843 21.3103 43.7859 24.0515 43.8151ZM24.0952 35.5552C25.9251 35.5552 27.3977 37.0278 27.3977 38.865C27.3977 40.6948 25.9105 42.1748 24.0879 42.1748C22.258 42.1675 20.7854 40.6875 20.7854 38.8577C20.7854 37.0205 22.258 35.5552 24.0952 35.5552Z" fill="#3A62FF"/>
<path d="M35.6285 36.3061C37.2178 36.3134 38.53 35.0157 38.53 33.4191C38.5373 31.8152 37.2542 30.5249 35.6503 30.5176C34.0465 30.5176 32.7415 31.8007 32.7342 33.3899C32.7342 34.9719 34.0392 36.2915 35.6285 36.3061ZM35.6576 32.1652C36.3502 32.1725 36.897 32.7265 36.8897 33.4264C36.8824 34.1117 36.3065 34.6803 35.6285 34.6658C34.9505 34.6512 34.3818 34.0679 34.3891 33.3972C34.3964 32.7047 34.9651 32.1579 35.6576 32.1652Z" fill="#3A62FF"/>
<path d="M41.6211 10.7171C41.6138 12.1095 41.6138 13.502 41.6211 14.8944C41.6211 15.4558 41.9565 15.8057 42.4449 15.8057C42.9334 15.8057 43.2468 15.4631 43.2541 14.8871C43.2614 14.1946 43.2541 13.5093 43.2541 12.8167C43.2541 12.1168 43.2614 11.4097 43.2541 10.7098C43.2468 10.1484 42.9188 9.79121 42.4376 9.79121C41.9638 9.79121 41.6211 10.1703 41.6211 10.7171Z" fill="#3A62FF"/>
<path d="M43.2396 18.474C43.2396 18.2917 43.2541 18.1095 43.2396 17.9272C43.2031 17.5408 42.8823 17.2419 42.4959 17.2055C42.1387 17.1763 41.7305 17.4096 41.6794 17.7814C41.6211 18.2261 41.6138 18.7 41.6794 19.1447C41.7305 19.5384 42.1168 19.7498 42.5251 19.7133C42.9188 19.6769 43.2031 19.3853 43.2396 18.977C43.2541 18.8166 43.2468 18.6489 43.2396 18.474Z" fill="#3A62FF"/>
<path d="M26.9676 25.4654C26.9676 21.463 23.7161 18.2115 19.7137 18.2115C15.7113 18.2115 12.4599 21.463 12.4599 25.4654C12.4599 29.4678 15.7113 32.7192 19.7137 32.7192C23.7161 32.7192 26.9676 29.4678 26.9676 25.4654ZM19.7137 31.0425C16.6372 31.0425 14.1366 28.5419 14.1366 25.4654C14.1366 22.3889 16.6372 19.8883 19.7137 19.8883C22.7902 19.8883 25.2908 22.3889 25.2908 25.4654C25.2908 28.5419 22.7902 31.0425 19.7137 31.0425Z" fill="#3A62FF"/>
<path d="M48.4594 30.1603C48.3063 30.3645 48.1751 30.4374 47.9199 30.3426C47.5117 30.1895 47.0888 30.0874 46.666 29.9781C46.4546 29.9271 46.3671 29.8177 46.3744 29.5917C46.389 29.2053 46.3963 28.8116 46.3598 28.4252C46.3088 27.9441 45.9443 27.6525 45.4923 27.6816C45.0621 27.7108 44.7559 28.0389 44.7486 28.5127C44.7414 29.0012 44.7341 29.4823 44.7414 29.9708C44.7559 30.678 45.1277 31.2029 45.8057 31.4143C46.6879 31.6913 47.57 31.9465 48.4594 32.1943C49.0135 32.3547 49.3926 32.1214 49.5748 31.5674C49.6404 31.3778 49.7425 31.181 49.8737 31.0425C50.1508 30.7509 50.7632 30.6998 51.1423 30.8967C51.4266 31.0498 51.5141 31.3122 51.4703 31.6038C51.3172 32.6099 51.1641 33.6232 50.9892 34.622C50.9017 35.1032 50.4934 35.3802 50.005 35.3583C49.4655 35.3292 49.1374 34.9282 49.1374 34.3085C49.1374 33.6743 48.8458 33.3754 48.2115 33.3535C47.3367 33.3243 46.4619 33.2806 45.587 33.266C44.7414 33.2441 44.1946 33.6159 43.9321 34.4179C43.4801 35.8395 42.8532 37.1736 42.095 38.4494C41.6648 39.1712 41.7523 39.8346 42.3428 40.4397C42.8167 40.9281 43.3052 41.402 43.7936 41.8759C44.2529 42.3279 44.4862 42.3643 45.0621 42.0946C45.4996 41.8905 45.937 41.9706 46.214 42.3133C46.491 42.6559 46.491 43.1079 46.1921 43.487C45.9443 43.8005 45.6891 44.114 45.4194 44.4129C45.1132 44.7628 44.6757 44.8503 44.2967 44.6608C43.8957 44.4566 43.7207 44.0703 43.8228 43.5891C43.9176 43.1079 43.8082 42.809 43.3999 42.5685C42.7511 42.1821 42.1023 41.803 41.4461 41.4385C40.7754 41.0666 40.1339 41.1395 39.5652 41.6499C39.2445 41.9342 38.9456 42.2331 38.6248 42.5101C36.9261 43.9755 35.0234 45.0982 32.9019 45.8491C31.8813 46.2136 31.5678 46.6802 31.6407 47.7737C31.6917 48.5611 31.7719 49.3484 31.8448 50.1358C31.9031 50.843 32.1874 51.0908 32.9092 51.069C33.456 51.0471 33.8496 51.3241 33.9444 51.7834C34.0392 52.2573 33.7767 52.7676 33.281 52.8915C32.2458 53.1467 31.196 53.3581 30.1534 53.5768C29.8764 53.6351 29.6504 53.5258 29.5192 53.256C29.2057 52.6072 29.4827 51.9 30.1462 51.6376C30.7221 51.4116 30.8971 51.0398 30.7002 50.4566C30.4451 49.7202 30.1826 48.9912 29.9274 48.2622C29.5119 47.0666 29.0891 46.7823 27.8133 46.8479C26.224 46.9353 24.6566 46.7968 23.111 46.4469C20.3407 45.8199 17.8547 44.6024 15.6603 42.7944C15.0042 42.255 14.4137 42.2185 13.6773 42.6414C13.0431 43.0059 12.4161 43.3777 11.7892 43.7422C10.7102 44.3764 10.6592 44.7118 11.4757 45.6377C12.161 46.4104 12.1391 47.4675 11.4173 48.1164C10.7029 48.7652 9.65309 48.6996 8.94593 47.9341C8.11484 47.0447 7.29103 46.1553 6.46723 45.2586C6.41619 45.2075 6.36516 45.1492 6.32142 45.0982C5.85484 44.5004 5.78194 43.8515 6.13187 43.1881C6.46723 42.5466 7.03587 42.2695 7.75761 42.306C8.36271 42.3352 8.74909 42.6997 9.12819 43.1079C9.66767 43.6984 10.1999 43.6547 10.6519 42.9986C11.0966 42.3643 11.534 41.7228 11.9787 41.0812C12.6494 40.1043 12.664 39.7034 12.0224 38.6973C10.1853 35.8176 9.23754 32.6755 9.21567 29.2636C9.20838 28.4909 9.29587 27.7108 9.32503 26.938C9.35419 26.2527 9.06987 25.706 8.43561 25.4435C7.54619 25.0644 6.62761 24.7291 5.71632 24.4083C5.24245 24.2406 4.84878 24.4374 4.65923 24.8603C4.302 25.6331 4.076 25.757 3.24491 25.6331C2.77833 25.5602 2.58878 25.3269 2.69085 24.8822C2.91684 23.898 3.14284 22.9211 3.39071 21.9442C3.53652 21.3901 4.01768 21.0547 4.48426 21.1495C5.00916 21.2516 5.30078 21.6817 5.25703 22.2941C5.21329 22.9065 5.50491 23.2491 6.12458 23.3074C6.99213 23.3949 7.86697 23.4824 8.73451 23.5772C9.49271 23.6574 10.1124 23.3366 10.4113 22.6295C10.9435 21.3464 11.5923 20.1289 12.3651 18.977C12.8171 18.3063 12.7515 17.6064 12.2339 17.0013C11.6652 16.3379 11.082 15.6818 10.4988 15.0329C10.0905 14.5737 9.66767 14.5591 9.1938 14.9455C8.7418 15.3246 8.20961 15.3391 7.8451 14.9892C7.48058 14.6393 7.466 14.0488 7.8451 13.604C8.40645 12.9479 8.97509 12.2991 9.55832 11.6648C9.95199 11.2274 10.4769 11.1837 10.8924 11.519C11.2788 11.8252 11.3372 12.3574 11.0455 12.8313C10.681 13.4145 10.7612 13.7936 11.3372 14.1873C12.037 14.6684 12.7369 15.1496 13.4441 15.6162C14.1804 16.1119 14.8365 16.0828 15.5145 15.5141C18.2192 13.2614 21.303 11.8981 24.7951 11.4753C25.7136 11.3659 26.1802 10.892 26.3115 9.98076C26.4281 9.17883 26.5302 8.3696 26.6176 7.56038C26.7051 6.76573 26.5229 6.53244 25.7428 6.38664C25.2179 6.28457 24.8971 5.8909 24.9263 5.38786C24.9627 4.88483 25.3418 4.51303 25.8667 4.50574C26.778 4.49116 27.6893 4.49116 28.6006 4.50574C29.1109 4.51303 29.5046 4.89941 29.5411 5.39515C29.5702 5.86902 29.2422 6.31373 28.7464 6.36477C28.0393 6.43767 27.7112 6.82406 27.8351 7.63328C27.9591 8.46438 28.0465 9.29547 28.1559 10.1266C28.2507 10.8264 28.7391 11.3659 29.3953 11.4899C29.9056 11.5919 30.4232 11.6867 30.9335 11.7742C31.4147 11.8617 31.8156 11.5919 31.9177 11.1326C32.0125 10.7025 31.7427 10.287 31.2834 10.1776C30.8898 10.0901 30.4961 10.0099 30.1024 9.9516C29.891 9.92244 29.7744 9.84953 29.7525 9.61624C29.7014 9.13508 29.6358 8.65392 29.5629 8.17276C29.5265 7.94676 29.6067 7.83012 29.8108 7.72076C30.8898 7.13025 31.3928 5.9638 31.0939 4.78277C30.8096 3.66006 29.7744 2.86542 28.5642 2.85813C27.6675 2.85084 26.7635 2.84355 25.8667 2.86542C25.5606 2.87271 25.2325 2.92374 24.9482 3.04038C23.9421 3.44135 23.3662 4.19225 23.2933 5.27851C23.2204 6.35748 23.7015 7.18128 24.6347 7.72076C24.8534 7.8447 24.9263 7.96134 24.8826 8.20192C24.8096 8.63205 24.7659 9.06947 24.7295 9.50689C24.7076 9.73289 24.6274 9.84224 24.3795 9.87141C22.6736 10.0901 21.026 10.5348 19.444 11.2128C19.1961 11.3149 19.0795 11.2784 18.9555 11.0451C18.6348 10.4182 18.2994 9.7985 17.9568 9.18612C17.6724 8.66121 17.2131 8.49354 16.783 8.73412C16.3456 8.9747 16.2435 9.43399 16.5133 9.95889C16.834 10.5713 17.1548 11.1837 17.4975 11.7888C17.6214 12.0075 17.5704 12.1095 17.3662 12.248C16.4477 12.8604 15.5437 13.4874 14.6397 14.1289C14.4793 14.2456 14.3626 14.2748 14.1877 14.1508C13.7867 13.8592 13.3712 13.5822 12.9483 13.3124C12.7806 13.2031 12.7806 13.0864 12.7879 12.8896C12.8171 12.4376 12.8754 11.9491 12.7515 11.5263C12.1755 9.56521 9.78432 9.02573 8.38458 10.513C7.77948 11.1618 7.20355 11.8325 6.62032 12.5032C5.78194 13.4655 5.67987 14.7778 6.35058 15.7693C7.02858 16.768 8.23148 17.1398 9.44896 16.7024C9.65309 16.6295 9.76245 16.6806 9.88638 16.8264C10.1853 17.1763 10.4842 17.5262 10.805 17.8616C10.9653 18.0293 10.9289 18.1532 10.8268 18.3427C10.229 19.4363 9.63122 20.5298 9.05529 21.6453C8.93135 21.8858 8.80742 21.9587 8.55226 21.9223C8.09297 21.8567 7.63368 21.8421 7.17439 21.7692C7.04316 21.7473 6.87548 21.6088 6.83903 21.4849C6.45265 20.2455 5.46845 19.48 4.27284 19.5092C3.07723 19.5384 2.07117 20.384 1.76498 21.6234C1.53169 22.6076 1.29111 23.5991 1.05782 24.5905C0.831816 25.531 1.28381 26.5881 2.14407 27.0036C3.23033 27.5285 4.73942 27.514 5.65071 26.4277C5.78923 26.26 5.92774 26.2309 6.12458 26.3111C6.55471 26.486 6.97755 26.6537 7.41497 26.7995C7.64097 26.8724 7.67013 27.0036 7.66284 27.2151C7.62639 28.0972 7.58993 28.9866 7.58993 29.8687C7.58993 30.1531 7.49516 30.2551 7.23271 30.2843C6.66406 30.3499 6.10271 30.4301 5.53407 30.5176C5.03833 30.5905 4.71026 30.9769 4.76858 31.407C4.82691 31.8881 5.24974 32.2016 5.77465 32.1287C6.32871 32.0558 6.88277 31.9902 7.43684 31.8954C7.692 31.8517 7.7649 31.9319 7.81593 32.1798C8.00548 33.0692 8.20961 33.9586 8.43561 34.8334C8.58871 35.4312 8.61787 35.4239 8.07838 35.7083C7.89613 35.803 7.71387 35.8978 7.53161 35.9999C7.05774 36.2623 6.89006 36.707 7.09419 37.1226C7.3129 37.56 7.78677 37.6985 8.28251 37.4579C8.57413 37.3121 8.86574 37.159 9.16464 37.0059C9.70412 37.9537 10.229 38.865 10.7466 39.7836C10.7758 39.8346 10.7758 39.9366 10.7393 39.9877C10.4259 40.4616 10.0978 40.9208 9.76974 41.402C9.63122 41.3218 9.54374 41.2635 9.44896 41.2052C8.03464 40.2939 6.23394 40.5417 5.11123 41.7884C4.03226 42.984 3.95936 44.8576 5.02374 46.1043C5.97149 47.2124 6.96297 48.2841 7.99819 49.312C9.048 50.3618 10.6956 50.5003 11.9787 49.7494C13.2253 49.0204 13.8669 47.5332 13.517 46.1188C13.4149 45.7106 13.2326 45.3315 13.0722 44.9086C13.4513 44.6899 13.8377 44.4712 14.2168 44.2306C14.4574 44.0775 14.6105 44.0994 14.8584 44.2598C15.9957 45.018 17.1621 45.747 18.314 46.4833C18.4088 46.549 18.5181 46.6 18.6275 46.6656C18.3796 47.2561 18.1317 47.8102 17.9057 48.3788C17.7016 48.8892 17.8693 49.3776 18.3067 49.5453C18.766 49.7275 19.1888 49.5234 19.4148 49.0058C19.6189 48.5392 19.8377 48.0726 20.0126 47.5988C20.1074 47.329 20.2459 47.3217 20.4792 47.3946C21.2811 47.6352 22.0831 47.8758 22.8923 48.0799C23.1839 48.1528 23.2714 48.2622 23.286 48.5611C23.3006 48.8308 23.388 49.137 23.5338 49.363C23.7234 49.6401 24.0587 49.6546 24.3649 49.5526C24.7149 49.4359 24.8971 49.1662 24.8971 48.8017C24.8971 48.5173 24.9919 48.4299 25.2835 48.4444C26.1802 48.4809 27.0769 48.4663 27.9809 48.4955C28.0976 48.5028 28.2798 48.6121 28.3236 48.7215C28.5204 49.2026 28.6881 49.6984 28.8412 50.2014C28.8704 50.2962 28.8266 50.4711 28.7464 50.5368C27.9226 51.2293 27.682 52.1042 27.7914 53.1467C27.9372 54.5683 29.1401 55.4796 30.5398 55.188C31.5022 54.9838 32.4645 54.7797 33.4268 54.5756C34.637 54.3131 35.5264 53.3289 35.5847 52.1844C35.6503 50.9159 34.9505 49.9244 33.7111 49.5088C33.5799 49.4651 33.4195 49.3193 33.3976 49.2026C33.3247 48.7361 33.3174 48.2622 33.2664 47.7883C33.2445 47.5696 33.3174 47.4675 33.5216 47.3801C34.5495 46.9208 35.5774 46.4469 36.5908 45.9584C36.8241 45.8491 36.948 45.8418 37.0938 46.0678C37.3563 46.4615 37.6479 46.8406 37.9395 47.2124C38.1582 47.4894 38.4571 47.5696 38.7925 47.4748C39.1132 47.3873 39.3465 47.1541 39.3538 46.8333C39.3611 46.5854 39.259 46.3084 39.1278 46.097C38.8799 45.6887 38.5738 45.3169 38.304 44.9451C39.0768 44.2744 39.8058 43.6328 40.5421 43.0132C40.6005 42.9621 40.7754 42.984 40.8629 43.0277C41.2056 43.21 41.5482 43.3923 41.869 43.6183C41.9929 43.7057 42.1096 43.888 42.1241 44.0338C42.2554 45.1128 42.7948 45.8928 43.8082 46.2573C44.8361 46.6292 45.7766 46.4104 46.5494 45.6158C46.9139 45.244 47.2492 44.8357 47.5481 44.4129C48.1459 43.5672 48.2261 42.6486 47.7523 41.7301C47.2857 40.8406 46.5129 40.2866 45.5141 40.3959C44.7559 40.4834 44.3112 40.2064 43.8884 39.6888C43.8447 39.6305 43.7936 39.5794 43.7353 39.5357C43.5166 39.3826 43.5385 39.2222 43.6697 39.0108C44.3987 37.8152 44.9674 36.5394 45.4048 35.2125C45.485 34.9719 45.6016 34.9136 45.8276 34.9282C46.2869 34.9574 46.7535 34.9792 47.2128 34.9792C47.4606 34.9792 47.5627 35.074 47.6429 35.3146C48.0439 36.4665 49.1739 37.1517 50.3913 37.0132C51.5505 36.8893 52.4764 35.9561 52.6441 34.7678C52.7607 33.9513 52.8992 33.1348 53.045 32.3256C53.1981 31.4289 53.1544 30.5905 52.4837 29.876C51.6161 28.9501 49.4801 28.7825 48.4594 30.1603Z" stroke="#3A62FF" stroke-width="0.5"/>
<path d="M56.3257 19.7498C52.8409 14.18 49.3999 8.58831 45.9224 3.01122C44.2456 0.321098 40.6442 0.335679 38.9529 3.01851C38.3405 3.99541 35.9784 7.83012 34.5787 10.0974C34.5349 10.1484 34.4985 10.1995 34.462 10.2578C34.1996 10.666 33.9517 11.0816 33.6965 11.4971C31.9687 14.282 30.2336 17.0669 28.5131 19.8518C27.7331 21.1131 27.6383 22.4472 28.3017 23.774C29.0526 25.2831 30.3211 26.034 31.9979 26.0413C35.4754 26.0559 38.9456 26.0486 42.423 26.0486C45.8641 26.0486 49.2978 26.0486 52.7388 26.0486C53.4897 26.0486 54.2115 25.9247 54.8822 25.5674C56.712 24.5833 57.7691 22.0608 56.3257 19.7498ZM55.0134 23.22C54.5104 24.0729 53.7157 24.4083 52.7461 24.401C45.8786 24.3937 39.0185 24.401 32.151 24.401C32.0198 24.401 31.8813 24.401 31.75 24.3937C30.9408 24.3062 30.292 23.949 29.8764 23.2345C29.3515 22.3378 29.439 21.4557 29.9858 20.5882C31.6261 17.9564 33.2591 15.3173 34.8921 12.6782C34.9505 12.6053 35.0161 12.5178 35.0744 12.4303C35.869 11.1545 39.5798 5.1327 40.3745 3.8569C40.8848 3.03309 41.6284 2.61026 42.598 2.66858C43.4656 2.71961 44.0925 3.16432 44.5445 3.90064C45.7474 5.85444 46.9649 7.80096 48.1751 9.75476C50.4205 13.378 52.6659 17.0013 54.9186 20.6173C55.4435 21.463 55.531 22.3378 55.0134 23.22Z" stroke="#3A62FF" stroke-width="0.5"/>
<path d="M53.3731 21.2297C50.9308 17.2857 48.4813 13.3489 46.039 9.40483C45.0986 7.88844 44.1581 6.37206 43.2104 4.85567C42.7803 4.17767 42.1096 4.17767 41.6721 4.85567C41.6211 4.93587 41.5628 5.01606 41.5118 5.10354C38.6102 9.77663 35.716 14.4497 32.8144 19.1228C32.3333 19.8956 31.8448 20.6611 31.3782 21.4484C30.9845 22.1045 31.3491 22.7315 32.1218 22.7607C32.2531 22.768 32.3916 22.7607 32.5228 22.7607C36.1315 22.7607 39.7402 22.7607 43.3489 22.7607C44.2456 22.7607 48.7948 22.768 49.6915 22.7534C49.7206 22.7534 49.7425 22.7534 49.7644 22.7461C50.8069 22.7607 51.8494 22.768 52.8919 22.7388C53.5116 22.7169 53.8251 22.0973 53.5553 21.5359C53.5043 21.4338 53.4387 21.3318 53.3731 21.2297ZM49.7061 21.1276C49.6988 21.1276 49.6915 21.1276 49.6842 21.1276C49.5603 21.1276 49.4436 21.1276 49.3197 21.1276C45.4412 21.1276 37.9249 21.1276 34.0465 21.1276C33.908 21.1276 33.7694 21.1276 33.5143 21.1276C36.5106 16.3015 39.4559 11.5555 42.4449 6.73657C45.4412 11.5628 48.3792 16.3088 51.3755 21.1349C50.7632 21.1276 50.231 21.1204 49.7061 21.1276Z" stroke="#3A62FF" stroke-width="0.5"/>
<path d="M24.0515 43.8151C26.778 43.8443 29.0162 41.6353 29.0307 38.8868C29.0453 36.1384 26.8509 33.9221 24.1025 33.9076C21.3613 33.9003 19.1524 36.0947 19.1378 38.8504C19.1378 41.5843 21.3103 43.7859 24.0515 43.8151ZM24.0952 35.5552C25.9251 35.5552 27.3977 37.0278 27.3977 38.865C27.3977 40.6948 25.9105 42.1748 24.0879 42.1748C22.258 42.1675 20.7854 40.6875 20.7854 38.8577C20.7854 37.0205 22.258 35.5552 24.0952 35.5552Z" stroke="#3A62FF" stroke-width="0.5"/>
<path d="M35.6285 36.3061C37.2178 36.3134 38.53 35.0157 38.53 33.4191C38.5373 31.8152 37.2542 30.5249 35.6503 30.5176C34.0465 30.5176 32.7415 31.8007 32.7342 33.3899C32.7342 34.9719 34.0392 36.2915 35.6285 36.3061ZM35.6576 32.1652C36.3502 32.1725 36.897 32.7265 36.8897 33.4264C36.8824 34.1117 36.3065 34.6803 35.6285 34.6658C34.9505 34.6512 34.3818 34.0679 34.3891 33.3972C34.3964 32.7047 34.9651 32.1579 35.6576 32.1652Z" stroke="#3A62FF" stroke-width="0.5"/>
<path d="M41.6211 10.7171C41.6138 12.1095 41.6138 13.502 41.6211 14.8944C41.6211 15.4558 41.9565 15.8057 42.4449 15.8057C42.9334 15.8057 43.2468 15.4631 43.2541 14.8871C43.2614 14.1946 43.2541 13.5093 43.2541 12.8167C43.2541 12.1168 43.2614 11.4097 43.2541 10.7098C43.2468 10.1484 42.9188 9.79121 42.4376 9.79121C41.9638 9.79121 41.6211 10.1703 41.6211 10.7171Z" stroke="#3A62FF" stroke-width="0.5"/>
<path d="M43.2396 18.474C43.2396 18.2917 43.2541 18.1095 43.2396 17.9272C43.2031 17.5408 42.8823 17.2419 42.4959 17.2055C42.1387 17.1763 41.7305 17.4096 41.6794 17.7814C41.6211 18.2261 41.6138 18.7 41.6794 19.1447C41.7305 19.5384 42.1168 19.7498 42.5251 19.7133C42.9188 19.6769 43.2031 19.3853 43.2396 18.977C43.2541 18.8166 43.2468 18.6489 43.2396 18.474Z" stroke="#3A62FF" stroke-width="0.5"/>
<path d="M26.9676 25.4654C26.9676 21.463 23.7161 18.2115 19.7137 18.2115C15.7113 18.2115 12.4599 21.463 12.4599 25.4654C12.4599 29.4678 15.7113 32.7192 19.7137 32.7192C23.7161 32.7192 26.9676 29.4678 26.9676 25.4654ZM19.7137 31.0425C16.6372 31.0425 14.1366 28.5419 14.1366 25.4654C14.1366 22.3889 16.6372 19.8883 19.7137 19.8883C22.7902 19.8883 25.2908 22.3889 25.2908 25.4654C25.2908 28.5419 22.7902 31.0425 19.7137 31.0425Z" stroke="#3A62FF" stroke-width="0.5"/>
</svg>
