<svg width="54" height="53" viewBox="0 0 54 53" fill="none" xmlns="http://www.w3.org/2000/svg">
<path d="M47.0933 36.2765C48.0412 35.1828 49.0073 34.1984 49.8458 33.1047C52.0698 30.1789 53.3549 26.8613 53.8197 23.2064C54.3575 19.0047 53.6921 14.9852 51.8237 11.2118C49.8732 7.27438 46.9383 4.24839 43.0282 2.20676C40.0934 0.675532 36.9489 -0.0991948 33.6404 0.0101784C28.0897 0.192467 23.414 2.33436 19.6042 6.39939C17.1341 9.03347 15.5391 12.1324 14.6824 15.6141C13.9897 18.4213 13.9259 21.265 14.3998 24.1178C14.4272 24.2637 14.4363 24.4095 14.4454 24.4369C13.0053 25.1204 11.5926 25.6946 10.2619 26.4511C7.73716 27.8821 5.75933 29.9329 4.07316 32.257C3.44426 33.1229 2.91563 34.0708 2.31408 34.964C2.12267 35.2466 1.84924 35.4835 1.61226 35.7388C0.664364 36.7596 0.153954 37.9809 0.0901527 39.3572C0.0172348 40.8428 -0.137711 41.3441 0.272442 42.7933C0.974251 45.2724 2.59662 46.8584 5.13043 47.3505C5.78667 47.4781 5.98719 47.706 6.17859 48.2802C7.51841 52.2632 12.0483 54.1317 15.7305 52.1994C17.4714 51.288 18.6289 49.8388 19.194 47.943C19.2396 47.7971 19.276 47.6604 19.3216 47.4964C19.4674 47.4873 19.6042 47.4781 19.7318 47.4781C22.6939 47.4781 25.6561 47.4873 28.6183 47.469C28.9829 47.469 29.1014 47.5966 29.1925 47.9247C30.3318 51.926 34.7159 54.2684 38.7991 52.2359C40.6129 51.3335 41.8069 49.8205 42.3447 47.8427C42.4176 47.5875 42.4905 47.4417 42.8095 47.4143C44.6962 47.2047 46.118 46.2112 47.1662 44.6709C47.8953 43.5954 48.2235 42.3923 48.1779 41.098C48.1232 39.8402 48.105 39.585 47.9774 38.3364C47.9318 37.8442 47.6401 37.3702 47.4396 36.8963C47.3303 36.6411 47.1662 36.4132 47.0933 36.2765ZM19.4583 45.1995C19.0573 41.5173 16.004 39.1111 13.3699 38.9653C8.99495 38.7283 6.67077 41.1163 5.72287 45.154C4.33747 45.0628 2.86094 43.8779 2.51459 42.4925C2.1409 40.9978 2.25939 40.4783 2.41433 38.9744C2.44168 38.6918 2.55105 38.4093 2.67865 38.1632C3.47161 36.5773 4.77497 35.8481 6.53406 35.8481C15.8399 35.8572 25.1548 35.8481 34.4607 35.8481C36.9033 35.8481 39.3551 35.8572 41.7978 35.8481C44.0126 35.839 45.5256 37.3155 45.8081 39.0564C45.9813 40.141 45.8811 40.2595 45.8902 41.3715C45.8993 42.3741 45.5074 43.2308 44.842 43.9691C44.2313 44.6344 43.4931 45.0537 42.5725 45.154C42.0986 41.3897 38.9632 39.0473 36.0375 38.9106C33.0844 38.7647 29.3839 40.9795 28.8826 45.2086C25.7655 45.1995 22.621 45.1995 19.4583 45.1995ZM21.2174 25.9225C21.2174 28.5019 21.2174 31.063 21.2174 33.606C16.1042 33.606 11.0275 33.606 5.9325 33.606C8.24757 29.1672 15.5938 25.4759 21.2174 25.9225ZM8.04705 45.9925C7.98325 43.3766 9.96108 41.2439 12.5314 41.1801C15.0652 41.1072 17.1341 43.167 17.1979 45.8102C17.2617 48.4352 15.2839 50.6408 12.823 50.6955C10.1434 50.7593 8.11085 48.7633 8.04705 45.9925ZM35.7823 50.6955C33.2029 50.7138 31.2251 48.6539 31.1704 45.9013C31.1157 43.3675 33.2029 41.2074 35.7185 41.1801C38.307 41.1527 40.3395 43.2399 40.3486 45.9469C40.3486 48.5719 38.3252 50.6773 35.7823 50.6955ZM34.7432 33.606C30.9334 33.606 27.2329 33.606 23.5416 33.606C23.5416 31.0539 23.5416 28.5292 23.5416 25.959C28.436 26.8157 31.7263 29.9146 34.7432 33.606ZM43.4566 19.4057C40.6403 19.4057 37.9333 19.4057 35.2081 19.4057C35.1989 19.3054 35.1716 19.2325 35.1716 19.1596C35.1716 17.1544 35.1807 15.1584 35.1625 13.1532C35.1625 12.816 35.3265 12.7977 35.5909 12.7977C37.7783 12.8068 39.9567 12.8068 42.1441 12.7886C42.4723 12.7886 42.5999 12.9071 42.6454 13.2079C42.8277 14.3563 43.0647 15.5047 43.2196 16.6622C43.3472 17.5646 43.3837 18.476 43.4566 19.4057ZM24.6809 19.4148C24.7447 17.2456 25.0181 15.1675 25.4738 13.0985C25.5468 12.7704 25.7564 12.8068 25.9843 12.8068C28.1353 12.8068 30.2954 12.8068 32.4464 12.8068C32.5922 12.8068 32.738 12.8251 32.9021 12.8342C32.9021 15.049 32.9021 17.2273 32.9021 19.4148C30.1587 19.4148 27.4426 19.4148 24.6809 19.4148ZM35.1989 21.739C37.9606 21.739 40.6858 21.739 43.4293 21.739C43.3655 23.808 43.1285 25.8131 42.6637 27.791C40.1572 27.791 37.6963 27.791 35.1989 27.791C35.1989 25.7584 35.1989 23.7624 35.1989 21.739ZM51.687 19.4148C49.6635 19.4148 47.6948 19.4148 45.7717 19.4148C45.5074 17.2091 45.2339 15.0216 44.9696 12.8068C46.5738 12.8068 48.2144 12.7977 49.855 12.816C49.9734 12.816 50.1375 12.98 50.1922 13.1076C51.0763 15.1037 51.5776 17.1818 51.687 19.4148ZM16.3776 19.4148C16.4414 18.8953 16.487 18.4304 16.5508 17.9656C16.7696 16.3159 17.2253 14.73 17.8451 13.1896C17.9544 12.9162 18.1003 12.7977 18.4193 12.7977C19.8958 12.816 21.3632 12.8068 22.8398 12.8068C22.9583 12.8068 23.0676 12.8342 23.1314 12.8342C22.858 15.0399 22.5937 17.2182 22.3203 19.4148C20.3971 19.4148 18.4284 19.4148 16.3776 19.4148ZM41.8525 10.5465C39.6286 10.5465 37.432 10.5465 35.2172 10.5465C35.2172 7.83947 35.2172 5.15072 35.2172 2.46196C36.1924 2.64425 37.4138 3.40075 38.389 4.41245C40.0205 6.09862 40.9866 8.16759 41.8069 10.3186C41.8343 10.3824 41.8343 10.4553 41.8525 10.5465ZM32.893 2.4255C32.893 5.17806 32.893 7.84859 32.893 10.5282C30.6691 10.5282 28.4725 10.5282 26.203 10.5282C26.4309 9.94491 26.6223 9.39804 26.8592 8.87852C27.7342 6.93715 28.7642 5.11426 30.4321 3.72887C31.1521 3.14554 31.9269 2.65336 32.893 2.4255ZM45.7899 21.7299C47.7313 21.7299 49.7 21.7299 51.6778 21.7299C51.687 21.8119 51.7052 21.8757 51.6961 21.9304C51.5411 23.8262 51.1492 25.6764 50.4656 27.4628C50.3471 27.7636 50.1831 27.8274 49.8914 27.8274C48.3875 27.8092 46.8836 27.8183 45.3889 27.8183C45.2613 27.8183 45.1337 27.8001 45.0699 27.8001C45.3069 25.7493 45.5438 23.7533 45.7899 21.7299ZM32.9112 27.8912C32.6104 27.8092 32.3461 27.8001 32.1638 27.6725C31.2068 27.0345 30.2954 26.3235 29.3293 25.7038C28.0532 24.9017 26.6496 24.3639 25.1913 23.9994C25.0455 23.9629 24.8176 23.8262 24.8085 23.7168C24.7265 23.0606 24.6991 22.4043 24.6535 21.739C27.4517 21.739 30.1678 21.739 32.9112 21.739C32.9112 23.7624 32.9112 25.7584 32.9112 27.8912ZM27.3332 3.64684C27.2512 3.79267 27.2238 3.85647 27.1782 3.91116C25.7017 5.79784 24.7082 7.93062 23.9791 10.2001C23.8879 10.4827 23.7603 10.5738 23.4687 10.5647C22.1926 10.5465 20.9257 10.5556 19.6497 10.5556C19.5404 10.5556 19.431 10.5282 19.3034 10.5191C20.944 7.81213 23.7786 5.1416 27.3332 3.64684ZM48.8888 10.5647C47.4123 10.5647 46.0633 10.5465 44.7144 10.5738C44.3316 10.5829 44.1949 10.4462 44.0855 10.109C43.3837 7.93062 42.4085 5.88899 41.0322 4.04787C40.9684 3.96584 40.9319 3.86558 40.8317 3.67418C44.2678 5.15983 46.8198 7.49313 48.8888 10.5647ZM42.1441 30.0878C41.6246 31.2818 41.1507 32.3755 40.6585 33.4601C40.622 33.5513 40.4489 33.6242 40.3395 33.6242C39.4463 33.6333 38.5439 33.6333 37.6507 33.6242C37.5414 33.6242 37.3955 33.5513 37.3226 33.4693C36.6755 32.6125 36.0375 31.7466 35.4177 30.8716C35.2719 30.662 35.2172 30.3977 35.0896 30.0878C37.4867 30.0878 39.7288 30.0878 42.1441 30.0878ZM49.1987 30.0696C48.9435 30.4615 48.743 30.7623 48.5425 31.063C47.7222 32.2935 46.7652 33.4055 45.6441 34.3716C45.5438 34.4627 45.3433 34.5448 45.2339 34.5083C44.523 34.2258 43.8303 33.9067 43.1467 33.5969C43.5295 32.5305 43.9306 31.4094 44.3498 30.2883C44.3863 30.1881 44.5321 30.0696 44.6324 30.0696C46.1271 30.0696 47.6128 30.0696 49.1987 30.0696ZM16.6328 23.9811C16.5417 23.252 16.4506 22.5046 16.3594 21.7299C18.4193 21.7299 20.3971 21.7299 22.4114 21.7299C22.4387 22.3679 22.4752 22.9785 22.5025 23.5345C20.5521 23.6804 18.638 23.8262 16.6328 23.9811Z" fill="#3A62FF"/>
<path d="M35.8005 48.9547C34.1234 48.9638 32.738 47.5966 32.738 45.9105C32.7289 44.2152 34.087 42.8571 35.7732 42.848C37.4684 42.848 38.8447 44.1969 38.8447 45.874C38.8538 47.5511 37.4684 48.9365 35.8005 48.9547ZM35.764 44.5797C35.0349 44.5889 34.4607 45.1722 34.4607 45.9105C34.4698 46.6305 35.0805 47.2321 35.7914 47.2229C36.5023 47.2138 37.1039 46.594 37.0947 45.8831C37.0947 45.154 36.5023 44.5706 35.764 44.5797Z" fill="#3A62FF"/>
<path d="M12.6498 48.9547C10.9728 48.9638 9.58739 47.5966 9.58739 45.9105C9.57828 44.2152 10.9363 42.8571 12.6225 42.848C14.3178 42.848 15.6941 44.1969 15.6941 45.874C15.7032 47.5511 14.3178 48.9365 12.6498 48.9547ZM12.6134 44.5797C11.8842 44.5889 11.31 45.1722 11.31 45.9105C11.3191 46.6305 11.9298 47.2321 12.6407 47.2229C13.3517 47.2138 13.9532 46.594 13.9441 45.8831C13.9441 45.154 13.3517 44.5706 12.6134 44.5797Z" fill="#3A62FF"/>
</svg>
