<svg width="58" height="46" viewBox="0 0 58 46" fill="none" xmlns="http://www.w3.org/2000/svg">
<path d="M28.1351 38.0497C28.0555 40.2846 27.9986 41.9053 27.9304 43.5204C27.9077 44.0436 27.5892 44.4189 27.0717 44.4985C25.6386 44.7146 24.2055 44.9137 22.7724 45.1184C21.4702 45.3004 20.1679 45.4767 18.8656 45.67C18.1206 45.7781 17.5918 45.4824 17.4894 44.8397C17.4553 44.6407 17.4951 44.4246 17.5406 44.2256C17.8818 42.5878 17.5008 41.1092 16.5568 39.7614C15.6696 38.4989 14.5095 37.5094 13.2982 36.5768C12.303 35.8091 11.3135 35.0243 10.2899 34.2964C8.44734 32.977 7.33272 31.1686 6.7811 29.019C6.38302 27.4608 6.07025 25.8856 5.7461 24.3103C4.76228 19.5504 3.55667 14.8645 1.79376 10.3378C1.54922 9.71223 1.32744 9.07531 1.09996 8.44407C0.832683 7.70478 1.10565 7.13041 1.86769 6.94275C2.57285 6.76646 3.2837 6.61291 4.00593 6.49918C5.36508 6.28308 6.41714 6.84039 7.25311 7.88676C8.18006 9.05256 8.78286 10.389 9.26056 11.7765C9.64726 12.9025 9.96572 14.0513 10.3012 15.1943C10.3524 15.3763 10.432 15.4616 10.6254 15.5128C11.9504 15.8711 13.0082 16.6558 13.8669 17.6965C14.5209 18.4927 15.135 19.323 15.7606 20.1476C16.6421 21.3134 17.7225 22.2346 18.985 22.9796C20.9754 24.1454 22.8407 25.4875 24.5411 27.057C25.3543 27.8077 26.1049 28.6209 26.7475 29.5365C27.43 30.5146 27.7882 31.5951 27.8622 32.7666C27.9873 34.7343 28.0669 36.7019 28.1351 38.0497ZM3.36332 8.65448C3.6306 9.40514 3.88651 10.0989 4.13104 10.7927C4.89876 13.0277 5.75747 15.2398 6.28635 17.5487C6.87209 20.0907 7.45783 22.6384 7.98671 25.1975C8.27674 26.5907 8.54402 27.9783 9.02171 29.3204C9.47666 30.5999 10.2103 31.6577 11.2964 32.4709C12.1097 33.0794 12.9058 33.7049 13.7133 34.3134C15.2203 35.4508 16.7046 36.6166 17.8818 38.1122C18.9282 39.443 19.6106 40.9272 19.7016 42.6503C19.7186 42.9176 19.7016 43.1906 19.7016 43.4863C21.8057 43.1906 23.8529 42.9005 25.9116 42.6105C25.9173 42.548 25.9286 42.5025 25.9343 42.457C26.0537 39.369 26.1334 36.2868 25.8775 33.2045C25.7865 32.0899 25.4509 31.0719 24.7003 30.2189C24.2283 29.6844 23.762 29.1498 23.2445 28.6664C21.5555 27.0741 19.6561 25.7605 17.6657 24.5776C16.5909 23.9407 15.6127 23.1729 14.8166 22.2119C14.0659 21.3077 13.3664 20.3637 12.6442 19.4367C12.1267 18.777 11.558 18.1685 10.8017 17.7818C10.6083 17.6795 10.3979 17.6055 10.1648 17.5032C10.1363 17.6852 10.1136 17.8046 10.1079 17.924C10.0965 18.123 10.0795 18.3221 10.0965 18.5211C10.2728 20.4546 10.8415 22.2801 11.632 24.0487C11.8253 24.4809 12.0983 24.8506 12.485 25.1292C13.139 25.6012 13.793 26.0675 14.4469 26.5339C15.135 27.0229 15.7378 27.5859 16.1246 28.3536C16.4089 28.9053 16.2554 29.4967 15.7435 29.781C15.2374 30.0654 14.6744 29.8663 14.3275 29.3488C14.0887 28.9963 13.8043 28.6494 13.4745 28.3821C12.9797 27.9726 12.4224 27.6428 11.8992 27.2675C11.086 26.6874 10.324 26.0562 9.88042 25.1178C8.96484 23.1786 8.32792 21.1541 8.09476 19.0159C7.99808 18.1287 7.99239 17.2359 8.44165 16.4113C8.47577 16.3488 8.45871 16.2464 8.43597 16.1725C8.0777 14.6427 7.63412 13.1357 7.03701 11.6799C6.66736 10.7757 6.24654 9.8999 5.63236 9.12649C5.34233 8.76253 4.99544 8.49525 4.50068 8.52937C4.12535 8.53506 3.7614 8.6033 3.36332 8.65448Z" fill="#3A62FF"/>
<path d="M53.8566 6.47074C54.4822 6.50486 55.4148 6.70959 56.3304 7.0053C56.9275 7.19866 57.1379 7.77871 56.9105 8.42701C56.3475 9.99089 55.8015 11.5661 55.2215 13.1243C54.2092 15.8426 53.5097 18.6519 52.8956 21.484C52.4577 23.4971 52.071 25.5273 51.6388 27.5404C51.3885 28.7062 50.9962 29.8322 50.5298 30.9355C49.9668 32.2605 49.0228 33.2614 47.9139 34.1315C46.5832 35.1721 45.2297 36.173 43.9104 37.2251C42.8697 38.0554 41.92 38.9823 41.2205 40.1254C40.4357 41.4049 40.1628 42.7811 40.4812 44.2654C40.6348 44.9762 40.4073 45.471 39.8386 45.6473C39.6623 45.7041 39.4633 45.7098 39.2813 45.6871C37.2113 45.4027 35.1356 45.107 33.0656 44.817C32.4401 44.726 31.8088 44.635 31.1833 44.5554C30.4269 44.4587 30.0971 44.1403 30.0686 43.3839C29.9265 40.1879 29.8241 36.9862 30.0516 33.7846C30.1426 32.4595 30.2677 31.1402 31.0013 29.9687C31.5074 29.1498 32.1102 28.4105 32.7869 27.7338C34.5385 25.9709 36.5061 24.4695 38.6558 23.2298C40.413 22.2119 41.8006 20.8641 42.972 19.232C43.5692 18.4074 44.2459 17.634 44.9511 16.9004C45.6392 16.1895 46.5093 15.7346 47.476 15.5014C47.6694 15.4559 47.6751 15.3251 47.7092 15.1943C48.1186 13.5906 48.5963 12.004 49.2617 10.4856C49.728 9.4222 50.2626 8.40426 51.0701 7.55124C51.7298 6.82901 52.5316 6.43662 53.8566 6.47074ZM47.8172 17.5032C47.2542 17.6965 46.7481 17.9354 46.3785 18.3448C45.7131 19.0671 45.0648 19.812 44.4791 20.6025C43.3417 22.1266 42.102 23.5255 40.4471 24.5093C39.6737 24.97 38.9117 25.4477 38.1667 25.9538C36.4663 27.1139 34.8513 28.3878 33.5035 29.9573C32.8268 30.7478 32.2865 31.6122 32.2012 32.6756C32.1102 33.7959 32.0022 34.9219 31.9851 36.0479C31.9624 37.8279 32.0022 39.6079 32.0249 41.3878C32.0306 41.7916 32.059 42.1954 32.0818 42.6048C34.1632 42.8948 36.2104 43.1849 38.2861 43.4749C38.2861 43.3669 38.2861 43.2929 38.2861 43.219C38.269 41.712 38.6785 40.3244 39.4747 39.0449C40.2879 37.7312 41.357 36.645 42.5512 35.6896C43.9331 34.5807 45.3605 33.5287 46.7481 32.4311C47.3964 31.9193 48.0049 31.3677 48.3973 30.617C49.0285 29.4057 49.4209 28.1148 49.7109 26.7898C50.4047 23.6222 51.0075 20.4262 51.8037 17.2814C52.3496 15.1204 53.1458 13.0277 53.8396 10.9065C54.0841 10.1615 54.3628 9.43358 54.63 8.67154C54.4139 8.62605 54.2206 8.58624 54.0215 8.55212C53.4472 8.45544 52.8899 8.44976 52.4975 8.97295C52.2188 9.34259 51.9288 9.71223 51.707 10.116C50.6663 12.0268 50.0749 14.1025 49.5574 16.2009C49.5403 16.2635 49.5403 16.3431 49.5688 16.3886C50.0294 17.2188 50.0123 18.123 49.9157 19.0216C49.7052 20.9949 49.1309 22.8715 48.3234 24.68C48.0447 25.3112 47.7262 25.9424 47.1689 26.3803C46.3898 26.9945 45.5823 27.5745 44.7748 28.1603C44.3198 28.4901 43.9161 28.8598 43.6374 29.3659C43.3531 29.8777 42.756 30.0313 42.2669 29.764C41.7778 29.4967 41.6015 28.911 41.8574 28.3878C42.2498 27.5916 42.8754 27.0059 43.5862 26.4997C44.1606 26.096 44.735 25.6979 45.3093 25.2941C45.7813 24.9586 46.1567 24.5435 46.3955 24.0089C47.1121 22.3995 47.6352 20.739 47.8684 18.9874C47.931 18.5041 47.9765 18.015 47.8172 17.5032Z" fill="#3A62FF"/>
<path d="M40.9362 12.931C40.9362 19.5106 35.6019 24.8676 29.0109 24.8676C22.3459 24.8733 16.9264 19.4196 17.0686 12.6637C17.205 6.24896 22.4369 1.01139 29.0052 1.00002C35.5792 0.988644 40.9362 6.35701 40.9362 12.931ZM28.9711 22.826C34.3451 22.809 38.8377 18.5837 38.8775 12.9878C38.9173 7.56261 34.601 3.14964 29.1303 3.05296C23.671 2.95629 19.1613 7.36357 19.1215 12.9025C19.0874 18.305 23.3866 22.7521 28.9711 22.826Z" fill="#3A62FF"/>
<path d="M32.0647 15.6152C32.0647 16.0417 32.0647 16.4284 32.0647 16.8208C32.0647 17.5999 32.0704 18.3733 32.0647 19.1524C32.059 19.7836 31.6496 20.2158 31.0183 20.2215C29.8355 20.2329 28.6469 20.2329 27.4641 20.2215C26.8101 20.2158 26.4177 19.7893 26.412 19.1012C26.4063 18.0662 26.412 17.0369 26.412 16.0019C26.412 15.8881 26.412 15.7744 26.412 15.6322C26.2869 15.6265 26.1902 15.6208 26.0879 15.6208C25.0529 15.6208 24.0236 15.6208 22.9886 15.6208C22.1981 15.6208 21.8057 15.2228 21.8057 14.4323C21.8057 13.3347 21.8057 12.2315 21.8057 11.1339C21.8057 10.3719 22.2038 9.97951 22.9601 9.97951C23.9951 9.97951 25.0244 9.97951 26.0594 9.97951C26.1618 9.97951 26.2642 9.97951 26.395 9.97951C26.4006 9.84872 26.412 9.74067 26.412 9.63262C26.412 8.60899 26.412 7.58536 26.412 6.56173C26.412 5.7542 26.8044 5.3675 27.6176 5.36181C28.6867 5.36181 29.7616 5.36181 30.8307 5.36181C31.678 5.36181 32.0647 5.74852 32.0647 6.59017C32.0647 7.60242 32.0647 8.62036 32.0647 9.63262C32.0647 9.73498 32.0647 9.83734 32.0647 9.97951C32.1841 9.97951 32.2865 9.97951 32.3832 9.97951C33.4466 9.97951 34.5044 9.97951 35.5678 9.97951C36.2445 9.97951 36.6654 10.3947 36.671 11.0771C36.6767 12.2258 36.6767 13.3689 36.671 14.5176C36.671 15.1943 36.2616 15.6152 35.5735 15.6208C34.5214 15.6322 33.4694 15.6208 32.4173 15.6265C32.3149 15.6152 32.2126 15.6152 32.0647 15.6152ZM34.6067 12.0154C34.4816 12.0154 34.3793 12.0154 34.2769 12.0154C33.2646 12.0154 32.2467 12.0154 31.2344 12.0154C30.3985 12.0154 30.0175 11.6344 30.0118 10.8041C30.0118 9.78047 30.0118 8.75685 30.0118 7.73322C30.0118 7.63086 30.0118 7.53418 30.0118 7.43182C29.4715 7.43182 28.9768 7.43182 28.4593 7.43182C28.4593 7.5683 28.4593 7.68204 28.4593 7.79577C28.4593 8.80803 28.465 9.82597 28.4593 10.8382C28.4536 11.6287 28.0498 12.0211 27.2594 12.0211C26.2357 12.0211 25.2121 12.0211 24.1885 12.0211C24.0861 12.0211 23.9837 12.0211 23.87 12.0211C23.87 12.55 23.87 13.0447 23.87 13.5736C23.9894 13.5736 24.0918 13.5736 24.1942 13.5736C25.2007 13.5736 26.2016 13.5736 27.2082 13.5736C28.0726 13.5736 28.4536 13.9546 28.4593 14.8247C28.4593 15.8313 28.4593 16.8321 28.4593 17.8387C28.4593 17.9468 28.4706 18.0548 28.4763 18.1685C28.9995 18.1685 29.4886 18.1685 30.0118 18.1685C30.0118 18.0548 30.0118 17.9524 30.0118 17.8501C30.0118 16.8151 30.0061 15.7858 30.0118 14.7508C30.0175 13.983 30.4212 13.5793 31.189 13.5793C32.224 13.5793 33.2533 13.5793 34.2883 13.5793C34.3906 13.5793 34.493 13.5793 34.6067 13.5793C34.6067 13.039 34.6067 12.55 34.6067 12.0154Z" fill="#3A62FF"/>
<path d="M28.1351 38.0497C28.0555 40.2846 27.9986 41.9053 27.9304 43.5204C27.9077 44.0436 27.5892 44.4189 27.0717 44.4985C25.6386 44.7146 24.2055 44.9137 22.7724 45.1184C21.4702 45.3004 20.1679 45.4767 18.8656 45.67C18.1206 45.7781 17.5918 45.4824 17.4894 44.8397C17.4553 44.6407 17.4951 44.4246 17.5406 44.2256C17.8818 42.5878 17.5008 41.1092 16.5568 39.7614C15.6696 38.4989 14.5095 37.5094 13.2982 36.5768C12.303 35.8091 11.3135 35.0243 10.2899 34.2964C8.44734 32.977 7.33272 31.1686 6.7811 29.019C6.38302 27.4608 6.07025 25.8856 5.7461 24.3103C4.76228 19.5504 3.55667 14.8645 1.79376 10.3378C1.54922 9.71223 1.32744 9.07531 1.09996 8.44407C0.832683 7.70478 1.10565 7.13041 1.86769 6.94275C2.57285 6.76646 3.2837 6.61291 4.00593 6.49918C5.36508 6.28308 6.41714 6.84039 7.25311 7.88676C8.18006 9.05256 8.78286 10.389 9.26056 11.7765C9.64726 12.9025 9.96572 14.0513 10.3012 15.1943C10.3524 15.3763 10.432 15.4616 10.6254 15.5128C11.9504 15.8711 13.0082 16.6558 13.8669 17.6965C14.5209 18.4927 15.135 19.323 15.7606 20.1476C16.6421 21.3134 17.7225 22.2346 18.985 22.9796C20.9754 24.1454 22.8407 25.4875 24.5411 27.057C25.3543 27.8077 26.1049 28.6209 26.7475 29.5365C27.43 30.5146 27.7882 31.5951 27.8622 32.7666C27.9873 34.7343 28.0669 36.7019 28.1351 38.0497ZM3.36332 8.65448C3.6306 9.40514 3.88651 10.0989 4.13104 10.7927C4.89876 13.0277 5.75747 15.2398 6.28635 17.5487C6.87209 20.0907 7.45783 22.6384 7.98671 25.1975C8.27674 26.5907 8.54402 27.9783 9.02171 29.3204C9.47666 30.5999 10.2103 31.6577 11.2964 32.4709C12.1097 33.0794 12.9058 33.7049 13.7133 34.3134C15.2203 35.4508 16.7046 36.6166 17.8818 38.1122C18.9282 39.443 19.6106 40.9272 19.7016 42.6503C19.7186 42.9176 19.7016 43.1906 19.7016 43.4863C21.8057 43.1906 23.8529 42.9005 25.9116 42.6105C25.9173 42.548 25.9286 42.5025 25.9343 42.457C26.0537 39.369 26.1334 36.2868 25.8775 33.2045C25.7865 32.0899 25.4509 31.0719 24.7003 30.2189C24.2283 29.6844 23.762 29.1498 23.2445 28.6664C21.5555 27.0741 19.6561 25.7605 17.6657 24.5776C16.5909 23.9407 15.6127 23.1729 14.8166 22.2119C14.0659 21.3077 13.3664 20.3637 12.6442 19.4367C12.1267 18.777 11.558 18.1685 10.8017 17.7818C10.6083 17.6795 10.3979 17.6055 10.1648 17.5032C10.1363 17.6852 10.1136 17.8046 10.1079 17.924C10.0965 18.123 10.0795 18.3221 10.0965 18.5211C10.2728 20.4546 10.8415 22.2801 11.632 24.0487C11.8253 24.4809 12.0983 24.8506 12.485 25.1292C13.139 25.6012 13.793 26.0675 14.4469 26.5339C15.135 27.0229 15.7378 27.5859 16.1246 28.3536C16.4089 28.9053 16.2554 29.4967 15.7435 29.781C15.2374 30.0654 14.6744 29.8663 14.3275 29.3488C14.0887 28.9963 13.8043 28.6494 13.4745 28.3821C12.9797 27.9726 12.4224 27.6428 11.8992 27.2675C11.086 26.6874 10.324 26.0562 9.88042 25.1178C8.96484 23.1786 8.32792 21.1541 8.09476 19.0159C7.99808 18.1287 7.99239 17.2359 8.44165 16.4113C8.47577 16.3488 8.45871 16.2464 8.43597 16.1725C8.0777 14.6427 7.63412 13.1357 7.03701 11.6799C6.66736 10.7757 6.24654 9.8999 5.63236 9.12649C5.34233 8.76253 4.99544 8.49525 4.50068 8.52937C4.12535 8.53506 3.7614 8.6033 3.36332 8.65448Z" stroke="#3A62FF" stroke-width="0.3"/>
<path d="M53.8566 6.47074C54.4822 6.50486 55.4148 6.70959 56.3304 7.0053C56.9275 7.19866 57.1379 7.77871 56.9105 8.42701C56.3475 9.99089 55.8015 11.5661 55.2215 13.1243C54.2092 15.8426 53.5097 18.6519 52.8956 21.484C52.4577 23.4971 52.071 25.5273 51.6388 27.5404C51.3885 28.7062 50.9962 29.8322 50.5298 30.9355C49.9668 32.2605 49.0228 33.2614 47.9139 34.1315C46.5832 35.1721 45.2297 36.173 43.9104 37.2251C42.8697 38.0554 41.92 38.9823 41.2205 40.1254C40.4357 41.4049 40.1628 42.7811 40.4812 44.2654C40.6348 44.9762 40.4073 45.471 39.8386 45.6473C39.6623 45.7041 39.4633 45.7098 39.2813 45.6871C37.2113 45.4027 35.1356 45.107 33.0656 44.817C32.4401 44.726 31.8088 44.635 31.1833 44.5554C30.4269 44.4587 30.0971 44.1403 30.0686 43.3839C29.9265 40.1879 29.8241 36.9862 30.0516 33.7846C30.1426 32.4595 30.2677 31.1402 31.0013 29.9687C31.5074 29.1498 32.1102 28.4105 32.7869 27.7338C34.5385 25.9709 36.5061 24.4695 38.6558 23.2298C40.413 22.2119 41.8006 20.8641 42.972 19.232C43.5692 18.4074 44.2459 17.634 44.9511 16.9004C45.6392 16.1895 46.5093 15.7346 47.476 15.5014C47.6694 15.4559 47.6751 15.3251 47.7092 15.1943C48.1186 13.5906 48.5963 12.004 49.2617 10.4856C49.728 9.4222 50.2626 8.40426 51.0701 7.55124C51.7298 6.82901 52.5316 6.43662 53.8566 6.47074ZM47.8172 17.5032C47.2542 17.6965 46.7481 17.9354 46.3785 18.3448C45.7131 19.0671 45.0648 19.812 44.4791 20.6025C43.3417 22.1266 42.102 23.5255 40.4471 24.5093C39.6737 24.97 38.9117 25.4477 38.1667 25.9538C36.4663 27.1139 34.8513 28.3878 33.5035 29.9573C32.8268 30.7478 32.2865 31.6122 32.2012 32.6756C32.1102 33.7959 32.0022 34.9219 31.9851 36.0479C31.9624 37.8279 32.0022 39.6079 32.0249 41.3878C32.0306 41.7916 32.059 42.1954 32.0818 42.6048C34.1632 42.8948 36.2104 43.1849 38.2861 43.4749C38.2861 43.3669 38.2861 43.2929 38.2861 43.219C38.269 41.712 38.6785 40.3244 39.4747 39.0449C40.2879 37.7312 41.357 36.645 42.5512 35.6896C43.9331 34.5807 45.3605 33.5287 46.7481 32.4311C47.3964 31.9193 48.0049 31.3677 48.3973 30.617C49.0285 29.4057 49.4209 28.1148 49.7109 26.7898C50.4047 23.6222 51.0075 20.4262 51.8037 17.2814C52.3496 15.1204 53.1458 13.0277 53.8396 10.9065C54.0841 10.1615 54.3628 9.43358 54.63 8.67154C54.4139 8.62605 54.2206 8.58624 54.0215 8.55212C53.4472 8.45544 52.8899 8.44976 52.4975 8.97295C52.2188 9.34259 51.9288 9.71223 51.707 10.116C50.6663 12.0268 50.0749 14.1025 49.5574 16.2009C49.5403 16.2635 49.5403 16.3431 49.5688 16.3886C50.0294 17.2188 50.0123 18.123 49.9157 19.0216C49.7052 20.9949 49.1309 22.8715 48.3234 24.68C48.0447 25.3112 47.7262 25.9424 47.1689 26.3803C46.3898 26.9945 45.5823 27.5745 44.7748 28.1603C44.3198 28.4901 43.9161 28.8598 43.6374 29.3659C43.3531 29.8777 42.756 30.0313 42.2669 29.764C41.7778 29.4967 41.6015 28.911 41.8574 28.3878C42.2498 27.5916 42.8754 27.0059 43.5862 26.4997C44.1606 26.096 44.735 25.6979 45.3093 25.2941C45.7813 24.9586 46.1567 24.5435 46.3955 24.0089C47.1121 22.3995 47.6352 20.739 47.8684 18.9874C47.931 18.5041 47.9765 18.015 47.8172 17.5032Z" stroke="#3A62FF" stroke-width="0.3"/>
<path d="M40.9362 12.931C40.9362 19.5106 35.6019 24.8676 29.0109 24.8676C22.3459 24.8733 16.9264 19.4196 17.0686 12.6637C17.205 6.24896 22.4369 1.01139 29.0052 1.00002C35.5792 0.988644 40.9362 6.35701 40.9362 12.931ZM28.9711 22.826C34.3451 22.809 38.8377 18.5837 38.8775 12.9878C38.9173 7.56261 34.601 3.14964 29.1303 3.05296C23.671 2.95629 19.1613 7.36357 19.1215 12.9025C19.0874 18.305 23.3866 22.7521 28.9711 22.826Z" stroke="#3A62FF" stroke-width="0.3"/>
<path d="M32.0647 15.6152C32.0647 16.0417 32.0647 16.4284 32.0647 16.8208C32.0647 17.5999 32.0704 18.3733 32.0647 19.1524C32.059 19.7836 31.6496 20.2158 31.0183 20.2215C29.8355 20.2329 28.6469 20.2329 27.4641 20.2215C26.8101 20.2158 26.4177 19.7893 26.412 19.1012C26.4063 18.0662 26.412 17.0369 26.412 16.0019C26.412 15.8881 26.412 15.7744 26.412 15.6322C26.2869 15.6265 26.1902 15.6208 26.0879 15.6208C25.0529 15.6208 24.0236 15.6208 22.9886 15.6208C22.1981 15.6208 21.8057 15.2228 21.8057 14.4323C21.8057 13.3347 21.8057 12.2315 21.8057 11.1339C21.8057 10.3719 22.2038 9.97951 22.9601 9.97951C23.9951 9.97951 25.0244 9.97951 26.0594 9.97951C26.1618 9.97951 26.2642 9.97951 26.395 9.97951C26.4006 9.84872 26.412 9.74067 26.412 9.63262C26.412 8.60899 26.412 7.58536 26.412 6.56173C26.412 5.7542 26.8044 5.3675 27.6176 5.36181C28.6867 5.36181 29.7616 5.36181 30.8307 5.36181C31.678 5.36181 32.0647 5.74852 32.0647 6.59017C32.0647 7.60242 32.0647 8.62036 32.0647 9.63262C32.0647 9.73498 32.0647 9.83734 32.0647 9.97951C32.1841 9.97951 32.2865 9.97951 32.3832 9.97951C33.4466 9.97951 34.5044 9.97951 35.5678 9.97951C36.2445 9.97951 36.6654 10.3947 36.671 11.0771C36.6767 12.2258 36.6767 13.3689 36.671 14.5176C36.671 15.1943 36.2616 15.6152 35.5735 15.6208C34.5214 15.6322 33.4694 15.6208 32.4173 15.6265C32.3149 15.6152 32.2126 15.6152 32.0647 15.6152ZM34.6067 12.0154C34.4816 12.0154 34.3793 12.0154 34.2769 12.0154C33.2646 12.0154 32.2467 12.0154 31.2344 12.0154C30.3985 12.0154 30.0175 11.6344 30.0118 10.8041C30.0118 9.78047 30.0118 8.75685 30.0118 7.73322C30.0118 7.63086 30.0118 7.53418 30.0118 7.43182C29.4715 7.43182 28.9768 7.43182 28.4593 7.43182C28.4593 7.5683 28.4593 7.68204 28.4593 7.79577C28.4593 8.80803 28.465 9.82597 28.4593 10.8382C28.4536 11.6287 28.0498 12.0211 27.2594 12.0211C26.2357 12.0211 25.2121 12.0211 24.1885 12.0211C24.0861 12.0211 23.9837 12.0211 23.87 12.0211C23.87 12.55 23.87 13.0447 23.87 13.5736C23.9894 13.5736 24.0918 13.5736 24.1942 13.5736C25.2007 13.5736 26.2016 13.5736 27.2082 13.5736C28.0726 13.5736 28.4536 13.9546 28.4593 14.8247C28.4593 15.8313 28.4593 16.8321 28.4593 17.8387C28.4593 17.9468 28.4706 18.0548 28.4763 18.1685C28.9995 18.1685 29.4886 18.1685 30.0118 18.1685C30.0118 18.0548 30.0118 17.9524 30.0118 17.8501C30.0118 16.8151 30.0061 15.7858 30.0118 14.7508C30.0175 13.983 30.4212 13.5793 31.189 13.5793C32.224 13.5793 33.2533 13.5793 34.2883 13.5793C34.3906 13.5793 34.493 13.5793 34.6067 13.5793C34.6067 13.039 34.6067 12.55 34.6067 12.0154Z" stroke="#3A62FF" stroke-width="0.3"/>
</svg>
