<svg width="56" height="56" viewBox="0 0 56 56" fill="none" xmlns="http://www.w3.org/2000/svg">
<path fill-rule="evenodd" clip-rule="evenodd" d="M44.4272 4.95871C42.1671 4.95871 40.0953 4.95871 37.8641 4.95871C37.8641 6.07428 37.8641 5.37886 37.8641 6.422C37.8641 7.72591 37.8496 9.02983 37.8641 10.3337C37.8641 10.9567 37.7482 11.5073 37.0963 11.7391C36.4878 11.9564 36.0966 11.5507 35.7199 11.174C33.4308 8.88495 31.1417 6.59585 28.8526 4.32124C28.5773 4.04597 28.3166 3.75621 28.0123 3.5244C27.3604 3.03181 26.6649 3.0463 26.013 3.5244C25.7522 3.72723 25.5204 3.98802 25.2741 4.21982C18.798 10.7104 12.3074 17.201 5.83125 23.6916C5.54149 23.9814 5.26622 24.3146 4.75914 24.8797C5.90369 24.8797 6.74399 24.8797 7.58429 24.8797C9.4967 24.8797 9.67056 25.039 9.67056 26.9369C9.67056 34.3693 9.67056 41.8016 9.67056 49.2339C9.67056 49.7555 9.67056 50.277 9.67056 50.958C10.337 50.958 10.8586 50.958 11.3801 50.958C18.769 50.958 24.2958 50.958 31.6702 50.958C32.1048 50.958 32.5394 50.9435 32.9741 51.0014C33.5246 51.0884 33.8289 51.494 33.8434 52.0011C33.8578 52.5227 33.5391 52.9283 33.0031 53.0298C32.6698 53.0877 32.3366 53.0732 31.9889 53.0732C23.8322 53.0732 17.5375 53.0732 9.3808 53.0732C7.68571 53.0732 7.46839 52.8559 7.46839 51.1463C7.46839 43.714 7.46839 36.2817 7.46839 28.8494C7.46839 28.2843 7.46839 27.7193 7.46839 26.9949C5.86023 26.9949 4.42592 27.0094 2.99161 26.9949C2.29619 26.9804 1.45589 27.2122 1.09369 26.3285C0.745976 25.4592 1.4414 25.01 1.94848 24.503C9.2649 17.1721 16.6103 9.84115 23.9267 2.48127C25.1147 1.29326 26.4476 0.655787 28.0848 1.19184C28.7367 1.40916 29.3742 1.8438 29.8958 2.3219C31.446 3.78519 32.9092 5.30642 34.416 6.81317C34.7492 7.14639 35.0969 7.45064 35.6909 8.00118C35.7054 7.11742 35.7344 6.50892 35.7344 5.91492C35.7344 4.79934 35.7199 5.43681 35.7344 4.32124C35.7489 2.98835 36.0386 2.69859 37.3426 2.66961C38.5451 2.64064 39.7621 2.66961 40.9646 2.66961C42.2685 2.66961 43.5724 2.65513 44.8763 2.66961C46.2671 2.69859 46.5424 2.97386 46.5569 4.39368C46.5714 9.17471 46.6149 12.2172 46.5279 16.9982C46.499 18.4325 46.9046 19.4467 47.9622 20.3884C49.3965 21.6778 50.715 23.0976 52.0768 24.4595C52.2797 24.6623 52.5549 24.8362 52.6708 25.0825C52.8447 25.4447 53.062 25.8793 52.9896 26.2415C52.9026 26.7631 52.4245 26.9804 51.8885 26.9804C50.7294 26.9804 49.5704 26.9804 48.4114 26.9949C47.8898 26.9949 47.3537 26.9949 46.9046 26.9949C46.7453 27.1108 46.6438 27.1543 46.6004 27.2267C46.2671 27.8062 45.8615 28.2843 45.1081 27.9946C44.4417 27.7338 44.4272 27.1398 44.4272 26.5313C44.4272 25.1694 44.659 24.9086 45.9919 24.8652C46.9481 24.8362 47.9188 24.8217 48.8895 24.8072C48.9184 24.8072 48.9329 24.7348 49.0633 24.5319C48.4114 23.8655 47.7015 23.1701 47.0205 22.4602C46.1802 21.5909 45.0502 20.8375 44.63 19.7944C44.1954 18.7512 44.4562 17.4184 44.4562 16.2159C44.4417 12.4055 44.4562 10.3337 44.4562 6.50892C44.4272 6.0598 44.4272 5.58169 44.4272 4.95871Z" fill="#3A62FF"/>
<path fill-rule="evenodd" clip-rule="evenodd" d="M54.982 39.1068C54.982 40.9468 54.9241 44.6344 54.9965 46.4743C55.0545 48.1115 54.388 49.3574 53.229 50.4151C51.6353 51.8638 49.8098 52.936 47.8829 53.8342C44.739 55.312 44.6483 55.341 41.6203 53.8487C39.8528 52.9794 37.2701 51.8638 35.662 50.7193C34.1118 49.6182 33.4308 48.0825 33.4888 46.0976C33.5902 42.4322 33.5177 36.8902 33.5177 33.2247C33.5177 31.7614 33.6481 31.6021 35.068 31.2399C37.5019 30.6169 40.8525 29.9794 43.3009 29.4144C43.8949 29.284 44.5614 29.255 45.1409 29.3999C47.6328 29.9794 51.0413 30.6169 53.5043 31.2544C54.8227 31.6021 54.9675 31.7759 54.9675 33.1523C54.9965 35.1371 54.982 37.122 54.982 39.1068ZM35.7924 33.3261C35.7634 33.8187 35.7344 34.1954 35.7344 34.5721C35.7344 37.9043 35.7779 43.0841 35.7054 46.4164C35.6765 47.5609 36.0531 48.4157 36.9659 48.9952C38.8348 50.1688 41.6783 51.2988 43.6052 52.3709C43.9239 52.5448 44.4744 52.5593 44.8222 52.4144C46.9374 51.4727 49.8967 50.3716 51.6933 48.8793C52.4466 48.2563 52.7943 47.5175 52.7799 46.5033C52.7219 43.1276 52.7654 37.8898 52.7509 34.5141C52.7509 34.1375 52.7074 33.7608 52.6784 33.3116C51.2441 32.935 49.8243 32.6742 48.4624 32.1961C46.2313 31.4282 43.1271 31.4572 40.8959 32.2106C39.5485 32.6742 37.1977 32.9639 35.7924 33.3261Z" fill="#3A62FF"/>
<path fill-rule="evenodd" clip-rule="evenodd" d="M20.5655 29.226C20.5655 33.6159 20.5655 37.8319 20.5655 42.1638C21.0291 42.1928 21.4348 42.2507 21.8549 42.2652C24.2744 42.2797 26.6794 42.2652 29.0989 42.2652C29.3452 42.2652 29.577 42.2652 29.8233 42.2652C30.852 42.2942 31.4025 42.6998 31.359 43.3808C31.3301 44.0182 30.823 44.3804 29.8668 44.3804C27.3604 44.3949 24.8539 44.3804 22.333 44.3804C21.5072 44.3804 20.6959 44.3949 19.8701 44.3804C18.6241 44.3515 18.3778 44.1052 18.3633 42.8158C18.3488 40.744 18.3633 38.6577 18.3633 36.5859C18.3633 33.9781 18.3488 31.3703 18.3633 28.7624C18.3778 27.2702 18.6386 27.0094 20.1454 26.9949C24.7236 26.9804 29.3162 26.9804 33.8944 26.9949C35.1404 26.9949 35.7489 27.4006 35.6909 28.1684C35.6475 28.8783 35.0969 29.2116 33.9089 29.2116C29.9972 29.226 26.0854 29.2116 22.1737 29.2116C21.6666 29.226 21.1595 29.226 20.5655 29.226Z" fill="#3A62FF"/>
<path fill-rule="evenodd" clip-rule="evenodd" d="M44.4272 4.95871C42.1671 4.95871 40.0953 4.95871 37.8641 4.95871C37.8641 6.07428 37.8641 5.37886 37.8641 6.422C37.8641 7.72591 37.8496 9.02983 37.8641 10.3337C37.8641 10.9567 37.7482 11.5073 37.0963 11.7391C36.4878 11.9564 36.0966 11.5507 35.7199 11.174C33.4308 8.88495 31.1417 6.59585 28.8526 4.32124C28.5773 4.04597 28.3166 3.75621 28.0123 3.5244C27.3604 3.03181 26.6649 3.0463 26.013 3.5244C25.7522 3.72723 25.5204 3.98802 25.2741 4.21982C18.798 10.7104 12.3074 17.201 5.83125 23.6916C5.54149 23.9814 5.26622 24.3146 4.75914 24.8797C5.90369 24.8797 6.74399 24.8797 7.58429 24.8797C9.4967 24.8797 9.67056 25.039 9.67056 26.9369C9.67056 34.3693 9.67056 41.8016 9.67056 49.2339C9.67056 49.7555 9.67056 50.277 9.67056 50.958C10.337 50.958 10.8586 50.958 11.3801 50.958C18.769 50.958 24.2958 50.958 31.6702 50.958C32.1048 50.958 32.5394 50.9435 32.9741 51.0014C33.5246 51.0884 33.8289 51.494 33.8434 52.0011C33.8578 52.5227 33.5391 52.9283 33.0031 53.0298C32.6698 53.0877 32.3366 53.0732 31.9889 53.0732C23.8322 53.0732 17.5375 53.0732 9.3808 53.0732C7.68571 53.0732 7.46839 52.8559 7.46839 51.1463C7.46839 43.714 7.46839 36.2817 7.46839 28.8494C7.46839 28.2843 7.46839 27.7193 7.46839 26.9949C5.86023 26.9949 4.42592 27.0094 2.99161 26.9949C2.29619 26.9804 1.45589 27.2122 1.09369 26.3285C0.745976 25.4592 1.4414 25.01 1.94848 24.503C9.2649 17.1721 16.6103 9.84115 23.9267 2.48127C25.1147 1.29326 26.4476 0.655787 28.0848 1.19184C28.7367 1.40916 29.3742 1.8438 29.8958 2.3219C31.446 3.78519 32.9092 5.30642 34.416 6.81317C34.7492 7.14639 35.0969 7.45064 35.6909 8.00118C35.7054 7.11742 35.7344 6.50892 35.7344 5.91492C35.7344 4.79934 35.7199 5.43681 35.7344 4.32124C35.7489 2.98835 36.0386 2.69859 37.3426 2.66961C38.5451 2.64064 39.7621 2.66961 40.9646 2.66961C42.2685 2.66961 43.5724 2.65513 44.8763 2.66961C46.2671 2.69859 46.5424 2.97386 46.5569 4.39368C46.5714 9.17471 46.6149 12.2172 46.5279 16.9982C46.499 18.4325 46.9046 19.4467 47.9622 20.3884C49.3965 21.6778 50.715 23.0976 52.0768 24.4595C52.2797 24.6623 52.5549 24.8362 52.6708 25.0825C52.8447 25.4447 53.062 25.8793 52.9896 26.2415C52.9026 26.7631 52.4245 26.9804 51.8885 26.9804C50.7294 26.9804 49.5704 26.9804 48.4114 26.9949C47.8898 26.9949 47.3537 26.9949 46.9046 26.9949C46.7453 27.1108 46.6438 27.1543 46.6004 27.2267C46.2671 27.8062 45.8615 28.2843 45.1081 27.9946C44.4417 27.7338 44.4272 27.1398 44.4272 26.5313C44.4272 25.1694 44.659 24.9086 45.9919 24.8652C46.9481 24.8362 47.9188 24.8217 48.8895 24.8072C48.9184 24.8072 48.9329 24.7348 49.0633 24.5319C48.4114 23.8655 47.7015 23.1701 47.0205 22.4602C46.1802 21.5909 45.0502 20.8375 44.63 19.7944C44.1954 18.7512 44.4562 17.4184 44.4562 16.2159C44.4417 12.4055 44.4562 10.3337 44.4562 6.50892C44.4272 6.0598 44.4272 5.58169 44.4272 4.95871Z" stroke="#3A62FF" stroke-width="0.5"/>
<path fill-rule="evenodd" clip-rule="evenodd" d="M54.982 39.1068C54.982 40.9468 54.9241 44.6344 54.9965 46.4743C55.0545 48.1115 54.388 49.3574 53.229 50.4151C51.6353 51.8638 49.8098 52.936 47.8829 53.8342C44.739 55.312 44.6483 55.341 41.6203 53.8487C39.8528 52.9794 37.2701 51.8638 35.662 50.7193C34.1118 49.6182 33.4308 48.0825 33.4888 46.0976C33.5902 42.4322 33.5177 36.8902 33.5177 33.2247C33.5177 31.7614 33.6481 31.6021 35.068 31.2399C37.5019 30.6169 40.8525 29.9794 43.3009 29.4144C43.8949 29.284 44.5614 29.255 45.1409 29.3999C47.6328 29.9794 51.0413 30.6169 53.5043 31.2544C54.8227 31.6021 54.9675 31.7759 54.9675 33.1523C54.9965 35.1371 54.982 37.122 54.982 39.1068ZM35.7924 33.3261C35.7634 33.8187 35.7344 34.1954 35.7344 34.5721C35.7344 37.9043 35.7779 43.0841 35.7054 46.4164C35.6765 47.5609 36.0531 48.4157 36.9659 48.9952C38.8348 50.1688 41.6783 51.2988 43.6052 52.3709C43.9239 52.5448 44.4744 52.5593 44.8222 52.4144C46.9374 51.4727 49.8967 50.3716 51.6933 48.8793C52.4466 48.2563 52.7943 47.5175 52.7799 46.5033C52.7219 43.1276 52.7654 37.8898 52.7509 34.5141C52.7509 34.1375 52.7074 33.7608 52.6784 33.3116C51.2441 32.935 49.8243 32.6742 48.4624 32.1961C46.2313 31.4282 43.1271 31.4572 40.8959 32.2106C39.5485 32.6742 37.1977 32.9639 35.7924 33.3261Z" stroke="#3A62FF" stroke-width="0.5"/>
<path fill-rule="evenodd" clip-rule="evenodd" d="M20.5655 29.226C20.5655 33.6159 20.5655 37.8319 20.5655 42.1638C21.0291 42.1928 21.4348 42.2507 21.8549 42.2652C24.2744 42.2797 26.6794 42.2652 29.0989 42.2652C29.3452 42.2652 29.577 42.2652 29.8233 42.2652C30.852 42.2942 31.4025 42.6998 31.359 43.3808C31.3301 44.0182 30.823 44.3804 29.8668 44.3804C27.3604 44.3949 24.8539 44.3804 22.333 44.3804C21.5072 44.3804 20.6959 44.3949 19.8701 44.3804C18.6241 44.3515 18.3778 44.1052 18.3633 42.8158C18.3488 40.744 18.3633 38.6577 18.3633 36.5859C18.3633 33.9781 18.3488 31.3703 18.3633 28.7624C18.3778 27.2702 18.6386 27.0094 20.1454 26.9949C24.7236 26.9804 29.3162 26.9804 33.8944 26.9949C35.1404 26.9949 35.7489 27.4006 35.6909 28.1684C35.6475 28.8783 35.0969 29.2116 33.9089 29.2116C29.9972 29.226 26.0854 29.2116 22.1737 29.2116C21.6666 29.226 21.1595 29.226 20.5655 29.226Z" stroke="#3A62FF" stroke-width="0.5"/>
<path fill-rule="evenodd" clip-rule="evenodd" d="M48.9348 39.4253L43.0716 45.214C42.7422 45.5381 42.208 45.5381 41.8786 45.214L39.1876 42.3652C38.8582 42.0411 38.8582 41.5158 39.1876 41.1917C39.5171 40.8677 40.0512 40.8677 40.3807 41.1917L42.4751 43.4538L47.7417 38.2519C48.0712 37.9278 48.6053 37.9278 48.9348 38.2519C49.2642 38.5759 49.2642 39.1013 48.9348 39.4253Z" fill="#3A62FF"/>
<path fill-rule="evenodd" clip-rule="evenodd" d="M49.4244 39.9232L43.5612 45.7119C42.96 46.3032 41.99 46.3032 41.3889 45.7119L41.3797 45.7029L38.6875 42.8527C38.0903 42.2542 38.0938 41.2881 38.6979 40.6939C39.2991 40.1026 40.2691 40.1026 40.8703 40.6939L40.8819 40.7053L42.4975 42.4502L47.2509 37.7551L47.252 37.754C47.8532 37.1627 48.8232 37.1627 49.4244 37.754C50.0318 38.3515 50.0314 39.3255 49.4244 39.9232ZM48.4451 38.9275C48.4964 38.8771 48.4964 38.8001 48.4451 38.7497C48.3874 38.693 48.2894 38.6929 48.2316 38.7494L42.4526 44.4574L39.884 41.6831C39.8256 41.6329 39.7327 41.635 39.6772 41.6896C39.6259 41.74 39.6259 41.8169 39.6772 41.8674L39.6864 41.8764L42.3736 44.7213C42.4318 44.7728 42.5257 44.7712 42.5817 44.7165L48.4451 38.9275Z" fill="#3A62FF"/>
</svg>
