<svg width="58" height="48" viewBox="0 0 58 48" fill="none" xmlns="http://www.w3.org/2000/svg">
<path d="M56.2122 39.2403C55.5211 39.2228 52.1879 39.214 49.7909 39.2228C49.7034 39.2228 49.6159 39.2228 49.5285 39.2228C47.98 39.2228 46.4403 39.214 44.8918 39.2315C44.5507 39.2315 44.4369 39.1265 44.4369 38.7766C44.4544 37.2194 44.4544 35.6535 44.4369 34.0962C44.4369 33.7551 44.5594 33.6763 44.8743 33.6851C45.7929 33.7026 46.7115 33.6938 47.6301 33.6938C49.9309 33.6938 52.2404 33.7026 54.5412 33.6851C55.7923 33.6763 56.8421 32.7315 56.982 31.5417C57.1307 30.2907 56.3434 29.1709 55.1099 28.856C54.9874 28.821 54.8649 28.786 54.7075 28.7423C54.7075 27.9024 54.7162 27.0888 54.7075 26.2753C54.6812 24.5431 53.5352 23.0209 51.838 22.6447C50.9982 22.461 50.1058 22.5047 49.231 22.4872C48.8898 22.4785 48.7411 22.391 48.6974 22.0411C48.5049 20.5539 48.2862 19.0666 48.1025 17.5794C48.085 17.4045 48.1812 17.1508 48.3124 17.037C50.2721 15.3049 51.0244 12.6629 50.1933 10.2921C49.3272 7.7813 47.1577 6.15411 44.5069 6.04039C44.227 6.03164 44.1045 5.91791 44.0083 5.67296C42.906 2.79476 40.3952 1.01885 37.307 1.0101C27.5527 0.992605 17.7983 1.00135 8.04392 1.0101C7.01162 1.0101 6.00556 1.22006 5.08698 1.69247C2.51498 2.98722 1.124 5.08682 1.00152 7.98251C0.975274 8.5599 1.29021 8.87484 1.85885 8.91858C2.01632 8.92733 2.18254 8.92733 2.34001 8.92733C5.88308 8.92733 9.42615 8.92733 12.9692 8.92733C13.5379 8.92733 13.5379 8.92733 13.5466 9.51347C13.5466 10.0909 13.5466 15.1036 13.5466 16.7746C13.5466 24.4556 13.5466 32.1454 13.5466 39.8264C13.5466 40.2726 13.5554 40.7362 13.6341 41.1736C14.299 44.7692 17.1509 47.14 20.8077 47.14C30.4484 47.14 40.0803 47.14 49.7209 47.1312C50.3421 47.1312 50.9719 47.0525 51.5843 46.9125C54.655 46.2127 57.0083 43.2557 56.982 40.1588C56.982 39.6077 56.7196 39.249 56.2122 39.2403ZM54.2001 30.422C54.2613 30.422 54.3138 30.422 54.375 30.422C54.9874 30.4307 55.3548 30.7456 55.3373 31.253C55.3286 31.7342 54.9699 32.0404 54.375 32.0404C50.9894 32.0404 47.6126 32.0404 44.227 32.0404C40.9289 32.0404 37.6395 32.0404 34.3414 32.0404C34.1926 32.0404 34.0439 32.0491 33.904 32.0316C33.4753 31.9792 33.1778 31.638 33.1778 31.2355C33.1778 30.8244 33.4665 30.4919 33.904 30.4395C34.0439 30.422 34.1926 30.4307 34.3414 30.4307C40.9638 30.422 47.5776 30.422 54.2001 30.422ZM50.6482 24.1232C52.1879 24.1144 52.984 25.1817 53.0365 26.0828C53.089 26.9576 53.0453 27.8325 53.0453 28.7423C47.1927 28.7423 41.3575 28.7423 35.4699 28.7423C35.4699 27.8499 35.4262 26.9839 35.4786 26.1265C35.5574 25.033 36.4235 24.2281 37.517 24.1494C37.7795 24.1319 38.0419 24.1319 38.3044 24.1319C42.4248 24.1319 46.5365 24.1494 50.6482 24.1232ZM48.4699 10.4058C49.301 12.2604 48.8111 14.5612 47.1752 15.7685C46.4053 16.3372 46.2741 16.9145 46.4315 17.7719C46.6852 19.1454 46.834 20.5364 47.0264 21.9273C47.0439 22.0848 47.0527 22.2423 47.0702 22.4522C45.1718 22.4522 43.3259 22.4522 41.4275 22.4522C41.5325 21.6911 41.62 20.9738 41.725 20.2652C41.8737 19.1804 42.0311 18.1043 42.1799 17.0195C42.2411 16.5646 41.9962 16.2934 41.655 16.0485C40.2027 14.9987 39.5291 13.5727 39.6866 11.7793C39.8791 9.70593 41.48 8.0525 43.5883 7.71132C45.6005 7.37888 47.6126 8.49866 48.4699 10.4058ZM2.77743 7.23891C2.68994 5.02558 5.41067 2.66353 8.02642 2.64604C10.7209 2.61979 13.4504 4.9381 13.4066 7.23891C9.86357 7.23891 6.3205 7.23891 2.77743 7.23891ZM22.9248 44.9617C21.0264 45.854 19.163 45.6615 17.4659 44.4543C15.8737 43.3257 15.1825 41.7248 15.1825 39.7827C15.1913 32.1191 15.1913 24.4643 15.1825 16.8008C15.1913 14.8587 15.2088 8.94483 15.165 7.84254C15.0951 5.9529 14.369 4.34321 13.013 3.01347C12.9167 2.91724 12.838 2.81226 12.7068 2.67228C12.8467 2.66353 12.908 2.64604 12.9605 2.64604C21.1402 2.64604 29.3198 2.61979 37.4995 2.66353C39.6254 2.67228 41.2001 3.77457 42.2061 5.64671C42.3023 5.83043 42.3723 6.03164 42.4686 6.25035C42.2324 6.33783 42.0574 6.40782 41.8824 6.4778C37.8144 8.15748 36.6684 13.459 39.7653 16.5559C40.3602 17.1508 40.5002 17.6669 40.334 18.4105C40.194 19.0229 40.229 19.0316 39.6079 19.0316C32.8979 19.0316 26.1967 19.0316 19.4867 19.0316C19.3118 19.0316 19.1368 19.0229 18.9618 19.0404C18.5332 19.0841 18.227 19.3991 18.2095 19.8102C18.192 20.2389 18.4894 20.5976 18.9268 20.6588C19.1018 20.6851 19.2768 20.6763 19.4517 20.6763C26.1005 20.6763 32.7492 20.6763 39.3979 20.6763C39.5816 20.6763 39.7566 20.6763 39.9753 20.6763C39.9053 21.2275 39.8616 21.7086 39.7653 22.1723C39.7391 22.2948 39.5291 22.461 39.3979 22.4697C38.8468 22.5047 38.2869 22.4872 37.7357 22.4872C37.0359 22.4872 36.3885 22.6534 35.7586 22.9771C35.5224 23.0996 35.2424 23.1871 34.98 23.1871C29.7922 23.1958 24.5957 23.1958 19.408 23.1958C19.2505 23.1958 19.0843 23.1871 18.9268 23.2046C18.5069 23.2483 18.2007 23.5808 18.192 23.9919C18.1832 24.4031 18.4719 24.753 18.8831 24.823C19.0406 24.8493 19.2068 24.8405 19.3642 24.8405C24.0621 24.8405 28.7512 24.8405 33.449 24.8405C33.6328 24.8405 33.8252 24.8405 33.9739 24.8405C33.8865 25.6891 33.799 26.494 33.7115 27.3513C33.554 27.3513 33.3703 27.3513 33.1866 27.3513C28.6112 27.3513 24.0271 27.3513 19.4517 27.3513C19.2768 27.3513 19.1018 27.3425 18.9268 27.3688C18.4807 27.43 18.1832 27.78 18.2007 28.2086C18.2182 28.6198 18.5244 28.9435 18.9443 28.9872C19.093 29.0047 19.233 28.996 19.3817 28.996C23.6859 28.996 27.9813 28.996 32.2855 28.996C32.4342 28.996 32.583 28.996 32.7317 28.996C31.8656 29.6434 31.4894 30.4657 31.4894 31.5155C31.2707 31.5155 31.1045 31.5155 30.9295 31.5155C27.124 31.5155 23.3185 31.5155 19.513 31.5155C18.5944 31.5155 18.192 31.7692 18.2007 32.3466C18.2095 32.9152 18.5944 33.1602 19.4955 33.1602C23.6684 33.1602 27.8326 33.1602 32.0056 33.1689C32.2155 33.1689 32.4255 33.2389 32.6354 33.2914C33.1516 33.4226 33.659 33.6763 34.1752 33.6763C36.8434 33.7201 39.5116 33.6938 42.1799 33.6938C42.3548 33.6938 42.5298 33.6938 42.7835 33.6938C42.7835 33.9125 42.7835 34.07 42.7835 34.2275C42.7835 35.6709 42.7835 37.1144 42.7835 38.5579C42.7835 39.2315 42.7835 39.2315 42.1274 39.2315C37.2021 39.2315 32.268 39.2315 27.3427 39.2315C26.2842 39.2315 26.1179 39.4152 26.0217 40.4563C25.873 42.5384 24.8144 44.0693 22.9248 44.9617ZM55.1711 41.3836C54.5237 43.8506 52.3892 45.4953 49.7909 45.4953C41.7599 45.5041 33.7202 45.4953 25.6893 45.4953C25.5668 45.4953 25.4443 45.4866 25.3218 45.4778C25.2781 45.4253 25.2344 45.3641 25.1906 45.3116C25.3218 45.2416 25.4793 45.2066 25.5756 45.1104C26.6079 44.0956 27.3165 42.8796 27.5614 41.4448C27.6489 40.9637 27.8326 40.8587 28.2963 40.8587C35.0937 40.8762 41.8912 40.8674 48.6799 40.8674C50.6832 40.8762 54.2613 40.8674 54.6375 40.8674C54.8299 40.8674 55.0224 40.8937 55.2586 40.9024C55.2236 41.0949 55.2061 41.2436 55.1711 41.3836Z" fill="#3A62FF"/>
<path d="M31.8481 37.2456C32.2768 37.1582 32.5305 36.8257 32.5042 36.3971C32.478 35.9159 32.1455 35.636 31.5681 35.636C29.5123 35.6272 27.4564 35.636 25.4006 35.636C23.3885 35.636 21.3764 35.636 19.3642 35.636C19.2155 35.636 19.0755 35.6272 18.9268 35.6535C18.5332 35.7059 18.262 35.9946 18.227 36.3796C18.192 36.7732 18.4194 37.1319 18.8218 37.2369C19.0056 37.2806 19.198 37.2894 19.3817 37.2894C23.3797 37.2894 27.369 37.2894 31.3669 37.2894C31.5332 37.2806 31.6906 37.2806 31.8481 37.2456Z" fill="#3A62FF"/>
<path d="M56.2122 39.2403C55.5211 39.2228 52.1879 39.214 49.7909 39.2228C49.7034 39.2228 49.6159 39.2228 49.5285 39.2228C47.98 39.2228 46.4403 39.214 44.8918 39.2315C44.5507 39.2315 44.4369 39.1265 44.4369 38.7766C44.4544 37.2194 44.4544 35.6535 44.4369 34.0962C44.4369 33.7551 44.5594 33.6763 44.8743 33.6851C45.7929 33.7026 46.7115 33.6938 47.6301 33.6938C49.9309 33.6938 52.2404 33.7026 54.5412 33.6851C55.7923 33.6763 56.8421 32.7315 56.982 31.5417C57.1307 30.2907 56.3434 29.1709 55.1099 28.856C54.9874 28.821 54.8649 28.786 54.7075 28.7423C54.7075 27.9024 54.7162 27.0888 54.7075 26.2753C54.6812 24.5431 53.5352 23.0209 51.838 22.6447C50.9982 22.461 50.1058 22.5047 49.231 22.4872C48.8898 22.4785 48.7411 22.391 48.6974 22.0411C48.5049 20.5539 48.2862 19.0666 48.1025 17.5794C48.085 17.4045 48.1812 17.1508 48.3124 17.037C50.2721 15.3049 51.0244 12.6629 50.1933 10.2921C49.3272 7.7813 47.1577 6.15411 44.5069 6.04039C44.227 6.03164 44.1045 5.91791 44.0083 5.67296C42.906 2.79476 40.3952 1.01885 37.307 1.0101C27.5527 0.992605 17.7983 1.00135 8.04392 1.0101C7.01162 1.0101 6.00556 1.22006 5.08698 1.69247C2.51498 2.98722 1.124 5.08682 1.00152 7.98251C0.975274 8.5599 1.29021 8.87484 1.85885 8.91858C2.01632 8.92733 2.18254 8.92733 2.34001 8.92733C5.88308 8.92733 9.42615 8.92733 12.9692 8.92733C13.5379 8.92733 13.5379 8.92733 13.5466 9.51347C13.5466 10.0909 13.5466 15.1036 13.5466 16.7746C13.5466 24.4556 13.5466 32.1454 13.5466 39.8264C13.5466 40.2726 13.5554 40.7362 13.6341 41.1736C14.299 44.7692 17.1509 47.14 20.8077 47.14C30.4484 47.14 40.0803 47.14 49.7209 47.1312C50.3421 47.1312 50.9719 47.0525 51.5843 46.9125C54.655 46.2127 57.0083 43.2557 56.982 40.1588C56.982 39.6077 56.7196 39.249 56.2122 39.2403ZM54.2001 30.422C54.2613 30.422 54.3138 30.422 54.375 30.422C54.9874 30.4307 55.3548 30.7456 55.3373 31.253C55.3286 31.7342 54.9699 32.0404 54.375 32.0404C50.9894 32.0404 47.6126 32.0404 44.227 32.0404C40.9289 32.0404 37.6395 32.0404 34.3414 32.0404C34.1926 32.0404 34.0439 32.0491 33.904 32.0316C33.4753 31.9792 33.1778 31.638 33.1778 31.2355C33.1778 30.8244 33.4665 30.4919 33.904 30.4395C34.0439 30.422 34.1926 30.4307 34.3414 30.4307C40.9638 30.422 47.5776 30.422 54.2001 30.422ZM50.6482 24.1232C52.1879 24.1144 52.984 25.1817 53.0365 26.0828C53.089 26.9576 53.0453 27.8325 53.0453 28.7423C47.1927 28.7423 41.3575 28.7423 35.4699 28.7423C35.4699 27.8499 35.4262 26.9839 35.4786 26.1265C35.5574 25.033 36.4235 24.2281 37.517 24.1494C37.7795 24.1319 38.0419 24.1319 38.3044 24.1319C42.4248 24.1319 46.5365 24.1494 50.6482 24.1232ZM48.4699 10.4058C49.301 12.2604 48.8111 14.5612 47.1752 15.7685C46.4053 16.3372 46.2741 16.9145 46.4315 17.7719C46.6852 19.1454 46.834 20.5364 47.0264 21.9273C47.0439 22.0848 47.0527 22.2423 47.0702 22.4522C45.1718 22.4522 43.3259 22.4522 41.4275 22.4522C41.5325 21.6911 41.62 20.9738 41.725 20.2652C41.8737 19.1804 42.0311 18.1043 42.1799 17.0195C42.2411 16.5646 41.9962 16.2934 41.655 16.0485C40.2027 14.9987 39.5291 13.5727 39.6866 11.7793C39.8791 9.70593 41.48 8.0525 43.5883 7.71132C45.6005 7.37888 47.6126 8.49866 48.4699 10.4058ZM2.77743 7.23891C2.68994 5.02558 5.41067 2.66353 8.02642 2.64604C10.7209 2.61979 13.4504 4.9381 13.4066 7.23891C9.86357 7.23891 6.3205 7.23891 2.77743 7.23891ZM22.9248 44.9617C21.0264 45.854 19.163 45.6615 17.4659 44.4543C15.8737 43.3257 15.1825 41.7248 15.1825 39.7827C15.1913 32.1191 15.1913 24.4643 15.1825 16.8008C15.1913 14.8587 15.2088 8.94483 15.165 7.84254C15.0951 5.9529 14.369 4.34321 13.013 3.01347C12.9167 2.91724 12.838 2.81226 12.7068 2.67228C12.8467 2.66353 12.908 2.64604 12.9605 2.64604C21.1402 2.64604 29.3198 2.61979 37.4995 2.66353C39.6254 2.67228 41.2001 3.77457 42.2061 5.64671C42.3023 5.83043 42.3723 6.03164 42.4686 6.25035C42.2324 6.33783 42.0574 6.40782 41.8824 6.4778C37.8144 8.15748 36.6684 13.459 39.7653 16.5559C40.3602 17.1508 40.5002 17.6669 40.334 18.4105C40.194 19.0229 40.229 19.0316 39.6079 19.0316C32.8979 19.0316 26.1967 19.0316 19.4867 19.0316C19.3118 19.0316 19.1368 19.0229 18.9618 19.0404C18.5332 19.0841 18.227 19.3991 18.2095 19.8102C18.192 20.2389 18.4894 20.5976 18.9268 20.6588C19.1018 20.6851 19.2768 20.6763 19.4517 20.6763C26.1005 20.6763 32.7492 20.6763 39.3979 20.6763C39.5816 20.6763 39.7566 20.6763 39.9753 20.6763C39.9053 21.2275 39.8616 21.7086 39.7653 22.1723C39.7391 22.2948 39.5291 22.461 39.3979 22.4697C38.8468 22.5047 38.2869 22.4872 37.7357 22.4872C37.0359 22.4872 36.3885 22.6534 35.7586 22.9771C35.5224 23.0996 35.2424 23.1871 34.98 23.1871C29.7922 23.1958 24.5957 23.1958 19.408 23.1958C19.2505 23.1958 19.0843 23.1871 18.9268 23.2046C18.5069 23.2483 18.2007 23.5808 18.192 23.9919C18.1832 24.4031 18.4719 24.753 18.8831 24.823C19.0406 24.8493 19.2068 24.8405 19.3642 24.8405C24.0621 24.8405 28.7512 24.8405 33.449 24.8405C33.6328 24.8405 33.8252 24.8405 33.9739 24.8405C33.8865 25.6891 33.799 26.494 33.7115 27.3513C33.554 27.3513 33.3703 27.3513 33.1866 27.3513C28.6112 27.3513 24.0271 27.3513 19.4517 27.3513C19.2768 27.3513 19.1018 27.3425 18.9268 27.3688C18.4807 27.43 18.1832 27.78 18.2007 28.2086C18.2182 28.6198 18.5244 28.9435 18.9443 28.9872C19.093 29.0047 19.233 28.996 19.3817 28.996C23.6859 28.996 27.9813 28.996 32.2855 28.996C32.4342 28.996 32.583 28.996 32.7317 28.996C31.8656 29.6434 31.4894 30.4657 31.4894 31.5155C31.2707 31.5155 31.1045 31.5155 30.9295 31.5155C27.124 31.5155 23.3185 31.5155 19.513 31.5155C18.5944 31.5155 18.192 31.7692 18.2007 32.3466C18.2095 32.9152 18.5944 33.1602 19.4955 33.1602C23.6684 33.1602 27.8326 33.1602 32.0056 33.1689C32.2155 33.1689 32.4255 33.2389 32.6354 33.2914C33.1516 33.4226 33.659 33.6763 34.1752 33.6763C36.8434 33.7201 39.5116 33.6938 42.1799 33.6938C42.3548 33.6938 42.5298 33.6938 42.7835 33.6938C42.7835 33.9125 42.7835 34.07 42.7835 34.2275C42.7835 35.6709 42.7835 37.1144 42.7835 38.5579C42.7835 39.2315 42.7835 39.2315 42.1274 39.2315C37.2021 39.2315 32.268 39.2315 27.3427 39.2315C26.2842 39.2315 26.1179 39.4152 26.0217 40.4563C25.873 42.5384 24.8144 44.0693 22.9248 44.9617ZM55.1711 41.3836C54.5237 43.8506 52.3892 45.4953 49.7909 45.4953C41.7599 45.5041 33.7202 45.4953 25.6893 45.4953C25.5668 45.4953 25.4443 45.4866 25.3218 45.4778C25.2781 45.4253 25.2344 45.3641 25.1906 45.3116C25.3218 45.2416 25.4793 45.2066 25.5756 45.1104C26.6079 44.0956 27.3165 42.8796 27.5614 41.4448C27.6489 40.9637 27.8326 40.8587 28.2963 40.8587C35.0937 40.8762 41.8912 40.8674 48.6799 40.8674C50.6832 40.8762 54.2613 40.8674 54.6375 40.8674C54.8299 40.8674 55.0224 40.8937 55.2586 40.9024C55.2236 41.0949 55.2061 41.2436 55.1711 41.3836Z" stroke="#3A62FF" stroke-width="0.5"/>
<path d="M31.8481 37.2456C32.2768 37.1582 32.5305 36.8257 32.5042 36.3971C32.478 35.9159 32.1455 35.636 31.5681 35.636C29.5123 35.6272 27.4564 35.636 25.4006 35.636C23.3885 35.636 21.3764 35.636 19.3642 35.636C19.2155 35.636 19.0755 35.6272 18.9268 35.6535C18.5332 35.7059 18.262 35.9946 18.227 36.3796C18.192 36.7732 18.4194 37.1319 18.8218 37.2369C19.0056 37.2806 19.198 37.2894 19.3817 37.2894C23.3797 37.2894 27.369 37.2894 31.3669 37.2894C31.5332 37.2806 31.6906 37.2806 31.8481 37.2456Z" stroke="#3A62FF" stroke-width="0.5"/>
</svg>
