<svg width="78" height="28" viewBox="0 0 78 28" fill="none" xmlns="http://www.w3.org/2000/svg">
<path d="M31.3226 25.2603C31.3226 24.7631 31.3125 24.2558 31.3125 23.7587C31.901 23.505 32.3068 23.0281 32.7837 22.6223C34.681 21.0192 36.5885 19.406 38.5061 17.8232C38.912 17.4883 39.2671 17.0521 39.815 16.8897C39.8251 18.0159 39.8454 19.1523 39.8251 20.2785C39.8251 20.6438 39.9469 20.7554 40.2918 20.7351C40.6267 20.7148 40.9615 20.7351 41.3064 20.725C41.9659 20.725 41.9659 20.725 41.9659 20.0858C41.9761 18.3711 41.9862 16.6462 41.9862 14.9315C43.1733 13.9271 44.3604 12.9124 45.5577 11.908C46.7549 10.9035 47.9522 9.89904 49.1494 8.88442C50.5496 7.69733 51.9497 6.51023 53.3499 5.32313C55.0037 3.92296 56.688 2.55324 58.3215 1.12263C59.0216 0.513863 59.7115 0.168895 60.6957 0.179041C65.4847 0.239918 70.2838 0.209479 75.0829 0.199333C75.225 0.199333 75.3873 0.250064 75.5192 0.118164C76.7469 0.300794 77.7818 1.41687 77.8427 2.63441C77.8528 2.81704 77.8528 3.00981 77.8528 3.19244C77.8528 10.3962 77.8224 17.6 77.8731 24.8037C77.8833 26.6503 76.5744 27.9997 74.6771 27.9997C61.2639 27.9794 47.8608 27.9896 34.4477 27.9896C32.7938 27.9896 31.627 27.1069 31.3937 25.6763C31.5256 25.5139 31.5459 25.3617 31.3226 25.2603ZM57.7127 13.369C57.5707 13.2168 57.6214 13.0545 57.6214 12.9124C57.6214 11.5934 57.6113 10.2744 57.6214 8.95545C57.6214 8.61048 57.5301 8.46843 57.1649 8.49887C56.7996 8.52931 56.414 8.53946 56.0488 8.49887C55.5618 8.44814 55.4704 8.64092 55.4704 9.09749C55.4806 12.6486 55.4704 16.1896 55.4502 19.7408C55.4502 20.7148 55.4299 20.725 56.4242 20.7148C57.3069 20.7047 57.2359 20.867 57.3069 19.9336C57.317 19.822 57.2663 19.6901 57.4084 19.6292C57.6113 19.8321 57.8041 20.035 58.0171 20.2177C59.326 21.3642 61.619 21.0395 62.7757 19.619C63.9729 18.1377 64.1758 15.6012 63.2424 13.9271C62.2278 12.1109 59.9652 11.5934 58.3317 12.811C58.1084 12.9632 57.9258 13.1762 57.7127 13.369ZM53.2789 16.5549C53.2586 16.5549 53.2383 16.5549 53.2079 16.5549C53.2079 15.6925 53.218 14.8301 53.2079 13.9676C53.1977 13.4502 53.4209 12.7602 53.1267 12.4457C52.802 12.1007 52.1019 12.3848 51.5642 12.3341C51.138 12.2834 51.067 12.4863 51.0772 12.8617C51.0975 14.2822 51.0873 15.7026 51.0873 17.1231C51.0873 17.397 51.0772 17.6608 50.996 17.9246C50.7728 18.6552 50.1133 19.1726 49.3422 19.1929C48.6624 19.2132 48.2363 18.8581 47.9623 18.0261C47.9116 17.884 47.8913 17.7319 47.871 17.5797C47.7289 16.3824 47.8406 15.1852 47.7898 13.9879C47.7695 13.4603 48.0333 12.7602 47.6681 12.4356C47.313 12.121 46.6332 12.3645 46.0954 12.3443C46.065 12.3443 46.0244 12.3443 45.994 12.3443C45.7504 12.324 45.6693 12.4559 45.6794 12.6892C45.7099 14.5155 45.578 16.3418 45.7504 18.158C45.8621 19.3552 46.3694 20.4003 47.6478 20.7655C48.916 21.1308 50.0524 20.8772 50.9656 19.8625C51.0467 19.7814 51.0975 19.6495 51.2395 19.6698C51.3714 19.6901 51.341 19.822 51.3613 19.9133C51.483 20.7351 51.483 20.7351 52.3454 20.7351C52.5179 20.7351 52.6803 20.7148 52.8527 20.7351C53.2282 20.7757 53.2992 20.6032 53.289 20.2582C53.2687 19.0204 53.2789 17.7826 53.2789 16.5549ZM69.9084 17.1434C70.6998 17.1434 71.5013 17.1434 72.2927 17.1434C72.4754 17.1434 72.6681 17.1738 72.6986 16.8897C72.8406 15.6215 72.658 14.4242 71.8565 13.3893C70.6085 11.7659 67.9705 11.8167 66.408 13.227C65.2716 14.2619 64.9672 15.5707 65.0484 17.0419C65.1397 18.6856 65.9007 19.8727 67.382 20.5525C68.6807 21.1511 70.0403 20.938 71.3593 20.6438C72.2826 20.4409 72.2319 20.4003 72.1 19.4567C72.0289 18.9595 71.8057 18.9291 71.4202 19.0509C70.7404 19.2741 70.02 19.3045 69.3199 19.3045C68.3155 19.3045 67.4429 18.5943 67.1791 17.671C67.0675 17.2651 67.1284 17.1129 67.5748 17.1332C68.3459 17.1637 69.1271 17.1434 69.9084 17.1434Z" fill="#E11D1D"/>
<path d="M39.804 16.89C39.2561 17.0523 38.9111 17.4886 38.4952 17.8234C36.5775 19.4062 34.6802 21.0195 32.7727 22.6225C32.2959 23.0182 31.89 23.5053 31.3015 23.7589C31.2914 23.2719 31.2812 22.7849 31.2812 22.2877C31.2812 15.9667 31.2812 9.64564 31.2812 3.3246C31.2812 1.18377 32.4278 0.0271088 34.5585 0.0271088C37.8357 0.0271088 41.1129 0.0271088 44.4002 0.0271088C54.455 0.0271088 64.52 0.0169627 74.5748 0.0169627C74.8893 0.0169627 75.214 -0.0642064 75.5083 0.12857C75.3865 0.26047 75.2242 0.199593 75.0821 0.199593C70.283 0.199593 65.4839 0.230032 60.6847 0.169155C59.7006 0.159009 59.0106 0.503977 58.3106 1.11275C56.677 2.54335 54.9928 3.91308 53.339 5.31324C51.9388 6.50034 50.5386 7.68744 49.1384 8.87454C47.9412 9.88915 46.744 10.8835 45.5467 11.8981C44.3495 12.9026 43.1624 13.9172 41.9753 14.9216C41.9651 13.7041 41.9651 12.4866 41.9448 11.269C41.9448 11.0052 42.0564 10.9139 42.3101 10.9139C42.8884 10.9241 43.4566 10.9139 44.0349 10.9139C45.3134 10.9139 45.2931 10.9139 45.3032 9.62535C45.3032 9.2398 45.2119 9.1079 44.7959 9.1079C42.4623 9.12819 40.1287 9.11805 37.7951 9.11805C36.4964 9.11805 36.5065 9.11805 36.5268 10.4472C36.5369 10.8023 36.6587 10.9241 37.0037 10.9139C37.7951 10.8936 38.5966 10.9139 39.388 10.9038C39.6721 10.9038 39.8243 10.9646 39.8141 11.2995C39.804 13.1664 39.804 15.0332 39.804 16.89Z" fill="#E74A4A"/>
<path d="M17.1286 16.5453C17.2199 19.1427 15.1703 20.9386 12.8976 20.9183C10.2799 20.8878 8.63624 19.1529 8.6058 16.525C8.57536 13.9175 10.6452 12.1317 12.9686 12.152C15.353 12.152 17.301 14.0696 17.1286 16.5453ZM10.8379 16.5656C10.8481 17.2555 10.9394 17.773 11.1931 18.2499C11.5482 18.9296 12.0656 19.3558 12.857 19.3761C13.6586 19.3862 14.2065 18.9702 14.5413 18.2904C15.0993 17.1439 15.079 15.9771 14.5616 14.8306C14.2471 14.1305 13.6789 13.7247 12.8875 13.7348C12.1062 13.7348 11.5583 14.1508 11.1931 14.8306C10.8684 15.4191 10.8684 16.0786 10.8379 16.5656Z" fill="#080808"/>
<path d="M24.3512 19.6298C23.9149 20.0661 23.4685 20.5024 22.8394 20.7256C21.0131 21.3546 19.339 20.4415 18.9636 18.5442C18.8622 18.0673 18.8114 17.5803 18.8114 17.0831C18.8114 15.6627 18.8317 14.2422 18.8013 12.8217C18.7911 12.4058 18.9332 12.2941 19.3187 12.3246C19.6739 12.355 20.029 12.355 20.3841 12.3246C20.8102 12.284 20.9726 12.3956 20.9523 12.8623C20.9117 14.1306 20.932 15.3989 20.9421 16.6671C20.9421 17.1744 20.9928 17.6716 21.1552 18.1688C21.3378 18.7065 21.6625 19.0921 22.2408 19.1631C22.8699 19.2341 23.4076 19.0109 23.8135 18.534C24.1584 18.1282 24.2498 17.631 24.2498 17.1136C24.2599 15.6627 24.2599 14.2118 24.2498 12.7507C24.2498 12.4159 24.3309 12.3043 24.6759 12.3246C25.1325 12.355 25.589 12.3347 26.0456 12.3246C26.3094 12.3144 26.3906 12.4159 26.3906 12.6797C26.3906 15.2467 26.4109 17.8136 26.4312 20.3806C26.4312 20.614 26.3804 20.7357 26.1268 20.7053C26.1065 20.7053 26.0964 20.7053 26.0761 20.7053C25.6499 20.7053 25.2136 20.7763 24.8179 20.685C24.2498 20.5734 24.7368 19.9342 24.3512 19.6298Z" fill="#080808"/>
<path d="M0.0120725 9.13855C0.70201 9.13855 1.39195 9.1487 2.08188 9.12841C2.38627 9.11826 2.437 9.33133 2.52831 9.52411C3.18781 10.9649 3.84731 12.4056 4.49666 13.8464C4.55754 13.9783 4.62856 14.1102 4.70973 14.2725C4.96339 14.1305 4.98368 13.8768 5.07499 13.6739C5.72435 12.2839 6.36355 10.8938 6.98247 9.49367C7.10422 9.22987 7.24627 9.10811 7.55065 9.11826C8.18986 9.13855 8.81892 9.12841 9.54944 9.12841C8.92038 10.2242 8.34205 11.2489 7.75357 12.2636C7.13466 13.3492 6.51575 14.4247 5.88668 15.5103C5.75479 15.7335 5.69391 15.9669 5.69391 16.2307C5.70405 17.5801 5.68376 18.9296 5.70405 20.2892C5.7142 20.6544 5.60259 20.7559 5.24748 20.7356C4.83149 20.7051 4.40535 20.7051 3.97921 20.7356C3.64439 20.7559 3.55307 20.6341 3.55307 20.3094C3.57337 18.9702 3.55307 17.641 3.56322 16.3017C3.56322 16.0176 3.50234 15.7741 3.37044 15.5306C2.3051 13.5318 1.21946 11.533 0.143972 9.52411C0.0830954 9.4125 -0.0386582 9.32118 0.0120725 9.13855Z" fill="#080808"/>
<path d="M31.3229 25.2603C31.5461 25.3617 31.5258 25.5038 31.3939 25.6762C31.2519 25.5545 31.2823 25.4124 31.3229 25.2603Z" fill="#E74A4A"/>
<path d="M57.7118 13.3696C57.9249 13.1769 58.1075 12.9638 58.3308 12.8015C59.9744 11.5941 62.2269 12.1115 63.2415 13.9175C64.1749 15.5916 63.972 18.1282 62.7748 19.6095C61.6282 21.0401 59.3251 21.3546 58.0162 20.2081C57.8032 20.0255 57.6104 19.8124 57.4075 19.6197C57.2654 19.6907 57.3161 19.8226 57.306 19.924C57.2451 20.8575 57.3161 20.6952 56.4233 20.7053C55.429 20.7154 55.4492 20.7053 55.4492 19.7313C55.4695 16.1801 55.4797 12.6391 55.4695 9.08797C55.4695 8.6314 55.571 8.43862 56.0479 8.48935C56.4131 8.52993 56.7885 8.51979 57.1639 8.48935C57.5292 8.45891 57.6205 8.60096 57.6205 8.94593C57.6002 10.2649 57.6104 11.5839 57.6205 12.9029C57.6205 13.0653 57.5698 13.2174 57.7118 13.3696ZM57.6104 16.5961C57.6205 16.5961 57.6205 16.5961 57.6307 16.5961C57.6307 16.8498 57.6205 17.1034 57.6307 17.3571C57.6915 18.2702 58.3612 19.0616 59.1729 19.1834C60.2281 19.3457 61.0296 18.8993 61.4152 17.9658C61.7804 17.0831 61.75 16.1801 61.4862 15.2873C61.1818 14.2929 60.4107 13.7552 59.4874 13.8364C58.5134 13.9175 57.8032 14.6075 57.6611 15.6322C57.6205 15.9468 57.6307 16.2714 57.6104 16.5961Z" fill="#FDF7F7"/>
<path d="M53.2787 16.555C53.2787 17.7928 53.2685 19.0205 53.2888 20.2583C53.299 20.5932 53.2279 20.7758 52.8525 20.7352C52.6902 20.7149 52.5177 20.7352 52.3452 20.7352C51.4828 20.7352 51.4828 20.7352 51.361 19.9134C51.3509 19.8221 51.3813 19.6902 51.2393 19.6699C51.0972 19.6496 51.0465 19.7815 50.9653 19.8626C50.0522 20.8772 48.9158 21.1309 47.6476 20.7656C46.359 20.4004 45.8618 19.3553 45.7502 18.1581C45.5777 16.3419 45.6995 14.5156 45.6792 12.6893C45.6792 12.456 45.7502 12.3342 45.9937 12.3443C46.0242 12.3443 46.0648 12.3443 46.0952 12.3443C46.6329 12.3748 47.3127 12.1211 47.6678 12.4357C48.0331 12.7603 47.7693 13.4503 47.7896 13.988C47.8302 15.1853 47.7287 16.3825 47.8708 17.5798C47.8911 17.7319 47.9114 17.8841 47.9621 18.0262C48.236 18.8582 48.6622 19.2133 49.342 19.193C50.1131 19.1727 50.7726 18.6552 50.9958 17.9247C51.0769 17.6609 51.0871 17.3971 51.0871 17.1232C51.0871 15.7027 51.0972 14.2823 51.0769 12.8618C51.0769 12.4864 51.148 12.2936 51.564 12.3342C52.0916 12.3951 52.7916 12.111 53.1265 12.4458C53.4309 12.7603 53.2076 13.4503 53.2076 13.9677C53.2178 14.8302 53.2076 15.6926 53.2076 16.555C53.2279 16.555 53.2584 16.555 53.2787 16.555Z" fill="#FDF7F7"/>
<path d="M69.9075 17.1432C69.1262 17.1432 68.3551 17.1635 67.5739 17.133C67.1275 17.1229 67.0564 17.2751 67.1782 17.6708C67.442 18.5941 68.3146 19.3043 69.319 19.3043C70.0293 19.3043 70.7395 19.2739 71.4193 19.0507C71.8048 18.9289 72.028 18.9492 72.0991 19.4565C72.2411 20.4001 72.2817 20.4305 71.3584 20.6436C70.0292 20.9378 68.6798 21.1509 67.3811 20.5523C65.8998 19.8725 65.1388 18.6854 65.0475 17.0417C64.9663 15.5705 65.2707 14.2617 66.4071 13.2268C67.9594 11.8165 70.6076 11.7657 71.8556 13.3891C72.6571 14.424 72.8397 15.6213 72.6977 16.8895C72.6672 17.1736 72.4745 17.1432 72.2918 17.1432C71.4903 17.1432 70.6989 17.1432 69.9075 17.1432ZM68.8726 15.6517C69.2784 15.6517 69.6843 15.6517 70.0901 15.6517C70.7598 15.6517 70.9018 15.4386 70.638 14.7994C70.3438 14.0486 69.5625 13.5312 68.8726 13.6225C68.0203 13.7341 67.1782 14.5559 67.097 15.327C67.0666 15.5807 67.1782 15.6517 67.4115 15.6517C67.8986 15.6416 68.3856 15.6517 68.8726 15.6517Z" fill="#FDF7F7"/>
<path d="M39.8063 16.8901C39.8165 15.0334 39.8165 13.1766 39.8266 11.3097C39.8266 10.9851 39.6846 10.914 39.4005 10.914C38.6091 10.9242 37.8075 10.9039 37.0161 10.9242C36.6712 10.9343 36.5494 10.8024 36.5393 10.4575C36.5088 9.12831 36.4987 9.12831 37.8075 9.12831C40.1412 9.12831 42.4748 9.13846 44.8084 9.11816C45.2244 9.11816 45.3157 9.25006 45.3157 9.63562C45.3055 10.9242 45.3157 10.9242 44.0474 10.9242C43.4691 10.9242 42.9009 10.9343 42.3226 10.9242C42.0689 10.9242 41.9573 11.0155 41.9573 11.2793C41.9776 12.4968 41.9776 13.7144 41.9878 14.9319C41.9776 16.6466 41.9675 18.3714 41.9675 20.0861C41.9675 20.7253 41.9675 20.7253 41.308 20.7253C40.9731 20.7253 40.6282 20.705 40.2933 20.7355C39.9484 20.7558 39.8266 20.6442 39.8266 20.2789C39.8266 19.1425 39.8063 18.0163 39.8063 16.8901Z" fill="#FDF7F7"/>
<path d="M57.6133 16.5959C57.6234 16.2712 57.6133 15.9567 57.664 15.632C57.8061 14.6073 58.5163 13.9173 59.4903 13.8362C60.4035 13.755 61.1847 14.2927 61.4891 15.2871C61.7631 16.1799 61.7833 17.0728 61.4181 17.9656C61.0325 18.9092 60.2411 19.3455 59.1758 19.1832C58.3641 19.0614 57.6945 18.27 57.6336 17.3569C57.6133 17.1032 57.6336 16.8496 57.6336 16.5959C57.6336 16.5959 57.6234 16.5959 57.6133 16.5959Z" fill="#E11D1D"/>
<path d="M68.8742 15.652C68.3872 15.652 67.9002 15.6418 67.4132 15.652C67.1798 15.652 67.0682 15.5911 67.0987 15.3273C67.1798 14.5562 68.022 13.7343 68.8742 13.6227C69.5642 13.5314 70.3454 14.0489 70.6397 14.7997C70.8933 15.4389 70.7513 15.652 70.0918 15.652C69.6859 15.652 69.2801 15.652 68.8742 15.652Z" fill="#E11D1D"/>
</svg>
