<svg width="59" height="77" viewBox="0 0 59 77" fill="none" xmlns="http://www.w3.org/2000/svg">
<path d="M6.5 16.3527C6.5 16.1554 6.61812 15.9732 6.81717 15.895L29.3172 7.05546C29.4347 7.00929 29.5653 7.00929 29.6828 7.05546L52.1828 15.895C52.3754 15.9707 52.5 16.1549 52.5 16.3592V16.4106V16.4623V16.5141V16.5662V16.6186V16.6711V16.7239V16.7768V16.83V16.8834V16.937V16.9909V17.0449V17.0992V17.1537V17.2084V17.2632V17.3183V17.3737V17.4292V17.4849V17.5408V17.597V17.6533V17.7098V17.7666V17.8235V17.8806V17.938V17.9955V18.0532V18.1112V18.1693V18.2276V18.2861V18.3448V18.4037V18.4628V18.5221V18.5816V18.6412V18.701V18.7611V18.8213V18.8817V18.9423V19.003V19.064V19.1251V19.1864V19.2479V19.3096V19.3714V19.4334V19.4956V19.558V19.6206V19.6833V19.7462V19.8092V19.8725V19.9359V19.9994V20.0632V20.1271V20.1911V20.2554V20.3198V20.3843V20.4491V20.514V20.579V20.6442V20.7096V20.7751V20.8408V20.9066V20.9726V21.0388V21.1051V21.1716V21.2382V21.3049V21.3718V21.4389V21.5061V21.5735V21.641V21.7086V21.7764V21.8443V21.9124V21.9806V22.049V22.1175V22.1862V22.2549V22.3239V22.3929V22.4621V22.5314V22.6009V22.6705V22.7402V22.8101V22.8801V22.9502V23.0204V23.0908V23.1613V23.2319V23.3027V23.3736V23.4446V23.5157V23.587V23.6583V23.7298V23.8014V23.8732V23.945V24.017V24.089V24.1612V24.2335V24.306V24.3785V24.4511V24.5239V24.5967V24.6697V24.7428V24.816V24.8893V24.9627V25.0362V25.1098V25.1835V25.2573V25.3312V25.4052V25.4793V25.5535V25.6278V25.7022V25.7767V25.8513V25.926V26.0007V26.0756V26.1506V26.2256V26.3007V26.376V26.4513V26.5267V26.6021V26.6777V26.7534V26.8291V26.9049V26.9808V27.0568V27.1328V27.209V27.2852V27.3615V27.4378V27.5143V27.5908V27.6674V27.7441V27.8208V27.8976V27.9745V28.0514V28.1284V28.2055V28.2826V28.3598V28.4371V28.5144V28.5918V28.6693V28.7468V28.8244V28.902V28.9797V29.0575V29.1353V29.2132V29.2911V29.369V29.4471V29.5251V29.6033V29.6815V29.7597V29.838V29.9163V29.9947V30.0731V30.1515V30.23V30.3086V30.3872V30.4658V30.5445V30.6232V30.702V30.7807V30.8596V30.9384V31.0173V31.0963V31.1752V31.2542V31.3333V31.4123V31.4914V31.5705V31.6497V31.7288V31.808V31.8873V31.9665V32.0458V32.1251V32.2044V32.2837V32.3631V32.4425V32.5219V32.6013V32.6807V32.7602V32.8396V32.9191V32.9986V33.0781V33.1576V33.2371V33.3167V33.3962V33.4757V33.5553V33.6349V33.7144V33.794V33.8736V33.9531V34.0327V34.1123V34.1919V34.2714V34.351V34.4306V34.5102V34.5897V34.6693V34.7488V34.8284V34.9079V34.9874V35.0669V35.1465V35.2259V35.3054V35.3849V35.4643V35.5438V35.6232V35.7026V35.782V35.8614V35.9407V36.02V36.0993V36.1786V36.2579V36.3371V36.4163V36.4955V36.5747V36.6538V36.7329V36.812V36.891V36.97V37.049V37.1279V37.2068V37.2857V37.3646V37.4434V37.5221V37.6009V37.6796V37.7582V37.8368V37.9154V37.9939V38.0724V38.1508V38.2292V38.3075V38.3858V38.4641V38.5423V38.6204V38.6985V38.7766V38.8546V38.9325V39.0104V39.0882V39.166V39.2437V39.3214V39.399V39.4765V39.554V39.6314V39.7088V39.7861V39.8633V39.9405V40.0176V40.0946V40.1716V40.2485V40.3253V40.4021V40.4788V40.5554V40.6319V40.7084V40.7848V40.8611V40.9374V41.0135V41.0896V41.1656V41.2416V41.3174V41.3932V41.4689V41.5445V41.62V41.6954V41.7708V41.846V41.9212V41.9963V42.0713V42.1462V42.221V42.2957V42.3703V42.4448V42.5193V42.5936V42.6679V42.742V42.816V42.89V42.9638V43.0376V43.1112V43.1848V43.2582V43.3315V43.4048V43.4779V43.5509V43.6238V43.6966V43.7693V43.8419V43.9143V43.9867V44.0589V44.131V44.203V44.2749V44.3467V44.4184V44.4899V44.5613V44.6326V44.7038V44.7748V44.8458V44.9166V44.9873V45.0578V45.1282V45.1985V45.2687V45.3387V45.4087V45.4784V45.5481V45.6176V45.687V45.7562V45.8253V45.8943V45.9632V46.0319V46.1004V46.1688V46.2371V46.3052V46.3732V46.4411V46.5088V46.5764V46.6438V46.711V46.7782V46.8451V46.9119V46.9786V47.0451V47.1115V47.1777V47.2438V47.3097V47.3754V47.441V47.5064V47.5717V47.6368V47.7018V47.7666V47.8312V47.8957V47.96V48.0241V48.0881V48.1519V48.2155V48.279V48.3423V48.4054V48.4684V48.5312V48.5938V48.6562V48.7185V48.7806V48.8425V48.9042V48.9658V49.0272V49.0884V49.1494V49.2102V49.2709V49.3313V49.3916V49.4517V49.5117V49.5714V49.6309V49.6903V49.7494V49.8084V49.8672V49.9258V49.9842V50.0424V50.1004V50.1582V50.2158V50.2732V50.3304V50.3874V50.4443V50.5009V50.5573V50.6135V50.6695V50.7253V50.7809V50.8363V50.8915V50.9465V51.0012V51.0558V51.1101V51.1643V51.2182V51.2719V51.3254V51.3787V51.4317V51.4846V51.5372V51.5896V51.6418V51.6938V51.7455V51.797V51.8483V51.8994V51.9503V52.0009V52.0513V52.1015V52.1514C52.5 52.227 52.3993 53.1425 50.8862 54.9967C49.4654 56.7378 47.3286 58.6543 44.7025 60.6116C39.4921 64.4949 33.2908 67.856 29.638 69.7032C25.9825 67.6909 19.6895 64.0329 14.3807 60.0122C11.7044 57.9852 9.50473 56.0343 8.03605 54.3137C6.70094 52.7495 6.52008 52.0164 6.50021 52.0208C6.50014 52.0208 6.50007 52.0208 6.5 52.0209V52.0198V51.9754V51.9308V51.8858V51.8406V51.7951V51.7494V51.7034V51.6571V51.6106V51.5638V51.5168V51.4695V51.4219V51.3741V51.326V51.2777V51.2291V51.1802V51.1311V51.0818V51.0322V50.9823V50.9323V50.8819V50.8313V50.7805V50.7294V50.6781V50.6265V50.5747V50.5227V50.4704V50.4179V50.3651V50.3121V50.2589V50.2054V50.1517V50.0978V50.0436V49.9892V49.9346V49.8797V49.8246V49.7693V49.7138V49.658V49.6021V49.5458V49.4894V49.4328V49.3759V49.3188V49.2615V49.204V49.1463V49.0883V49.0302V48.9718V48.9132V48.8544V48.7954V48.7362V48.6768V48.6171V48.5573V48.4972V48.437V48.3766V48.3159V48.2551V48.194V48.1328V48.0713V48.0097V47.9478V47.8858V47.8236V47.7612V47.6986V47.6358V47.5728V47.5096V47.4462V47.3827V47.3189V47.255V47.1909V47.1266V47.0621V46.9975V46.9327V46.8676V46.8025V46.7371V46.6715V46.6058V46.5399V46.4739V46.4076V46.3412V46.2747V46.2079V46.141V46.0739V46.0067V45.9393V45.8717V45.804V45.7361V45.668V45.5998V45.5314V45.4629V45.3942V45.3253V45.2563V45.1872V45.1179V45.0484V44.9788V44.909V44.8391V44.7691V44.6989V44.6285V44.558V44.4874V44.4166V44.3457V44.2746V44.2034V44.1321V44.0606V43.989V43.9172V43.8453V43.7733V43.7011V43.6289V43.5564V43.4839V43.4112V43.3384V43.2655V43.1924V43.1192V43.0459V42.9725V42.8989V42.8253V42.7515V42.6776V42.6035V42.5294V42.4551V42.3807V42.3062V42.2316V42.1569V42.0821V42.0071V41.9321V41.8569V41.7817V41.7063V41.6308V41.5553V41.4796V41.4038V41.3279V41.2519V41.1758V41.0997V41.0234V40.947V40.8705V40.794V40.7173V40.6406V40.5637V40.4868V40.4098V40.3327V40.2555V40.1782V40.1008V40.0234V39.9458V39.8682V39.7905V39.7127V39.6349V39.557V39.4789V39.4009V39.3227V39.2445V39.1661V39.0878V39.0093V38.9308V38.8522V38.7735V38.6948V38.616V38.5371V38.4582V38.3792V38.3002V38.2211V38.1419V38.0627V37.9834V37.904V37.8246V37.7452V37.6657V37.5861V37.5065V37.4268V37.3471V37.2673V37.1875V37.1076V37.0277V36.9478V36.8678V36.7877V36.7076V36.6275V36.5473V36.4671V36.3869V36.3066V36.2263V36.1459V36.0655V35.9851V35.9047V35.8242V35.7437V35.6631V35.5826V35.5019V35.4213V35.3407V35.26V35.1793V35.0986V35.0178V34.9371V34.8563V34.7755V34.6946V34.6138V34.533V34.4521V34.3712V34.2903V34.2094V34.1285V34.0476V33.9666V33.8857V33.8047V33.7238V33.6428V33.5619V33.4809V33.4V33.319V33.238V33.1571V33.0761V32.9951V32.9142V32.8332V32.7523V32.6714V32.5904V32.5095V32.4286V32.3477V32.2668V32.186V32.1051V32.0243V31.9435V31.8627V31.7819V31.7011V31.6204V31.5396V31.4589V31.3783V31.2976V31.217V31.1364V31.0558V30.9753V30.8947V30.8143V30.7338V30.6534V30.573V30.4926V30.4123V30.332V30.2518V30.1716V30.0914V30.0113V29.9312V29.8511V29.7711V29.6912V29.6113V29.5314V29.4516V29.3718V29.2921V29.2124V29.1328V29.0532V28.9737V28.8943V28.8148V28.7355V28.6562V28.577V28.4978V28.4187V28.3396V28.2606V28.1817V28.1029V28.0241V27.9453V27.8667V27.7881V27.7095V27.6311V27.5527V27.4744V27.3961V27.318V27.2399V27.1619V27.0839V27.0061V26.9283V26.8506V26.773V26.6954V26.618V26.5406V26.4633V26.3861V26.309V26.232V26.1551V26.0782V26.0015V25.9248V25.8482V25.7718V25.6954V25.6191V25.5429V25.4668V25.3908V25.3149V25.2391V25.1635V25.0879V25.0124V24.937V24.8618V24.7866V24.7115V24.6366V24.5618V24.487V24.4124V24.3379V24.2636V24.1893V24.1151V24.0411V23.9672V23.8934V23.8197V23.7461V23.6727V23.5994V23.5262V23.4531V23.3802V23.3074V23.2347V23.1622V23.0897V23.0174V22.9453V22.8732V22.8013V22.7296V22.658V22.5865V22.5151V22.4439V22.3728V22.3019V22.2311V22.1605V22.09V22.0196V21.9494V21.8794V21.8094V21.7397V21.6701V21.6006V21.5313V21.4621V21.3931V21.3242V21.2555V21.187V21.1186V21.0504V20.9823V20.9144V20.8467V20.7791V20.7117V20.6444V20.5774V20.5104V20.4437V20.3771V20.3107V20.2445V20.1784V20.1125V20.0468V19.9812V19.9158V19.8507V19.7856V19.7208V19.6561V19.5917V19.5274V19.4632V19.3993V19.3356V19.272V19.2086V19.1454V19.0824V19.0196V18.957V18.8946V18.8324V18.7703V18.7085V18.6468V18.5854V18.5241V18.4631V18.4022V18.3415V18.2811V18.2208V18.1608V18.101V18.0413V17.9819V17.9227V17.8636V17.8048V17.7462V17.6879V17.6297V17.5717V17.514V17.4565V17.3991V17.342V17.2852V17.2285V17.1721V17.1159V17.0599V17.0041V16.9486V16.8932V16.8382V16.7833V16.7287V16.6742V16.6201V16.5661V16.5124V16.4589V16.4057V16.3527Z" fill="#E6EBFF" stroke="#E6EBFF" stroke-width="13"/>
</svg>
