<svg width="53" height="40" viewBox="0 0 53 40" fill="none" xmlns="http://www.w3.org/2000/svg">
<g clip-path="url(#clip0_2_8573)">
<path d="M10.3917 29.2327C7.55758 29.2163 4.72348 29.1999 1.87311 29.1999C0.488636 29.1834 0 28.691 0 27.2631C0 24.8338 0.0162879 22.421 0.0162879 19.9918C3.15985 19.9918 6.30341 19.9754 9.44697 19.9918C10.0985 19.9918 10.2777 19.7784 10.2614 19.1547C10.2288 16.3644 10.2451 13.5741 10.2451 10.8002C15.1803 7.32049 20.0992 3.84081 25.0345 0.377532C26.1746 -0.426736 27.5102 0.164155 27.5265 1.46083C27.5428 7.63235 27.5102 13.8203 27.5102 19.9918C22.1189 19.9918 16.7114 20.0082 11.3201 19.9754C10.6197 19.9754 10.3917 20.1231 10.3917 20.8781C10.4405 23.6521 10.408 26.4424 10.3917 29.2327Z" fill="#3A62FF"/>
<path d="M10.3914 29.2329C10.4077 26.4426 10.4402 23.6522 10.3914 20.8783C10.3751 20.1233 10.6194 19.9756 11.3198 19.9756C16.7111 20.0084 22.1187 19.992 27.5099 19.992C27.5262 22.7002 27.5425 25.3921 27.5425 28.1003C27.5425 31.4815 27.5262 34.8792 27.5588 38.2604C27.5588 38.9497 27.3634 39.4914 26.7444 39.8197C26.158 40.1315 25.588 40.0166 25.0668 39.6555C20.2293 36.2415 15.3918 32.8275 10.5543 29.4134C10.5054 29.3642 10.4565 29.2821 10.3914 29.2329Z" fill="#1343FF"/>
<path d="M10.2614 10.8001C10.2614 13.5904 10.2451 16.3807 10.2777 19.1546C10.2777 19.7947 10.1148 20.0081 9.46326 19.9917C6.3197 19.9589 3.17614 19.9753 0.0325758 19.9917C0.0162879 17.4476 0 14.9199 0 12.3758C0 11.391 0.602652 10.7837 1.56364 10.7837C4.46288 10.7672 7.36212 10.7837 10.2614 10.8001Z" fill="#5376FF"/>
<path d="M39.7423 19.9756C39.7586 23.603 39.7748 27.2468 39.7748 30.8742C39.7748 31.7113 39.107 32.2858 38.2764 32.2858C37.4457 32.2858 36.7779 31.7113 36.7779 30.8742C36.7616 27.2468 36.7942 23.603 36.8105 19.9756C37.7877 19.9756 38.765 19.9756 39.7423 19.9756Z" fill="#ED870C"/>
<path d="M39.7417 19.9753C38.7645 19.9753 37.7872 19.9753 36.8099 19.9753C36.7936 16.3478 36.7773 12.7204 36.7773 9.09302C36.7773 8.27234 37.4777 7.66504 38.2595 7.66504C39.0414 7.66504 39.7417 8.27234 39.7417 9.09302C39.7743 12.7204 39.758 16.3478 39.7417 19.9753Z" fill="#FFA63A"/>
<path d="M49.0927 19.9753C49.0764 17.4147 49.0439 14.8542 49.0764 12.2773C49.0764 11.3581 49.7768 10.7344 50.6564 10.7508C51.487 10.7672 52.1386 11.3909 52.1386 12.2773C52.1548 14.8378 52.1223 17.3983 52.1223 19.9753C51.0961 19.9753 50.0863 19.9753 49.0927 19.9753Z" fill="#FFA63A"/>
<path d="M49.0917 19.9756C50.1015 19.9756 51.0951 19.9756 52.105 19.9756C52.1212 22.5361 52.1375 25.113 52.1212 27.6736C52.1212 28.5599 51.486 29.1672 50.639 29.1836C49.7595 29.2 49.0754 28.5927 49.0591 27.6736C49.0428 25.113 49.0754 22.5525 49.0917 19.9756Z" fill="#ED870C"/>
<path d="M42.8847 19.9752C42.8684 18.4488 42.8358 16.9223 42.8521 15.3958C42.8684 14.4603 43.5525 13.8037 44.3832 13.8037C45.2138 13.8037 45.8979 14.4603 45.9142 15.3958C45.9305 16.9223 45.8979 18.4488 45.8816 19.9752C44.8881 19.9752 43.8782 19.9752 42.8847 19.9752Z" fill="#FFA63A"/>
<path d="M42.8847 19.9756C43.8782 19.9756 44.8718 19.9756 45.8816 19.9756C45.8979 21.5349 45.9305 23.0942 45.9142 24.6371C45.8979 25.5234 45.2138 26.1307 44.3832 26.1307C43.5525 26.1143 42.8684 25.5234 42.8521 24.6371C42.8358 23.0942 42.8684 21.5349 42.8847 19.9756Z" fill="#ED870C"/>
<path d="M30.6685 19.9755C30.6522 18.9415 30.6034 17.9074 30.636 16.8569C30.6685 15.9706 31.32 15.3633 32.167 15.3633C32.9977 15.3633 33.6655 15.9542 33.6981 16.8569C33.7306 17.891 33.6818 18.925 33.6655 19.9755C32.6719 19.9755 31.6621 19.9755 30.6685 19.9755Z" fill="#FFA63A"/>
<path d="M30.6703 19.9756C31.6638 19.9756 32.6574 19.9756 33.6672 19.9756C33.6835 21.0096 33.7324 22.0437 33.6998 23.0778C33.6672 24.0133 33.0157 24.6042 32.1362 24.5878C31.3055 24.5714 30.6703 23.9805 30.654 23.0778C30.6051 22.0437 30.654 21.0096 30.6703 19.9756Z" fill="#ED870C"/>
</g>
<defs>
<clipPath id="clip0_2_8573">
<rect width="52.1212" height="40" fill="white"/>
</clipPath>
</defs>
</svg>
