<svg width="58" height="60" viewBox="0 0 58 60" fill="none" xmlns="http://www.w3.org/2000/svg">
<path d="M56.9567 17.5228C56.8772 15.5135 55.3333 14.1058 53.3127 14.0831C51.871 14.0718 50.4406 14.0831 48.9989 14.0831C48.7946 14.0831 48.6016 14.0831 48.3519 14.0831C48.3519 12.5733 48.3405 11.143 48.3632 9.70128C48.3632 9.56506 48.5335 9.38343 48.6697 9.29261C49.419 8.79312 49.8049 8.10065 49.7936 7.1925C49.7822 6.76112 49.7936 6.3184 49.7936 5.88702C49.7482 3.19661 47.6254 1.06244 44.9576 1.01703C43.3911 0.994324 41.8131 0.994324 40.2466 1.01703C38.6573 1.05108 37.3632 1.72085 36.3983 2.98092C35.2971 4.41127 35.2517 6.06865 35.4901 7.73739C35.5582 8.21417 35.8874 8.78177 36.2847 9.04287C36.8069 9.39478 36.8977 9.76939 36.8523 10.3029C36.8296 10.564 36.8523 10.8365 36.8523 11.0976C36.8523 12.0738 36.8523 13.0501 36.8523 14.0718C35.195 14.0718 33.6057 14.0604 32.0164 14.0718C29.746 14.0831 28.2249 15.6043 28.2135 17.8974C28.2135 20.1451 28.2135 22.4041 28.2135 24.6518C28.2135 24.8562 28.2135 25.0605 28.2135 25.2762C26.3631 25.2762 24.5809 25.2762 22.7419 25.2762C22.7419 24.7653 22.7646 24.2999 22.7419 23.8231C22.6283 21.6208 20.9482 20.0202 18.7914 20.0543C16.6799 20.0997 15.0679 21.7684 15.0452 23.9594C15.0452 24.3907 15.0452 24.8221 15.0452 25.3102C14.7841 25.3102 14.5798 25.3102 14.3755 25.3102C12.5024 25.3102 10.6293 25.3102 8.75623 25.3102C6.41773 25.3102 5.08955 26.6271 5.08955 28.9542C5.08955 31.8263 5.08955 39.4094 5.08955 43.5188C5.08955 43.6891 5.08955 43.8593 5.08955 44.0637C5.08955 44.0977 5.08955 44.1204 5.08955 44.1545C4.76034 44.1545 4.49924 44.1431 4.23815 44.1545C2.524 44.2113 1.13906 45.46 1.0596 47.1628C0.980134 48.9904 0.980134 50.8295 1.0596 52.6685C1.12771 54.3145 2.43319 55.5178 4.09057 55.6427C4.40843 55.6654 4.72628 55.6767 5.04414 55.6994C5.07819 55.9492 5.11225 56.1535 5.13495 56.3579C5.3847 57.9585 6.69017 59.1277 8.3135 59.1391C15.3517 59.1504 22.3899 59.1504 29.4282 59.1391C31.0061 59.1391 32.3002 58.0266 32.6067 56.4941C32.6521 56.2443 32.6635 55.9832 32.6975 55.7335C32.9359 55.7335 33.1289 55.7335 33.3559 55.7335C33.3559 56.0968 33.3446 56.426 33.3559 56.7438C33.4013 57.6633 33.81 58.3785 34.6387 58.8099C36.1031 59.5705 37.8513 58.6055 37.9989 56.9595C38.0443 56.3919 38.0102 55.813 38.0102 55.2567C41.1434 55.2567 44.1403 55.2567 47.1713 55.2567C47.1713 55.7903 47.1599 56.2784 47.1713 56.7779C47.2053 58.0834 48.2157 59.071 49.4984 59.071C50.7812 59.071 51.7915 58.0834 51.8256 56.7779C51.8369 56.2897 51.8256 55.7903 51.8256 55.1546C52.6089 55.1546 53.3354 55.2454 54.0279 55.1318C55.8555 54.8367 56.9907 53.3155 56.9907 51.2722C56.9907 43.5983 56.9907 30.0667 56.9907 22.0182C57.0021 20.5084 57.0134 19.0099 56.9567 17.5228ZM37.1134 5.59187C37.3291 3.88908 38.646 2.74253 40.3601 2.71982C41.1207 2.70847 41.8699 2.71982 42.6305 2.71982C43.3911 2.71982 44.1403 2.70847 44.9009 2.71982C46.6718 2.75388 48.034 4.12747 48.0794 5.90973C48.0908 6.32975 48.0794 6.73842 48.0794 7.15844C48.0908 7.57846 47.9205 7.88497 47.4778 7.88497C47.0691 7.88497 46.8988 7.58982 46.9102 7.18115C46.9215 6.78383 46.9215 6.38651 46.9102 5.98919C46.8648 4.76318 46.0474 3.92313 44.8328 3.88908C43.3457 3.85502 41.8472 3.85502 40.3488 3.88908C39.0887 3.91178 38.294 4.75182 38.2713 6.02324C38.26 6.42056 38.2713 6.81788 38.26 7.2152C38.2486 7.61252 38.0557 7.88497 37.647 7.87361C37.261 7.86226 37.0794 7.58982 37.0794 7.22655C37.0794 6.68166 37.0453 6.12541 37.1134 5.59187ZM41.291 5.59187C42.3694 5.59187 43.4478 5.61457 44.5263 5.58052C45.0485 5.56917 45.2528 5.7735 45.2187 6.28434C45.196 6.6249 45.2187 6.96546 45.2187 7.30602C45.2187 8.14606 45.6161 8.78177 46.2972 9.25855C46.4334 9.36072 46.6264 9.51965 46.6264 9.65587C46.6491 11.1089 46.6377 12.562 46.6377 14.0377C43.9246 14.0377 41.2683 14.0377 38.5324 14.0377C38.5324 12.5733 38.5211 11.1543 38.5438 9.73534C38.5438 9.59911 38.646 9.40613 38.7595 9.33802C39.713 8.78177 39.9968 7.93038 39.9968 6.89735C39.9741 5.4897 39.7925 5.59187 41.291 5.59187ZM25.3415 27.0244C25.7388 27.0244 26.0793 27.0244 26.4653 27.0244C26.4653 30.5889 26.4653 34.1534 26.4653 37.7406C26.102 37.7406 25.7388 37.7406 25.3415 37.7406C25.3415 34.1761 25.3415 30.6343 25.3415 27.0244ZM23.9111 39.5229C25.2393 39.5229 26.5675 39.5229 27.9411 39.5229C27.9411 39.7386 27.9411 40.807 27.9411 41C26.5902 41 25.2733 41 23.9111 41C23.9111 40.807 23.9111 39.7272 23.9111 39.5229ZM16.7594 23.5166C16.8729 22.5404 17.7583 21.7911 18.746 21.7571C19.8017 21.7117 20.6871 22.3701 20.9255 23.3577C20.9709 23.5166 20.9936 23.6869 21.005 23.8572C21.0164 24.3113 21.005 24.754 21.005 25.2762C19.5519 25.2762 18.167 25.2762 16.7367 25.2762C16.748 24.6745 16.6913 24.0956 16.7594 23.5166ZM14.1484 27.0584C17.2816 27.0584 20.4033 27.0584 23.5592 27.0584C23.5592 29.7375 23.5592 32.4052 23.5592 35.1297C20.4488 35.1297 17.3156 35.1297 14.1484 35.1297C14.1484 32.4279 14.1484 29.7716 14.1484 27.0584ZM11.2423 27.0357C11.6283 27.0357 11.9802 27.0357 12.3775 27.0357C12.3775 30.6003 12.3775 34.1648 12.3775 37.7633C11.9802 37.7633 11.6283 37.7633 11.2423 37.7633C11.2423 34.1761 11.2423 30.623 11.2423 27.0357ZM9.81196 39.5229C11.1628 39.5229 12.491 39.5229 13.8419 39.5229C13.8419 39.7272 13.8419 40.7843 13.8419 41C12.491 41 11.1856 41 9.81196 41C9.81196 40.773 9.81196 39.7159 9.81196 39.5229ZM6.79234 28.591C6.81504 27.6147 7.46211 27.0244 8.42702 27.0017C8.76758 26.9903 9.09679 27.0017 9.46005 27.0017C9.48276 27.1493 9.50546 27.2401 9.50546 27.3195C9.50546 29.9078 9.50546 32.496 9.50546 35.1183C8.97192 35.1183 8.46108 35.1864 7.97294 35.107C7.25777 34.9821 6.80369 34.3805 6.79234 33.5745C6.76964 31.9171 6.75828 30.2597 6.79234 28.591ZM5.04414 53.8604C3.63649 54.2123 2.72834 53.5199 2.71698 52.0895C2.70563 50.6592 2.71698 49.2175 2.71698 47.7871C2.71698 46.2887 3.48892 45.6643 5.04414 45.9141C5.04414 48.5704 5.04414 51.2154 5.04414 53.8604ZM30.938 55.7222C30.938 56.8346 30.3023 57.4249 29.133 57.4249C22.2991 57.4249 15.4766 57.4249 8.64271 57.4249C7.39399 57.4249 6.79234 56.8346 6.78099 55.5973C6.76964 54.428 6.78099 53.2474 6.78099 52.0782C6.78099 49.5694 6.78099 47.0606 6.78099 44.5518C6.79234 42.3949 6.78099 37.6612 6.78099 37.0482C6.78099 36.8892 6.80369 36.7303 6.81504 36.6735C7.73455 36.7757 8.60866 36.8779 9.48276 36.9801C9.48276 37.2412 9.48276 37.5022 9.48276 37.752C8.2908 38.2628 8.08646 38.5807 8.08646 39.8748C8.08646 39.9883 8.08646 40.9887 8.08646 41.1022C8.12052 42.0784 8.71082 42.7141 9.68709 42.7369C11.1288 42.7709 12.5591 42.7596 14.0008 42.7369C14.6593 42.7255 15.2155 42.419 15.4198 41.7946C15.7831 40.6594 16 37.7747 14.1711 37.7747C14.1711 37.5022 14.1711 37.2298 14.1711 36.9346C17.3156 36.9346 20.4374 36.9346 23.5592 36.9346C23.6614 37.4341 23.6954 37.7974 23.0711 38.0017C22.5148 38.1834 22.231 38.6828 22.1856 39.2845C22.1629 39.591 22.1743 40.7843 22.1743 41.0908C22.197 42.0898 22.7986 42.7369 23.7862 42.7596C25.2052 42.7936 26.6242 42.7823 28.0432 42.7596C28.8492 42.7482 29.4622 42.3168 29.5757 41.579C29.8368 40.0124 29.6893 38.2515 28.2476 37.7633C28.2476 37.4909 28.2476 37.2071 28.2476 36.9914C29.1671 36.8892 30.0298 36.7871 30.9153 36.6849C30.9153 36.7076 30.9266 36.8098 30.9266 36.9006C30.938 43.1669 30.938 49.4445 30.938 55.7222ZM30.9266 33.6426C30.9153 34.5167 30.2909 35.1297 29.4282 35.1751C29.0535 35.1978 28.6789 35.1751 28.2589 35.1751C28.2589 32.462 28.2589 29.7716 28.2589 27.013C28.6789 27.013 29.0535 27.0017 29.4282 27.013C30.2909 27.0584 30.9153 27.6828 30.9266 28.5455C30.9493 30.2483 30.9493 31.9511 30.9266 33.6426ZM32.6748 53.8831C32.6748 51.2381 32.6748 48.5818 32.6748 45.9254C34.0484 45.5848 35.1041 46.3568 35.0247 47.8212C34.9566 49.2175 35.0133 50.6138 35.0133 52.0214C35.0133 53.5085 34.2073 54.1669 32.6748 53.8831ZM36.2734 56.7552C36.2393 56.9709 35.8988 57.2774 35.7058 57.2774C35.5015 57.2774 35.1609 56.9936 35.1041 56.7779C35.002 56.3692 35.036 55.9151 35.0701 55.4838C35.0814 55.3702 35.2858 55.2113 35.422 55.1886C35.6717 55.1432 35.9442 55.1773 36.2961 55.1773C36.2961 55.7562 36.3529 56.267 36.2734 56.7552ZM50.1001 56.7325C50.0774 57.0957 49.8617 57.3228 49.4757 57.3228C49.1011 57.3228 48.8854 57.0957 48.8627 56.7211C48.84 56.233 48.8627 55.7449 48.8627 55.2113C49.3055 55.2113 49.6801 55.2113 50.1114 55.2113C50.1114 55.7335 50.1228 56.233 50.1001 56.7325ZM53.0062 53.4745C47.7502 53.4745 42.4829 53.4745 37.227 53.4745C37.0226 53.4745 36.8183 53.4745 36.6026 53.4745C36.648 53.0885 36.7161 52.7706 36.7161 52.4528C36.7275 50.75 36.7275 49.0472 36.7161 47.3444C36.7161 46.6179 36.4891 45.9481 36.0123 45.4146C35.7171 45.0854 35.6377 44.7561 35.6377 44.3361C35.649 36.0265 35.649 27.7282 35.649 19.4186C35.649 19.2142 35.6604 18.9985 35.6263 18.7942C35.5582 18.2834 35.229 17.9882 34.7522 18.0109C34.2641 18.0336 34.003 18.3174 33.9462 18.7942C33.9235 18.9985 33.9349 19.2142 33.9349 19.4186C33.9349 27.399 33.9349 35.3908 33.9349 43.3712C33.9349 43.6096 33.9349 43.8593 33.9349 44.1091C33.4808 44.1091 33.0948 44.1091 32.6408 44.1091C32.6408 43.8593 32.6408 43.6323 32.6408 43.4166C32.6408 38.5012 32.6408 33.5745 32.6408 28.6591C32.6408 27.1038 31.778 25.8778 30.3363 25.4465C29.9617 25.3329 29.8822 25.174 29.8822 24.8221C29.8936 22.5517 29.8936 20.2813 29.8936 18.0109C29.8936 16.4671 30.6088 15.7632 32.1526 15.7632C39.1 15.7632 46.0361 15.7632 52.9835 15.7632C54.5501 15.7632 55.2766 16.4784 55.2766 18.045C55.2766 19.3732 55.2766 20.69 55.2766 22.0182C55.2766 29.9532 55.2766 43.5301 55.2766 51.17C55.2766 52.7706 54.5841 53.4745 53.0062 53.4745Z" fill="#3A62FF"/>
<path d="M25.7047 45C23.4343 45 21.1639 45 18.8935 45C16.6004 45 14.3187 45 12.0256 45C10.5839 45 9.76655 45.7946 9.7552 47.2363C9.74385 49.1889 9.74385 51.1301 9.7552 53.0826C9.76655 54.547 10.5839 55.353 12.0597 55.353C16.6004 55.353 21.1412 55.353 25.6707 55.353C27.1351 55.353 27.9638 54.5243 27.9638 53.0826C27.9638 51.1528 27.9638 49.2229 27.9638 47.2931C27.9751 45.8173 27.1691 45 25.7047 45ZM26.2837 52.9464C26.2837 53.4459 26.1361 53.6502 25.6025 53.6502C21.1185 53.6388 16.6345 53.6388 12.1505 53.6502C11.6169 53.6502 11.458 53.4686 11.458 52.9577C11.4807 51.1074 11.4807 49.2456 11.458 47.3953C11.4466 46.839 11.6737 46.6914 12.1959 46.6914C14.4095 46.7141 16.6231 46.7028 18.8368 46.7028C21.0845 46.7028 23.3435 46.7141 25.5912 46.6914C26.1134 46.6914 26.2837 46.8617 26.2837 47.3839C26.261 49.2343 26.261 51.0847 26.2837 52.9464Z" fill="#3A62FF"/>
<path d="M40.8255 33.8129C40.8255 28.9883 40.8255 24.1637 40.8255 19.3391C40.8255 19.1348 40.8369 18.9191 40.8028 18.7147C40.7461 18.3174 40.4963 18.0677 40.0877 18.0223C39.6563 17.9769 39.3384 18.1471 39.2022 18.5558C39.1341 18.7829 39.1227 19.0439 39.1227 19.2823C39.1227 28.9656 39.1227 38.6488 39.1227 48.332C39.1227 48.5364 39.1227 48.752 39.1681 48.9564C39.2817 49.3991 39.5768 49.6375 40.0422 49.6034C40.4963 49.5694 40.7688 49.3083 40.8142 48.8429C40.8369 48.6385 40.8255 48.4228 40.8255 48.2185C40.8255 43.4166 40.8255 38.6147 40.8255 33.8129Z" fill="#3A62FF"/>
<path d="M46.0247 19.1688C46.0247 19.0326 46.0361 18.8964 46.0134 18.7715C45.9339 18.3288 45.6842 18.0563 45.2187 18.0223C44.7306 17.9996 44.4355 18.272 44.3333 18.7261C44.2879 18.9077 44.3106 19.1007 44.3106 19.2937C44.3106 24.141 44.3106 28.9769 44.3106 33.8242C44.3106 38.6488 44.3106 43.4734 44.3106 48.298C44.3106 48.4909 44.2879 48.6839 44.3219 48.8656C44.4014 49.331 44.6739 49.6148 45.1733 49.6148C45.6615 49.6034 45.9339 49.3196 46.002 48.8542C46.0247 48.7293 46.0134 48.5931 46.0134 48.4569C46.0247 38.6828 46.0247 28.9202 46.0247 19.1688Z" fill="#3A62FF"/>
<path d="M51.2353 19.2823C51.2353 19.0439 51.2353 18.7829 51.1558 18.5558C51.0196 18.1471 50.6677 17.9088 50.2704 18.045C49.9866 18.1471 49.7482 18.465 49.5552 18.7261C49.4644 18.851 49.5325 19.0894 49.5325 19.2823C49.5325 24.1069 49.5325 28.9315 49.5325 33.7561C49.5325 38.6034 49.5325 43.4393 49.5325 48.2866C49.5325 48.4796 49.5211 48.6726 49.5438 48.8542C49.6006 49.3083 49.8617 49.5694 50.3271 49.6034C50.7926 49.6375 51.0877 49.3877 51.2012 48.9564C51.258 48.7634 51.2353 48.5477 51.2353 48.332C51.2353 38.6488 51.2353 28.9656 51.2353 19.2823Z" fill="#3A62FF"/>
<path d="M56.9567 17.5228C56.8772 15.5135 55.3333 14.1058 53.3127 14.0831C51.871 14.0718 50.4406 14.0831 48.9989 14.0831C48.7946 14.0831 48.6016 14.0831 48.3519 14.0831C48.3519 12.5733 48.3405 11.143 48.3632 9.70128C48.3632 9.56506 48.5335 9.38343 48.6697 9.29261C49.419 8.79312 49.8049 8.10065 49.7936 7.1925C49.7822 6.76112 49.7936 6.3184 49.7936 5.88702C49.7482 3.19661 47.6254 1.06244 44.9576 1.01703C43.3911 0.994324 41.8131 0.994324 40.2466 1.01703C38.6573 1.05108 37.3632 1.72085 36.3983 2.98092C35.2971 4.41127 35.2517 6.06865 35.4901 7.73739C35.5582 8.21417 35.8874 8.78177 36.2847 9.04287C36.8069 9.39478 36.8977 9.76939 36.8523 10.3029C36.8296 10.564 36.8523 10.8365 36.8523 11.0976C36.8523 12.0738 36.8523 13.0501 36.8523 14.0718C35.195 14.0718 33.6057 14.0604 32.0164 14.0718C29.746 14.0831 28.2249 15.6043 28.2135 17.8974C28.2135 20.1451 28.2135 22.4041 28.2135 24.6518C28.2135 24.8562 28.2135 25.0605 28.2135 25.2762C26.3631 25.2762 24.5809 25.2762 22.7419 25.2762C22.7419 24.7653 22.7646 24.2999 22.7419 23.8231C22.6283 21.6208 20.9482 20.0202 18.7914 20.0543C16.6799 20.0997 15.0679 21.7684 15.0452 23.9594C15.0452 24.3907 15.0452 24.8221 15.0452 25.3102C14.7841 25.3102 14.5798 25.3102 14.3755 25.3102C12.5024 25.3102 10.6293 25.3102 8.75623 25.3102C6.41773 25.3102 5.08955 26.6271 5.08955 28.9542C5.08955 31.8263 5.08955 39.4094 5.08955 43.5188C5.08955 43.6891 5.08955 43.8593 5.08955 44.0637C5.08955 44.0977 5.08955 44.1204 5.08955 44.1545C4.76034 44.1545 4.49924 44.1431 4.23815 44.1545C2.524 44.2113 1.13906 45.46 1.0596 47.1628C0.980134 48.9904 0.980134 50.8295 1.0596 52.6685C1.12771 54.3145 2.43319 55.5178 4.09057 55.6427C4.40843 55.6654 4.72628 55.6767 5.04414 55.6994C5.07819 55.9492 5.11225 56.1535 5.13495 56.3579C5.3847 57.9585 6.69017 59.1277 8.3135 59.1391C15.3517 59.1504 22.3899 59.1504 29.4282 59.1391C31.0061 59.1391 32.3002 58.0266 32.6067 56.4941C32.6521 56.2443 32.6635 55.9832 32.6975 55.7335C32.9359 55.7335 33.1289 55.7335 33.3559 55.7335C33.3559 56.0968 33.3446 56.426 33.3559 56.7438C33.4013 57.6633 33.81 58.3785 34.6387 58.8099C36.1031 59.5705 37.8513 58.6055 37.9989 56.9595C38.0443 56.3919 38.0102 55.813 38.0102 55.2567C41.1434 55.2567 44.1403 55.2567 47.1713 55.2567C47.1713 55.7903 47.1599 56.2784 47.1713 56.7779C47.2053 58.0834 48.2157 59.071 49.4984 59.071C50.7812 59.071 51.7915 58.0834 51.8256 56.7779C51.8369 56.2897 51.8256 55.7903 51.8256 55.1546C52.6089 55.1546 53.3354 55.2454 54.0279 55.1318C55.8555 54.8367 56.9907 53.3155 56.9907 51.2722C56.9907 43.5983 56.9907 30.0667 56.9907 22.0182C57.0021 20.5084 57.0134 19.0099 56.9567 17.5228ZM37.1134 5.59187C37.3291 3.88908 38.646 2.74253 40.3601 2.71982C41.1207 2.70847 41.8699 2.71982 42.6305 2.71982C43.3911 2.71982 44.1403 2.70847 44.9009 2.71982C46.6718 2.75388 48.034 4.12747 48.0794 5.90973C48.0908 6.32975 48.0794 6.73842 48.0794 7.15844C48.0908 7.57846 47.9205 7.88497 47.4778 7.88497C47.0691 7.88497 46.8988 7.58982 46.9102 7.18115C46.9215 6.78383 46.9215 6.38651 46.9102 5.98919C46.8648 4.76318 46.0474 3.92313 44.8328 3.88908C43.3457 3.85502 41.8472 3.85502 40.3488 3.88908C39.0887 3.91178 38.294 4.75182 38.2713 6.02324C38.26 6.42056 38.2713 6.81788 38.26 7.2152C38.2486 7.61252 38.0557 7.88497 37.647 7.87361C37.261 7.86226 37.0794 7.58982 37.0794 7.22655C37.0794 6.68166 37.0453 6.12541 37.1134 5.59187ZM41.291 5.59187C42.3694 5.59187 43.4478 5.61457 44.5263 5.58052C45.0485 5.56917 45.2528 5.7735 45.2187 6.28434C45.196 6.6249 45.2187 6.96546 45.2187 7.30602C45.2187 8.14606 45.6161 8.78177 46.2972 9.25855C46.4334 9.36072 46.6264 9.51965 46.6264 9.65587C46.6491 11.1089 46.6377 12.562 46.6377 14.0377C43.9246 14.0377 41.2683 14.0377 38.5324 14.0377C38.5324 12.5733 38.5211 11.1543 38.5438 9.73534C38.5438 9.59911 38.646 9.40613 38.7595 9.33802C39.713 8.78177 39.9968 7.93038 39.9968 6.89735C39.9741 5.4897 39.7925 5.59187 41.291 5.59187ZM25.3415 27.0244C25.7388 27.0244 26.0793 27.0244 26.4653 27.0244C26.4653 30.5889 26.4653 34.1534 26.4653 37.7406C26.102 37.7406 25.7388 37.7406 25.3415 37.7406C25.3415 34.1761 25.3415 30.6343 25.3415 27.0244ZM23.9111 39.5229C25.2393 39.5229 26.5675 39.5229 27.9411 39.5229C27.9411 39.7386 27.9411 40.807 27.9411 41C26.5902 41 25.2733 41 23.9111 41C23.9111 40.807 23.9111 39.7272 23.9111 39.5229ZM16.7594 23.5166C16.8729 22.5404 17.7583 21.7911 18.746 21.7571C19.8017 21.7117 20.6871 22.3701 20.9255 23.3577C20.9709 23.5166 20.9936 23.6869 21.005 23.8572C21.0164 24.3113 21.005 24.754 21.005 25.2762C19.5519 25.2762 18.167 25.2762 16.7367 25.2762C16.748 24.6745 16.6913 24.0956 16.7594 23.5166ZM14.1484 27.0584C17.2816 27.0584 20.4033 27.0584 23.5592 27.0584C23.5592 29.7375 23.5592 32.4052 23.5592 35.1297C20.4488 35.1297 17.3156 35.1297 14.1484 35.1297C14.1484 32.4279 14.1484 29.7716 14.1484 27.0584ZM11.2423 27.0357C11.6283 27.0357 11.9802 27.0357 12.3775 27.0357C12.3775 30.6003 12.3775 34.1648 12.3775 37.7633C11.9802 37.7633 11.6283 37.7633 11.2423 37.7633C11.2423 34.1761 11.2423 30.623 11.2423 27.0357ZM9.81196 39.5229C11.1628 39.5229 12.491 39.5229 13.8419 39.5229C13.8419 39.7272 13.8419 40.7843 13.8419 41C12.491 41 11.1856 41 9.81196 41C9.81196 40.773 9.81196 39.7159 9.81196 39.5229ZM6.79234 28.591C6.81504 27.6147 7.46211 27.0244 8.42702 27.0017C8.76758 26.9903 9.09679 27.0017 9.46005 27.0017C9.48276 27.1493 9.50546 27.2401 9.50546 27.3195C9.50546 29.9078 9.50546 32.496 9.50546 35.1183C8.97192 35.1183 8.46108 35.1864 7.97294 35.107C7.25777 34.9821 6.80369 34.3805 6.79234 33.5745C6.76964 31.9171 6.75828 30.2597 6.79234 28.591ZM5.04414 53.8604C3.63649 54.2123 2.72834 53.5199 2.71698 52.0895C2.70563 50.6592 2.71698 49.2175 2.71698 47.7871C2.71698 46.2887 3.48892 45.6643 5.04414 45.9141C5.04414 48.5704 5.04414 51.2154 5.04414 53.8604ZM30.938 55.7222C30.938 56.8346 30.3023 57.4249 29.133 57.4249C22.2991 57.4249 15.4766 57.4249 8.64271 57.4249C7.39399 57.4249 6.79234 56.8346 6.78099 55.5973C6.76964 54.428 6.78099 53.2474 6.78099 52.0782C6.78099 49.5694 6.78099 47.0606 6.78099 44.5518C6.79234 42.3949 6.78099 37.6612 6.78099 37.0482C6.78099 36.8892 6.80369 36.7303 6.81504 36.6735C7.73455 36.7757 8.60866 36.8779 9.48276 36.9801C9.48276 37.2412 9.48276 37.5022 9.48276 37.752C8.2908 38.2628 8.08646 38.5807 8.08646 39.8748C8.08646 39.9883 8.08646 40.9887 8.08646 41.1022C8.12052 42.0784 8.71082 42.7141 9.68709 42.7369C11.1288 42.7709 12.5591 42.7596 14.0008 42.7369C14.6593 42.7255 15.2155 42.419 15.4198 41.7946C15.7831 40.6594 16 37.7747 14.1711 37.7747C14.1711 37.5022 14.1711 37.2298 14.1711 36.9346C17.3156 36.9346 20.4374 36.9346 23.5592 36.9346C23.6614 37.4341 23.6954 37.7974 23.0711 38.0017C22.5148 38.1834 22.231 38.6828 22.1856 39.2845C22.1629 39.591 22.1743 40.7843 22.1743 41.0908C22.197 42.0898 22.7986 42.7369 23.7862 42.7596C25.2052 42.7936 26.6242 42.7823 28.0432 42.7596C28.8492 42.7482 29.4622 42.3168 29.5757 41.579C29.8368 40.0124 29.6893 38.2515 28.2476 37.7633C28.2476 37.4909 28.2476 37.2071 28.2476 36.9914C29.1671 36.8892 30.0298 36.7871 30.9153 36.6849C30.9153 36.7076 30.9266 36.8098 30.9266 36.9006C30.938 43.1669 30.938 49.4445 30.938 55.7222ZM30.9266 33.6426C30.9153 34.5167 30.2909 35.1297 29.4282 35.1751C29.0535 35.1978 28.6789 35.1751 28.2589 35.1751C28.2589 32.462 28.2589 29.7716 28.2589 27.013C28.6789 27.013 29.0535 27.0017 29.4282 27.013C30.2909 27.0584 30.9153 27.6828 30.9266 28.5455C30.9493 30.2483 30.9493 31.9511 30.9266 33.6426ZM32.6748 53.8831C32.6748 51.2381 32.6748 48.5818 32.6748 45.9254C34.0484 45.5848 35.1041 46.3568 35.0247 47.8212C34.9566 49.2175 35.0133 50.6138 35.0133 52.0214C35.0133 53.5085 34.2073 54.1669 32.6748 53.8831ZM36.2734 56.7552C36.2393 56.9709 35.8988 57.2774 35.7058 57.2774C35.5015 57.2774 35.1609 56.9936 35.1041 56.7779C35.002 56.3692 35.036 55.9151 35.0701 55.4838C35.0814 55.3702 35.2858 55.2113 35.422 55.1886C35.6717 55.1432 35.9442 55.1773 36.2961 55.1773C36.2961 55.7562 36.3529 56.267 36.2734 56.7552ZM50.1001 56.7325C50.0774 57.0957 49.8617 57.3228 49.4757 57.3228C49.1011 57.3228 48.8854 57.0957 48.8627 56.7211C48.84 56.233 48.8627 55.7449 48.8627 55.2113C49.3055 55.2113 49.6801 55.2113 50.1114 55.2113C50.1114 55.7335 50.1228 56.233 50.1001 56.7325ZM53.0062 53.4745C47.7502 53.4745 42.4829 53.4745 37.227 53.4745C37.0226 53.4745 36.8183 53.4745 36.6026 53.4745C36.648 53.0885 36.7161 52.7706 36.7161 52.4528C36.7275 50.75 36.7275 49.0472 36.7161 47.3444C36.7161 46.6179 36.4891 45.9481 36.0123 45.4146C35.7171 45.0854 35.6377 44.7561 35.6377 44.3361C35.649 36.0265 35.649 27.7282 35.649 19.4186C35.649 19.2142 35.6604 18.9985 35.6263 18.7942C35.5582 18.2834 35.229 17.9882 34.7522 18.0109C34.2641 18.0336 34.003 18.3174 33.9462 18.7942C33.9235 18.9985 33.9349 19.2142 33.9349 19.4186C33.9349 27.399 33.9349 35.3908 33.9349 43.3712C33.9349 43.6096 33.9349 43.8593 33.9349 44.1091C33.4808 44.1091 33.0948 44.1091 32.6408 44.1091C32.6408 43.8593 32.6408 43.6323 32.6408 43.4166C32.6408 38.5012 32.6408 33.5745 32.6408 28.6591C32.6408 27.1038 31.778 25.8778 30.3363 25.4465C29.9617 25.3329 29.8822 25.174 29.8822 24.8221C29.8936 22.5517 29.8936 20.2813 29.8936 18.0109C29.8936 16.4671 30.6088 15.7632 32.1526 15.7632C39.1 15.7632 46.0361 15.7632 52.9835 15.7632C54.5501 15.7632 55.2766 16.4784 55.2766 18.045C55.2766 19.3732 55.2766 20.69 55.2766 22.0182C55.2766 29.9532 55.2766 43.5301 55.2766 51.17C55.2766 52.7706 54.5841 53.4745 53.0062 53.4745Z" stroke="#3A62FF" stroke-width="0.5"/>
<path d="M25.7047 45C23.4343 45 21.1639 45 18.8935 45C16.6004 45 14.3187 45 12.0256 45C10.5839 45 9.76655 45.7946 9.7552 47.2363C9.74385 49.1889 9.74385 51.1301 9.7552 53.0826C9.76655 54.547 10.5839 55.353 12.0597 55.353C16.6004 55.353 21.1412 55.353 25.6707 55.353C27.1351 55.353 27.9638 54.5243 27.9638 53.0826C27.9638 51.1528 27.9638 49.2229 27.9638 47.2931C27.9751 45.8173 27.1691 45 25.7047 45ZM26.2837 52.9464C26.2837 53.4459 26.1361 53.6502 25.6025 53.6502C21.1185 53.6388 16.6345 53.6388 12.1505 53.6502C11.6169 53.6502 11.458 53.4686 11.458 52.9577C11.4807 51.1074 11.4807 49.2456 11.458 47.3953C11.4466 46.839 11.6737 46.6914 12.1959 46.6914C14.4095 46.7141 16.6231 46.7028 18.8368 46.7028C21.0845 46.7028 23.3435 46.7141 25.5912 46.6914C26.1134 46.6914 26.2837 46.8617 26.2837 47.3839C26.261 49.2343 26.261 51.0847 26.2837 52.9464Z" stroke="#3A62FF" stroke-width="0.5"/>
<path d="M40.8255 33.8129C40.8255 28.9883 40.8255 24.1637 40.8255 19.3391C40.8255 19.1348 40.8369 18.9191 40.8028 18.7147C40.7461 18.3174 40.4963 18.0677 40.0877 18.0223C39.6563 17.9769 39.3384 18.1471 39.2022 18.5558C39.1341 18.7829 39.1227 19.0439 39.1227 19.2823C39.1227 28.9656 39.1227 38.6488 39.1227 48.332C39.1227 48.5364 39.1227 48.752 39.1681 48.9564C39.2817 49.3991 39.5768 49.6375 40.0422 49.6034C40.4963 49.5694 40.7688 49.3083 40.8142 48.8429C40.8369 48.6385 40.8255 48.4228 40.8255 48.2185C40.8255 43.4166 40.8255 38.6147 40.8255 33.8129Z" stroke="#3A62FF" stroke-width="0.5"/>
<path d="M46.0247 19.1688C46.0247 19.0326 46.0361 18.8964 46.0134 18.7715C45.9339 18.3288 45.6842 18.0563 45.2187 18.0223C44.7306 17.9996 44.4355 18.272 44.3333 18.7261C44.2879 18.9077 44.3106 19.1007 44.3106 19.2937C44.3106 24.141 44.3106 28.9769 44.3106 33.8242C44.3106 38.6488 44.3106 43.4734 44.3106 48.298C44.3106 48.4909 44.2879 48.6839 44.3219 48.8656C44.4014 49.331 44.6739 49.6148 45.1733 49.6148C45.6615 49.6034 45.9339 49.3196 46.002 48.8542C46.0247 48.7293 46.0134 48.5931 46.0134 48.4569C46.0247 38.6828 46.0247 28.9202 46.0247 19.1688Z" stroke="#3A62FF" stroke-width="0.5"/>
<path d="M51.2353 19.2823C51.2353 19.0439 51.2353 18.7829 51.1558 18.5558C51.0196 18.1471 50.6677 17.9088 50.2704 18.045C49.9866 18.1471 49.7482 18.465 49.5552 18.7261C49.4644 18.851 49.5325 19.0894 49.5325 19.2823C49.5325 24.1069 49.5325 28.9315 49.5325 33.7561C49.5325 38.6034 49.5325 43.4393 49.5325 48.2866C49.5325 48.4796 49.5211 48.6726 49.5438 48.8542C49.6006 49.3083 49.8617 49.5694 50.3271 49.6034C50.7926 49.6375 51.0877 49.3877 51.2012 48.9564C51.258 48.7634 51.2353 48.5477 51.2353 48.332C51.2353 38.6488 51.2353 28.9656 51.2353 19.2823Z" stroke="#3A62FF" stroke-width="0.5"/>
</svg>
