<svg width="58" height="65" viewBox="0 0 58 65" fill="none" xmlns="http://www.w3.org/2000/svg">
<path d="M22.2928 42.4217C22.7246 41.8654 23.076 41.2798 22.9881 40.5186C22.8857 39.633 22.344 39.062 21.634 38.6302C21.4218 38.4984 21.312 38.352 21.2754 38.1251C21.0631 36.7198 20.7923 35.3145 20.6386 33.9018C20.4702 32.2915 20.5581 30.6885 20.9899 29.1148C21.0485 28.8953 21.1363 28.8001 21.3779 28.7781C22.2635 28.705 23.1492 28.6025 24.0348 28.5146C26.1209 28.3024 28.2069 28.1047 30.293 27.8852C30.9225 27.8193 31.1347 27.5777 31.2226 26.9556C31.4788 25.2062 31.7496 23.4569 31.9838 21.7075C32.035 21.3123 32.1961 21.2317 32.5547 21.1951C34.5603 21.0268 36.5658 20.8292 38.564 20.6389C41.565 20.3607 44.5587 20.0753 47.5597 19.7971C49.1773 19.6434 50.7876 19.5043 52.4052 19.3433C52.9981 19.2848 53.2689 19.0066 53.3494 18.4211C53.3714 18.2747 53.3787 18.1283 53.3933 17.9819C53.4812 17.0596 53.5763 16.1374 53.6715 15.2005C54.4546 15.1273 55.2232 15.0614 55.9844 14.9809C56.6066 14.915 56.9433 14.4905 56.8847 13.883C56.6066 10.9552 56.3211 8.0347 56.043 5.1069C55.9698 4.38227 55.6111 4.09681 54.8938 4.17732C54.074 4.26516 53.2469 4.33835 52.3979 4.41887C52.3686 4.08949 52.332 3.78207 52.3027 3.46733C52.2515 2.89641 52.2076 2.32549 52.149 1.75457C52.0905 1.21293 51.8416 0.986024 51.2926 1.00066C50.5021 1.0153 49.7116 1.05922 48.9211 1.08118C48.4819 1.09582 48.1379 1.25685 47.8451 1.60086C46.9229 2.67683 45.9787 3.72352 45.0564 4.79948C44.8442 5.04834 44.6246 5.18009 44.2879 5.19473C43.7023 5.21669 43.1241 5.28989 42.5385 5.34844C38.3298 5.7437 25.6744 6.92945 20.6679 7.3979C20.602 7.3979 20.5361 7.3979 20.4702 7.3979C17.6083 7.6614 14.7391 7.93222 11.8772 8.20305C8.5907 8.51046 5.29693 8.8252 2.01047 9.13262C1.30048 9.1985 0.941826 9.58643 1.0077 10.2891C1.2712 13.151 1.55666 16.0203 1.82016 18.8822C1.85676 19.3214 2.03243 19.6654 2.33253 19.9801C3.44509 21.1805 4.5357 22.3955 5.64826 23.5959C5.78733 23.7497 5.82393 23.8741 5.75805 24.079C4.80652 27.1093 4.00137 30.1981 3.44509 33.3455C2.99128 35.9366 2.67655 38.535 2.78634 41.1627C2.82294 42.1435 2.98396 43.1244 3.13035 44.0978C3.22551 44.7273 3.61344 44.9835 4.24292 44.9249C4.86507 44.8664 5.47991 44.8152 6.10207 44.7566C8.31256 44.5517 10.523 44.3467 12.7335 44.1418C15.2368 43.9075 17.7327 43.644 20.236 43.4611C21.107 43.4025 21.7731 43.0951 22.2928 42.4217ZM29.5976 25.9967C29.583 26.0846 29.4366 26.209 29.3415 26.2163C27.5482 26.3993 25.7476 26.575 23.9543 26.7506C23.1711 26.8238 22.3806 26.9044 21.5242 26.9849C22.0659 25.3673 22.8125 23.9034 23.6323 22.3882C23.8152 23.1568 24.0568 23.8228 24.5179 24.3864C24.9498 24.9135 25.4987 25.2941 26.1502 25.5136C26.6479 25.6893 27.109 25.499 27.3066 25.0452C27.497 24.5987 27.314 24.0863 26.8162 23.9034C25.9745 23.5886 25.528 22.9811 25.3816 22.1247C25.367 22.0515 25.3743 21.9783 25.367 21.8685C27.0139 21.7148 28.6242 21.5684 30.2564 21.4147C30.0441 22.9665 29.8319 24.4889 29.5976 25.9967ZM47.5816 4.56526C48.0062 4.08217 48.4453 3.6064 48.8552 3.10868C49.0236 2.90373 49.1992 2.79394 49.4627 2.79394C49.7848 2.78662 50.1142 2.7427 50.4728 2.70611C50.5314 3.32826 50.59 3.92846 50.6558 4.5799C49.5433 4.68237 48.4819 4.78484 47.3181 4.89463C47.4426 4.73361 47.5084 4.64577 47.5816 4.56526ZM2.83026 10.8161C2.93273 10.8015 2.9986 10.7941 3.0718 10.7868C4.17704 10.6844 5.28229 10.5746 6.38753 10.4721C9.42512 10.1866 12.4554 9.90849 15.493 9.62303C16.5763 9.52056 17.6522 9.4254 18.7355 9.32293C18.7941 9.31561 18.8599 9.30829 18.9185 9.30829C20.6459 9.14726 31.6617 8.10789 33.3891 7.94686C35.6362 7.7346 37.8833 7.52233 40.1231 7.31739C42.0774 7.1344 44.0317 6.95873 45.986 6.77574C47.9549 6.59276 49.9166 6.40245 51.8855 6.21946C52.7053 6.14627 53.5251 6.07307 54.3741 5.99256C54.6084 8.43727 54.8353 10.8527 55.0622 13.2755C54.9377 13.2974 54.8426 13.3267 54.7547 13.334C53.1005 13.4877 51.4537 13.6414 49.7994 13.7951C48.6283 13.9049 47.4645 14.0074 46.2934 14.1172C46.2056 14.1026 46.1104 14.1026 46.0153 14.1099C45.0564 14.1977 36.6317 15.0248 35.6728 15.1126C33.455 15.3176 31.2299 15.5299 29.0121 15.7348C26.7943 15.9398 24.5692 16.1447 22.3513 16.357C20.3824 16.54 18.4208 16.7229 16.4518 16.9132C14.4975 17.0962 12.5432 17.2792 10.5889 17.4549C8.87616 17.6159 7.1634 17.7769 5.45795 17.938C4.82116 17.9965 4.18436 18.0551 3.52561 18.1136C3.29138 15.6616 3.06448 13.2608 2.83026 10.8161ZM8.77368 42.7584C7.44154 42.8828 6.10939 42.9999 4.74796 43.1244C4.71868 42.9706 4.68209 42.8316 4.66013 42.6852C4.36003 40.2332 4.56498 37.7884 4.90899 35.3584C5.46527 31.4864 6.42413 27.7095 7.62452 23.9912C7.77091 23.5374 7.67576 23.1934 7.36834 22.8567C6.51928 21.9344 5.67754 20.9975 4.8358 20.0679C4.76992 19.9948 4.70405 19.9069 4.61621 19.7971C4.74796 19.7752 4.82848 19.7532 4.90899 19.7459C6.58516 19.5922 8.26132 19.4385 9.93748 19.2774C13.4216 18.9554 16.9056 18.6333 20.3897 18.3039C23.6323 18.0038 26.8748 17.6891 30.11 17.389C32.767 17.1401 41.8066 16.2691 45.4297 15.9178C45.5249 15.9324 45.6273 15.9324 45.7371 15.9251C46.9741 15.8153 48.2111 15.6982 49.4481 15.5811C50.2459 15.5079 51.0438 15.442 51.8855 15.3615C51.827 16.0276 51.7538 16.6571 51.7172 17.2865C51.7025 17.5574 51.6147 17.6525 51.3292 17.6745C47.0766 18.0624 42.8313 18.4577 38.5787 18.8602C33.5063 19.336 28.4338 19.8191 23.3541 20.2948C22.9515 20.3314 22.6661 20.5071 22.4758 20.8511C21.1144 23.2885 19.87 25.7625 19.2845 28.5439C18.838 30.7032 18.7209 32.8405 18.9551 35.007C19.0722 36.0903 19.2772 37.1663 19.4382 38.2569C19.4089 38.2642 19.365 38.2862 19.3138 38.2862C16.9203 38.5131 14.5268 38.74 12.1407 38.9596C11.2184 39.0474 10.2961 39.1352 9.37388 39.2304C9.02255 39.267 8.79564 39.4866 8.68585 39.8086C8.58338 40.138 8.66389 40.4308 8.89812 40.687C9.1543 40.9578 9.47636 40.9651 9.81305 40.9358C12.0382 40.7309 14.256 40.5186 16.4811 40.3137C17.7181 40.1966 18.9551 40.0794 20.1994 39.977C20.5727 39.9477 21.2241 40.4161 21.2315 40.7016C21.2388 41.0237 20.7118 41.6165 20.3751 41.6458C18.494 41.8215 16.6129 41.9972 14.7318 42.1728C12.7555 42.3851 10.7646 42.5754 8.77368 42.7584Z" fill="#3A62FF"/>
<path d="M43.7682 36.7418C44.2 35.8781 43.9951 35.4096 43.0582 35.1388C42.3848 34.9485 41.7114 34.7509 41.038 34.5605C41.038 34.5386 41.038 34.5093 41.038 34.4874C41.243 34.4434 41.4625 34.4288 41.6602 34.3483C41.9017 34.2531 42.1286 34.1214 42.3555 33.9896C42.5312 33.8872 42.6922 33.7334 42.8752 33.6456C43.5852 33.3016 44.3098 32.9795 45.0198 32.6355C45.1882 32.555 45.3419 32.4159 45.481 32.2842C45.9787 31.8231 46.3227 31.2814 46.1397 30.5714C45.9567 29.8687 45.4078 29.5247 44.7563 29.3417C43.8267 29.0782 42.8825 29.049 41.9237 29.1368C41.7773 29.1514 41.6309 29.0929 41.4772 29.0709C41.199 29.0197 40.9063 28.8953 40.6501 28.9392C39.3399 29.1661 38.0443 29.4296 36.7415 29.6858C35.3215 29.9639 33.8942 30.2347 32.4742 30.5202C31.9033 30.63 31.508 30.9447 31.5739 31.3619C31.6617 31.8962 31.4641 32.2549 31.1933 32.6868C30.7029 33.4699 26.2307 42.3046 25.8135 43.1317C25.7915 43.1756 25.7696 43.2268 25.7549 43.2707C23.5957 47.4868 21.4437 51.7101 19.2772 55.9261C19.0503 56.3726 18.7282 56.7825 18.3915 57.1631C17.9011 57.7194 17.3595 58.2318 16.8471 58.7734C16.5031 59.1321 16.4518 59.4688 16.6495 59.8714C16.8032 60.1934 17.1106 60.2886 17.418 60.3691C21.8975 61.5329 26.3771 62.6967 30.8566 63.8678C31.8667 64.1313 32.8841 64.3948 33.9015 64.651C34.5895 64.8267 35.0287 64.5485 35.1385 63.8532C35.241 63.2017 35.3142 62.5503 35.3947 61.8989C35.4459 61.5036 35.3142 61.1889 34.9848 60.9473C34.6627 60.7131 34.348 60.4569 34.0333 60.2081C33.5648 59.8421 33.0964 59.4761 32.6352 59.1175C32.7084 58.9711 32.7597 58.8613 32.8182 58.7515C36.456 51.4027 40.1158 44.0759 43.7682 36.7418ZM44.1927 30.9447C44.2074 31.0106 44.2147 31.0691 44.2293 31.135C43.5998 31.4351 42.9777 31.7279 42.3116 32.05C42.2311 31.6181 42.1579 31.2595 42.0774 30.8349C42.802 30.8715 43.4974 30.9081 44.1927 30.9447ZM33.4697 32.1085C35.7241 31.6693 37.9712 31.2302 40.2622 30.7764C40.3866 31.4351 40.511 32.0792 40.6428 32.7599C40.0572 32.8771 39.4863 32.9869 38.9227 33.0966C38.425 33.1918 37.9199 33.3016 37.4149 33.3821C37.2392 33.4114 37.0489 33.4114 36.8805 33.3675C35.8485 33.0893 34.8164 32.8039 33.7917 32.5038C33.6453 32.4599 33.5355 32.3061 33.4111 32.2037C33.4257 32.1817 33.4477 32.1451 33.4697 32.1085ZM33.2062 61.7817C33.6307 62.1038 33.6307 62.1038 33.4843 62.726C28.7193 61.489 23.947 60.2447 19.182 59.0077C19.1381 58.9491 19.1015 58.8979 19.0576 58.8393C19.3211 58.627 19.5846 58.4001 19.8554 58.2025C19.9286 58.1513 20.053 58.1147 20.1482 58.1366C23.7421 58.81 27.3286 59.4907 30.9152 60.1788C31.0835 60.2081 31.2519 60.3105 31.3982 60.413C32.0058 60.8522 32.5986 61.3206 33.2062 61.7817ZM31.1567 58.1293C31.0469 58.3489 30.9371 58.3782 30.7029 58.3343C28.0532 57.8219 25.3963 57.3315 22.7466 56.8338C22.1684 56.724 21.5828 56.6069 20.9753 56.4897C21.0558 56.3287 21.107 56.2116 21.1656 56.0945C23.4273 51.6808 25.6817 47.2599 27.9434 42.8462C27.9947 42.7511 28.0386 42.6559 28.0825 42.5534C29.4073 39.977 32.1082 34.7216 32.3205 34.2897C32.4303 34.0555 32.5401 33.9823 32.8182 34.0628C35.1092 34.7216 37.4002 35.3657 39.6986 36.0098C40.4085 36.2074 41.1185 36.4197 41.8432 36.6246C41.7992 36.7344 41.77 36.8003 41.7407 36.8662C38.2127 43.9515 34.6847 51.0367 31.1567 58.1293Z" fill="#3A62FF"/>
<path d="M56.9945 49.1556C56.9945 48.9946 56.9726 48.7677 56.8701 48.6798C56.5261 48.3724 56.5553 47.9625 56.4895 47.5746C56.3431 46.7182 56.1601 45.8765 55.699 45.1226C54.8938 43.7977 53.4885 43.827 52.7272 45.1811C52.2808 45.979 52.0758 46.8573 51.9514 47.7503C51.9075 48.0723 51.8928 48.3944 51.6147 48.6433C51.5268 48.7164 51.4903 48.8848 51.4829 49.0092C51.4756 50.5829 51.4537 54.4988 51.4829 56.0725C51.4829 56.1091 51.4829 56.1384 51.4902 56.1677C51.4829 56.2262 51.4756 56.2775 51.4756 56.3434C51.461 56.8045 51.4683 57.2729 51.4756 57.7341C51.4902 58.3196 51.827 58.6636 52.4125 58.671C53.6202 58.6783 54.8279 58.6783 56.0357 58.671C56.6432 58.6636 56.9945 58.3196 56.9945 57.7194C57.0018 54.8575 57.0018 52.0102 56.9945 49.1556ZM54.1472 46.118C54.2058 46.118 54.2643 46.118 54.3156 46.1253C54.4912 46.7987 54.6596 47.4721 54.8426 48.1894C54.4034 48.1894 54.0521 48.1894 53.6202 48.1894C53.8105 47.4721 53.9789 46.7914 54.1472 46.118ZM55.2086 56.8923C54.5498 56.8923 53.9203 56.8923 53.2323 56.8923C53.2323 56.6581 53.2469 56.4678 53.2323 56.2702C53.225 56.2262 53.2177 56.1897 53.2103 56.1457C53.225 56.0652 53.2323 55.9774 53.2323 55.8895C53.2323 54.8282 53.2323 51.4247 53.2323 50.3633C53.2323 50.2316 53.2469 50.1072 53.2543 49.9754C53.935 49.9754 54.5718 49.9754 55.2159 49.9754C55.2086 52.303 55.2086 54.6013 55.2086 56.8923Z" fill="#3A62FF"/>
<path d="M49.1919 48.6286C48.9431 48.3724 48.9211 48.0797 48.8699 47.7722C48.7015 46.6963 48.4893 45.6349 47.7866 44.7566C47.1864 44.0027 46.1836 43.9441 45.5175 44.6322C45.3346 44.8225 45.1808 45.0494 45.0491 45.2763C44.6319 46.0156 44.4489 46.8427 44.3245 47.6698C44.2732 48.0065 44.2879 48.3651 43.9804 48.6286C43.8633 48.7311 43.8341 48.958 43.8267 49.1337C43.8121 49.5362 43.8121 53.1813 43.8194 54.2573C43.8194 54.2646 43.8194 54.2646 43.8194 54.2719C43.8121 55.4065 43.8121 56.541 43.8194 57.6755C43.8194 58.3196 44.1781 58.6636 44.8222 58.6636C45.9933 58.671 47.1644 58.671 48.3356 58.6636C49.0016 58.6636 49.3603 58.3269 49.3603 57.6536C49.3676 54.8502 49.3676 52.0468 49.3603 49.2361C49.353 49.0385 49.3164 48.7604 49.1919 48.6286ZM46.4837 46.1473C46.5203 46.1473 46.5569 46.1473 46.5935 46.1473C46.9522 46.7695 47.0327 47.4648 47.1352 48.1821C46.7545 48.1821 46.4105 48.1821 45.9714 48.1821C46.1543 47.4941 46.3227 46.8207 46.4837 46.1473ZM47.567 56.8923C46.8936 56.8923 46.2568 56.8923 45.5688 56.8923C45.5688 56.0433 45.5688 55.2308 45.5688 54.4183C45.5761 53.7815 45.5688 50.1364 45.5688 49.9827C46.2641 49.9827 46.9009 49.9827 47.567 49.9827C47.567 52.2957 47.567 54.594 47.567 56.8923Z" fill="#3A62FF"/>
<path d="M15.9614 15.786C16.4006 15.9837 16.8764 15.808 17.1179 15.3322C17.3009 14.9736 17.4619 14.6076 17.6303 14.2416C18.0694 13.2828 18.5086 12.3166 18.9331 11.3504C19.1893 10.7649 18.8014 10.1281 18.1792 10.1134C17.784 10.0988 17.4985 10.2818 17.3302 10.6331C17.1545 10.9918 16.9935 11.3577 16.8324 11.7237C16.4006 12.6899 15.9541 13.6487 15.5369 14.6149C15.3246 15.1273 15.5076 15.5738 15.9614 15.786Z" fill="#3A62FF"/>
<path d="M11.599 16.2618C11.9869 16.357 12.3822 16.1813 12.5652 15.786C13.1727 14.4832 13.7363 13.173 14.3585 11.8774C14.5854 11.409 14.4317 10.8088 13.9778 10.5965C13.4874 10.3769 13.0263 10.5892 12.7555 11.1748C12.2138 12.3459 11.6795 13.517 11.1525 14.6881C11.05 14.915 10.9769 15.1639 10.9256 15.2956C10.9256 15.83 11.1964 16.1667 11.599 16.2618Z" fill="#3A62FF"/>
<path d="M7.02433 16.6644C7.41958 16.7815 7.82215 16.6278 8.01978 16.2618C8.22472 15.8739 8.39307 15.4713 8.57606 15.0761C9.00059 14.1465 9.4178 13.2169 9.84233 12.2873C9.98872 11.9726 10.018 11.6505 9.81305 11.3431C9.43244 10.7649 8.60534 10.8088 8.29792 11.4602C7.66844 12.7851 7.07556 14.1318 6.46804 15.4713C6.41681 15.5811 6.40217 15.7055 6.39485 15.7568C6.39485 16.2252 6.63639 16.5473 7.02433 16.6644Z" fill="#3A62FF"/>
<path d="M34.5676 37.8909C33.9015 37.8982 33.3525 38.4618 33.3525 39.1425C33.3525 39.8086 33.9161 40.3722 34.5895 40.3649C35.2629 40.3649 35.8192 39.8086 35.8265 39.1352C35.8339 38.4472 35.2556 37.8836 34.5676 37.8909Z" fill="#3A62FF"/>
<path d="M31.6251 43.7977C30.9591 43.8051 30.4247 44.3467 30.4174 45.0201C30.4101 45.7008 30.9591 46.2571 31.6398 46.2571C32.3278 46.2571 32.8841 45.7155 32.8841 45.0347C32.8987 44.3467 32.3351 43.7904 31.6251 43.7977Z" fill="#3A62FF"/>
<path d="M28.7339 49.6973C28.0313 49.6973 27.4823 50.2535 27.4896 50.9562C27.497 51.6369 28.0532 52.1639 28.7486 52.1566C29.422 52.1493 29.9783 51.5784 29.9563 50.905C29.9417 50.2389 29.3927 49.6973 28.7339 49.6973Z" fill="#3A62FF"/>
<path d="M22.2928 42.4217C22.7246 41.8654 23.076 41.2798 22.9881 40.5186C22.8857 39.633 22.344 39.062 21.634 38.6302C21.4218 38.4984 21.312 38.352 21.2754 38.1251C21.0631 36.7198 20.7923 35.3145 20.6386 33.9018C20.4702 32.2915 20.5581 30.6885 20.9899 29.1148C21.0485 28.8953 21.1363 28.8001 21.3779 28.7781C22.2635 28.705 23.1492 28.6025 24.0348 28.5146C26.1209 28.3024 28.2069 28.1047 30.293 27.8852C30.9225 27.8193 31.1347 27.5777 31.2226 26.9556C31.4788 25.2062 31.7496 23.4569 31.9838 21.7075C32.035 21.3123 32.1961 21.2317 32.5547 21.1951C34.5603 21.0268 36.5658 20.8292 38.564 20.6389C41.565 20.3607 44.5587 20.0753 47.5597 19.7971C49.1773 19.6434 50.7876 19.5043 52.4052 19.3433C52.9981 19.2848 53.2689 19.0066 53.3494 18.4211C53.3714 18.2747 53.3787 18.1283 53.3933 17.9819C53.4812 17.0596 53.5763 16.1374 53.6715 15.2005C54.4546 15.1273 55.2232 15.0614 55.9844 14.9809C56.6066 14.915 56.9433 14.4905 56.8847 13.883C56.6066 10.9552 56.3211 8.0347 56.043 5.1069C55.9698 4.38227 55.6111 4.09681 54.8938 4.17732C54.074 4.26516 53.2469 4.33835 52.3979 4.41887C52.3686 4.08949 52.332 3.78207 52.3027 3.46733C52.2515 2.89641 52.2076 2.32549 52.149 1.75457C52.0905 1.21293 51.8416 0.986024 51.2926 1.00066C50.5021 1.0153 49.7116 1.05922 48.9211 1.08118C48.4819 1.09582 48.1379 1.25685 47.8451 1.60086C46.9229 2.67683 45.9787 3.72352 45.0564 4.79948C44.8442 5.04834 44.6246 5.18009 44.2879 5.19473C43.7023 5.21669 43.1241 5.28989 42.5385 5.34844C38.3298 5.7437 25.6744 6.92945 20.6679 7.3979C20.602 7.3979 20.5361 7.3979 20.4702 7.3979C17.6083 7.6614 14.7391 7.93222 11.8772 8.20305C8.5907 8.51046 5.29693 8.8252 2.01047 9.13262C1.30048 9.1985 0.941826 9.58643 1.0077 10.2891C1.2712 13.151 1.55666 16.0203 1.82016 18.8822C1.85676 19.3214 2.03243 19.6654 2.33253 19.9801C3.44509 21.1805 4.5357 22.3955 5.64826 23.5959C5.78733 23.7497 5.82393 23.8741 5.75805 24.079C4.80652 27.1093 4.00137 30.1981 3.44509 33.3455C2.99128 35.9366 2.67655 38.535 2.78634 41.1627C2.82294 42.1435 2.98396 43.1244 3.13035 44.0978C3.22551 44.7273 3.61344 44.9835 4.24292 44.9249C4.86507 44.8664 5.47991 44.8152 6.10207 44.7566C8.31256 44.5517 10.523 44.3467 12.7335 44.1418C15.2368 43.9075 17.7327 43.644 20.236 43.4611C21.107 43.4025 21.7731 43.0951 22.2928 42.4217ZM29.5976 25.9967C29.583 26.0846 29.4366 26.209 29.3415 26.2163C27.5482 26.3993 25.7476 26.575 23.9543 26.7506C23.1711 26.8238 22.3806 26.9044 21.5242 26.9849C22.0659 25.3673 22.8125 23.9034 23.6323 22.3882C23.8152 23.1568 24.0568 23.8228 24.5179 24.3864C24.9498 24.9135 25.4987 25.2941 26.1502 25.5136C26.6479 25.6893 27.109 25.499 27.3066 25.0452C27.497 24.5987 27.314 24.0863 26.8162 23.9034C25.9745 23.5886 25.528 22.9811 25.3816 22.1247C25.367 22.0515 25.3743 21.9783 25.367 21.8685C27.0139 21.7148 28.6242 21.5684 30.2564 21.4147C30.0441 22.9665 29.8319 24.4889 29.5976 25.9967ZM47.5816 4.56526C48.0062 4.08217 48.4453 3.6064 48.8552 3.10868C49.0236 2.90373 49.1992 2.79394 49.4627 2.79394C49.7848 2.78662 50.1142 2.7427 50.4728 2.70611C50.5314 3.32826 50.59 3.92846 50.6558 4.5799C49.5433 4.68237 48.4819 4.78484 47.3181 4.89463C47.4426 4.73361 47.5084 4.64577 47.5816 4.56526ZM2.83026 10.8161C2.93273 10.8015 2.9986 10.7941 3.0718 10.7868C4.17704 10.6844 5.28229 10.5746 6.38753 10.4721C9.42512 10.1866 12.4554 9.90849 15.493 9.62303C16.5763 9.52056 17.6522 9.4254 18.7355 9.32293C18.7941 9.31561 18.8599 9.30829 18.9185 9.30829C20.6459 9.14726 31.6617 8.10789 33.3891 7.94686C35.6362 7.7346 37.8833 7.52233 40.1231 7.31739C42.0774 7.1344 44.0317 6.95873 45.986 6.77574C47.9549 6.59276 49.9166 6.40245 51.8855 6.21946C52.7053 6.14627 53.5251 6.07307 54.3741 5.99256C54.6084 8.43727 54.8353 10.8527 55.0622 13.2755C54.9377 13.2974 54.8426 13.3267 54.7547 13.334C53.1005 13.4877 51.4537 13.6414 49.7994 13.7951C48.6283 13.9049 47.4645 14.0074 46.2934 14.1172C46.2056 14.1026 46.1104 14.1026 46.0153 14.1099C45.0564 14.1977 36.6317 15.0248 35.6728 15.1126C33.455 15.3176 31.2299 15.5299 29.0121 15.7348C26.7943 15.9398 24.5692 16.1447 22.3513 16.357C20.3824 16.54 18.4208 16.7229 16.4518 16.9132C14.4975 17.0962 12.5432 17.2792 10.5889 17.4549C8.87616 17.6159 7.1634 17.7769 5.45795 17.938C4.82116 17.9965 4.18436 18.0551 3.52561 18.1136C3.29138 15.6616 3.06448 13.2608 2.83026 10.8161ZM8.77368 42.7584C7.44154 42.8828 6.10939 42.9999 4.74796 43.1244C4.71868 42.9706 4.68209 42.8316 4.66013 42.6852C4.36003 40.2332 4.56498 37.7884 4.90899 35.3584C5.46527 31.4864 6.42413 27.7095 7.62452 23.9912C7.77091 23.5374 7.67576 23.1934 7.36834 22.8567C6.51928 21.9344 5.67754 20.9975 4.8358 20.0679C4.76992 19.9948 4.70405 19.9069 4.61621 19.7971C4.74796 19.7752 4.82848 19.7532 4.90899 19.7459C6.58516 19.5922 8.26132 19.4385 9.93748 19.2774C13.4216 18.9554 16.9056 18.6333 20.3897 18.3039C23.6323 18.0038 26.8748 17.6891 30.11 17.389C32.767 17.1401 41.8066 16.2691 45.4297 15.9178C45.5249 15.9324 45.6273 15.9324 45.7371 15.9251C46.9741 15.8153 48.2111 15.6982 49.4481 15.5811C50.2459 15.5079 51.0438 15.442 51.8855 15.3615C51.827 16.0276 51.7538 16.6571 51.7172 17.2865C51.7025 17.5574 51.6147 17.6525 51.3292 17.6745C47.0766 18.0624 42.8313 18.4577 38.5787 18.8602C33.5063 19.336 28.4338 19.8191 23.3541 20.2948C22.9515 20.3314 22.6661 20.5071 22.4758 20.8511C21.1144 23.2885 19.87 25.7625 19.2845 28.5439C18.838 30.7032 18.7209 32.8405 18.9551 35.007C19.0722 36.0903 19.2772 37.1663 19.4382 38.2569C19.4089 38.2642 19.365 38.2862 19.3138 38.2862C16.9203 38.5131 14.5268 38.74 12.1407 38.9596C11.2184 39.0474 10.2961 39.1352 9.37388 39.2304C9.02255 39.267 8.79564 39.4866 8.68585 39.8086C8.58338 40.138 8.66389 40.4308 8.89812 40.687C9.1543 40.9578 9.47636 40.9651 9.81305 40.9358C12.0382 40.7309 14.256 40.5186 16.4811 40.3137C17.7181 40.1966 18.9551 40.0794 20.1994 39.977C20.5727 39.9477 21.2241 40.4161 21.2315 40.7016C21.2388 41.0237 20.7118 41.6165 20.3751 41.6458C18.494 41.8215 16.6129 41.9972 14.7318 42.1728C12.7555 42.3851 10.7646 42.5754 8.77368 42.7584Z" stroke="#3A62FF" stroke-width="0.5"/>
<path d="M43.7682 36.7418C44.2 35.8781 43.9951 35.4096 43.0582 35.1388C42.3848 34.9485 41.7114 34.7509 41.038 34.5605C41.038 34.5386 41.038 34.5093 41.038 34.4874C41.243 34.4434 41.4625 34.4288 41.6602 34.3483C41.9017 34.2531 42.1286 34.1214 42.3555 33.9896C42.5312 33.8872 42.6922 33.7334 42.8752 33.6456C43.5852 33.3016 44.3098 32.9795 45.0198 32.6355C45.1882 32.555 45.3419 32.4159 45.481 32.2842C45.9787 31.8231 46.3227 31.2814 46.1397 30.5714C45.9567 29.8687 45.4078 29.5247 44.7563 29.3417C43.8267 29.0782 42.8825 29.049 41.9237 29.1368C41.7773 29.1514 41.6309 29.0929 41.4772 29.0709C41.199 29.0197 40.9063 28.8953 40.6501 28.9392C39.3399 29.1661 38.0443 29.4296 36.7415 29.6858C35.3215 29.9639 33.8942 30.2347 32.4742 30.5202C31.9033 30.63 31.508 30.9447 31.5739 31.3619C31.6617 31.8962 31.4641 32.2549 31.1933 32.6868C30.7029 33.4699 26.2307 42.3046 25.8135 43.1317C25.7915 43.1756 25.7696 43.2268 25.7549 43.2707C23.5957 47.4868 21.4437 51.7101 19.2772 55.9261C19.0503 56.3726 18.7282 56.7825 18.3915 57.1631C17.9011 57.7194 17.3595 58.2318 16.8471 58.7734C16.5031 59.1321 16.4518 59.4688 16.6495 59.8714C16.8032 60.1934 17.1106 60.2886 17.418 60.3691C21.8975 61.5329 26.3771 62.6967 30.8566 63.8678C31.8667 64.1313 32.8841 64.3948 33.9015 64.651C34.5895 64.8267 35.0287 64.5485 35.1385 63.8532C35.241 63.2017 35.3142 62.5503 35.3947 61.8989C35.4459 61.5036 35.3142 61.1889 34.9848 60.9473C34.6627 60.7131 34.348 60.4569 34.0333 60.2081C33.5648 59.8421 33.0964 59.4761 32.6352 59.1175C32.7084 58.9711 32.7597 58.8613 32.8182 58.7515C36.456 51.4027 40.1158 44.0759 43.7682 36.7418ZM44.1927 30.9447C44.2074 31.0106 44.2147 31.0691 44.2293 31.135C43.5998 31.4351 42.9777 31.7279 42.3116 32.05C42.2311 31.6181 42.1579 31.2595 42.0774 30.8349C42.802 30.8715 43.4974 30.9081 44.1927 30.9447ZM33.4697 32.1085C35.7241 31.6693 37.9712 31.2302 40.2622 30.7764C40.3866 31.4351 40.511 32.0792 40.6428 32.7599C40.0572 32.8771 39.4863 32.9869 38.9227 33.0966C38.425 33.1918 37.9199 33.3016 37.4149 33.3821C37.2392 33.4114 37.0489 33.4114 36.8805 33.3675C35.8485 33.0893 34.8164 32.8039 33.7917 32.5038C33.6453 32.4599 33.5355 32.3061 33.4111 32.2037C33.4257 32.1817 33.4477 32.1451 33.4697 32.1085ZM33.2062 61.7817C33.6307 62.1038 33.6307 62.1038 33.4843 62.726C28.7193 61.489 23.947 60.2447 19.182 59.0077C19.1381 58.9491 19.1015 58.8979 19.0576 58.8393C19.3211 58.627 19.5846 58.4001 19.8554 58.2025C19.9286 58.1513 20.053 58.1147 20.1482 58.1366C23.7421 58.81 27.3286 59.4907 30.9152 60.1788C31.0835 60.2081 31.2519 60.3105 31.3982 60.413C32.0058 60.8522 32.5986 61.3206 33.2062 61.7817ZM31.1567 58.1293C31.0469 58.3489 30.9371 58.3782 30.7029 58.3343C28.0532 57.8219 25.3963 57.3315 22.7466 56.8338C22.1684 56.724 21.5828 56.6069 20.9753 56.4897C21.0558 56.3287 21.107 56.2116 21.1656 56.0945C23.4273 51.6808 25.6817 47.2599 27.9434 42.8462C27.9947 42.7511 28.0386 42.6559 28.0825 42.5534C29.4073 39.977 32.1082 34.7216 32.3205 34.2897C32.4303 34.0555 32.5401 33.9823 32.8182 34.0628C35.1092 34.7216 37.4002 35.3657 39.6986 36.0098C40.4085 36.2074 41.1185 36.4197 41.8432 36.6246C41.7992 36.7344 41.77 36.8003 41.7407 36.8662C38.2127 43.9515 34.6847 51.0367 31.1567 58.1293Z" stroke="#3A62FF" stroke-width="0.5"/>
<path d="M56.9945 49.1556C56.9945 48.9946 56.9726 48.7677 56.8701 48.6798C56.5261 48.3724 56.5553 47.9625 56.4895 47.5746C56.3431 46.7182 56.1601 45.8765 55.699 45.1226C54.8938 43.7977 53.4885 43.827 52.7272 45.1811C52.2808 45.979 52.0758 46.8573 51.9514 47.7503C51.9075 48.0723 51.8928 48.3944 51.6147 48.6433C51.5268 48.7164 51.4903 48.8848 51.4829 49.0092C51.4756 50.5829 51.4537 54.4988 51.4829 56.0725C51.4829 56.1091 51.4829 56.1384 51.4902 56.1677C51.4829 56.2262 51.4756 56.2775 51.4756 56.3434C51.461 56.8045 51.4683 57.2729 51.4756 57.7341C51.4902 58.3196 51.827 58.6636 52.4125 58.671C53.6202 58.6783 54.8279 58.6783 56.0357 58.671C56.6432 58.6636 56.9945 58.3196 56.9945 57.7194C57.0018 54.8575 57.0018 52.0102 56.9945 49.1556ZM54.1472 46.118C54.2058 46.118 54.2643 46.118 54.3156 46.1253C54.4912 46.7987 54.6596 47.4721 54.8426 48.1894C54.4034 48.1894 54.0521 48.1894 53.6202 48.1894C53.8105 47.4721 53.9789 46.7914 54.1472 46.118ZM55.2086 56.8923C54.5498 56.8923 53.9203 56.8923 53.2323 56.8923C53.2323 56.6581 53.2469 56.4678 53.2323 56.2702C53.225 56.2262 53.2177 56.1897 53.2103 56.1457C53.225 56.0652 53.2323 55.9774 53.2323 55.8895C53.2323 54.8282 53.2323 51.4247 53.2323 50.3633C53.2323 50.2316 53.2469 50.1072 53.2543 49.9754C53.935 49.9754 54.5718 49.9754 55.2159 49.9754C55.2086 52.303 55.2086 54.6013 55.2086 56.8923Z" stroke="#3A62FF" stroke-width="0.5"/>
<path d="M49.1919 48.6286C48.9431 48.3724 48.9211 48.0797 48.8699 47.7722C48.7015 46.6963 48.4893 45.6349 47.7866 44.7566C47.1864 44.0027 46.1836 43.9441 45.5175 44.6322C45.3346 44.8225 45.1808 45.0494 45.0491 45.2763C44.6319 46.0156 44.4489 46.8427 44.3245 47.6698C44.2732 48.0065 44.2879 48.3651 43.9804 48.6286C43.8633 48.7311 43.8341 48.958 43.8267 49.1337C43.8121 49.5362 43.8121 53.1813 43.8194 54.2573C43.8194 54.2646 43.8194 54.2646 43.8194 54.2719C43.8121 55.4065 43.8121 56.541 43.8194 57.6755C43.8194 58.3196 44.1781 58.6636 44.8222 58.6636C45.9933 58.671 47.1644 58.671 48.3356 58.6636C49.0016 58.6636 49.3603 58.3269 49.3603 57.6536C49.3676 54.8502 49.3676 52.0468 49.3603 49.2361C49.353 49.0385 49.3164 48.7604 49.1919 48.6286ZM46.4837 46.1473C46.5203 46.1473 46.5569 46.1473 46.5935 46.1473C46.9522 46.7695 47.0327 47.4648 47.1352 48.1821C46.7545 48.1821 46.4105 48.1821 45.9714 48.1821C46.1543 47.4941 46.3227 46.8207 46.4837 46.1473ZM47.567 56.8923C46.8936 56.8923 46.2568 56.8923 45.5688 56.8923C45.5688 56.0433 45.5688 55.2308 45.5688 54.4183C45.5761 53.7815 45.5688 50.1364 45.5688 49.9827C46.2641 49.9827 46.9009 49.9827 47.567 49.9827C47.567 52.2957 47.567 54.594 47.567 56.8923Z" stroke="#3A62FF" stroke-width="0.5"/>
<path d="M15.9614 15.786C16.4006 15.9837 16.8764 15.808 17.1179 15.3322C17.3009 14.9736 17.4619 14.6076 17.6303 14.2416C18.0694 13.2828 18.5086 12.3166 18.9331 11.3504C19.1893 10.7649 18.8014 10.1281 18.1792 10.1134C17.784 10.0988 17.4985 10.2818 17.3302 10.6331C17.1545 10.9918 16.9935 11.3577 16.8324 11.7237C16.4006 12.6899 15.9541 13.6487 15.5369 14.6149C15.3246 15.1273 15.5076 15.5738 15.9614 15.786Z" stroke="#3A62FF" stroke-width="0.5"/>
<path d="M11.599 16.2618C11.9869 16.357 12.3822 16.1813 12.5652 15.786C13.1727 14.4832 13.7363 13.173 14.3585 11.8774C14.5854 11.409 14.4317 10.8088 13.9778 10.5965C13.4874 10.3769 13.0263 10.5892 12.7555 11.1748C12.2138 12.3459 11.6795 13.517 11.1525 14.6881C11.05 14.915 10.9769 15.1639 10.9256 15.2956C10.9256 15.83 11.1964 16.1667 11.599 16.2618Z" stroke="#3A62FF" stroke-width="0.5"/>
<path d="M7.02433 16.6644C7.41958 16.7815 7.82215 16.6278 8.01978 16.2618C8.22472 15.8739 8.39307 15.4713 8.57606 15.0761C9.00059 14.1465 9.4178 13.2169 9.84233 12.2873C9.98872 11.9726 10.018 11.6505 9.81305 11.3431C9.43244 10.7649 8.60534 10.8088 8.29792 11.4602C7.66844 12.7851 7.07556 14.1318 6.46804 15.4713C6.41681 15.5811 6.40217 15.7055 6.39485 15.7568C6.39485 16.2252 6.63639 16.5473 7.02433 16.6644Z" stroke="#3A62FF" stroke-width="0.5"/>
<path d="M34.5676 37.8909C33.9015 37.8982 33.3525 38.4618 33.3525 39.1425C33.3525 39.8086 33.9161 40.3722 34.5895 40.3649C35.2629 40.3649 35.8192 39.8086 35.8265 39.1352C35.8339 38.4472 35.2556 37.8836 34.5676 37.8909Z" stroke="#3A62FF" stroke-width="0.5"/>
<path d="M31.6251 43.7977C30.9591 43.8051 30.4247 44.3467 30.4174 45.0201C30.4101 45.7008 30.9591 46.2571 31.6398 46.2571C32.3278 46.2571 32.8841 45.7155 32.8841 45.0347C32.8987 44.3467 32.3351 43.7904 31.6251 43.7977Z" stroke="#3A62FF" stroke-width="0.5"/>
<path d="M28.7339 49.6973C28.0313 49.6973 27.4823 50.2535 27.4896 50.9562C27.497 51.6369 28.0532 52.1639 28.7486 52.1566C29.422 52.1493 29.9783 51.5784 29.9563 50.905C29.9417 50.2389 29.3927 49.6973 28.7339 49.6973Z" stroke="#3A62FF" stroke-width="0.5"/>
</svg>
