<svg width="40" height="40" viewBox="0 0 40 40" fill="none" xmlns="http://www.w3.org/2000/svg">
<circle cx="20" cy="20" r="20" transform="rotate(-90 20 20)" fill="#FFA63A"/>
<path d="M19.6814 13.8911C18.4722 13.8911 17.4673 14.4274 16.6667 15.5L15 13.5642C15.4575 12.7933 16.1193 12.1732 16.9853 11.7039C17.8513 11.2346 18.8072 11 19.8529 11C21.4542 11 22.7042 11.4274 23.6029 12.2821C24.5343 13.1201 25 14.1676 25 15.4246C25 16.5307 24.7876 17.4274 24.3627 18.1145C23.9379 18.7849 23.3415 19.4385 22.5735 20.0754C22.4755 20.1592 22.3448 20.2682 22.1814 20.4022C22.0343 20.5363 21.9118 20.6453 21.8137 20.7291C21.732 20.7961 21.6176 20.8966 21.4706 21.0307C21.3399 21.1648 21.2418 21.2737 21.1765 21.3575C21.1111 21.4246 21.0212 21.5335 20.9069 21.6844C20.8088 21.8184 20.7435 21.9358 20.7108 22.0363C20.6781 22.1369 20.6291 22.271 20.5637 22.4385C20.5147 22.6061 20.4984 22.757 20.5147 22.8911C20.5474 23.0251 20.5637 23.1927 20.5637 23.3939L17.9902 23.419C17.8922 22.7989 17.884 22.2542 17.9657 21.7849C18.0637 21.2989 18.268 20.8631 18.5784 20.4777C18.9052 20.0754 19.1667 19.7905 19.3627 19.6229C19.5752 19.4385 19.9101 19.1704 20.3676 18.8184C21.4461 18.0475 21.9853 17.1257 21.9853 16.0531C21.9853 15.4497 21.7647 14.9385 21.3235 14.5196C20.8824 14.1006 20.335 13.8911 19.6814 13.8911ZM17.451 26.9888C17.451 26.5028 17.6307 26.0754 17.9902 25.7067C18.366 25.3212 18.8317 25.1285 19.3873 25.1285C19.8938 25.1285 20.3186 25.3212 20.6618 25.7067C21.0212 26.0754 21.201 26.5028 21.201 26.9888C21.201 27.5419 21.0294 28.0196 20.6863 28.4218C20.3431 28.8073 19.9101 29 19.3873 29C18.8317 29 18.366 28.8073 17.9902 28.4218C17.6307 28.0196 17.451 27.5419 17.451 26.9888Z" fill="white"/>
</svg>
