<svg width="18" height="18" viewBox="0 0 18 18" fill="none" xmlns="http://www.w3.org/2000/svg">
<circle cx="9" cy="9" r="9" fill="#AEBCD1"/>
<path d="M9.23259 5.65688C8.54193 5.65688 7.96793 5.95554 7.51059 6.55288L6.55859 5.47487C6.81993 5.04554 7.19793 4.70021 7.69259 4.43888C8.18726 4.17754 8.73326 4.04688 9.33059 4.04688C10.2453 4.04688 10.9593 4.28488 11.4726 4.76088C12.0046 5.22754 12.2706 5.81088 12.2706 6.51088C12.2706 7.12688 12.1493 7.62621 11.9066 8.00887C11.6639 8.38221 11.3233 8.74621 10.8846 9.10087C10.8286 9.14754 10.7539 9.20821 10.6606 9.28288C10.5766 9.35754 10.5066 9.41821 10.4506 9.46488C10.4039 9.50221 10.3386 9.55821 10.2546 9.63288C10.1799 9.70754 10.1239 9.76821 10.0866 9.81487C10.0493 9.85221 9.99793 9.91288 9.93259 9.99688C9.87659 10.0715 9.83926 10.1369 9.82059 10.1929C9.80193 10.2489 9.77393 10.3235 9.73659 10.4169C9.70859 10.5102 9.69926 10.5942 9.70859 10.6689C9.72726 10.7435 9.73659 10.8369 9.73659 10.9489L8.26659 10.9629C8.21059 10.6175 8.20593 10.3142 8.25259 10.0529C8.30859 9.78221 8.42526 9.53954 8.60259 9.32487C8.78926 9.10087 8.93859 8.94221 9.05059 8.84888C9.17193 8.74621 9.36326 8.59688 9.62459 8.40088C10.2406 7.97154 10.5486 7.45821 10.5486 6.86087C10.5486 6.52488 10.4226 6.24021 10.1706 6.00688C9.91859 5.77354 9.60593 5.65688 9.23259 5.65688ZM7.95859 12.9509C7.95859 12.6802 8.06126 12.4422 8.26659 12.2369C8.48126 12.0222 8.74726 11.9149 9.06459 11.9149C9.35393 11.9149 9.59659 12.0222 9.79259 12.2369C9.99793 12.4422 10.1006 12.6802 10.1006 12.9509C10.1006 13.2589 10.0026 13.5249 9.80659 13.7489C9.61059 13.9635 9.36326 14.0709 9.06459 14.0709C8.74726 14.0709 8.48126 13.9635 8.26659 13.7489C8.06126 13.5249 7.95859 13.2589 7.95859 12.9509Z" fill="white"/>
</svg>
