<svg width="23" height="24" viewBox="0 0 23 24" fill="none" xmlns="http://www.w3.org/2000/svg">
<path d="M20.2661 2.34063C19.6661 1.7895 17.248 0.0388429 11.8589 0.0172299C11.8589 0.0172299 5.50478 -0.364601 2.40722 2.46671C0.683136 4.18495 0.079527 6.69927 0.0144673 9.81516C-0.0505923 12.931 -0.133724 18.7774 5.51924 20.3587H5.52646L5.52285 22.7758C5.52285 22.7758 5.48671 23.7556 6.13369 23.9537C6.9144 24.1951 7.37344 23.453 8.12162 22.6497C8.53005 22.2103 9.09752 21.5619 9.52402 21.0684C13.3878 21.3926 16.3625 20.6505 16.6987 20.5424C17.4794 20.2903 21.8962 19.7247 22.6119 13.8856C23.3528 7.86638 22.2504 4.05887 20.2661 2.34063ZM20.9203 13.4534C20.3131 18.3343 16.7312 18.6405 16.0697 18.853C15.7878 18.9431 13.1782 19.5915 9.89631 19.3753C9.89631 19.3753 7.44934 22.3183 6.6867 23.082C6.56742 23.2008 6.42646 23.2477 6.33248 23.2261C6.20236 23.1936 6.16622 23.0388 6.16622 22.8118C6.16983 22.4876 6.1879 18.7954 6.1879 18.7954C1.40602 17.4734 1.68795 12.4988 1.74216 9.8944C1.79638 7.29003 2.28794 5.15754 3.74455 3.72387C6.36501 1.36084 11.7613 1.71386 11.7613 1.71386C16.3191 1.73187 18.5023 3.09709 19.0083 3.55817C20.689 4.99184 21.5456 8.42471 20.9203 13.4534Z" fill="white"/>
<path d="M12.2712 7.50258C12.1013 7.49178 11.9604 7.62145 11.9495 7.79076C11.9423 7.95646 12.0688 8.10054 12.2387 8.11135C13.2327 8.16178 13.7206 8.66609 13.7712 9.69991C13.7784 9.86201 13.9122 9.98809 14.0748 9.98809C14.0784 9.98809 14.0857 9.98809 14.0893 9.98809C14.2555 9.98088 14.3857 9.83679 14.3784 9.67109C14.3134 8.31668 13.5869 7.57102 12.2712 7.50258Z" fill="white"/>
<path d="M15.6347 10.5061C15.6383 10.5061 15.6383 10.5061 15.6419 10.5061C15.8082 10.5061 15.9419 10.3728 15.9455 10.2107C15.9708 9.02562 15.613 8.02061 14.8756 7.21732C14.1419 6.41764 13.1118 5.96737 11.8142 5.87371C11.648 5.8629 11.4998 5.98538 11.4889 6.15468C11.4781 6.32038 11.601 6.46807 11.7709 6.47888C12.9239 6.56173 13.7913 6.93995 14.4238 7.62797C15.06 8.31959 15.3564 9.1589 15.3347 10.1963C15.3347 10.362 15.4684 10.5025 15.6347 10.5061Z" fill="white"/>
<path d="M11.2604 4.29688C11.0905 4.29688 10.9531 4.43016 10.9531 4.59946C10.9531 4.76876 11.0869 4.90564 11.2567 4.90564C12.8615 4.91645 14.2242 5.45317 15.2977 6.4978C16.3712 7.54243 16.9242 8.99771 16.9386 10.8312C16.9386 10.9969 17.076 11.1338 17.2422 11.1338C17.2422 11.1338 17.2422 11.1338 17.2458 11.1338C17.4157 11.1338 17.5495 10.9969 17.5495 10.8276C17.5314 8.8248 16.9169 7.22184 15.7242 6.06194C14.5314 4.90204 13.0278 4.30768 11.2604 4.29688Z" fill="white"/>
<path d="M16.8299 14.3025C16.8262 14.3025 16.1323 13.7225 15.7925 13.474C15.4311 13.2182 15.0588 12.9805 14.6757 12.7643C14.1624 12.4798 13.6383 12.6563 13.4215 12.9373L12.9733 13.4992C12.7419 13.7838 12.3154 13.7477 12.3154 13.7477C9.18535 12.9517 8.3468 9.78895 8.3468 9.78895C8.3468 9.78895 8.31066 9.36389 8.5962 9.13335L9.16005 8.68668C9.44198 8.47055 9.61908 7.94823 9.33354 7.43673C9.11306 7.05489 8.87813 6.68027 8.6215 6.32365C8.37211 5.98505 7.7938 5.28983 7.79018 5.28983C7.51187 4.96203 7.09983 4.88278 6.6661 5.10972C6.66248 5.10972 6.65887 5.11332 6.65525 5.11332C6.22514 5.36187 5.83478 5.67526 5.50225 6.04628C5.49864 6.04989 5.49864 6.04989 5.49502 6.05349C5.22756 6.37408 5.07213 6.69107 5.03599 7.00086C5.02876 7.04769 5.02515 7.09452 5.02876 7.13774C5.02876 7.27463 5.04683 7.41151 5.09021 7.54119L5.10466 7.55199C5.2384 8.03108 5.57815 8.82717 6.31188 10.1564C6.73116 10.9236 7.2191 11.6549 7.76127 12.3429C8.03235 12.6887 8.32512 13.0165 8.63596 13.3263C8.6468 13.3371 8.65764 13.3479 8.66849 13.3587L8.70102 13.3911L8.73355 13.4235L8.76608 13.456C9.07692 13.7658 9.40945 14.0575 9.75282 14.3277C10.4432 14.8716 11.1769 15.3543 11.9468 15.7722C13.2805 16.5034 14.0793 16.842 14.56 16.9753L14.5708 16.9897C14.701 17.0329 14.8383 17.0545 14.9757 17.0509C15.0226 17.0545 15.0696 17.0509 15.113 17.0437C15.4239 17.0077 15.7419 16.8528 16.0636 16.5863C16.0672 16.5827 16.0672 16.5827 16.0708 16.5791C16.4431 16.2477 16.7576 15.8622 17.007 15.43C17.007 15.4264 17.0106 15.4228 17.0106 15.4192C17.2383 14.9905 17.1624 14.5798 16.8299 14.3025Z" fill="white"/>
</svg>
