<svg width="47" height="48" viewBox="0 0 47 48" fill="none" xmlns="http://www.w3.org/2000/svg">
<path d="M46.9983 24.502C46.9983 22.4937 46.7978 21.0878 46.4972 19.5815H23.9492V28.5188H37.1774C36.8767 30.728 35.4737 34.0418 32.2669 36.3514V36.6527L39.3821 42.1757H39.8831C44.3927 38.0585 46.9983 31.8326 46.9983 24.502Z" fill="#4285F4"/>
<path d="M23.9495 48.0002C30.4634 48.0002 35.8749 45.8914 39.7832 42.176L32.2672 36.3517C30.263 37.7576 27.5572 38.7617 23.9495 38.7617C17.6361 38.7617 12.2246 34.5442 10.3205 28.8203H10.0199L2.60412 34.5442L2.50391 34.8454C6.51243 42.6781 14.6297 48.0002 23.9495 48.0002Z" fill="#34A853"/>
<path d="M10.322 28.7196C9.8209 27.2134 9.52026 25.6067 9.52026 24C9.52026 22.3933 9.8209 20.7866 10.322 19.2803V18.9791L2.80597 13.1548L2.60554 13.2552C0.901919 16.4686 0 20.1841 0 24C0 27.8159 0.901919 31.5314 2.60554 34.7447L10.322 28.7196Z" fill="#FBBC05"/>
<path d="M23.9509 9.23849C28.4605 9.23849 31.4669 11.1464 33.1705 12.8536L39.985 6.22594C35.8763 2.41004 30.4647 0 23.9509 0C14.6311 0 6.51378 5.42259 2.60547 13.2552L10.3219 19.2803C12.2259 13.4561 17.6375 9.23849 23.9509 9.23849Z" fill="#EA4335"/>
</svg>
