<svg width="40" height="40" viewBox="0 0 40 40" fill="none" xmlns="http://www.w3.org/2000/svg">
<path d="M40 16.0065C40 13.9525 40 11.8903 40 9.83633C40 9.63175 39.9918 9.4599 39.9755 9.30442C39.8936 8.40426 39.4763 7.65957 38.7398 7.07038C38.0851 6.55483 37.2995 6.30933 36.2602 6.30933H36.252C34.419 6.30933 32.5859 6.30933 30.7529 6.30933H28.2079V4.54174C28.2079 3.39607 28.2079 2.25041 28.2079 1.10475C28.2079 0.310966 27.9051 0 27.1113 0C22.3732 0 17.635 0 12.9051 0C12.1031 0 11.784 0.327332 11.7758 1.1293C11.7758 2.26678 11.7758 3.41244 11.7758 4.54992V6.30933H9.51719C7.65139 6.30933 5.72013 6.30933 3.8216 6.31751C3.42881 6.31751 3.04419 6.3257 2.68412 6.41571C0.932897 6.84124 0 8.03601 0 9.86088C0 16.8331 0 23.8052 0 30.7774C0 30.9656 0 31.1784 0.0245499 31.3912C0.12275 32.275 0.523732 33.0033 1.21931 33.5597C1.90671 34.108 2.72504 34.3699 3.80524 34.3699C6.66939 34.3699 9.54174 34.3699 12.4059 34.3699H15.9902L15.7119 34.9755C15.1964 36.072 14.7136 37.1113 14.2226 38.1506C14.2062 38.1751 14.1162 38.2242 14.0262 38.2324C13.8871 38.2406 13.7398 38.2406 13.6007 38.2406C13.4206 38.2406 13.2242 38.2406 13.036 38.257C12.5941 38.3061 12.2831 38.6088 12.234 39.0344C12.1931 39.4354 12.3732 39.7545 12.7332 39.91C12.9378 40 13.1751 40 13.3879 40C16.0393 40 18.7152 40 21.3666 40C22.8314 40 24.2881 40 25.7283 40H26.5876C26.7103 40 26.8331 40 26.9558 39.9836C27.3732 39.9345 27.725 39.5663 27.7414 39.1489C27.7578 38.748 27.4304 38.347 27.0376 38.2897C26.7021 38.2406 26.3666 38.2406 26.0147 38.2488C25.8511 38.2488 25.761 38.2242 25.6874 38.0524C25.311 37.2259 24.9264 36.3912 24.5499 35.5892C24.3781 35.2291 24.2144 34.8691 24.0426 34.509C24.0262 34.4763 24.018 34.4354 24.0016 34.3781C24.0016 34.3781 24.0016 34.3781 24.0016 34.3699H27.5123C30.401 34.3699 33.2815 34.3699 36.1702 34.3699C37.1686 34.3699 37.9296 34.1571 38.5679 33.707C39.5254 33.0278 39.9836 32.0867 39.9836 30.8265C40 25.8838 40 20.8592 40 16.0065ZM23.8462 38.2324H16.162V38.2242C16.1866 38.1506 16.2111 38.0851 16.2357 38.0278C16.4075 37.6596 16.5794 37.2831 16.7512 36.9149C17.1031 36.162 17.4632 35.3846 17.8151 34.6154C17.9051 34.419 17.9951 34.3617 18.1915 34.3617C18.7316 34.3699 19.2881 34.3699 19.82 34.3699C20.4746 34.3699 21.1457 34.3699 21.8085 34.3781C21.9231 34.3781 22.0949 34.4763 22.1358 34.5581C22.6105 35.5401 23.0769 36.5548 23.5352 37.5286L23.8462 38.1915C23.838 38.2079 23.8462 38.216 23.8462 38.2324ZM1.76759 29.4108C1.76759 29.1899 1.76759 28.9689 1.76759 28.7398H38.2324V29.9918C38.2324 30.2946 38.2324 30.5974 38.2324 30.9002C38.2242 31.8903 37.635 32.5205 36.6448 32.5859C36.4894 32.5941 36.3339 32.5941 36.1948 32.5941H27.7578C19.7627 32.5941 11.7676 32.5941 3.7725 32.5941C3.07692 32.5941 2.52864 32.4959 2.12766 32.0131C1.98036 31.8331 1.78396 31.5712 1.77578 31.3421C1.75941 30.7038 1.76759 30.0737 1.76759 29.4108ZM11.7758 20.401C11.7758 21.2766 12.0867 21.5876 12.9624 21.5876C13.8543 21.5876 14.7463 21.5876 15.6383 21.5876C18.1997 21.5876 20.8429 21.5876 23.4452 21.5957C23.9607 21.5957 24.2962 21.4157 24.5745 20.9984C25.6792 19.2962 26.8003 17.6268 27.8887 16.0065C28.126 15.6547 28.2324 15.2946 28.2324 14.8691C28.2242 13.2815 28.2242 11.6776 28.2242 10.1146C28.2242 9.56629 28.2242 9.00982 28.2242 8.46154V8.07692C28.2488 8.07692 28.2733 8.07692 28.2979 8.06874C28.3879 8.06056 28.4697 8.06056 28.5434 8.06056C31.1211 8.06056 33.6989 8.06056 36.2684 8.06056C36.2684 8.06056 36.2684 8.06056 36.2766 8.06056C36.9231 8.06056 37.365 8.19967 37.7332 8.51064C38.0851 8.81342 38.257 9.19804 38.257 9.67267C38.257 10.3846 38.257 11.1129 38.257 11.8085C38.257 12.1113 38.257 12.4223 38.257 12.725V26.9394H1.75941V22.2177C1.75941 18.0851 1.75941 13.9444 1.75941 9.81178C1.75941 8.78887 2.32406 8.17512 3.33879 8.08511C3.48609 8.06874 3.64157 8.06056 3.8216 8.06056C5.85106 8.06056 7.88052 8.06056 9.90998 8.06056H11.7676L11.7758 20.401ZM26.4321 14.3372H24.9427C24.8282 14.3372 24.7136 14.3372 24.599 14.3372C24.3453 14.3372 24.0753 14.3372 23.8134 14.3372C23.1915 14.3453 22.8642 14.6727 22.8232 15.2946C22.8151 15.3928 22.8151 15.4992 22.8232 15.5974C22.8232 15.6383 22.8232 15.6792 22.8232 15.7119V19.82H13.5761V1.77578H26.4321V14.3372ZM25.671 16.1211L24.6154 17.7332V16.1211H25.671Z" fill="#3A62FF"/>
<path d="M31.0147 24.4845L31.0229 24.5172C31.1784 24.9673 31.4403 25.1964 31.8331 25.2291C32.3732 25.2701 32.6187 24.9018 32.766 24.6236C32.8969 24.3699 33.036 24.1162 33.1915 23.8462C33.2406 23.7561 33.2897 23.6661 33.347 23.5679L33.6907 23.9116C34.0098 24.2308 34.3126 24.5417 34.6236 24.8527C34.689 24.9182 34.7545 24.9836 34.82 25.0491C34.9918 25.221 35.1637 25.401 35.3519 25.5728C35.5647 25.761 35.802 25.8592 36.0311 25.8592C36.2439 25.8592 36.4484 25.7774 36.6121 25.6219C36.964 25.2864 36.9558 24.7545 36.5876 24.329C36.5139 24.2471 36.4321 24.1653 36.3584 24.0917C36.3257 24.0589 36.3011 24.0344 36.2684 24.0016L34.5908 22.3322C34.689 22.2831 34.7791 22.2259 34.8691 22.1768C35.1391 22.0213 35.3846 21.8822 35.6465 21.7512C36.0966 21.5221 36.2848 21.2029 36.2357 20.7774C36.1784 20.2946 35.8102 20.1064 35.491 20L35.3437 19.9509C33.7725 19.419 32.144 18.8707 30.5401 18.3224C30.1146 18.1751 29.7791 18.2324 29.509 18.5025C29.2553 18.7643 29.1899 19.0998 29.329 19.5008C29.8773 21.162 30.4501 22.8232 31.0147 24.4845ZM31.5385 20.5319L33.1833 21.0884C32.6432 21.3421 32.3077 21.6858 32.0949 22.1849L31.5385 20.5319Z" fill="#3A62FF"/>
<path d="M17.2913 7.56138C18.1997 7.56138 19.0998 7.56138 20 7.56138C20.9083 7.56138 21.8167 7.56138 22.7087 7.56138C23.2815 7.56138 23.6907 7.19313 23.6907 6.67758C23.6907 6.44845 23.6088 6.24386 23.4615 6.08838C23.2815 5.90835 23.0196 5.81015 22.7087 5.81015C22.0704 5.81015 21.4157 5.81015 20.7856 5.81015H20C19.73 5.81015 19.4599 5.81015 19.1899 5.81015C18.5679 5.81015 17.9214 5.81015 17.2913 5.81015C16.9804 5.81015 16.7185 5.90835 16.5385 6.08838C16.383 6.24386 16.3093 6.44845 16.3093 6.68576C16.3093 7.19313 16.7185 7.56138 17.2913 7.56138Z" fill="#3A62FF"/>
<path d="M17.3241 10.761C17.946 10.761 18.5761 10.761 19.1899 10.761C19.4599 10.761 19.73 10.761 20 10.761C20.2373 10.761 20.4746 10.761 20.7119 10.761C20.9493 10.761 21.1866 10.761 21.4239 10.761C21.8412 10.761 22.2586 10.761 22.6759 10.7529C22.8232 10.7529 23.1015 10.7283 23.3224 10.5892C23.6498 10.3764 23.7725 10.0327 23.6579 9.63994C23.5434 9.23077 23.2079 9.00164 22.7169 8.99345C21.0229 8.98527 19.2635 8.98527 17.3322 8.99345C16.7185 8.99345 16.3093 9.35352 16.3093 9.87725C16.3011 10.4173 16.7021 10.761 17.3241 10.761Z" fill="#3A62FF"/>
<path d="M22.7087 12.2259C22.0704 12.2259 21.4403 12.2259 20.802 12.2259H20.0327C19.7545 12.2259 19.4763 12.2259 19.198 12.2259C18.5597 12.2259 17.8969 12.2259 17.2422 12.2259C16.964 12.2259 16.7103 12.3241 16.5385 12.4959C16.383 12.6514 16.3011 12.8723 16.3011 13.1015C16.3011 13.617 16.6939 13.9689 17.2504 13.9771C18.126 13.9771 19.0344 13.9771 19.9673 13.9771C20.8429 13.9771 21.7512 13.9771 22.7087 13.9771C23.2979 13.9771 23.6907 13.617 23.6907 13.0933C23.6907 12.5777 23.2979 12.2259 22.7087 12.2259Z" fill="#3A62FF"/>
<path d="M17.2831 4.33715C17.6514 4.33715 18.0196 4.33715 18.3879 4.33715C18.6579 4.33715 18.9198 4.33715 19.1899 4.33715H20.7938C21.4321 4.33715 22.0622 4.33715 22.7005 4.33715C23.2897 4.33715 23.6825 3.99345 23.6907 3.46972C23.6907 3.23241 23.6088 3.02782 23.4534 2.86416C23.2733 2.68412 23.0115 2.58592 22.7087 2.57774C20.9002 2.57774 19.0753 2.57774 17.2831 2.57774C16.7021 2.57774 16.293 2.93781 16.293 3.45336C16.3011 3.97709 16.6939 4.33715 17.2831 4.33715Z" fill="#3A62FF"/>
<path d="M18.9607 31.3011C19.3044 31.3175 19.6563 31.3257 20 31.3257C20.3437 31.3257 20.6956 31.3175 21.0393 31.3011C21.5057 31.2848 21.8412 30.892 21.8331 30.401C21.8167 29.9264 21.473 29.5745 20.982 29.5581C20.7529 29.5499 20.5237 29.5499 20.3028 29.5499C20.2046 29.5499 20.0982 29.5499 20 29.5499C19.9018 29.5499 19.8036 29.5499 19.6972 29.5499C19.4763 29.5499 19.239 29.5417 19.018 29.5581C18.527 29.5745 18.1833 29.9182 18.1669 30.401C18.1588 30.892 18.4943 31.2766 18.9607 31.3011Z" fill="#3A62FF"/>
</svg>
