<svg width="50" height="52" viewBox="0 0 50 52" fill="none" xmlns="http://www.w3.org/2000/svg">
<path d="M4.85156 8.97513L28.8088 2.41113L44.505 10.6161V36.8721L22.1999 43.4361L13.9388 50.0001L13.1127 40.1541L5.67767 33.5901L4.85156 8.97513Z" fill="url(#paint0_linear_2_11643)"/>
<g filter="url(#filter0_d_2_11643)">
<path d="M42.8095 6.68127C41.6013 5.579 36.7321 2.07769 25.8801 2.03446C25.8801 2.03446 13.0849 1.2708 6.84737 6.93342C3.37562 10.3699 2.16014 15.3985 2.02913 21.6303C1.89812 27.8621 1.73072 39.5548 13.114 42.7175H13.1285L13.1213 47.5516C13.1213 47.5516 13.0485 49.5112 14.3513 49.9074C15.9234 50.3901 16.8478 48.906 18.3544 47.2994C19.1768 46.4205 20.3195 45.1237 21.1784 44.1367C28.9589 44.7851 34.9489 43.301 35.6258 43.0849C37.1979 42.5806 46.092 41.4495 47.5331 29.7712C49.0251 17.7328 46.8053 10.1177 42.8095 6.68127ZM44.1268 28.9067C42.9041 38.6686 35.6913 39.281 34.3594 39.706C33.7917 39.8862 28.5367 41.1829 21.928 40.7507C21.928 40.7507 17.0006 46.6366 15.4649 48.164C15.2247 48.4017 14.9408 48.4954 14.7516 48.4521C14.4896 48.3873 14.4168 48.0775 14.4168 47.6236C14.4241 46.9752 14.4605 39.5908 14.4605 39.5908C4.83128 36.9468 5.39899 26.9976 5.50816 21.7888C5.61734 16.5801 6.60719 12.3151 9.54034 9.44774C14.8171 4.72168 25.6836 5.42771 25.6836 5.42771C34.8616 5.46373 39.2577 8.19418 40.2766 9.11634C43.661 11.9837 45.386 18.8494 44.1268 28.9067Z" fill="white"/>
</g>
<path d="M26.7109 17.0052C26.3688 16.9836 26.0849 17.2429 26.0631 17.5815C26.0485 17.9129 26.3033 18.2011 26.6454 18.2227C28.6469 18.3236 29.6295 19.3322 29.7314 21.3998C29.746 21.724 30.0153 21.9762 30.3428 21.9762C30.3501 21.9762 30.3646 21.9762 30.3719 21.9762C30.7067 21.9618 30.9687 21.6736 30.9542 21.3422C30.8232 18.6334 29.3602 17.142 26.7109 17.0052Z" fill="white"/>
<path d="M33.4784 23.0132C33.4857 23.0132 33.4857 23.0132 33.493 23.0132C33.8278 23.0132 34.0971 22.7466 34.1044 22.4224C34.1553 20.0522 33.4348 18.0422 31.95 16.4356C30.4725 14.8363 28.3982 13.9357 25.7853 13.7484C25.4505 13.7268 25.1521 13.9717 25.1302 14.3103C25.1084 14.6417 25.3559 14.9371 25.698 14.9587C28.0197 15.1244 29.7665 15.8809 31.0402 17.2569C32.3212 18.6402 32.918 20.3188 32.8743 22.3936C32.8743 22.725 33.1436 23.006 33.4784 23.0132Z" fill="white"/>
<path d="M24.6733 10.5938C24.3313 10.5938 24.0547 10.8603 24.0547 11.1989C24.0547 11.5375 24.324 11.8113 24.6661 11.8113C27.8976 11.8329 30.6416 12.9063 32.8032 14.9956C34.9649 17.0849 36.0785 19.9954 36.1076 23.6624C36.1076 23.9938 36.3842 24.2676 36.719 24.2676C36.719 24.2676 36.719 24.2676 36.7262 24.2676C37.0683 24.2676 37.3376 23.9938 37.3376 23.6552C37.3012 19.6496 36.0639 16.4437 33.6621 14.1239C31.2602 11.8041 28.2324 10.6154 24.6733 10.5938Z" fill="white"/>
<path d="M35.8954 30.6074C35.8882 30.6074 34.4907 29.4475 33.8066 28.9504C33.0787 28.4389 32.3291 27.9634 31.5576 27.5311C30.524 26.962 29.4687 27.315 29.032 27.8769L28.1295 29.0008C27.6637 29.57 26.8048 29.4979 26.8048 29.4979C20.5018 27.9058 18.8132 21.5803 18.8132 21.5803C18.8132 21.5803 18.7405 20.7302 19.3154 20.2691L20.4509 19.3758C21.0186 18.9435 21.3752 17.8989 20.8002 16.8759C20.3562 16.1122 19.8832 15.363 19.3664 14.6497C18.8642 13.9725 17.6997 12.5821 17.6924 12.5821C17.132 11.9265 16.3022 11.768 15.4288 12.2219C15.4216 12.2219 15.4143 12.2291 15.407 12.2291C14.5409 12.7262 13.7548 13.353 13.0852 14.095C13.0779 14.1022 13.0779 14.1022 13.0707 14.1094C12.5321 14.7506 12.2191 15.3846 12.1463 16.0042C12.1318 16.0978 12.1245 16.1915 12.1318 16.2779C12.1318 16.5517 12.1682 16.8255 12.2555 17.0848L12.2846 17.1064C12.5539 18.0646 13.2381 19.6568 14.7156 22.3152C15.5598 23.8497 16.5424 25.3122 17.6342 26.6882C18.18 27.3798 18.7696 28.0354 19.3955 28.655C19.4173 28.6766 19.4392 28.6982 19.461 28.7199L19.5265 28.7847L19.592 28.8495L19.6575 28.9144C20.2835 29.5339 20.9531 30.1175 21.6445 30.6578C23.0347 31.7457 24.5122 32.7111 26.0624 33.5468C28.7481 35.0093 30.3566 35.6865 31.3247 35.953L31.3465 35.9818C31.6085 36.0683 31.8851 36.1115 32.1617 36.1043C32.2563 36.1115 32.3509 36.1043 32.4382 36.0899C33.0642 36.0179 33.7047 35.7081 34.3524 35.175C34.3597 35.1678 34.3597 35.1678 34.367 35.1605C35.1167 34.4977 35.7499 33.7269 36.2521 32.8624C36.2521 32.8552 36.2593 32.8479 36.2593 32.8407C36.7179 31.9834 36.565 31.1621 35.8954 30.6074Z" fill="white"/>
<defs>
<filter id="filter0_d_2_11643" x="0" y="0" width="50" height="52" filterUnits="userSpaceOnUse" color-interpolation-filters="sRGB">
<feFlood flood-opacity="0" result="BackgroundImageFix"/>
<feColorMatrix in="SourceAlpha" type="matrix" values="0 0 0 0 0 0 0 0 0 0 0 0 0 0 0 0 0 0 127 0" result="hardAlpha"/>
<feOffset/>
<feGaussianBlur stdDeviation="1"/>
<feComposite in2="hardAlpha" operator="out"/>
<feColorMatrix type="matrix" values="0 0 0 0 0 0 0 0 0 0 0 0 0 0 0 0 0 0 0.25 0"/>
<feBlend mode="normal" in2="BackgroundImageFix" result="effect1_dropShadow_2_11643"/>
<feBlend mode="normal" in="SourceGraphic" in2="effect1_dropShadow_2_11643" result="shape"/>
</filter>
<linearGradient id="paint0_linear_2_11643" x1="25.5044" y1="4.05213" x2="25.5044" y2="41.7951" gradientUnits="userSpaceOnUse">
<stop stop-color="#A55CEE"/>
<stop offset="1" stop-color="#854ABA"/>
</linearGradient>
</defs>
</svg>
