<svg width="48" height="48" viewBox="0 0 48 48" fill="none" xmlns="http://www.w3.org/2000/svg">
<circle cx="24" cy="24" r="24" fill="#3C7EFF"/>
<path d="M21.3346 25.5256V35.4284H25.4929V25.5256H28.7641C29.0413 25.5256 29.3185 25.2953 29.3185 25.0074L29.7066 21.8408C29.7621 21.4954 29.4849 21.1499 29.1522 21.1499H25.4929V18.5015C25.4929 17.2924 25.8255 16.4864 27.4889 16.4864H29.0413C29.374 16.4864 29.6512 16.1985 29.6512 15.853V13.2046C29.6512 12.8592 29.374 12.5713 29.0413 12.5713H26.5463C23.4415 12.5713 21.3346 14.5288 21.3346 18.0985V21.1499H18.895C18.5624 21.1499 18.2852 21.4378 18.2852 21.7832V24.9498C18.2852 25.2953 18.5624 25.5256 18.895 25.5256H21.3346Z" fill="white"/>
</svg>
