<svg width="48" height="40" viewBox="0 0 48 40" fill="none" xmlns="http://www.w3.org/2000/svg">
<path d="M47.1917 4.91818C46.3271 1.9738 43.6682 0 40.577 0C36.4989 0 32.4127 0 28.3346 0H23.7345C22.0462 0 20.3497 0 18.6614 0C14.7627 0 10.7335 0 6.77779 0C3.10751 0.00815619 0 3.09935 0 6.76148C0 11.2229 0 15.8883 0 21.0348C0 24.7948 3.06673 27.8615 6.83489 27.8615H12.0222C18.0252 27.8615 24.0281 27.8615 30.0311 27.8615C31.5644 27.8615 32.8776 28.3346 33.9297 29.2644C35.2103 30.3981 36.4989 31.5563 37.7468 32.6737C38.3341 33.2038 38.9295 33.734 39.5249 34.2641C40.4547 35.0961 41.3845 35.928 42.3143 36.7599C43.3828 37.7142 44.4512 38.6685 45.5115 39.6228C45.8622 39.9408 46.1559 40.0469 46.4984 39.9816C46.947 39.9001 47.4609 39.6799 47.4609 38.6522V33.8482C47.4609 24.9579 47.4609 15.7659 47.4445 6.72885C47.4609 6.14161 47.363 5.51358 47.1917 4.91818ZM45.2668 30.6999V35.4631C45.2668 35.6262 45.169 35.773 45.0222 35.8383C44.9651 35.8628 44.908 35.8709 44.859 35.8709C44.7612 35.8709 44.6633 35.8383 44.5899 35.7649L43.4154 34.7127C42.665 34.0439 41.931 33.3914 41.2051 32.7389L39.6391 31.3442C38.2444 30.0963 36.8497 28.8566 35.4549 27.6087C33.9542 26.2629 32.1843 25.6104 30.0474 25.6104C30.0392 25.6104 30.0311 25.6104 30.0229 25.6104C23.8976 25.6267 17.6745 25.6186 11.6552 25.6186H6.98985C4.83662 25.6186 3.14013 24.4359 2.45501 22.4621C2.30004 22.0299 2.22664 21.5568 2.21848 21.0919C2.20217 16.3613 2.21033 11.6063 2.21033 6.73701C2.21033 4.4125 4.10256 2.38976 6.42708 2.2348C6.62282 2.21848 6.82673 2.21848 7.02248 2.21848C18.1638 2.21848 29.3133 2.21848 40.4547 2.21848C42.6732 2.21848 44.337 3.36851 45.0303 5.37493C45.1853 5.81536 45.2587 6.27211 45.2587 6.70439C45.2668 14.6974 45.2668 22.8292 45.2668 30.6999Z" fill="#3A62FF"/>
<path d="M24.8437 12.5932V11.647C24.8356 11.6144 24.8274 11.5736 24.8274 11.541C24.8274 11.1658 24.8274 10.7825 24.8356 10.4073C24.8437 9.54274 24.8437 8.6374 24.8193 7.76469C24.803 7.15298 24.3625 6.7207 23.759 6.71254C23.7508 6.71254 23.7427 6.71254 23.7345 6.71254C23.449 6.71254 23.1962 6.81042 23.0004 6.99801C22.7639 7.22638 22.6416 7.5771 22.6334 7.98491C22.6253 10.081 22.6334 12.2098 22.6334 14.2733V15.1216C22.6334 15.2358 22.6416 15.3663 22.666 15.5131C22.715 15.8801 22.927 16.1819 23.2533 16.3368C23.5795 16.5 23.9547 16.4837 24.281 16.2961C24.6725 16.0677 24.8437 15.717 24.8437 15.1379C24.8437 14.2815 24.8437 13.4332 24.8437 12.5932Z" fill="#3A62FF"/>
<path d="M23.7671 18.1475C23.759 18.1475 23.7427 18.1475 23.7345 18.1475C23.4572 18.1475 23.188 18.2535 22.9841 18.4493C22.7721 18.6532 22.6497 18.9224 22.6416 19.216C22.6253 19.8277 23.0983 20.3415 23.6856 20.366C23.9873 20.3742 24.2728 20.2681 24.4849 20.0642C24.6969 19.8603 24.8193 19.583 24.8274 19.2894C24.8437 18.6614 24.3707 18.172 23.7671 18.1475Z" fill="#3A62FF"/>
</svg>
