<svg width="40" height="40" viewBox="0 0 40 40" fill="none" xmlns="http://www.w3.org/2000/svg">
<path d="M39.9997 20.0135C39.9794 31.054 30.966 40.0471 19.9661 39.9998C8.92563 39.9525 -0.0202357 30.9864 3.43789e-05 19.9865C0.0203045 8.94605 9.04049 -0.0471111 20.0336 0.000185707C31.0741 0.0474826 40.0199 9.01362 39.9997 20.0135ZM37.9997 20C37.9929 10.0879 29.9254 2.02044 20.0066 2.00017C10.1216 1.9799 2.04731 10.0406 2.00002 19.9865C1.95272 29.8513 10.1351 38.0336 20.0134 37.9998C29.9457 37.966 38.0064 29.8986 37.9997 20Z" fill="#3A62FF"/>
<path d="M21.0066 16.9595C21.0066 19.1419 21.0066 21.3243 21.0066 23.5135C21.0066 24.1081 20.7025 24.5135 20.2025 24.6081C19.608 24.7229 19.0674 24.3175 18.9999 23.7162C18.9931 23.6351 18.9931 23.5608 18.9931 23.4797C18.9931 19.1351 18.9931 14.7906 18.9931 10.446C18.9931 10.0271 19.1012 9.66226 19.4728 9.43253C20.1417 9.01362 20.9796 9.47307 20.9998 10.2771C21.0201 11.0677 21.0066 11.8514 21.0066 12.642C21.0066 14.0811 21.0066 15.5203 21.0066 16.9595Z" fill="#3A62FF"/>
<path d="M21.0066 28.7161C21.0066 29.2702 20.5539 29.7364 20.0066 29.7296C19.4526 29.7296 18.9931 29.2702 18.9999 28.7229C18.9999 28.1891 19.4526 27.7297 19.9863 27.7229C20.5336 27.7094 21.0066 28.1688 21.0066 28.7161Z" fill="#3A62FF"/>
</svg>
