<svg width="18" height="18" viewBox="0 0 18 18" fill="none" xmlns="http://www.w3.org/2000/svg">
<circle cx="9" cy="9" r="9" fill="#AEBCD1"/>
<path d="M9.2365 5.65688C8.54583 5.65688 7.97183 5.95554 7.5145 6.55288L6.5625 5.47487C6.82383 5.04554 7.20183 4.70021 7.6965 4.43888C8.19117 4.17754 8.73717 4.04688 9.3345 4.04688C10.2492 4.04688 10.9632 4.28488 11.4765 4.76088C12.0085 5.22754 12.2745 5.81088 12.2745 6.51088C12.2745 7.12688 12.1532 7.62621 11.9105 8.00887C11.6678 8.38221 11.3272 8.74621 10.8885 9.10087C10.8325 9.14754 10.7578 9.20821 10.6645 9.28288C10.5805 9.35754 10.5105 9.41821 10.4545 9.46488C10.4078 9.50221 10.3425 9.55821 10.2585 9.63288C10.1838 9.70754 10.1278 9.76821 10.0905 9.81487C10.0532 9.85221 10.0018 9.91288 9.9365 9.99688C9.8805 10.0715 9.84317 10.1369 9.8245 10.1929C9.80583 10.2489 9.77783 10.3235 9.7405 10.4169C9.7125 10.5102 9.70317 10.5942 9.7125 10.6689C9.73117 10.7435 9.7405 10.8369 9.7405 10.9489L8.2705 10.9629C8.2145 10.6175 8.20983 10.3142 8.2565 10.0529C8.3125 9.78221 8.42917 9.53954 8.6065 9.32487C8.79317 9.10087 8.9425 8.94221 9.0545 8.84888C9.17583 8.74621 9.36717 8.59688 9.6285 8.40088C10.2445 7.97154 10.5525 7.45821 10.5525 6.86087C10.5525 6.52488 10.4265 6.24021 10.1745 6.00688C9.9225 5.77354 9.60983 5.65688 9.2365 5.65688ZM7.9625 12.9509C7.9625 12.6802 8.06517 12.4422 8.2705 12.2369C8.48517 12.0222 8.75117 11.9149 9.0685 11.9149C9.35783 11.9149 9.6005 12.0222 9.7965 12.2369C10.0018 12.4422 10.1045 12.6802 10.1045 12.9509C10.1045 13.2589 10.0065 13.5249 9.8105 13.7489C9.6145 13.9635 9.36717 14.0709 9.0685 14.0709C8.75117 14.0709 8.48517 13.9635 8.2705 13.7489C8.06517 13.5249 7.9625 13.2589 7.9625 12.9509Z" fill="white"/>
</svg>
