<svg width="37" height="50" viewBox="0 0 37 50" fill="none" xmlns="http://www.w3.org/2000/svg">
<path d="M34.5936 39.4112C34.386 39.4112 34.2303 39.4112 34.0746 39.4112C24.4913 39.4112 14.908 39.4112 5.31596 39.4112C4.36455 39.4112 3.54287 39.6361 2.99797 40.4751C1.97736 42.0146 2.96337 44.0472 4.80566 44.2029C5.00459 44.2202 5.22082 44.2288 5.39381 44.3153C5.76572 44.4969 5.86086 44.8429 5.78302 45.2321C5.70518 45.604 5.38516 45.8116 4.9354 45.8116C3.1969 45.8116 1.55355 44.5402 1.13839 42.8363C1.0346 42.4211 1.00865 41.98 1.00865 41.5562C1 29.4473 1 17.3557 1 5.26407C1 3.30934 1.96006 1.83033 3.66396 1.24218C4.15697 1.07784 4.71052 1.00865 5.23812 1.00865C14.6744 1 24.1194 1 33.5557 1C35.2163 1 36.1937 1.96871 36.1937 3.63801C36.2023 16.8281 36.1937 30.0181 36.1937 43.1996C36.1937 44.7997 35.2077 45.803 33.6076 45.803C28.3921 45.8116 23.1766 45.8116 17.9525 45.803C17.3643 45.803 17.0962 45.6213 16.9924 45.1889C16.88 44.7132 17.1654 44.2721 17.6498 44.2115C17.8054 44.1942 17.9698 44.2029 18.1255 44.2029C23.2458 44.2029 28.3575 44.2029 33.4778 44.2029C34.3514 44.2029 34.5936 43.9693 34.5936 43.1131C34.5936 41.9022 34.5936 40.6913 34.5936 39.4112ZM34.5936 37.8024C34.5936 37.6295 34.5936 37.4997 34.5936 37.37C34.5936 26.126 34.5936 14.882 34.5936 3.63801C34.5936 2.85958 34.3341 2.60011 33.5557 2.60011C24.1021 2.60011 14.6485 2.60011 5.18622 2.60011C3.56017 2.60011 2.59146 3.57747 2.59146 5.22082C2.59146 16.188 2.59146 27.1553 2.59146 38.1311C2.59146 38.2695 2.59146 38.4079 2.59146 38.6328C3.63801 37.8197 4.77971 37.8024 5.94736 37.8024C15.2885 37.8111 24.6297 37.8111 33.9708 37.8111C34.1611 37.8024 34.3428 37.8024 34.5936 37.8024Z" fill="#3A62FF"/>
<path d="M9.11297 46.2008C9.64922 45.6559 10.1768 45.1024 10.7131 44.5661C11.1974 44.0818 11.6039 44.0904 12.0883 44.5748C12.6246 45.111 13.1435 45.6646 13.7576 46.296C13.7576 44.99 13.7576 43.8396 13.7576 42.6114C13.5673 42.6114 13.3857 42.6114 13.2127 42.6114C10.5487 42.6114 7.88478 42.6114 5.21217 42.6114C4.53753 42.6114 4.20886 42.3433 4.20021 41.8157C4.19156 41.3919 4.45969 41.0719 4.8835 41.0113C4.97864 40.994 5.08243 41.0027 5.18622 41.0027C14.1209 41.0027 23.0555 41.0027 31.9902 41.0027C32.6129 41.0027 32.907 41.2102 32.9762 41.6773C33.0454 42.1617 32.7772 42.5249 32.2842 42.5855C32.1026 42.6114 31.9123 42.6028 31.722 42.6028C26.4806 42.6028 21.2305 42.6028 15.9891 42.6028C15.8075 42.6028 15.6258 42.6028 15.3923 42.6028C15.3923 42.8017 15.3923 42.9574 15.3923 43.1131C15.3923 44.7305 15.3837 46.3392 15.3923 47.9566C15.3923 48.3718 15.3318 48.7437 14.8993 48.9253C14.4582 49.107 14.1382 48.8994 13.8268 48.588C13.0311 47.775 12.218 46.9793 11.3358 46.1057C10.9899 46.4776 10.6525 46.8495 10.3066 47.2128C9.80491 47.7318 9.29461 48.2334 8.77565 48.7437C8.51618 49.0032 8.19615 49.0637 7.85883 48.934C7.52151 48.8043 7.38313 48.5275 7.37448 48.1815C7.36583 47.1177 7.35718 46.0452 7.38313 44.9813C7.39178 44.4883 7.7118 44.2029 8.1875 44.2115C8.64591 44.2202 8.94864 44.5142 8.97458 45.0072C8.98323 45.2062 8.97458 45.4138 8.97458 45.6127C8.97458 45.7943 8.97458 45.976 8.97458 46.1576C9.03513 46.1662 9.07837 46.1835 9.11297 46.2008Z" fill="#3A62FF"/>
<path d="M23.7734 16.1621C23.0296 15.8507 22.329 15.5566 21.6284 15.2539C19.6304 14.4063 17.6411 14.3631 15.6345 15.2366C14.9166 15.548 14.1814 15.8334 13.4116 16.1448C13.8441 17.1222 14.2939 18.1341 14.7436 19.1461C15.1674 20.1061 15.6085 21.0575 16.0151 22.0263C16.1275 22.2944 16.1967 22.6144 16.1707 22.8998C15.9978 24.5259 15.2712 25.78 13.6625 26.3682C12.1143 26.939 10.2633 26.5152 9.24271 25.3649C8.56807 24.6037 8.24805 23.6869 8.2221 22.675C8.21345 22.4674 8.2913 22.2511 8.37779 22.0609C9.19081 20.2013 10.0125 18.3503 10.8342 16.4908C10.8947 16.361 10.938 16.2313 10.9726 16.1534C10.4277 15.8594 9.8914 15.6172 9.41569 15.2972C8.93134 14.9685 8.87079 14.5101 9.18217 14.1122C9.48489 13.723 9.88275 13.6884 10.3585 14.0171C11.5002 14.7955 12.6937 14.6917 13.9046 14.2333C14.8042 13.896 15.695 13.5327 16.6032 13.2127C16.9665 13.0916 17.3643 13.0657 17.8054 12.9878C17.8054 12.5035 17.8054 12.0018 17.8054 11.5088C17.8141 10.938 18.1255 10.5747 18.6012 10.5833C19.0682 10.592 19.371 10.938 19.3796 11.4829C19.3882 11.9845 19.3796 12.4862 19.3796 13.0138C19.7688 13.083 20.1494 13.1003 20.4953 13.2127C21.4035 13.5241 22.303 13.87 23.2026 14.2247C24.1107 14.5793 25.0275 14.7609 25.979 14.4495C26.299 14.3458 26.6017 14.1641 26.8958 13.9825C27.3109 13.7317 27.7347 13.7749 28.0115 14.1382C28.2969 14.5101 28.2797 14.9512 27.8645 15.2366C27.3628 15.5826 26.8093 15.8507 26.2211 16.1794C26.2471 16.2486 26.3076 16.387 26.3682 16.5254C27.1812 18.3676 28.0115 20.2013 28.8159 22.0522C28.9197 22.2944 28.9802 22.5798 28.9716 22.8393C28.911 24.4221 27.9164 25.8492 26.5671 26.3336C24.8978 26.939 23.0988 26.5671 22.0349 25.3649C21.3516 24.5951 21.0316 23.661 21.023 22.6317C21.023 22.4414 21.1008 22.2338 21.1786 22.0609C21.9744 20.2532 22.7787 18.4541 23.5745 16.6551C23.6437 16.4821 23.7129 16.3091 23.7734 16.1621ZM14.1641 21.7927C13.5068 20.3137 12.8754 18.8952 12.2094 17.3816C11.5348 18.9125 10.9034 20.331 10.2633 21.7927C11.5866 21.7927 12.8408 21.7927 14.1641 21.7927ZM23.0469 21.7841C24.3875 21.7841 25.633 21.7841 26.9477 21.7841C26.299 20.3224 25.6676 18.8952 24.9929 17.3816C24.3183 18.9125 23.6956 20.3224 23.0469 21.7841ZM14.4236 23.4361C12.9273 23.4361 11.4742 23.4361 10.0038 23.4361C10.1509 24.3356 10.9553 24.941 12.0191 25.0016C13.2559 25.0621 14.1468 24.4999 14.4236 23.4361ZM22.7701 23.4361C23.0555 24.4999 23.9118 25.0535 25.1313 25.0016C26.2125 24.9583 27.0342 24.3356 27.1898 23.4361C25.7281 23.4361 24.2664 23.4361 22.7701 23.4361Z" fill="#3A62FF"/>
<path d="M19.3969 28.2018C20.504 28.2018 21.5419 28.2018 22.5798 28.2018C22.969 28.2018 23.2458 28.3748 23.3755 28.7467C23.4966 29.1013 23.4188 29.4213 23.1161 29.6289C22.9517 29.7414 22.7182 29.7933 22.5106 29.8019C19.9159 29.8106 17.3211 29.8106 14.7263 29.8106C14.1209 29.8106 13.7749 29.4819 13.7922 28.9802C13.8095 28.5045 14.1728 28.2105 14.7523 28.2105C15.7556 28.2105 16.7589 28.2105 17.8141 28.2105C17.8141 28.0029 17.8141 27.8385 17.8141 27.6656C17.8141 24.154 17.8141 20.6337 17.8141 17.1222C17.8141 16.534 18.0649 16.2226 18.5493 16.1967C18.999 16.1707 19.3277 16.4389 19.3796 16.8886C19.3969 17.0443 19.3882 17.2086 19.3882 17.3643C19.3882 20.7894 19.3882 24.2232 19.3882 27.6483C19.3969 27.8126 19.3969 27.9856 19.3969 28.2018Z" fill="#3A62FF"/>
<path d="M34.5936 39.4112C34.386 39.4112 34.2303 39.4112 34.0746 39.4112C24.4913 39.4112 14.908 39.4112 5.31596 39.4112C4.36455 39.4112 3.54287 39.6361 2.99797 40.4751C1.97736 42.0146 2.96337 44.0472 4.80566 44.2029C5.00459 44.2202 5.22082 44.2288 5.39381 44.3153C5.76572 44.4969 5.86086 44.8429 5.78302 45.2321C5.70518 45.604 5.38516 45.8116 4.9354 45.8116C3.1969 45.8116 1.55355 44.5402 1.13839 42.8363C1.0346 42.4211 1.00865 41.98 1.00865 41.5562C1 29.4473 1 17.3557 1 5.26407C1 3.30934 1.96006 1.83033 3.66396 1.24218C4.15697 1.07784 4.71052 1.00865 5.23812 1.00865C14.6744 1 24.1194 1 33.5557 1C35.2163 1 36.1937 1.96871 36.1937 3.63801C36.2023 16.8281 36.1937 30.0181 36.1937 43.1996C36.1937 44.7997 35.2077 45.803 33.6076 45.803C28.3921 45.8116 23.1766 45.8116 17.9525 45.803C17.3643 45.803 17.0962 45.6213 16.9924 45.1889C16.88 44.7132 17.1654 44.2721 17.6498 44.2115C17.8054 44.1942 17.9698 44.2029 18.1255 44.2029C23.2458 44.2029 28.3575 44.2029 33.4778 44.2029C34.3514 44.2029 34.5936 43.9693 34.5936 43.1131C34.5936 41.9022 34.5936 40.6913 34.5936 39.4112ZM34.5936 37.8024C34.5936 37.6295 34.5936 37.4997 34.5936 37.37C34.5936 26.126 34.5936 14.882 34.5936 3.63801C34.5936 2.85958 34.3341 2.60011 33.5557 2.60011C24.1021 2.60011 14.6485 2.60011 5.18622 2.60011C3.56017 2.60011 2.59146 3.57747 2.59146 5.22082C2.59146 16.188 2.59146 27.1553 2.59146 38.1311C2.59146 38.2695 2.59146 38.4079 2.59146 38.6328C3.63801 37.8197 4.77971 37.8024 5.94736 37.8024C15.2885 37.8111 24.6297 37.8111 33.9708 37.8111C34.1611 37.8024 34.3428 37.8024 34.5936 37.8024Z" stroke="#3A62FF" stroke-width="0.5"/>
<path d="M9.11297 46.2008C9.64922 45.6559 10.1768 45.1024 10.7131 44.5661C11.1974 44.0818 11.6039 44.0904 12.0883 44.5748C12.6246 45.111 13.1435 45.6646 13.7576 46.296C13.7576 44.99 13.7576 43.8396 13.7576 42.6114C13.5673 42.6114 13.3857 42.6114 13.2127 42.6114C10.5487 42.6114 7.88478 42.6114 5.21217 42.6114C4.53753 42.6114 4.20886 42.3433 4.20021 41.8157C4.19156 41.3919 4.45969 41.0719 4.8835 41.0113C4.97864 40.994 5.08243 41.0027 5.18622 41.0027C14.1209 41.0027 23.0555 41.0027 31.9902 41.0027C32.6129 41.0027 32.907 41.2102 32.9762 41.6773C33.0454 42.1617 32.7772 42.5249 32.2842 42.5855C32.1026 42.6114 31.9123 42.6028 31.722 42.6028C26.4806 42.6028 21.2305 42.6028 15.9891 42.6028C15.8075 42.6028 15.6258 42.6028 15.3923 42.6028C15.3923 42.8017 15.3923 42.9574 15.3923 43.1131C15.3923 44.7305 15.3837 46.3392 15.3923 47.9566C15.3923 48.3718 15.3318 48.7437 14.8993 48.9253C14.4582 49.107 14.1382 48.8994 13.8268 48.588C13.0311 47.775 12.218 46.9793 11.3358 46.1057C10.9899 46.4776 10.6525 46.8495 10.3066 47.2128C9.80491 47.7318 9.29461 48.2334 8.77565 48.7437C8.51618 49.0032 8.19615 49.0637 7.85883 48.934C7.52151 48.8043 7.38313 48.5275 7.37448 48.1815C7.36583 47.1177 7.35718 46.0452 7.38313 44.9813C7.39178 44.4883 7.7118 44.2029 8.1875 44.2115C8.64591 44.2202 8.94864 44.5142 8.97458 45.0072C8.98323 45.2062 8.97458 45.4138 8.97458 45.6127C8.97458 45.7943 8.97458 45.976 8.97458 46.1576C9.03513 46.1662 9.07837 46.1835 9.11297 46.2008Z" stroke="#3A62FF" stroke-width="0.5"/>
<path d="M23.7734 16.1621C23.0296 15.8507 22.329 15.5566 21.6284 15.2539C19.6304 14.4063 17.6411 14.3631 15.6345 15.2366C14.9166 15.548 14.1814 15.8334 13.4116 16.1448C13.8441 17.1222 14.2939 18.1341 14.7436 19.1461C15.1674 20.1061 15.6085 21.0575 16.0151 22.0263C16.1275 22.2944 16.1967 22.6144 16.1707 22.8998C15.9978 24.5259 15.2712 25.78 13.6625 26.3682C12.1143 26.939 10.2633 26.5152 9.24271 25.3649C8.56807 24.6037 8.24805 23.6869 8.2221 22.675C8.21345 22.4674 8.2913 22.2511 8.37779 22.0609C9.19081 20.2013 10.0125 18.3503 10.8342 16.4908C10.8947 16.361 10.938 16.2313 10.9726 16.1534C10.4277 15.8594 9.8914 15.6172 9.41569 15.2972C8.93134 14.9685 8.87079 14.5101 9.18217 14.1122C9.48489 13.723 9.88275 13.6884 10.3585 14.0171C11.5002 14.7955 12.6937 14.6917 13.9046 14.2333C14.8042 13.896 15.695 13.5327 16.6032 13.2127C16.9665 13.0916 17.3643 13.0657 17.8054 12.9878C17.8054 12.5035 17.8054 12.0018 17.8054 11.5088C17.8141 10.938 18.1255 10.5747 18.6012 10.5833C19.0682 10.592 19.371 10.938 19.3796 11.4829C19.3882 11.9845 19.3796 12.4862 19.3796 13.0138C19.7688 13.083 20.1494 13.1003 20.4953 13.2127C21.4035 13.5241 22.303 13.87 23.2026 14.2247C24.1107 14.5793 25.0275 14.7609 25.979 14.4495C26.299 14.3458 26.6017 14.1641 26.8958 13.9825C27.3109 13.7317 27.7347 13.7749 28.0115 14.1382C28.2969 14.5101 28.2797 14.9512 27.8645 15.2366C27.3628 15.5826 26.8093 15.8507 26.2211 16.1794C26.2471 16.2486 26.3076 16.387 26.3682 16.5254C27.1812 18.3676 28.0115 20.2013 28.8159 22.0522C28.9197 22.2944 28.9802 22.5798 28.9716 22.8393C28.911 24.4221 27.9164 25.8492 26.5671 26.3336C24.8978 26.939 23.0988 26.5671 22.0349 25.3649C21.3516 24.5951 21.0316 23.661 21.023 22.6317C21.023 22.4414 21.1008 22.2338 21.1786 22.0609C21.9744 20.2532 22.7787 18.4541 23.5745 16.6551C23.6437 16.4821 23.7129 16.3091 23.7734 16.1621ZM14.1641 21.7927C13.5068 20.3137 12.8754 18.8952 12.2094 17.3816C11.5348 18.9125 10.9034 20.331 10.2633 21.7927C11.5866 21.7927 12.8408 21.7927 14.1641 21.7927ZM23.0469 21.7841C24.3875 21.7841 25.633 21.7841 26.9477 21.7841C26.299 20.3224 25.6676 18.8952 24.9929 17.3816C24.3183 18.9125 23.6956 20.3224 23.0469 21.7841ZM14.4236 23.4361C12.9273 23.4361 11.4742 23.4361 10.0038 23.4361C10.1509 24.3356 10.9553 24.941 12.0191 25.0016C13.2559 25.0621 14.1468 24.4999 14.4236 23.4361ZM22.7701 23.4361C23.0555 24.4999 23.9118 25.0535 25.1313 25.0016C26.2125 24.9583 27.0342 24.3356 27.1898 23.4361C25.7281 23.4361 24.2664 23.4361 22.7701 23.4361Z" stroke="#3A62FF" stroke-width="0.5"/>
<path d="M19.3969 28.2018C20.504 28.2018 21.5419 28.2018 22.5798 28.2018C22.969 28.2018 23.2458 28.3748 23.3755 28.7467C23.4966 29.1013 23.4188 29.4213 23.1161 29.6289C22.9517 29.7414 22.7182 29.7933 22.5106 29.8019C19.9159 29.8106 17.3211 29.8106 14.7263 29.8106C14.1209 29.8106 13.7749 29.4819 13.7922 28.9802C13.8095 28.5045 14.1728 28.2105 14.7523 28.2105C15.7556 28.2105 16.7589 28.2105 17.8141 28.2105C17.8141 28.0029 17.8141 27.8385 17.8141 27.6656C17.8141 24.154 17.8141 20.6337 17.8141 17.1222C17.8141 16.534 18.0649 16.2226 18.5493 16.1967C18.999 16.1707 19.3277 16.4389 19.3796 16.8886C19.3969 17.0443 19.3882 17.2086 19.3882 17.3643C19.3882 20.7894 19.3882 24.2232 19.3882 27.6483C19.3969 27.8126 19.3969 27.9856 19.3969 28.2018Z" stroke="#3A62FF" stroke-width="0.5"/>
</svg>
