<svg width="49" height="50" viewBox="0 0 49 50" fill="none" xmlns="http://www.w3.org/2000/svg">
<path d="M36.1785 22.3087C37.5226 21.8221 38.7625 21.8105 39.9675 22.4246C42.2502 23.5833 43.1656 25.9123 42.3197 28.334C41.6245 30.3154 41.1842 32.3432 41.2885 34.4636C41.4159 37.036 42.2965 39.2375 44.4981 40.767C44.7067 40.9061 44.8457 41.2653 44.8689 41.5202C44.9152 42.2038 44.8805 42.8991 44.8805 43.5248C45.5178 43.7449 46.1435 43.8608 46.6649 44.1505C47.5803 44.6603 48.0785 45.4946 48.1249 46.5606C48.148 47.1747 48.1365 47.8004 48.148 48.4145C48.1596 48.8201 48.009 49.0402 47.5687 48.9939C47.4528 48.9823 47.3369 48.9939 47.2211 48.9939C32.123 48.9939 17.0134 48.9939 1.91538 48.9939C1 48.9939 1 48.9939 1 48.0669C1 32.6908 1 17.3263 1 1.95014C1 1.02317 1 1.01159 1.91538 1.01159C9.93368 1.01159 17.9404 1.01159 25.9587 1C26.3758 1 26.6771 1.0927 26.9783 1.40555C29.8867 4.33709 32.8067 7.25705 35.7498 10.177C36.0627 10.4899 36.1785 10.8143 36.1785 11.2546C36.1669 14.7076 36.1669 18.1721 36.1669 21.6251C36.1785 21.8105 36.1785 22.0191 36.1785 22.3087ZM1.78792 48.2176C10.4783 48.2176 19.1223 48.2176 27.8474 48.2176C27.6041 45.7495 28.1834 43.8492 31.0454 43.6175C31.2077 42.9918 30.7673 43.1192 30.4777 43.1192C22.1697 43.1192 16.4225 43.1192 8.1145 43.1076C7.79006 43.1076 7.25705 43.3046 7.25705 42.7369C7.25705 42.1691 7.79006 42.3661 8.1145 42.3661C16.3761 42.3545 22.1002 42.3545 30.3618 42.3545C30.5819 42.3545 30.8137 42.3545 31.0918 42.3545C31.0918 42.03 31.0454 41.7519 31.1034 41.497C31.1729 41.2305 31.2772 40.8829 31.4857 40.7439C33.6989 39.2144 34.5795 37.0244 34.6838 34.4405C34.7649 32.4359 34.4057 30.4777 33.7336 28.589C32.9341 26.3411 33.3281 24.4292 35.1936 22.8649C35.3443 22.7375 35.4254 22.4362 35.4254 22.216C35.437 18.7051 35.437 15.1826 35.437 11.6717C35.437 11.4979 35.4138 11.3357 35.4022 11.104C35.1589 11.104 34.9503 11.104 34.7417 11.104C32.0999 11.104 29.4464 11.104 26.8045 11.104C26.0977 11.104 26.0514 11.0576 26.0514 10.3508C26.0514 7.72054 26.0514 5.10184 26.0514 2.47157C26.0514 2.23982 26.0514 2.01967 26.0514 1.77634C17.9288 1.77634 9.86416 1.77634 1.79951 1.77634C1.78792 17.2567 1.78792 32.714 1.78792 48.2176ZM44.1737 43.6406C44.1737 42.9802 44.1968 42.3892 44.1621 41.7983C44.1505 41.5897 44.0114 41.3232 43.8376 41.2074C41.7172 39.6547 40.7902 37.4879 40.5932 34.9503C40.4194 32.6676 40.8481 30.4545 41.5781 28.2993C41.8562 27.4766 42.0184 26.6539 41.8099 25.7965C41.2885 23.5486 39.0521 22.216 36.8969 22.8533C34.6838 23.5022 33.5483 25.7965 34.3246 28.0096C34.9966 29.9562 35.4485 31.9492 35.4254 34.0117C35.3906 36.9085 34.5795 39.4461 32.0999 41.2189C31.984 41.3 31.8334 41.4391 31.8334 41.555C31.8102 42.2386 31.8218 42.9338 31.8218 43.6291C35.9584 43.6406 40.0255 43.6406 44.1737 43.6406ZM47.418 48.2176C47.418 47.673 47.4296 47.1747 47.418 46.6765C47.3833 45.4135 46.4331 44.4517 45.1586 44.4402C40.3847 44.4286 35.6223 44.4286 30.8485 44.4402C29.655 44.4402 28.728 45.2397 28.5774 46.41C28.4963 46.9893 28.5658 47.5919 28.5658 48.2176C34.846 48.2176 41.0915 48.2176 47.418 48.2176ZM34.5332 10.3624C31.984 7.81323 29.3537 5.18295 26.8277 2.65696C26.8277 5.09026 26.8277 7.72054 26.8277 10.3624C29.4928 10.3624 32.1115 10.3624 34.5332 10.3624Z" fill="#3A62FF"/>
<path d="M18.4502 31.0107C14.1862 31.0107 12.4713 31.0107 8.19561 31.0107C8.10291 31.0107 7.99863 31.0107 7.90593 31.0107C7.60467 30.9875 7.18753 31.0338 7.23388 30.6051C7.25705 30.4429 7.68577 30.2227 7.9291 30.2227C10.5941 30.1996 10.71 30.2343 13.3751 30.2343C19.1107 30.2343 22.2971 30.2343 28.0212 30.2343C28.4036 30.2343 28.7975 30.1996 29.1683 30.2459C29.319 30.2691 29.6086 30.2459 29.5855 30.6283C29.5623 31.0107 29.3074 30.9759 29.1451 30.9875C28.6469 31.0338 28.1487 30.9991 27.6388 30.9991C26.8709 30.9991 18.4502 30.9902 18.4502 31.0107Z" fill="#3A62FF"/>
<path d="M18.3923 24.9043C14.1398 24.9043 12.4481 24.9043 8.19561 24.9043C8.0218 24.9043 7.83641 24.9506 7.67419 24.8927C7.50038 24.8347 7.2107 24.8927 7.2107 24.5682C7.2107 24.2438 7.51197 24.2785 7.68578 24.1859C7.79006 24.1279 7.95228 24.1743 8.09132 24.1743C16.6658 24.1743 20.1419 24.1743 28.7164 24.1859C29.0409 24.1859 29.5855 24.0005 29.5739 24.5566C29.5739 25.1244 29.0177 24.9043 28.7048 24.9043C24.4176 24.9158 22.6795 24.9043 18.3923 24.9043Z" fill="#3A62FF"/>
<path d="M18.3923 18.8789C14.1398 18.8789 12.4481 18.8789 8.19561 18.8789C8.0218 18.8789 7.83641 18.9253 7.67419 18.8674C7.50038 18.8094 7.2107 18.8789 7.2107 18.5429C7.2107 18.2069 7.51197 18.2532 7.68578 18.1605C7.79006 18.1026 7.95228 18.149 8.09132 18.149C16.6658 18.149 20.1419 18.149 28.7164 18.1605C29.0409 18.1605 29.5855 17.9751 29.5739 18.5313C29.5739 19.0991 29.0177 18.8789 28.7048 18.8789C24.4176 18.8905 22.6795 18.8789 18.3923 18.8789Z" fill="#3A62FF"/>
<path d="M18.3923 36.3176C22.6795 36.3176 24.4176 36.3176 28.7048 36.3176C28.8786 36.3176 29.0756 36.2712 29.2263 36.3292C29.3769 36.3871 29.6086 36.3292 29.6086 36.6768C29.6086 37.0244 29.3885 36.9549 29.2378 37.0244C29.1104 37.0823 28.9366 37.0476 28.7859 37.0476C20.1767 37.0476 16.6658 37.0476 8.04498 37.0476C7.9291 37.0476 7.79006 37.0939 7.69736 37.036C7.52355 36.9317 7.2107 37.036 7.22229 36.6536C7.23388 36.2712 7.51197 36.3987 7.68578 36.3292C7.82482 36.2712 7.98704 36.3176 8.14926 36.3176C12.4133 36.3176 14.1282 36.3176 18.3923 36.3176Z" fill="#3A62FF"/>
<path d="M12.8884 7.63943C15.3565 7.63943 17.8245 7.63943 20.3042 7.63943C20.478 7.63943 20.6634 7.60467 20.8256 7.6626C20.9646 7.70895 21.1616 7.89434 21.1384 7.98704C21.1153 8.13767 20.9646 8.29989 20.8256 8.381C20.7097 8.45053 20.5243 8.40418 20.3737 8.40418C15.4144 8.40418 13.0043 8.40418 8.04498 8.40418C7.98704 8.40418 7.9291 8.40418 7.87117 8.40418C7.5699 8.40418 7.2107 8.39259 7.25705 7.99863C7.26864 7.85958 7.65101 7.6626 7.85958 7.6626C10.3856 7.62784 10.3624 7.63943 12.8884 7.63943Z" fill="#3A62FF"/>
<path d="M12.9463 12.367C10.4551 12.367 10.513 12.367 8.03339 12.367C7.88276 12.367 7.69736 12.4133 7.58149 12.3438C7.43086 12.2627 7.29181 12.1121 7.24546 11.9614C7.22229 11.8919 7.44245 11.7181 7.5699 11.6602C7.68578 11.6022 7.83641 11.637 7.97545 11.637C12.9695 11.637 15.426 11.637 20.42 11.637C20.5707 11.637 20.7445 11.6138 20.8719 11.6602C20.9878 11.7065 21.15 11.8687 21.15 11.9614C21.1384 12.1005 21.011 12.2743 20.8835 12.3322C20.7445 12.4017 20.5475 12.367 20.3737 12.367C17.894 12.367 15.426 12.367 12.9463 12.367Z" fill="#3A62FF"/>
<path d="M36.1785 22.3087C37.5226 21.8221 38.7625 21.8105 39.9675 22.4246C42.2502 23.5833 43.1656 25.9123 42.3197 28.334C41.6245 30.3154 41.1842 32.3432 41.2885 34.4636C41.4159 37.036 42.2965 39.2375 44.4981 40.767C44.7067 40.9061 44.8457 41.2653 44.8689 41.5202C44.9152 42.2038 44.8805 42.8991 44.8805 43.5248C45.5178 43.7449 46.1435 43.8608 46.6649 44.1505C47.5803 44.6603 48.0785 45.4946 48.1249 46.5606C48.148 47.1747 48.1365 47.8004 48.148 48.4145C48.1596 48.8201 48.009 49.0402 47.5687 48.9939C47.4528 48.9823 47.3369 48.9939 47.2211 48.9939C32.123 48.9939 17.0134 48.9939 1.91538 48.9939C1 48.9939 1 48.9939 1 48.0669C1 32.6908 1 17.3263 1 1.95014C1 1.02317 1 1.01159 1.91538 1.01159C9.93368 1.01159 17.9404 1.01159 25.9587 1C26.3758 1 26.6771 1.0927 26.9783 1.40555C29.8867 4.33709 32.8067 7.25705 35.7498 10.177C36.0627 10.4899 36.1785 10.8143 36.1785 11.2546C36.1669 14.7076 36.1669 18.1721 36.1669 21.6251C36.1785 21.8105 36.1785 22.0191 36.1785 22.3087ZM1.78792 48.2176C10.4783 48.2176 19.1223 48.2176 27.8474 48.2176C27.6041 45.7495 28.1834 43.8492 31.0454 43.6175C31.2077 42.9918 30.7673 43.1192 30.4777 43.1192C22.1697 43.1192 16.4225 43.1192 8.1145 43.1076C7.79006 43.1076 7.25705 43.3046 7.25705 42.7369C7.25705 42.1691 7.79006 42.3661 8.1145 42.3661C16.3761 42.3545 22.1002 42.3545 30.3618 42.3545C30.5819 42.3545 30.8137 42.3545 31.0918 42.3545C31.0918 42.03 31.0454 41.7519 31.1034 41.497C31.1729 41.2305 31.2772 40.8829 31.4857 40.7439C33.6989 39.2144 34.5795 37.0244 34.6838 34.4405C34.7649 32.4359 34.4057 30.4777 33.7336 28.589C32.9341 26.3411 33.3281 24.4292 35.1936 22.8649C35.3443 22.7375 35.4254 22.4362 35.4254 22.216C35.437 18.7051 35.437 15.1826 35.437 11.6717C35.437 11.4979 35.4138 11.3357 35.4022 11.104C35.1589 11.104 34.9503 11.104 34.7417 11.104C32.0999 11.104 29.4464 11.104 26.8045 11.104C26.0977 11.104 26.0514 11.0576 26.0514 10.3508C26.0514 7.72054 26.0514 5.10184 26.0514 2.47157C26.0514 2.23982 26.0514 2.01967 26.0514 1.77634C17.9288 1.77634 9.86416 1.77634 1.79951 1.77634C1.78792 17.2567 1.78792 32.714 1.78792 48.2176ZM44.1737 43.6406C44.1737 42.9802 44.1968 42.3892 44.1621 41.7983C44.1505 41.5897 44.0114 41.3232 43.8376 41.2074C41.7172 39.6547 40.7902 37.4879 40.5932 34.9503C40.4194 32.6676 40.8481 30.4545 41.5781 28.2993C41.8562 27.4766 42.0184 26.6539 41.8099 25.7965C41.2885 23.5486 39.0521 22.216 36.8969 22.8533C34.6838 23.5022 33.5483 25.7965 34.3246 28.0096C34.9966 29.9562 35.4485 31.9492 35.4254 34.0117C35.3906 36.9085 34.5795 39.4461 32.0999 41.2189C31.984 41.3 31.8334 41.4391 31.8334 41.555C31.8102 42.2386 31.8218 42.9338 31.8218 43.6291C35.9584 43.6406 40.0255 43.6406 44.1737 43.6406ZM47.418 48.2176C47.418 47.673 47.4296 47.1747 47.418 46.6765C47.3833 45.4135 46.4331 44.4517 45.1586 44.4402C40.3847 44.4286 35.6223 44.4286 30.8485 44.4402C29.655 44.4402 28.728 45.2397 28.5774 46.41C28.4963 46.9893 28.5658 47.5919 28.5658 48.2176C34.846 48.2176 41.0915 48.2176 47.418 48.2176ZM34.5332 10.3624C31.984 7.81323 29.3537 5.18295 26.8277 2.65696C26.8277 5.09026 26.8277 7.72054 26.8277 10.3624C29.4928 10.3624 32.1115 10.3624 34.5332 10.3624Z" stroke="#3A62FF" stroke-width="1.5"/>
<path d="M18.4502 31.0107C14.1862 31.0107 12.4713 31.0107 8.19561 31.0107C8.10291 31.0107 7.99863 31.0107 7.90593 31.0107C7.60467 30.9875 7.18753 31.0338 7.23388 30.6051C7.25705 30.4429 7.68577 30.2227 7.9291 30.2227C10.5941 30.1996 10.71 30.2343 13.3751 30.2343C19.1107 30.2343 22.2971 30.2343 28.0212 30.2343C28.4036 30.2343 28.7975 30.1996 29.1683 30.2459C29.319 30.2691 29.6086 30.2459 29.5855 30.6283C29.5623 31.0107 29.3074 30.9759 29.1451 30.9875C28.6469 31.0338 28.1487 30.9991 27.6388 30.9991C26.8709 30.9991 18.4502 30.9902 18.4502 31.0107Z" stroke="#3A62FF" stroke-width="1.5"/>
<path d="M18.3923 24.9043C14.1398 24.9043 12.4481 24.9043 8.19561 24.9043C8.0218 24.9043 7.83641 24.9506 7.67419 24.8927C7.50038 24.8347 7.2107 24.8927 7.2107 24.5682C7.2107 24.2438 7.51197 24.2785 7.68578 24.1859C7.79006 24.1279 7.95228 24.1743 8.09132 24.1743C16.6658 24.1743 20.1419 24.1743 28.7164 24.1859C29.0409 24.1859 29.5855 24.0005 29.5739 24.5566C29.5739 25.1244 29.0177 24.9043 28.7048 24.9043C24.4176 24.9158 22.6795 24.9043 18.3923 24.9043Z" stroke="#3A62FF" stroke-width="1.5"/>
<path d="M18.3923 18.8789C14.1398 18.8789 12.4481 18.8789 8.19561 18.8789C8.0218 18.8789 7.83641 18.9253 7.67419 18.8674C7.50038 18.8094 7.2107 18.8789 7.2107 18.5429C7.2107 18.2069 7.51197 18.2532 7.68578 18.1605C7.79006 18.1026 7.95228 18.149 8.09132 18.149C16.6658 18.149 20.1419 18.149 28.7164 18.1605C29.0409 18.1605 29.5855 17.9751 29.5739 18.5313C29.5739 19.0991 29.0177 18.8789 28.7048 18.8789C24.4176 18.8905 22.6795 18.8789 18.3923 18.8789Z" stroke="#3A62FF" stroke-width="1.5"/>
<path d="M18.3923 36.3176C22.6795 36.3176 24.4176 36.3176 28.7048 36.3176C28.8786 36.3176 29.0756 36.2712 29.2263 36.3292C29.3769 36.3871 29.6086 36.3292 29.6086 36.6768C29.6086 37.0244 29.3885 36.9549 29.2378 37.0244C29.1104 37.0823 28.9366 37.0476 28.7859 37.0476C20.1767 37.0476 16.6658 37.0476 8.04498 37.0476C7.9291 37.0476 7.79006 37.0939 7.69736 37.036C7.52355 36.9317 7.2107 37.036 7.22229 36.6536C7.23388 36.2712 7.51197 36.3987 7.68578 36.3292C7.82482 36.2712 7.98704 36.3176 8.14926 36.3176C12.4133 36.3176 14.1282 36.3176 18.3923 36.3176Z" stroke="#3A62FF" stroke-width="1.5"/>
<path d="M12.8884 7.63943C15.3565 7.63943 17.8245 7.63943 20.3042 7.63943C20.478 7.63943 20.6634 7.60467 20.8256 7.6626C20.9646 7.70895 21.1616 7.89434 21.1384 7.98704C21.1153 8.13767 20.9646 8.29989 20.8256 8.381C20.7097 8.45053 20.5243 8.40418 20.3737 8.40418C15.4144 8.40418 13.0043 8.40418 8.04498 8.40418C7.98704 8.40418 7.9291 8.40418 7.87117 8.40418C7.5699 8.40418 7.2107 8.39259 7.25705 7.99863C7.26864 7.85958 7.65101 7.6626 7.85958 7.6626C10.3856 7.62784 10.3624 7.63943 12.8884 7.63943Z" stroke="#3A62FF" stroke-width="1.5"/>
<path d="M12.9463 12.367C10.4551 12.367 10.513 12.367 8.03339 12.367C7.88276 12.367 7.69736 12.4133 7.58149 12.3438C7.43086 12.2627 7.29181 12.1121 7.24546 11.9614C7.22229 11.8919 7.44245 11.7181 7.5699 11.6602C7.68578 11.6022 7.83641 11.637 7.97545 11.637C12.9695 11.637 15.426 11.637 20.42 11.637C20.5707 11.637 20.7445 11.6138 20.8719 11.6602C20.9878 11.7065 21.15 11.8687 21.15 11.9614C21.1384 12.1005 21.011 12.2743 20.8835 12.3322C20.7445 12.4017 20.5475 12.367 20.3737 12.367C17.894 12.367 15.426 12.367 12.9463 12.367Z" stroke="#3A62FF" stroke-width="1.5"/>
</svg>
