<svg width="28" height="30" viewBox="0 0 28 30" fill="none" xmlns="http://www.w3.org/2000/svg">
<path d="M24.6997 2.8527C23.9685 2.18099 21.0214 0.0473406 14.4533 0.0209992C14.4533 0.0209992 6.70906 -0.444365 2.93384 3.00635C0.832586 5.10049 0.0969251 8.16487 0.0176324 11.9624C-0.0616604 15.76 -0.162979 22.8853 6.72668 24.8126H6.73549L6.73109 27.7585C6.73109 27.7585 6.68704 28.9526 7.47556 29.1941C8.42707 29.4882 8.98653 28.5838 9.89839 27.6048C10.3962 27.0692 11.0878 26.279 11.6076 25.6775C16.3167 26.0726 19.9421 25.1682 20.3518 25.0365C21.3033 24.7292 26.6864 24.0399 27.5587 16.9234C28.4617 9.58731 27.1181 4.94684 24.6997 2.8527ZM25.497 16.3966C24.757 22.3453 20.3915 22.7185 19.5853 22.9775C19.2417 23.0873 16.0612 23.8775 12.0613 23.6141C12.0613 23.6141 9.07903 27.2009 8.14955 28.1316C8.00418 28.2765 7.83238 28.3336 7.71784 28.3072C7.55926 28.2677 7.5152 28.0789 7.5152 27.8024C7.51961 27.4072 7.54163 22.9073 7.54163 22.9073C1.71362 21.296 2.05722 15.2331 2.1233 12.059C2.18937 8.88487 2.78847 6.28585 4.56375 4.53854C7.75749 1.65855 14.3344 2.0888 14.3344 2.0888C19.8893 2.11075 22.55 3.77464 23.1667 4.33659C25.2151 6.0839 26.2591 10.2678 25.497 16.3966Z" fill="white"/>
<path d="M14.9549 9.14335C14.7479 9.13017 14.5761 9.28822 14.5629 9.49456C14.554 9.69651 14.7082 9.87212 14.9153 9.88529C16.1267 9.94676 16.7214 10.5614 16.7831 11.8214C16.7919 12.0189 16.9549 12.1726 17.1531 12.1726C17.1575 12.1726 17.1663 12.1726 17.1707 12.1726C17.3734 12.1638 17.532 11.9882 17.5232 11.7863C17.4439 10.1355 16.5584 9.22676 14.9549 9.14335Z" fill="white"/>
<path d="M19.0535 12.8048C19.0579 12.8048 19.0579 12.8048 19.0623 12.8048C19.2649 12.8048 19.4279 12.6424 19.4323 12.4448C19.4632 11.0005 19.0271 9.77559 18.1284 8.79657C17.2342 7.82194 15.9787 7.27316 14.3973 7.15901C14.1946 7.14584 14.014 7.29511 14.0008 7.50145C13.9876 7.7034 14.1374 7.8834 14.3444 7.89657C15.7496 7.99754 16.8069 8.45852 17.5778 9.29705C18.3531 10.14 18.7143 11.1629 18.6879 12.4273C18.6879 12.6292 18.8509 12.8005 19.0535 12.8048Z" fill="white"/>
<path d="M13.7221 5.23633C13.5151 5.23633 13.3477 5.39877 13.3477 5.60511C13.3477 5.81145 13.5106 5.97827 13.7177 5.97827C15.6736 5.99145 17.3343 6.64559 18.6427 7.91875C19.951 9.19191 20.625 10.9656 20.6426 13.2002C20.6426 13.4021 20.81 13.569 21.0126 13.569C21.0126 13.569 21.0126 13.569 21.017 13.569C21.2241 13.569 21.3871 13.4021 21.3871 13.1958C21.3651 10.7548 20.6162 8.80118 19.1625 7.38753C17.7088 5.97388 15.8762 5.2495 13.7221 5.23633Z" fill="white"/>
<path d="M20.5154 17.4327C20.511 17.4327 19.6652 16.7259 19.2511 16.4229C18.8106 16.1112 18.3569 15.8215 17.8899 15.558C17.2644 15.2112 16.6257 15.4263 16.3614 15.7688L15.8151 16.4537C15.5332 16.8005 15.0134 16.7566 15.0134 16.7566C11.1985 15.7863 10.1765 11.9317 10.1765 11.9317C10.1765 11.9317 10.1325 11.4137 10.4805 11.1327L11.1677 10.5883C11.5113 10.3249 11.7271 9.68831 11.3791 9.0649C11.1104 8.59954 10.8241 8.14295 10.5113 7.70832C10.2074 7.29564 9.50253 6.44833 9.49813 6.44833C9.15893 6.04881 8.65674 5.95223 8.12812 6.22881C8.12372 6.22881 8.11931 6.2332 8.11491 6.2332C7.59069 6.53613 7.11494 6.91808 6.70966 7.37027C6.70526 7.37466 6.70526 7.37466 6.70085 7.37905C6.37487 7.76978 6.18545 8.15612 6.1414 8.53368C6.13259 8.59076 6.12818 8.64783 6.13259 8.70051C6.13259 8.86734 6.15461 9.03417 6.20748 9.19222L6.2251 9.20539C6.38809 9.78929 6.80217 10.7595 7.69642 12.3795C8.20742 13.3146 8.80211 14.2059 9.46288 15.0444C9.79327 15.4659 10.1501 15.8654 10.5289 16.2429C10.5421 16.2561 10.5554 16.2693 10.5686 16.2824L10.6082 16.3219L10.6479 16.3615L10.6875 16.401C11.0664 16.7785 11.4716 17.1341 11.8901 17.4634C12.7315 18.1263 13.6258 18.7146 14.5641 19.2239C16.1896 20.1151 17.1631 20.5278 17.749 20.6902L17.7622 20.7078C17.9208 20.7605 18.0882 20.7868 18.2556 20.7824C18.3128 20.7868 18.3701 20.7824 18.423 20.7736C18.8018 20.7297 19.1895 20.541 19.5815 20.2161C19.5859 20.2117 19.5859 20.2117 19.5903 20.2073C20.0441 19.8034 20.4273 19.3336 20.7313 18.8068C20.7313 18.8024 20.7357 18.798 20.7357 18.7936C21.0132 18.2712 20.9207 17.7707 20.5154 17.4327Z" fill="white"/>
</svg>
